<svg xmlns="http://www.w3.org/2000/svg" viewBox="0 0 991 964"><defs><style>.cls-1{fill:#656765}.cls-2{fill:#fcfaf2}</style></defs><g id="レイヤー_2" data-name="レイヤー 2"><g id="レイヤー_1-2" data-name="レイヤー 1"><circle class="cls-1" cx="481" cy="496" r="430"/><path class="cls-1" d="M845 160c-2-1-5-2-6-4l-9-8-7-5-7-6-7-6-17-12v2l-1-1a10 10 0 0 0-1-2l-15-10-3-3-4-2-7-5c-3-2-7-3-8-7l-3-2a65 65 0 0 1-6-2l-8-5-4-2-5-2a50 50 0 0 1-9-5l-5-4-6-3-11-6-3-2h-1l-2-1 1-1 5 2 4 2 9 5 4 2 5 3 9 5 1-3-7-4v-2c4 0 8 5 12 6l4 2 3 2 7 4 6 4 3 2 3 3 13 8 1-1-11-8-4-3-4-3a151 151 0 0 0-17-11l-9-5-9-4-2-1-2-1-4-2-12-7a23 23 0 0 0-3-1 7 7 0 0 1-3-1 34 34 0 0 0-10-7l-6-2-5-2-20-8-20-6-6-2c-6 1-10-1-15-4l-6-3-3 3h-2l-1-3c-3-1-9-4-10-3a8 8 0 0 1-6 0h-3a13 13 0 0 0-2-1 26 26 0 0 1-6-1l-9-3-1 2 2 1a9 9 0 0 1 0 3l-3-2-4 1 2-6-9-1-10-1-10-1-10-1 8 5 9 1 10 2 1 3-26-2-13-1h-13l-2 1 5 1-1 1h-20l-19 1v3a11 11 0 0 1-3 1l-3 1c2-5 2-5-4-5l-9 1-9-1h-15a173 173 0 0 0-11 2l-4 1a64 64 0 0 0-6 3l-6-4 4-5-11 1c3 3 7 4 0 6l8 4-9 3-11 2-6 1-5 1-16 3v3l-4-2-2 4a22 22 0 0 1-5-1c-3-1-5 0-8 2h6l-12 5-9 3-8 4-8 3-9 3-11 3-5 3-6 2-10 7 6-1-5 3-6 4v2a7 7 0 0 0 2-1l7-4 14-8 4-2 4-1 7-4 6-3 6-2a523 523 0 0 1 17-7l2-1 3-1a151 151 0 0 0 16-5l5-2 12-4 6-2 3-1 3-1 12-3 7-2h3l3-1 13-2 18-3 9-1 3-1h7a14 14 0 0 1 3 0 10 10 0 0 1-5 2l-4 1c-2 4-7 3-11 5l-8 4-14 2-14 2c-3 1-6 2-8 1-5-2-11 1-16 2a82 82 0 0 0-12 5l-6 2c-2 0-4 2-5 3l-7 6-2-2-7 2-4 2-3 1-14 6-4 1-3 1-7 4-7 3-7 3v-1l8-5-4 1a25 25 0 0 1-2 1l-2 2a46 46 0 0 1-5 3l-9 4-4 2-4 3-6 5-6 4-2 2-3 2-10 8-2 2-3 2-3 2-7 5-6 4-3 3-3 2-4-2-6 9a46 46 0 0 1-4 4 35 35 0 0 1-5 4 77 77 0 0 0-8 7l-4 4-4 4a7 7 0 0 1-4 2c-5 0-7 1-8 7a10 10 0 0 1-1 2 12 12 0 0 1-1 2 24 24 0 0 1-3 4 322 322 0 0 0-23 27l-4 5-4 5c-1-2-1-4 3-6l1-3-4-2-12 17a6 6 0 0 0-1 3l-1 10c0 2-2 3-3 5l-2 3-2 4-3 5a400 400 0 0 1-6 12l-1 2-3 5h-1l1-3h-1l-5 9a89 89 0 0 0-3 7l-2 8-3 7a76 76 0 0 1-4 7 47 47 0 0 0-4 8l-3 11-4 4a23 23 0 0 1 1-6l2-5c2-4 4-8 4-12l-4 4h-1l4-9-2-1c-5 4-2 12-9 14a5 5 0 0 1 0 2l-3 11-3 12a2 2 0 0 1-1 1 13 13 0 0 0-4 6l-1 7-3 10-2 10-3 10-2 5-2 4c-1 1-2 4-1 6a28 28 0 0 1-1 10l-2 5-1 5v5c2 3 1 6 0 9l-1 8-2 14v14l-1 13v24l-1-3-1-3h-1v29l1 10h-1l-1-10-1-10v-10l-1-5v-5H7l-1 6-1 7-1 12 2 5v5l-1-2-1 1 1 5a18 18 0 0 1 1 3c-3 2-1 5 1 7l-2 2v4l1 5a4091 4091 0 0 0 6 19c-4 3-1 7 0 11 0 2 2 3 3 4l1 6a47 47 0 0 0 0 6 116 116 0 0 0 4 12l1 6 3 5 4 11c0 3-1 5 2 7l2 4 4 13h1l-1-11c4 9 4 12 2 14a46 46 0 0 0 1 5c3 6 5 13 10 18l5 8c1 5 2 8 5 10a72 72 0 0 0 3 8l12 18 7 12 1 2 2 3a36 36 0 0 0 5 4 9 9 0 0 1 2 2l8 13 7 9 4 4 5 5 8 10 6 5 7 9 4 4 4 4 19 15 7 6 3 3 4 3 14 11a375 375 0 0 0 19 11 61 61 0 0 1 7 4l7 4a78 78 0 0 0 7 4 89 89 0 0 0 15 7l4 1 10 5c3 1 6 3 10 3a2 2 0 0 1 1 1 26 26 0 0 0 10 5l11 3 12 4 7 1 6 2 8 3 8 2 16 3 7 1 6 1 7 1 3 1h3c10 1 19 2 28 1h12l5-1h6l-1-1-5-1-6-1h3l3-1 6-1a196 196 0 0 0 13-3l3-1 5-1 10-4h2a8 8 0 0 0 3-2 6 6 0 0 0 2-2 5 5 0 0 0-1-6l4-3-10-3a25 25 0 0 1 3-1l7-1c3-1 3-3 5-5l9-6-5-3-7-5-4-2-4-3-17-10-10-5-4-3-5-2a47 47 0 0 0-10-4l-3-1-4-2-7-2-3-1-4-2-7-2-8-3-9-2-4-2-4-1-9-3-6-2-6-2-6-3-4-1-3-1-11-6-14-6a34 34 0 0 1-4-2l-4-2a63 63 0 0 0-8-4 56 56 0 0 1-9-5 53 53 0 0 0-6-4l-2-1a35 35 0 0 1-8-5l-4-3-4-4-6-4-6-4-10-10-2-2-8-6-3-2-4-3-9-9-9-10-9-10-4-6a56 56 0 0 0-5-5c-3-2-5-6-7-9l-6-9-4-5-3-4a128 128 0 0 0-7-12l-6-10-2-5-3-5c-1-4-4-7-6-11a38 38 0 0 1-4-12l-3-3a16 16 0 0 1-2-4l-4-15-3-8-2-6-1-3-1-3-3-12-1-3v-3a81 81 0 0 1-3-15l-1-10-2-4v-5-4l-1-15-1-15v-20-7-7l2-10 1-7a23 23 0 0 0 1-7 45 45 0 0 0-1-7 48 48 0 0 0 3-7l1-6 1-6a42 42 0 0 0 0-12 7 7 0 0 1 1-3l2-4 2-3 3-6-4-3 5-1 1-5 1-4a61 61 0 0 1 2-6l1-3 2-3 2-6 3-7 2-4 1-3 6-14 6-14a20 20 0 0 1 3-4l6-8 1-4a79 79 0 0 1 5-7l5-7 3-4 2-4 6-8a22 22 0 0 1 2-3l3-3a15 15 0 0 0 4-7l3-7 2 3 9-11 10-11 5-5 1-1 1-1 3-3a34 34 0 0 1 4-3 35 35 0 0 0 5-3l2-2 2-2 5-4 6-6 3-2 4-3 8-7 9-7 4-1 4-2 4-2a22 22 0 0 0 6-6 6 6 0 0 1 3-2h3l9-5 5-3 2-1 3-1 7-4 8-4c5 2 8-3 10-6h5a21 21 0 0 0 3-2 16 16 0 0 1 3-1l8-2 6-1a9 9 0 0 0 3-1 5 5 0 0 0 2-3h6l9-3 9-2 8-2h6l8-4a10 10 0 0 1 5 0l2 1 9-2 11-1 10-2a45 45 0 0 1 6 0h6l6 1 8-1 6-1-3 2h6l5-1c2-1 5-2 7-1 4 2 8 1 11 0l6 2 4-1 3 1h3a46 46 0 0 0 5 2l8-1c4 2 9 5 15 3l4 1 3 2 3 1h3l6 2v1l10 1 10 3-3 2 9 1v-1l-5-1c3-1 7 0 9 2a5 5 0 0 0 2 2l10 2 11 4 11 4-1 2c5-1 9 2 14 4l5 2 5 2c2-3 5 0 8 1l1 5a7 7 0 0 0 2 1 27 27 0 0 0 3 2l9 3c3 1 6 3 8 6a4 4 0 0 0 2 1c4 0 6 1 7 4l4 3 12 7 5 4 4 3 10 6a4 4 0 0 1 1 2l1 2-4-1-1 1 14 6-1-4c4 0 5 2 4 4-1 1 0 3 1 5l3 2c4 0 5 3 6 5a16 16 0 0 0 4 3l5 4 6 7 6 6 11 12 10 12 9 7c0 4 3 6 9 6l-4 3c4 1 7 1 9 3l6 5a15 15 0 0 1 3 3 10 10 0 0 1 2 4 17 17 0 0 1 5 4l5 8a36 36 0 0 1 3 5h-1l-2-2c-2-4-5-5-8-6l-3-4-4-5-8-8 2 6a341 341 0 0 1 14 21l4 7 4 6 2 4 2 3a12 12 0 0 1 1 2l3 7 2 3 1 2v2l6 14a13 13 0 0 1 0 2l1 4 4 6 2 5 2 6a39 39 0 0 1 2 4l2 11 1 2 1 3a26 26 0 0 0 3 5 9 9 0 0 1 1 3l1 8 2 8 5 19c1 3-1 4-1 6l1 9 1 8v1l1 8c3 0 4 1 6 3l3 6 3-1v37l-1 9-1 13v14a108 108 0 0 0-2 7v3a29 29 0 0 0 0 10v1l-2 11v8c0 3-2 5-3 8l-2 5-1 4-3 10-1 2-1 3-1 5-3 9-1 3-1 3-2 5a39 39 0 0 0-3 12l-6 20-3 1-5 14-2 3-1 3-3 7c-3 1-3 2-5 6l-1 2-1 2-2 5-4 9-3 5-2 5c-4 1-5 4-6 9a17 17 0 0 1-1 4l-1 4h-1l-2-4-4 5-4 7-2 3-2 3-10 12-1 1-1 1a27 27 0 0 1-2 3l-9 10-5 5-4 6-5 5-1 1-1 2-3 2-4 8 2 1 7-7 2-2 2-2 3-4 4-6 6-4 6-6 1 5c4 1 1 4 0 6a37 37 0 0 1-3 4l-1 3c1 4-2 6-4 9l-7 8a9 9 0 0 0 3-1 22 22 0 0 0 4-3 24 24 0 0 0 4-5l5-6 2-7c2-6 5-11 11-15l2-2 9-13 5-7 5-6a82 82 0 0 0 6-7l5-10 3-6 3-5 6-10 4-7a24 24 0 0 1 5-7l5-9 1-2v-3l2-5 2-5v-3a6 6 0 0 0 3-3 10 10 0 0 0 1-4 10 10 0 0 1 2-5l8-11 8-20 4-13a67 67 0 0 1-2 13l-7 18-1 3-2 4-3 7-2 8-2 3-2 4-10 21-5 10-1 2-2 3-3 5v3l3-1 4-6 1-2 1-1 2-3 9-15a9 9 0 0 0 1-2l5-16a12 12 0 0 1 1-2l1-2 2-4c1-3 4-6 4-9a32 32 0 0 1 1-5 47 47 0 0 1 2-6l5-11a5 5 0 0 1 2-2c2-1 2-3 1-5-1-4 0-6 3-7s3-3 3-5v-4l1-4v-3l1-6 2-6 1-7 1-2a12 12 0 0 1 1 2 24 24 0 0 1 1 5 12 12 0 0 0 1-3c1-5 0-9 3-13a5 5 0 0 0 0-3 6 6 0 0 1-2-5 29 29 0 0 1 1-5l3-12a22 22 0 0 0 0-5l-1-4c0-3-1-5 2-7 1-2 4-4 0-7v-5l2 1c2 0 4 3 7-1a15 15 0 0 1 2-2 22 22 0 0 1 1 5l-2 2a25 25 0 0 1-5 1l2 8 3-8 1 12v4l-1 2v3l-1 10-1 10-2 8a68 68 0 0 1-4 12l-1-3a6 6 0 0 0 0 1v9c0 5-2 7-5 8l1-11 1-3v-3l1-5-3 9-2 9-5 17 1 2-3 5 4 2-1 3-6-1-1 6v5l-2 9c3-4 3-10 8-13l-6 19-1 3-1 3-6 14-5 12-4 10-2 2-1 3-2 4-11 19a59 59 0 0 0-4 9l-2 7 1 3-6 4a9 9 0 0 0 7 1 12 12 0 0 0 3-2 11 11 0 0 0 3-3l9-15 2-5a4 4 0 0 1 4-2l-2 6 1 1 4-8-3-1 9-11v-5h4l3-7-1 10a19 19 0 0 1 0 2 14 14 0 0 1-1 3 15 15 0 0 1-3 5l2 2 4-12c3-7 3-14 8-19a26 26 0 0 0 3-5l1 1-1 3-1 3c5-2 2 4 2 6l7-15c1-3 0-4-2-4l-2 9c0-4 0-7-4-5l4-15h-3a45 45 0 0 0 3-7l2-7a68 68 0 0 1 3-6l2-4a33 33 0 0 1 2-3l-1 13-2 13a52 52 0 0 0 5-6 76 76 0 0 0 3-7l1 2 2-5a16 16 0 0 1 1-4c3-4 2-5-1-5l2-6c2 2 3-1 4-4l2-7a14 14 0 0 1 3-7c1 7 1 7 4 5l1-8c3-4 2-8 2-12-2 5-4 6-7 1l2-5 1 3 1 3 1-7 2-8 1-8 1-4 1-5 2-17v-8l1-8v-17l2-9h-1a20 20 0 0 0 2-9v-8l2-18h1c2 4 0 11 2 16 1-2-1-8 4-7v21l-1 21h-1l-1-5h-1v4l-1 4-1-4-1-3-1 1v2l1 2a7 7 0 0 0 1 4c4 5 4 4 2 13l2 1-1 5-1 5a22 22 0 0 0 0 10l5-40 2-19v-10l1-10h3v-9-5-4l-1-9c2-4 0-6-2-8l2-3-2-13-2-2-4 6-1 10-3-7v-14-4-3l-1-6a508 508 0 0 0-9-44l-5-17v-2l-1-2-1-4-3-8-2-8c4 3 6 8 7 13l1 5 1 5 6 20v2a12 12 0 0 0 1 3 8 8 0 0 0 3 3v-5a38 38 0 0 0-2-5l-3-12-1-5-1-3-1-3-2-10-3-7-1-4a26 26 0 0 1-1-4 37 37 0 0 0-7-14 7 7 0 0 1-2-5 5 5 0 0 1 1-3 20 20 0 0 1 3-2l-6-6v1l-2-4 1 1 1-6h-4a2 2 0 0 1-2-1 11 11 0 0 1-2-4 16 16 0 0 0 0 3 15 15 0 0 0 0 3 27 27 0 0 0 2 5c1 3 3 6 3 10l-6-10-3-6-3-5-5-14a42 42 0 0 0-4-5l-3-6v-4l4 6 2 3 1 3 4 6 6 13 2-7-9-15-9-15 1-1 10 14 1-1-3-6-3-5a20 20 0 0 0-2-3l-6-5a20 20 0 0 1-6-6l-7-13 3-1-5-2a70 70 0 0 1-7-8l-5-7-2-3-3-3-9-12-2-6 3 3 2 1 2 1a12 12 0 0 0-1-3 133 133 0 0 0-8-11l-7-6-1-2-2-2-3-3-7-7a28 28 0 0 1-4-4 19 19 0 0 1-3-6zM38 447v3l1 3a30 30 0 0 1 0 4 8 8 0 0 1-3 5 65 65 0 0 0 1-8v-8c0-5 0-10 3-14l-2-7a100 100 0 0 1 1-13 55 55 0 0 1 2-6l1-5 1-8c2 2 3 3 1 7a24 24 0 0 0-1 3 20 20 0 0 0 0 4 63 63 0 0 0-1 7 41 41 0 0 1 0 8 28 28 0 0 1-1 4l-1 3a7 7 0 0 0-1 3l-1 15zm119-230a6 6 0 0 1 3-3 17 17 0 0 0 4-3l2-2 2-1 7-8 5-4 4-5 6-7 6-7a7 7 0 0 1 3-2c2-1 3-5 7-4l4-5 6-5c3-2 6-4 5-9a7 7 0 0 0 5 1l3-4h1l10-7 5-4 5-3 27-15 16-11 8-3a16 16 0 0 0 3-1 81 81 0 0 1 11-4 33 33 0 0 0 10-6 14 14 0 0 1 5-2l5-1a79 79 0 0 0 7-4l9-2h2l2-1 4-2 1 2-9 5-16 7a2 2 0 0 1-1 1c-7-2-13 3-19 5a189 189 0 0 0-20 9l-11 9-2 1a22 22 0 0 0-3 1 26 26 0 0 0-3 1 40 40 0 0 0-5 2l-10 7-15 10-2 1-2 1-4 3-7 6a39 39 0 0 0-4 2l-3 3-12 11-15 12 2 1-1 1h-2l-9 7h-2l-3 4-2 2c0 4 0 4-3 4l-1 4h-3v2c0 2-3 6-5 5a416 416 0 0 1-11 10l-3 4-3 4-1 4-7 9-7 10-4 7-6 9-5 8-5 9-2 5a6 6 0 0 1-3 2 90 90 0 0 1 8-16l9-16 10-16 3-4 3-4a65 65 0 0 1 7-7c3-4 5-8 6-13zm122-70l6-4 3-2 4-2 3-2 4-3a39 39 0 0 0 8-2 20 20 0 0 0 7-4 6 6 0 0 1 2-2 23 23 0 0 0 5-2l2-1 3-1 9-5 20-9 7-2c5-3 10-1 15-1l2 1a12 12 0 0 1 3-3 32 32 0 0 1 5-1 44 44 0 0 0 8-3l2-2a19 19 0 0 0 6 1 26 26 0 0 0 6 0l11-2 13-3 7-1 7-1h2c3 2 7 1 11 0h11c2 1 6-1 10-1a41 41 0 0 1 5 0v1l-2 2h2l10-1h11l12 1a9 9 0 0 1 3 0l2 1a7 7 0 0 0 6 0h6l2 3 2-2 1 1h1a7 7 0 0 0 2 0c4-2 7 0 11 0l7 1 7 2 14 3 1 2 9 3 7 2h1l2 1 3 1 12 4 5 2 5 2 11 4 17 8 10 5-16-5-6-3a40 40 0 0 1-5-2l-3-1-3-1-11-5-3-1-3-1-5-2-11-4-18-4-17-4-3-1-3-1-5-1-11-1-11-2-11-1h-11a94 94 0 0 1-9-1h-2a64 64 0 0 0-11-1h-22l-6 1h-5l-12 1h-6l-5 1-12 2-11 2-9 1-9 3-9 2h-3l-2 1-4 1-5-1-4 2v1a20 20 0 0 1-3 2l-17 7-8 2-2 1-9 3-9 4-13 8-8 4-4 2-4 2-8 5-8 5-8 5-8 6-8 6-4 3-4 3c-6 5-12 9-16 15l-7 5-2 2-2 3a55 55 0 0 1-4 4l-22 22-9 13-2 1-1 2-3 4-5 7-2 2-1 2-3 4-5 8-1 2-2 2-3 5a29 29 0 0 0-4 10 4 4 0 0 1-1 2 25 25 0 0 0-6 8l-2 4-1 3-1 2-6 12a52 52 0 0 0-2 7l-3 6-3 7-3 7-2 8-2 3-1 4-3 11-2 13-2 7v3l-1 3a50 50 0 0 1-2 7h-1a9 9 0 0 1-1-2l2-7v-2-2l1-3 2-8 1-5 2-4 2-9 2-10 3-11 2-5 2-5 3-6 3-6 2-5 5-10 1-2v-1l2-3 3-5 3-6 1-1 1-2 1-3a118 118 0 0 1 5-10l2-4 7-10 3-5 4-5 8-9 9-12 3-3 3-4a48 48 0 0 0 7-8l2-3 3-3 6-5 6-6a76 76 0 0 0 6-5l12-11a95 95 0 0 1 10-10l12-9a18 18 0 0 1 4-3l5-2a59 59 0 0 0 7-5 38 38 0 0 0 4-4c2-1 5-1 7-3zM72 295a7 7 0 0 1 1-2 59 59 0 0 0 8-14l8-14 2-3 1-2 1-2 4-7 4-7 2-3 3-4 8-11 2-3 2-2 4-6 7-10a153 153 0 0 1 13-16l5-5 9-10 4-5 5-6 5-5 2-3 3-2 8-7 5-4 13-10 3-3 2-1 2-1 6-5 4-3 6-5a42 42 0 0 1 7-4 48 48 0 0 0 9-6l2-1 2-2 5-3 5-3 5-3 2-2 3-1c2 1 4 2 6-3l4-3 6-2 3-1 3-1a33 33 0 0 0 6-3l9-6 1-1 14-4 8-2a14 14 0 0 0 6-4 5 5 0 0 1 2-2l7-1 4-1 4-1c3-6 9-3 14-5l3-1 4-1 8-2 8-2 3-1h4l3-1 11-2 5-1h5l8-1 6-1h3a27 27 0 0 1 3-1l15-1h8l8-1h15l5-1h21l13 3h4l4 1h5l9 2 10 1 9 1a102 102 0 0 1 12 2l3 1 2 1a36 36 0 0 0 6 1c4 0 8 1 11 3s7 3 11 3l-1 1-9-2-10-2-13-3-12-2-9-1-21-3-4-1h-12l-8-1h-9l-15-1h-7l-6 1h-14l-15 2-7 1a53 53 0 0 1-8 0c-4-1-9 1-13 1l-7 2-7 1-8 2h-3l-4 1-15 5-8 2-8 2a44 44 0 0 0-9 2 72 72 0 0 1-8 4l-11 3-5 2-5 3-11 4-5 2-5 3-11 5-10 5-6 4-3 2-3 1-13 8-4 2-4 3-7 5-8 5-7 5-6 4-3 3-3 2-12 9-3 2-3 3-5 4-6 5-2 3-3 2-12 12-3 3-2 4-6 6-13 15-15 19-3 4-3 4-5 9a5 5 0 0 1 0 1 33 33 0 0 0-5 5 61 61 0 0 0-3 5l-6 11-2 3-2 3-3 7-4 6-1 3-2 3-3 9-4 8-3 7a84 84 0 0 1-6 11l-4 2 2-4 2-3 3-6 2-6 1-3v-4zM311 86v-1l-4 2-3 2-7 4-7 2a34 34 0 0 0-4 2l-4 2-10 6-2 2-3 1a30 30 0 0 1-6 3 12 12 0 0 0-3 1l-6 4a31 31 0 0 0-2 2l-3 2-5 6v-1l-6 3a82 82 0 0 0-6 6l-7 6a59 59 0 0 1-5 4l-1-3h-1c-2 6-6 11-12 13l-1-1-6 9a4 4 0 0 1-1 1l-11 9-10 9a20 20 0 0 0-2 2l-7 10-5 5-5 5-10 11-3 3-3 3-6 6-4 7-10 17-1-3-1 5a11 11 0 0 1-2 3c-2 2-1 8-6 5l3-6 2-3 1-1 1-2 7-11 9-14 5-7 1-2 2-1 2-3 6-7 6-7 12-13 10-10 5-6 4-5a57 57 0 0 1 8-7l4-3 4-3 19-15 9-6c2-2 3-4 5-3l5-4 6-4 6-4 12-7 3-2 1-1h1l6-3 11-6 4-2 13-6 3-2 4-2 6-3a203 203 0 0 1 11-4l3-1a164 164 0 0 0 17-6 132 132 0 0 1 17-5l4-1 4-1 8-2 16-4 12-1 6-1 6-1 23-3h5v1l-8 1-4 1-5 1-16 3h-2l-2 1-4 1-8 2h-7l-12 3-11 2-6 2c-5 1-10 1-12 5a3 3 0 0 1-2 1h-1l-10 4a49 49 0 0 1-5 1l-3 1a21 21 0 0 0-3 0 32 32 0 0 0-6 3l-13 8-1-1 4-3zm561 123l-2-4-3-3-6-7-6-7-6-6-7-8 1-1 11 11 2 3 3 2 4 5 9 10 13 17 2 2 1 2 3 4 7 9-1 1-13-15a91 91 0 0 1-12-15zM500 17a12 12 0 0 0-2 1c-4 3-8 5-14 3-1-1-3 0-4 1l-5 1-1-1 4-2-3-1 1-3h32l17 1a10 10 0 0 1 3 2v1a31 31 0 0 1-4-1 11 11 0 0 1-2 0c-4 3-5 3-7-1l-3 3-2-3-4 1-5 1-1-3zM58 344l-4 11a55 55 0 0 0-2 12 73 73 0 0 1-3 13l-4 6v-6l1-6a2 2 0 0 1 0-1 21 21 0 0 0 4-9l1-5 1-5 2-6 2-7 2-6 6-12 1 1-7 20zm821 39l-2-7-1-4-1-4a76 76 0 0 0-4-8 29 29 0 0 0-2-4l-1-2a21 21 0 0 0-2-1l3 1a62 62 0 0 1 6 10l2 5 2 5a660 660 0 0 1 6 17l1 7h-1l-2-4-1-3a29 29 0 0 1-3-8zm38-4v7l-2-3-1-3a55 55 0 0 1-4-7 95 95 0 0 1-4-16l4 3a27 27 0 0 1 2 5l1 4 3 8 4-4 2 7zM97 463h-2v-7l1-6v-13l2-13 1-6 1-6h2l-1 6-1 7-2 12-1 13v6zm837 17a80 80 0 0 1 2 12l-1 3a10 10 0 0 1-2-3c-1-7-3-13-3-20v-10c3 2 4 6 4 9v4a17 17 0 0 0 0 5zM810 144l-6-3-1 1 4 4h-1l-4-4-4-4-10-8 11 8c3 3 5 3 4-1l5 1-1 2 12 9v1h-6l2 4-6-5 1-5zm78 172l5 6 6 13 4 7 2 6 2 7-1 1-8-20-10-20zM380 81a24 24 0 0 1 14-7h6a77 77 0 0 1 10 0l-15 4c-4 1-9 3-15 3zm521 393h-2l-2-15-1-4v-2l-1-2-1-7c4 4 5 9 5 14l2 16zm-46-217a7 7 0 0 0 2 4 20 20 0 0 0 2 3l2 3 7 10-5-4-3-4-2-2-1-2-7-14 5 6zm57 350l-3 14-3 2v-3l3-9 1-5 1-4 1-1a36 36 0 0 1 0 6zm5-178l4 22-2 1c-3-4-5-18-2-23zm2 142c-3 3-3 6-2 10a14 14 0 0 1 0 4 18 18 0 0 1-1 4l-4 8h-1l2-7 1-7 3-15zM672 135a12 12 0 0 1 4 0 5 5 0 0 1 3 2l1 7a51 51 0 0 1-5-2l-6-3 4-2zm236 265h1l1 2 1 4c3 1 3 4 4 7a4 4 0 0 1 1 2l-3 9-5-24zM744 99l-14-7-3-2-2-1a258 258 0 0 1-13-8v-1l16 9zm-97-33v-2l15 6 14 7-1 1-14-7-14-5zm-42-43a3 3 0 0 1-3 2 4 4 0 0 1-3 0l-5-6 5-1 5 2a3 3 0 0 1 1 3zM103 279l-3-1 5-8 1-2 1-2 3-3h1l-2 4-2 4zm830 239h2v20h-2a20 20 0 0 1-1-10l1-5v-5zM523 71l-15-1 7-3c2 0 5 0 8 4zm260 154l-2-4 3 1 9 8v3l-10-8zm133 473l-2 6a15 15 0 0 0 2-2l3-3a40 40 0 0 1-1 5 13 13 0 0 1-2 2l-5 7c-1-2-2-3-1-5a19 19 0 0 1 2-4l4-6zm64-207l-4 2c2-6-5-12 2-16l2 14zM359 104l-1-2 5-1 5-3h7v1zm516 186a15 15 0 0 1 8 13c-4-4-8-7-8-13zM437 70h11l-6 2-7 3v-1zm108 0l11 4c-9 3-9 3-11-4zm80-11v-1l10 2 5 2 5 1v2l-5-2-5-1zm295 487a28 28 0 0 1 1 10 27 27 0 0 1-1 5l-1 2-1 3v-6l1-5 1-9zM376 81l-7 5-1-1 6-4v-1h-6l5-2 4-1-1 4zm214-64l-7 1-3-1-4-1a40 40 0 0 1-5-2v-1l10 2zm328 437c4 2 5 7 1 13l-1-13zm8-6l-3-7 3 2 1-6 3 11zM702 56l-9-2a12 12 0 0 1-7-6l8 4 8 4zm199 537l-1 4c-1 1-2 0-3-1l3-9 1 6zm-62-430c2-1 2-1 6 3l8 8c-6-3-10-7-14-11zM531 72l5-4 7 5h-1zm179 6v2l-9-5-8-5 1-1 8 5 4 2 4 2zm-95-45l1 1-5 2-6-3v-1zm55 24a29 29 0 0 1-4-2l-4-3 1-1 14 6v1l-7-1zm221 359l2 9 1 4 1 4-1 1a9 9 0 0 0-1-5l-1-4c-1-2-2-5-1-9zM588 32c-2-3-4-4-7-4l-4-1a13 13 0 0 1-4-1v-1l4 1 4 1 9 2-2 3zM487 67h12v2h-13l1-2zm-2 0v2h-13v-1l13-1zm155-23h-10c0-3 5-3 10 0zm177 216l7 8a4 4 0 0 1-4-1l-3-7zm-707 35l1 1-6 13-1-1zm801-35l-7-5 1-4zm11 272h-1l1-11h1zM706 57l10 6c-5 1-6 1-10-6zm200 332l-1-3-1-2-3-6 4 4 1 7zm-17 20h-1l-3-9 2-1zm-19-58h-1l-6-11h1zm72-24a3 3 0 0 1 0-2h1l1 1 1 2 2 3-1 2-4-6zM285 107l-1-1 5-2 4-2 1 2-5 1zm433 13v-1l8 4-1 1zM8 464v-19l1-14 1-5v-3l1-2 2-11 1-9 2-9 1-9 2-9 2-13h-1l-5 12 1 2-5 15-2 8-2 8v8l-1 6-1 2a27 27 0 0 0 0 3 18 18 0 0 0 2 11H3l-1 9 2-4a24 24 0 0 1 0 5 13 13 0 0 0 1 5c1 3-1 4-2 6l-3 6 1 2 7-1zm1-53H8l1-7 1-7h1l-1 7z"/><path class="cls-1" d="M863 679a22 22 0 0 1-1-5l1-12a5 5 0 0 1 1-2 32 32 0 0 0 3-7l2-7 2-7a62 62 0 0 1 2-8l3-7a9 9 0 0 1 1-6 17 17 0 0 1 4-7v3l-1 7-1 6-3 12-1 5-1 5-3 8-1 4-1 4-2 7-3 7zM845 160l-8-8-4-4-2-2-2-2a35 35 0 0 0-4-5l-9-7-2-2-3-2-4-4-2 2-2-3-2-5 1-1 9 7 4 3 3 4 14 11 1 2 2 1 3 4 6 6 7 6 6 7 6 6 3 3 3 4 10 12 2 3 3 3 4 7 5 6 3 4 2 3 9 13a10 10 0 0 1 1 6l-10-16-3-4-3-4a745 745 0 0 0-9-13l-4-5-8-9-20-22a14 14 0 0 0-3-3l-4-2a1 1 0 0 0 1 0zM228 91l-13 9-13 10-6 4-7 5-12 10-23 22-6 6-3 3-2 3-11 12c-1-4 2-5 4-7a31 31 0 0 0 3-3l8-11-3 3-1-1a46 46 0 0 1 8-7l-3 4 10-9a38 38 0 0 0 4-5 22 22 0 0 0 3-7l3 4 4-4a163 163 0 0 1 9-9c1-5 7-7 10-11l8-5-3 4 16-11 4-3 3-2 8-5zM70 257v3l16-29 10-13 4-7 5-7 5-6 5-7a91 91 0 0 1 12-12l1 1-10 11-9 12-4 6-2 3-1 1-1 2-12 17-12 19-10 20-7 16-3 3v-4l5-10 2-5 2-5 4-9zM892 488l-2-13c9 7 10 9 7 15a9 9 0 0 1 3 5 21 21 0 0 1 0 6l-1 10v10l-3-5a34 34 0 0 1-3-5l-1-8v-10a27 27 0 0 1 1-5zM28 322l2 7a29 29 0 0 1-3 7 21 21 0 0 1-7 7l5-13 5-13 3-6a12 12 0 0 1 0-4 16 16 0 0 1 2-4l4-6a13 13 0 0 0 1-2l3-9 9-13c0 6-2 11-5 16a109 109 0 0 0-7 12 59 59 0 0 0-2 6 38 38 0 0 0-1 7 11 11 0 0 1-3 6l-4 1zM891 551l-1-7a23 23 0 0 1 2-5 15 15 0 0 1 2-4 18 18 0 0 1 2 4 26 26 0 0 1 1 5 71 71 0 0 1 0 10v5l-1 6-1 10-3-8h-1a24 24 0 0 1-1 3 15 15 0 0 1-1 3h-2l4-22zM987 447a217 217 0 0 1 3 22l1 22v23l-1 23-1 12-1 11-2 12-1 5-1 6 1-8 1-9 2-16v-5-4l1-9v-8l1-5v-4-19l-1-2v-5l-1-8-2-34zM66 247a28 28 0 0 1 0-6l4-3c2 0 3-5 5-8l-4 3h-1l4-6 3-3 2-3 9-11-1-2-5 7a23 23 0 0 1 4-7 17 17 0 0 1 3-3 19 19 0 0 1 1-1l2-1a7 7 0 0 0 2-2l10-14 3-3 1 1a53 53 0 0 0-4 6l-5 8-4 5-2 2-2 3a240 240 0 0 0-10 16l-3 6-8 12-4 4zM736 859l-4 7-3-5c3-4 5-8 11-9 2 0 5-3 6-5l8-9 5-1 5-8c3 3 1 6-1 9-4 5-8 8-11 7l-7 6-4 4-4 5zM694 886l-4 3-4 3-7 5-5 3-4 2-10 6h-2a8 8 0 0 1-2 3 7 7 0 0 1-3 1 55 55 0 0 1-7 0c3-5 8-7 12-9 3-2 7-2 10-3l6-4 6-4c4-3 8-6 13-7zM401 10l3-3v1h5l4-1 9-1 8-1 9-2v1a19 19 0 0 1-3 2l-6 2c-3 2-19 3-22 2a9 9 0 0 0-2 0h-5zM20 386l-1 14a36 36 0 0 1-2 5 19 19 0 0 0-1 6 34 34 0 0 1-1 8l-1 4v4h-2l1-10 2-10v-6l1-5 2-10zM503 2l4-1h4l1 3c-6 3-13 2-19 0-2 0-3-2-5-3l7-1 8 2zM713 873l8-4 5-7c2 1 3 4 0 6l-8 6-4 4-5 3v-7h4zM983 419c3 7 3 16 4 25a11 11 0 0 0-2-2 8 8 0 0 0-2 1c2-4 1-7-2-11l-3-11 2-1 2 9-1-10zM842 769l4-7 4-6 4-6 1-2 1-2 1-3 3 3-7 10c-3 3-4 7-6 10a8 8 0 0 1-2 2l-2 2zM626 920c-3 3-8 5-12 7s-10 2-14 4c1-2 7-5 12-7l5-2 3-1a16 16 0 0 1 6-1zM161 127a14 14 0 0 1-6 8l-3 2a28 28 0 0 0-4 3c-4 5-9 9-14 9l13-11 3-3 4-2zM775 98l3 1 3 2 6 4 6 4 6 5v1h-7l1-1a97 97 0 0 0-7-7l-6-4-6-4zM735 869l-2 1-1 2-3 3-6 7-5 1a18 18 0 0 1 3-4l12-11zM893 532l-2-4a60 60 0 0 1 0-10l2-2 1 3 1 2a13 13 0 0 1 1 4c0 3-1 4-3 7zM884 589a13 13 0 0 1 1 9 12 12 0 0 1-2 5 23 23 0 0 1-4 4l3-9 2-9zM176 114l3-4a49 49 0 0 0 6-5 27 27 0 0 1 3-2 16 16 0 0 1 3-2l4-4 7-1-13 9-12 9zM59 258l-5 4c-1-7 7-9 7-14 4 1 4 4 1 7a31 31 0 0 1-3 3zM827 793c-1-4 0-7 2-9l6-7 1 1-4 7zM273 52a92 92 0 0 1 7-7 15 15 0 0 1 6-2l3 2c-2 1-3 3-5 3l-11 4zM944 305l-1-5-1-4a33 33 0 0 1 3 5l4 6 4 12-9-14zM342 28l12-3 6-2 6-2v1l-6 3-7 3-12 1zM961 650l-5 14-1 3-1 2-1 2-2 7 3-15 6-13zM121 167l6-9c3 1 5-5 9-6l-14 15zM962 341l-5-2-1-12h1l5 14zM59 258l1 2-3 6-4 7a15 15 0 0 1 2-8 41 41 0 0 1 4-7zM778 845c-1 3-3 5-5 6l-5 5c-2-3-1-5 2-6a20 20 0 0 0 2-1l2-1 4-3zM201 93l5-1v-1l6-5 6-5a31 31 0 0 1-8 10 18 18 0 0 1-5 2 8 8 0 0 1-4 0zM971 567v8l-1 8h-1v-10-6-5zM642 914l-6 4-4-1 3-3a42 42 0 0 1 6-1zM837 719l-3 10h-2v-2l3-8zM380 20l-6 2a8 8 0 0 1-4-1l1-2a6 6 0 0 1 3-1c2 0 7-2 6 2zM401 10l-4 4 10-1v1l-13 3 3-8 4 1zM349 21l-14 6c2-5 9-7 14-6zM973 634l3-11 2-12c1 1 0 6-1 12s-3 10-4 11zM108 182l2-4-4 1v-1l9-4v1l-6 8zM828 856c0-3 3-6 5-9s5-5 7-5l-6 7-6 7zM957 686l-5 15-2 3a13 13 0 0 1 0-4l6-14zM163 125l11-10 1 1-11 10zM911 764a13 13 0 0 1 2-6l3-6h1l-2 6-3 7zM751 84l16 12h-1l-16-11zM962 647c-2-5 0-13 4-15l-4 15zM479 2c2-2 5-3 7 1a34 34 0 0 0-3 0l-4 1a8 8 0 0 1-6-3zM930 271l3 4 2 4 4 8-1 1-4-8-2-4-3-4zM965 349l5 16h-1l-6-16h2zM970 644a18 18 0 0 1 0 4 23 23 0 0 1-1 4l-3 6 2-7 1-4zM456 4c5-6 8-1 12-2v2zM892 750a48 48 0 0 1-2 5 12 12 0 0 1-3 3v-3c1-2 2-6 5-5zM804 769l-5 10c-1-2-2-4 1-6l4-4zM984 585l-1 10-1 5-1 4a38 38 0 0 1 0-5 40 40 0 0 1 0-4 36 36 0 0 1 3-10zM977 433c-3 0-5-6-4-8h2l2 8zM251 65a47 47 0 0 1-5 2l-8 3v-1l6-3 3-1 3-1zM887 777l3-1-8 10 5-9zM874 832c2-4 4-9 10-12l-3 3-2 3zM928 269l-7-11 1-1 7 11-1 1zM8 464a46 46 0 0 1-1 7 11 11 0 0 1-4 6 14 14 0 0 1 2-7l3-6zM837 772l5-1v3l-5 1zM966 626l1-6 1-6h1l-1 6-1 7zM234 86l10-6h1l-11 6zM947 689l-4 10 1-5 1-3v-2zM530 963l9-2c1 2-1 3-9 3zM865 373l5 8h-2l-4-8zM850 696l-2 6c-2-3-2-3 2-6zM481 959l8-2 1 2-9 1v-1zM546 954l-7 1-1-1 3-2 5 1zM774 840l4-4a13 13 0 0 1 2 1l-4 4zM965 593l5-6-2 6-3 1zM367 14h10c-8 3-10 3-10 0z"/><path class="cls-2" d="M309 316l-8 6a93 93 0 0 1-13 8l-10 1c-3 1-5 0-8-2a70 70 0 0 1-15-9l-8-5-7-7-5-4-3-3c-3-3-4-6-3-9a13 13 0 0 0 0-5c0-2 1-2 3-3l7-2 25-9 32-12 20-6 7-2a4 4 0 0 0 3-3l2-15a20 20 0 0 0-1-6l-2-7-12 6-6 2-9 4-22 9c-6 2-13 2-18-3a8 8 0 0 0-4-1 20 20 0 0 1-9-5l-13-12-9-10-1-2c-4-2-5-7-6-11-1-3-2-5-1-7l2-5h9c2-2 4-2 7-2a819 819 0 0 0 46-11l32-11 39-14 26-7 17-2 18-2c3-1 6-2 7-5l1-2 3 4 4-4c2-2 2-1 4 0l6 3c4-4 6-3 9 1 4 4 9 8 15 10a8 8 0 0 1 5 4 35 35 0 0 0 7 10c2 1 2 3 2 5l1 3c3 1 3 3 4 6l4 9c1 1 1 3-1 4l-4 5a3 3 0 0 1-2 1c-3 0-6 1-8 4-2 2-3 3-7 1a2 2 0 0 0-2 1c-1 2-2 2-4 1a61 61 0 0 0-6-4h-2a10 10 0 0 1-2-1l-9-4c-2-1-4 0-5 1-3 2-6 1-9 2l-11 2-3 1v-2c-23 2-44 10-65 19l2 2 3 3 4 5 9 8 1 3 5 6c3 4 6 2 10 1l19-7 21-7 10-5c1 2 3 2 4 1a11 11 0 0 1 4-1l10 13 12 8 1 1 7 8a17 17 0 0 0 4 3c3 2 3 2 2 6l4 4h2a2 2 0 0 1-1 2c-3 3-3 4 0 7a33 33 0 0 1-5 1c-2 0-3 0-4 2l-3 1-3 1c-4 3-7 4-11 1-5-4-10-3-15-3l-17 3-13 4a113 113 0 0 1-12 2l-23 2-5 1a23 23 0 0 0 1 2l15 19 24 36 13 13 11 10c5 5 12 9 18 13l28 13 51 26 24 9a4 4 0 0 1 2 2l-5-1-1 1 3 2a6 6 0 0 1 1 1l-1 1h-13a30 30 0 0 0-8 1 161 161 0 0 0-20 8c-3 2-6 3-7 7a4 4 0 0 1-3 1c-1 1-3 2-3 4s-1 3-3 3c-2-2-4 0-5 1a11 11 0 0 1-3 1l-9 2c-5 3-10 4-16 2a17 17 0 0 0-6-1c-2 0-4-1-5-3a38 38 0 0 0-4-3 3 3 0 0 0-2-1c-3 1-6-1-7-3l-19-16-12-11c-5-6-11-11-15-18l-9-17-4-7-1-4-4-11-6-12a7 7 0 0 0 0-2c-6-6-7-15-11-22l-5-11-2 6-7 23-6 18-4 8c-1 3-3 6-3 10l-2 4-6 9-9 16-16 23a19 19 0 0 1-10 6l-5 4-7 3c-5-1-9 3-14 4l-2 1c-2 0-4 0-5-2l-2-1-11 1-10 2c-3 0-7 2-11 1a31 31 0 0 1-4-1 11 11 0 0 0-4 0l-12 2-4 1a9 9 0 0 1-3 0l-2-1-7 1a7 7 0 0 1-2 0c6-4 12-6 19-8l13-4 15-7a119 119 0 0 0 23-15c8-7 16-14 21-24l15-28 9-20 7-15 6-19 2-6zM452 610a7 7 0 0 0 1-2c1-16 4-32 9-47l7-27c1-3-1-7-1-11v-4l1-4a37 37 0 0 0 4-1c2-1 3-2 3-5 0-5 2-7 7-6a5 5 0 0 0 2-1c5-1 18 6 18 12l24-6c3-1 6-1 9 1s7 2 10 1c7-2 8-1 12 4l9 11a63 63 0 0 1 5 7l6 9 38-20-12-2a112 112 0 0 1-10-4l-14-5c-5-2-9-5-11-11a3 3 0 0 0 0-1c-4-4-2-5 1-7l16-9 19-11 20-10c2-13-5-24-5-35l-7-2a80 80 0 0 1-8-4l-2-2c-4-5-3-11 0-16a101 101 0 0 1 10-18c1-2 5-3 8-3 6-1 12 0 18 3a35 35 0 0 1 16 14c5 10 8 21 8 32l-3 13v3l20-1c3 0 7 0 10-2 2-2 4 0 6 1l20 12 12 12c4 4 4 10 6 15a6 6 0 0 1-4 9 10 10 0 0 0-3 2c-2 2-4 3-7 3-2-1-4-2-5 1l-4-1c-1-4-6-6-8-8l-15-13c-6-3-13-4-20-1l-7 1-4 1c-3 2-3 5-3 8l2 21 7-1 16-2 18 2a4 4 0 0 1 2 1l20 20a34 34 0 0 1 7 12v13h-5l-1 2 5 3a22 22 0 0 1 4 5l9 13c0 2 4 5 1 8v1l-1 6-1 4c-4 2-2 6-3 8a10 10 0 0 0 0 3l-1-1-1-2c1-2 1-2-1-3a2 2 0 0 1-2-1 6 6 0 0 0-6-4c-4 0-6-4-9-6l-4-3 2-3c-5-2-10 0-14 1l-33 16c-2 1-2 5-2 8-1 4 0 8-3 11l-4 3h-15c-4 6-3 13-3 21l12-9 24-16a15 15 0 0 0 2-1c6-5 12-5 18-2 6 2 11 6 15 12a118 118 0 0 1 11 23c1 2-1 5-1 8 0 6-2 11-7 15a24 24 0 0 1-3 2 8 8 0 0 0-3 11l4 5c2 3 3 5 2 9l2 5c3 3 1 6-3 6s-4 1-4 5h5c0 2-2 4 0 5l6-1-5 3 6 3c-4 6-2 11-1 17 2 5-2 12-7 14-2 1-2 1-2 4a22 22 0 0 1-1 10c-2 6 1 10 1 15l-3 22a33 33 0 0 1-1 6l-5 14c-4 6-9 12-16 12-11 1-20 5-30 6l-1-1 3-1v-1l-12 1-23-2-4 1-15-3a65 65 0 0 1-7-2l-20-6 5-1-6-2v-1h8c3-4 6-1 9 0l-3 1h1l6-2-8-2-6-2-22-5v-1a58 58 0 0 1 8-1l23 1a2 2 0 0 0 1 0l2-2 1 1-1 2a7 7 0 0 0 1 0c0-3 3-3 4-3a91 91 0 0 0 31-3c15-4 29-9 41-19 4-3 5-8 6-13l3-19c1-3 0-5-4-6-15-6-31-11-45-21-4-2-7-5-8-10a4 4 0 0 0 0-1l-2-3 5-5a83 83 0 0 1 16-2h37l-4-12a10 10 0 0 0-3-3l-1-1c-4-7-11-6-17-5-9 1-19 4-28 7-6-2-6 4-7 7l-3 23-1 11-1 16-1 10-1 8-8 2-5 2-5 2v-1l-3 7-7-13-1-9c-1-9 4-16 6-24l17-65c2-8 4-16 9-23l7-15 4-7-1-1-12 14c-4 6-9 8-15 8-9 0-17-2-26-3 0 19 0 39-7 59l1-4a7 7 0 0 0 0-4l-3 10c-1 3 1 7-3 9l-4 5h-4l-1 1-12 3-5 2 6-9-7-2c-7 0-11-5-14-10l-17-29c-2-3-2-6-2-9a31 31 0 0 1-1-3h3c5 3 11 5 17 5a5 5 0 0 1 2 1c4 3 7 2 10-1l13-15v-5l-1-11-3 5h-13c-8 0-15-4-22-8a87 87 0 0 1-14-10c-3-3-5-6-10-6-1 9-3 19-2 29s1 21 4 29l3 2 8 18c2 3 2 5 0 9l-4 1c-5 1-12-2-16-6l-4-5-2-6c-6-12-9-24-11-37-2-7-2-15-3-22a35 35 0 0 0-1-4zm29 0l4-1c3-2 7-4 11 0h3l2-1 13 3 24 7-2-9c-3-10-6-19-7-29a110 110 0 0 1 1-30c1-4 1-5-4-4h-3c-3 1-3 3-3 5a17 17 0 0 1 1 6c-1 5-4 10-6 14a17 17 0 0 1-19 9c-4-2-6-1-8 3l-4 15-3 12zm198 15l-11 4a61 61 0 0 0-21 17c-5 6-12 10-14 17l-1 1-8 16c17-7 33-9 49-10-1-14 2-29 6-45zm-113-17l13-7 18-9 34-18 2-2v-20a11 11 0 0 0-8 8 21 21 0 0 1-9 13c-5 3-12 4-18 2l-18-5-2 5c-2 5-5 7-10 3-3-1-5-2-8 0l3 11h-1l-1-2h-1l6 21zm104-77v1l-2 1-7 5c-4 2-1 5-1 7v13l11-3 4-2 6-1a84 84 0 0 1 9 0v-1h-2v-1l11-1-1 1v1l8-4-13-21-2 1-2-2c-9-1-21 3-23 7zm-44 98l9-10c-6 0-10 5-9 10zm-68 53h-2l-3 18h1zm-84-45l1 1v-14zm217-57l2 3 7-3c-3-3-6 0-9 0z"/></g></g></svg>