<svg xmlns="http://www.w3.org/2000/svg" viewBox="0 0 1024 1024"><defs><style>.cls-1{opacity:0.7;}.cls-2{fill:#656765;}.cls-3{fill:#757775;}.cls-4{fill:#fcfaf2;}</style></defs><title>アートボード 16 のコピー</title><g id="レイヤー_1" data-name="レイヤー 1"><g class="cls-1"><circle class="cls-2" cx="507.77" cy="512" r="429.89"/><path class="cls-3" d="M871.39,175.63c-2-1-4.24-1.71-6-3.15-2.94-2.43-5.52-5.43-8.37-8-2.16-1.94-4.69-3.4-6.91-5.27-2.43-2-4.83-4.07-7.23-6.11s-4.75-4.15-7.29-6c-5.41-4.14-10.85-8.2-16.3-12.28v2.62c-.59-.66-1-1.2-1.46-1.66a10.18,10.18,0,0,0-1.2-1.12c-4.76-3.56-9.56-7.06-14.34-10.58-1.2-.87-2.37-1.78-3.59-2.62L795,118.89q-3.67-2.52-7.29-5.09c-2.8-2-7.27-2.93-8.17-7-.07-.31-1.67-.89-2.57-1.26a68,68,0,0,1-6.43-2.59c-2.49-1.32-4.77-3.13-7.23-4.53-1.54-.85-3.07-1.72-4.71-2.43l-4.86-2.2a51.14,51.14,0,0,1-9-5.07c-1.71-1.28-3.46-2.48-5.23-3.63S735.92,83,734.07,82c-3.7-2-7.44-3.88-11.14-5.88l-2.86-1.59-1.42-.8L717.19,73l.68-1.27c1.55.67,3,1.48,4.53,2.23l4.49,2.29,9,4.59,4.47,2.31,4.35,2.49,8.68,5c1.22-1.47,1.84-2.23,1.94-2.34l-7.94-4.56.3-1.18c4.65-.75,8.12,4.44,12.4,5.95,1.17.42,2.34.9,3.5,1.43s2.27,1.2,3.39,1.85c2.24,1.31,4.45,2.74,6.63,4.12s4.28,2.9,6.38,4.41l3.14,2.27,3.13,2.29c4.09,2.91,8.4,5.51,12.61,8.27l.83-1c-3.65-2.8-7.33-5.55-11-8.38l-3.73-3-3.83-2.83c-2.56-1.87-5.14-3.72-7.81-5.43-3-1.92-6.1-3.81-9.28-5.5l-9.6-4.93-8.38-4.32L744,76.64l-2.14-1-4.24-2.06c-4-2-7.81-4.39-11.81-6.44a22.67,22.67,0,0,0-3.4-1.2,6.85,6.85,0,0,1-2.85-1.24,34,34,0,0,0-9.85-6.2c-1.79-.8-3.6-1.52-5.41-2.26L698.92,54c-6.54-2.76-13.19-5.28-19.86-7.72-6.76-2.21-13.58-4.23-20.35-6.38-1.86-.6-4.14-1.89-5.55-1.6-6.08,1.11-10.62-1-15.39-4.35-1.66-1.16-4.25-1.66-6.37-2.41L629,33.66l-2.58.66c-.19-1,.05-2.65-.67-3-3.22-1.39-8.56-3.93-9.82-3.27a7.79,7.79,0,0,1-5.83.42c-.94-.23-1.87-.54-2.8-.79a12.73,12.73,0,0,0-2.78-.38,25.47,25.47,0,0,1-5.44-.91l-9.37-2.79-.62,1.09c.78.43,2.15.87,2.23,1.29a8.91,8.91,0,0,1-.35,3.06l-3.2-2.19-3.48,1,1.45-5.49c-3-.58-6-.86-9.08-1.29l-9.45-1.2c-3.22-.39-6.5-.87-9.86-1.19L547,18c2.94,2,4.88,4.31,7.49,4.85,3.06.57,6.17,1.16,9.35,1.66s6.44.94,9.76,1.49c.15.41.68,1.74,1.19,3.07-8.58-.87-17.24-2-26-2.31L535.62,26c-1.09-.05-2.19-.14-3.29-.15l-3.3,0-6.59,0-1.14.95,4.82,1.42-.87,1.38-10-.26-5-.11-2.49-.06-2.49.06-19.74.5c.25,1.25,1.12,2.79.52,3.13a11.15,11.15,0,0,1-2.7,1c-1.05.3-2.24.62-3.54,1,1.71-4.65,1.75-4.85-3.88-4.87-2.92,0-6,1.22-8.86,1.13-3.11-.1-6.21-.35-9.3-.56l-9.29-.4c-1.84-.07-3.76-.76-5.43-.43-2.55.5-5.07,1.08-7.57,1.7-1.26.29-2.5.66-3.73,1.06l-3.69,1.17a65,65,0,0,0-6.53,3l-5.76-4.51c1.35-1.44,2.38-2.55,4.32-4.64l-11.41,1c2.8,2.2,6.81,3.76.45,5.39,2.67,1.41,5.07,2.74,7.26,3.94-2.94,1-5.65,2.14-8.45,2.84-3.73.86-7.47,1.66-11.22,2.44l-5.63,1.13c-1.87.39-3.76.7-5.61,1.19-4.89,1.17-9.83,2.07-15.23,3.21l-.78,2.63-3.77-2.49c-.73,1.43-1.35,2.64-1.95,3.93a21.72,21.72,0,0,1-4.47-.67c-3.1-1.19-5.41.27-8.77,2.56l6.27-.28c-5,2-8.48,3.48-12.07,4.74-2.87.94-5.61,2.2-8.41,3.32s-5.57,2.27-8.38,3.36-5.65,2.07-8.49,3.08-5.68,2-8.61,2.85c-3.69,1-7.37,2.37-11,3.81-1.85.69-3.6,1.57-5.39,2.4l-5.31,2.55c-3.73,1.79-7.11,4.34-10.62,6.55l.43.6,6.34-1.76c-1.89,1.35-3.75,2.56-5.6,3.71s-3.57,2.39-5.33,3.57c-.51.35-.61,1.2-.9,1.81a6.82,6.82,0,0,0,2.48-.3c2.25-1.3,4.34-2.9,6.66-4.1l14.7-7.93c1.24-.64,2.45-1.33,3.7-1.94l3.77-1.8,7.55-3.59L318,72.52c1.9-.92,3.8-1.84,5.76-2.62,3.89-1.63,7.8-3.24,11.73-4.78,1.7-.66,3.4-1.29,5.12-1.89l2.57-.9,2.62-.78c3.49-1,7-2.1,10.37-3.33,1.86-.67,3.71-1.4,5.55-2.14s3.65-1.56,5.52-2.21c3.72-1.38,7.44-2.75,11.24-3.94L384.63,48l3.07-.93,3.11-.8,12.47-3.1,6.25-1.52c1-.27,2.08-.49,3.14-.68l3.15-.62L428.45,38c6.1-1.3,12.29-2,18.46-2.91l9.26-1.27,2.32-.31,2.32-.22,4.66-.4a13.89,13.89,0,0,1,3.26.51,9.7,9.7,0,0,1-4.7,2.06c-1.34.27-3.76.18-3.95.58-1.76,3.81-7.39,3.56-10.9,5.44-2.62,1.43-5.59,3-8.58,3.45-4.7.61-9.36,1.54-14.05,2.28l-14.08,2.24c-2.42.49-5.63,1.26-7.25.59-5.52-2.26-11.26.86-16.08,2A80,80,0,0,0,377,56.76c-2,.92-3.92,1.89-5.85,2.87s-3.87,1.92-5.74,3c-2.44,1.34-4.18,3.53-6.63,5.69l-1.92-2.21-7.11,2.41-3.56,1.21c-1.17.43-2.34.91-3.51,1.36l-14.05,5.54L325.15,78c-1.17.47-2.31,1-3.46,1.53l-6.92,3.12-6.91,3.13c-2.31,1-4.62,2.07-6.85,3.26l-.39-.73c2.43-1.71,5-3.19,8.41-5.29-2.11.42-3.65.37-4.26.91s-1.37,1.14-2.08,1.65-1.42,1.05-2.15,1.53A50.16,50.16,0,0,1,296,89.74c-3.13,1.59-6.38,3-9.48,4.65-1.27.69-2.51,1.43-3.72,2.21s-2.34,1.7-3.49,2.58c-2.3,1.77-4.55,3.59-6.89,5.29l-5.14,3.71L264.69,110c-.86.61-1.67,1.3-2.51,1.94l-9.93,7.85c-.78.62-1.31,1.54-2.12,2.06L246.84,124c-1.1.72-2.14,1.51-3.21,2.26l-6.41,4.56-6.46,4.59c-1.07.78-2.18,1.52-3.23,2.34l-3.16,2.48-3.28-1.93c-2.24,3.19-4.34,6.28-6.75,9.14a45.46,45.46,0,0,1-3.89,4.11,36.3,36.3,0,0,1-4.55,3.87,78,78,0,0,0-8.08,6.9L194,166.05c-1.26,1.28-2.49,2.58-3.78,3.81a7.45,7.45,0,0,1-4,2.06c-5.48.18-7.33,1.42-8.26,7.13a10.66,10.66,0,0,1-.63,2.26,11.86,11.86,0,0,1-1,2,24.29,24.29,0,0,1-3,3.69c-5.23,5.6-10.3,11.34-15.11,17.3q-4.11,4.86-8.31,9.69c-1.43,1.58-2.73,3.28-4.07,5l-4,5.08c-.72-2.27-.61-4.27,2.64-6.1.49-.28,1.22-2.52.92-3-.52-.81-1.79-.95-3.15-1.54-4.11,5.6-8.32,11.25-12.36,17a6.22,6.22,0,0,0-.71,2.64c-.37,3.43-.32,6.78-1,10.19-.34,1.6-2.14,3.36-3.32,5-.62.87-1.45,1.62-2,2.52-.92,1.52-1.66,3.15-2.49,4.72l-2.4,4.75c-1.6,3.16-3.21,6.32-4.88,9.44-.42.79-.88,1.56-1.34,2.33s-.89,1.57-1.35,2.35c-.92,1.55-1.88,3.1-2.78,4.66l-.42-.22.82-2.5-.82-.39c-1.75,3-3.68,6-5.19,9.1-.58,1.2-1.11,2.41-1.62,3.62s-1,2.44-1.4,3.7c-.82,2.51-1.64,5-2.47,7.52s-1.74,5-2.82,7.38a75,75,0,0,1-3.73,7.14,47.71,47.71,0,0,0-4,7.68c-1.31,3.51-1.87,7.22-3.22,10.68-.61,1.77-2.34,3.18-3.56,4.77a22.94,22.94,0,0,1,.94-5.9c.59-1.89,1.39-3.73,2.17-5.6,1.56-3.73,3.1-7.52,3.31-11.89l-3.63,4.2-.55-.54,3.7-8.17L82.41,308c-4.08,4.1-1.93,12.17-8.32,14.43a5.1,5.1,0,0,1,.18,1.91C73,328,71.93,331.82,70.84,335.6l-3.26,11.33a2.16,2.16,0,0,1-.55.84,13.11,13.11,0,0,0-3.67,6.07c-.73,2.25-1.16,4.69-1.78,7.25-.81,3.31-1.61,6.63-2.46,9.93s-1.48,6.69-2.36,10-1.82,6.6-2.94,9.84c-.53,1.63-1.21,3.22-1.75,4.85s-1.19,3.23-1.86,4.83-1.89,3.79-1.72,5.2a27.5,27.5,0,0,1-.93,10.1c-.44,1.62-.8,3.27-1.23,4.91s-.82,3.28-1.15,4.93-1,4.39-.4,5.34c1.65,2.79.78,5.78.25,8.8-.42,2.68-1.06,5.34-1.35,8-.5,4.72-.94,9.45-1.38,14.17-.27,2.36-.29,4.73-.43,7.1l-.34,7.1c-.2,4.21-.5,8.42-.67,12.62l-.1,12.63c0,2,0,4,.07,5.95l.07,3c0,1,.05,2,.13,3l-.61.18c-.35-1.14-.63-2.29-.89-3.43l-.82-3.45-1.09.22-.12,4.93.11,4.92.24,9.84.28,9.84.73,9.83-1,.08-1.12-10-.64-10-.63-10c-.08-1.68-.23-3.35-.26-5l-.07-5H33.7c-.31,2.05-.64,4.11-.91,6.17s-.43,4.14-.64,6.22q-.63,6.25-1.27,12.64c.64.5,1.37,2.53,1.75,4.66s.6,4.34-.13,5.25c-.3-.79-.64-1.67-1-2.55l-1.07,1c.65,1.66,1.33,3.3,1.92,5a17.83,17.83,0,0,1,.9,3.18c-3.26,2.53-1.36,5.05.69,7.67l-2.45,1.72c.27,1.43.48,2.86.8,4.28l1,4.33c.67,2.92,1.37,6,2.14,9.37-1.4,4.44-1,5.83,3.84,9.44-4.29,2.9-1.34,7.8-.34,11.85.4,1.61,2.31,2.73,3.3,3.82,0,2,0,4.06.21,6.06a51.16,51.16,0,0,0,.93,5.93,118.57,118.57,0,0,0,3.08,11.56q.91,2.85,1.89,5.68c.64,1.89,1.46,3.73,2.18,5.59,1.5,3.71,3,7.42,4.32,11.18-.37,2.43-1.06,4.89,2.21,6.79.65.36,1,2.7,1.48,4.11l4.8,12.88,1-.4c-.5-3.23-1-6.47-1.7-11,4.28,9.8,4.5,11.88,2,14.74.45,1.49.94,2.94,1.52,4.35,2.75,6.35,4.38,13.33,9.74,18.1,2.06,1.75,4,5.62,4.69,8.58,1,4.38,2.32,7.91,5,9.37a72.43,72.43,0,0,0,3.65,8.14c3.71,6.27,7.46,12.47,11.53,18.5,2.35,3.63,4.41,7.48,6.68,11.16.58.92,1.13,1.84,1.78,2.71s1.3,1.71,2,2.53a35,35,0,0,0,4.54,4.57,9.22,9.22,0,0,1,2.08,1.95c2.61,4.25,4.86,8.77,7.92,12.72,2.27,3.05,5.21,5.56,7.61,8.51,1.32,1.6,2.59,3.25,3.92,4.84l4.09,4.72c2.71,3.14,5.42,6.29,8.17,9.39,1.83,2.15,4.16,3.8,6.05,5.88,2.58,2.83,5.08,5.76,7.61,8.65,1.27,1.43,2.51,2.9,3.84,4.27s2.73,2.69,4.14,4c6,5.41,12.3,10.17,18.64,15l7,5.7,3.5,2.86c1.18.93,2.41,1.82,3.61,2.73,4.82,3.63,9.62,7.27,14.46,10.82,4.17,2.8,8.38,5.52,12.63,8.12,2.08,1.26,4.2,2.43,6.35,3.56a61.33,61.33,0,0,1,6.35,3.54c2.32,1.51,4.64,3,7,4.5a80.22,80.22,0,0,0,7.11,4.14,89.05,89.05,0,0,0,15,6.19c1.33.38,2.61,1.14,4,1.64,3.41,1.33,6.62,3.36,9.93,5s6.67,3,10.42,2.81a2,2,0,0,1,1.21.52,25.48,25.48,0,0,0,9.92,6c3.61,1.27,7.27,2.18,10.74,3l12.3,3.27c2.05.53,4.06,1.17,6.12,1.7s4.13,1.08,6.18,1.7l8.06,2.37c2.7.76,5.35,1.62,8.1,2.19q8.18,1.88,16.31,3.62c2.15.51,4.37.81,6.56,1.15l6.57,1,6.56.91,3.26.43c1.09.15,2.2.2,3.29.3,9.43.68,18.72,1.67,28,1.31,3.74-.06,7.45-.28,11.12-.54,1.82-.09,3.68-.4,5.51-.6l5.5-.67-.23-.66-5.11-.65c-1.79-.23-3.73-.43-5.91-.87,1-.19,2-.33,3-.55l2.9-.64,5.54-1.24c3.61-.82,7-1.64,10.37-2.6.87-.25,1.76-.45,2.66-.64s1.83-.43,2.75-.62c1.85-.37,3.71-.7,5.53-1.09,3.65-.8,7.12-1.86,9.88-4.15.3-.24,1.17,0,1.73-.08a8.22,8.22,0,0,0,3.45-1.46,6,6,0,0,0,2-2.38,5.14,5.14,0,0,0-1.13-5.65l4-3.65c-3.35-.7-6.29-1.2-10.09-2.26a23.76,23.76,0,0,1,3.06-1c2.41-.4,4.89-.77,7.26-1.33,2.87-.69,2.89-3.38,4.39-4.82,2.5-2.41,6.12-3.94,9.22-5.84-1.6-1.25-3-2.55-4.61-3.58l-7.63-4.95-3.79-2.39c-1.26-.81-2.54-1.49-3.81-2.35-5.52-3.52-11.13-6.72-16.66-9.79-3.21-2-6.87-3.29-9.95-5.31q-2.26-1.5-4.56-2.82l-4.65-2.59a46.87,46.87,0,0,0-9.95-4l-3.61-1c-1.19-.38-2.37-.84-3.54-1.26L428,845.79l-3.51-1.24c-1.17-.41-2.36-.76-3.51-1.25-2.32-.9-4.65-1.74-7-2.48-2.81-.9-5.67-1.65-8.51-2.49s-5.64-1.8-8.49-2.64l-4.27-1.25c-1.43-.41-2.87-.79-4.26-1.32L380,830.19c-2.08-.74-4.18-1.41-6.25-2.17l-6.14-2.45-6.17-2.42c-1-.41-2.07-.78-3.08-1.22l-3-1.39c-3.95-1.83-7.79-3.92-11.84-5.52-4.47-2.08-9.23-3.58-13.79-5.63a33.72,33.72,0,0,1-4.08-2.14l-4-2.34a61.16,61.16,0,0,0-8.19-4.16,56.25,56.25,0,0,1-8.15-5.07c-1.33-.91-2.67-1.8-4.09-2.6-.71-.4-1.44-.78-2.2-1.12s-1.49-.74-2.28-1.05a34.79,34.79,0,0,1-8.3-5.1c-1.32-1-2.65-2.09-4-3.16s-2.53-2.23-3.84-3.25L275,775.05c-1.88-1.45-3.82-2.85-5.59-4.43l-10.9-9.23c-.72-.66-1-1.87-1.71-2.45-2.4-1.88-4.88-3.69-7.36-5.52l-3.7-2.78c-1.21-1-2.33-2-3.47-3-3.12-2.89-6.12-6-9.16-9-2.87-3.17-5.76-6.32-8.88-9.25-3.53-3.14-6.21-7-9.17-10.66-1.47-1.84-3-3.65-4.58-5.38a57.65,57.65,0,0,0-4.94-5.08c-2.75-2.44-4.29-6.38-6.61-9.46-2.08-3-4.28-6-6.47-9-1.09-1.49-2.18-3-3.24-4.5s-1.94-3.14-2.86-4.75A127.1,127.1,0,0,0,179,669.29c-2.06-3.19-3.94-6.55-5.75-10-.9-1.71-1.8-3.43-2.67-5.16l-2.38-5.28c-1.7-3.73-4-7.15-6.09-10.74a38.47,38.47,0,0,1-4.2-11.7c-.2-1.27-1.7-2.41-2.55-3.65a16.74,16.74,0,0,1-2.39-4.14c-1.52-4.92-2.88-9.91-4.33-14.86-.65-2.58-1.55-5.1-2.43-7.61-.73-2.09-1.51-4.17-2.27-6.25-.38-1.05-.79-2.08-1.12-3.14s-.62-2.13-.9-3.2c-1-3.75-1.62-7.61-2.63-11.37-.26-1-.55-1.92-.85-2.88s-.52-1.92-.79-2.89c-.51-1.92-1-3.86-1.38-5.83-.61-3.31-1.14-6.65-1.68-10-.36-3.36-.68-6.73-1.11-10.09-.14-1.16-1.45-2.19-1.55-3.35-.15-1.59-.15-3.2-.16-4.8s.12-3.22,0-4.81q-.5-7.49-1.12-15-.27-7.53-.55-15.05l-.15-3.29-.09-1.65V491l0-6.58-.06-6.59c0-2.2-.14-4.41,0-6.6s-.29-4.6,0-6.85c.45-3.59,1.32-7.11,1.89-10.67.48-2.3.33-4.79,1-7a23,23,0,0,0,1.13-7,43.81,43.81,0,0,0-.63-6.7,46.27,46.27,0,0,0,2.24-6.57c.61-2,1.14-4.06,1.57-6.09s.73-4.08,1.1-6.09a42.22,42.22,0,0,0,.19-12.36,6.71,6.71,0,0,1,.87-3.13c.47-1.09,1-2.16,1.61-3.22l1.7-3.17c1.14-2.1,2.26-4.19,3.38-6.26L142.3,383l4.28-1.38c.32-1.54.76-3,1.17-4.45l1.23-4.32a58.57,58.57,0,0,1,1.75-5.84c.41-1,.85-2,1.29-3s.89-2,1.41-3c1-2,2-3.93,2.81-6l2.81-7.09c.47-1.18.89-2.38,1.4-3.55l1.55-3.49c2.08-4.64,4-9.36,6.12-14,2.18-4.46,4-9.08,6.1-13.65a20.17,20.17,0,0,1,2.17-3.84c2-2.77,4.16-5.4,6-8.24.73-1.12.58-2.84,1.31-4a83,83,0,0,1,5.06-6.9c1.75-2.25,3.47-4.52,5.05-6.88l2.71-4.12q1.43-2,2.81-4.05,2.78-4.08,5.36-8.29a20.39,20.39,0,0,1,2.48-3.25c.95-1,1.95-1.94,2.89-2.94a15.47,15.47,0,0,0,4.24-7c.48-1.94,1.83-3.84,3.05-6.15l1.14,2.57c3.36-3.88,6.61-7.39,9.71-11s6.41-7.12,9.66-10.66l4.92-5.27,1.23-1.31c.42-.43.86-.84,1.29-1.26l2.61-2.49a33,33,0,0,1,4.43-3.09,35.35,35.35,0,0,0,4.34-3l2.18-2.09,2.24-2c1.49-1.35,3-2.72,4.49-4,2.1-1.84,4.23-3.64,6.36-5.45,1-.93,2.17-1.75,3.26-2.62s2.18-1.73,3.25-2.63c2.91-2.43,5.77-4.93,8.63-7.44s6-4.7,9-7c.95-.71,2.94,0,4.06-.61s2.52-1.44,3.76-2.2,2.53-1.42,3.73-2.22a22.2,22.2,0,0,0,6.23-6,5.5,5.5,0,0,1,2.75-1.45c.92-.28,2.08.13,2.83-.31l9.64-5.2L334,158.1l2.41-1.32c.79-.45,1.64-.8,2.46-1.21l7-3.29,8.52-4.12c5,1.72,7.17-3.18,9.26-5.77,2.37.06,3.86.51,4.93,0a21,21,0,0,0,3.14-1.88,15.47,15.47,0,0,1,3.22-1.63c2.45-.81,5.38-.44,7.65-1.47,2-.9,4.53-1,6.7-1.56a9.11,9.11,0,0,0,2.95-1.26,5.1,5.1,0,0,0,1.86-2.87c2,.22,3.91.93,5.44.5,3.12-.88,6.21-1.86,9.29-2.86l9.4-2.52c2.71-.7,5.45-1.27,8.18-1.91,1.52-.41,3.65.64,5.16.15,3.09-1,5.81-2.89,8.87-4.13a10.35,10.35,0,0,1,4.32-.25c.67,0,1.25,1,1.81,1,3.26-.35,6.55-.59,9.78-1.13q5.22-.82,10.44-1.75c3.49-.47,7-.86,10.5-1.3a45.42,45.42,0,0,1,5.46-.78c1,0,2,.05,3,.1s2,.12,3,.25c2,.23,4,.45,6,.51,2.66.08,5.36-.55,8-.84,1.79-.16,3.58-.37,6.16-.48-1.41,1.19-2,1.76-2.53,2.27l2.67-.25c.87-.09,1.72-.22,2.55-.36,1.67-.29,3.3-.66,4.94-1,2.31-.48,5.26-1.74,6.92-1,4.59,1.85,8.58.86,11.9.41,2.28.69,3.68,1.36,5.13,1.48s3.2-.55,4.73-.36c.9.12,1.78.27,2.67.43s1.76.44,2.64.65a48.14,48.14,0,0,0,5.28,1.12c2.48.34,5.09-.14,7.65-.26,4.9,1.82,9.64,4.66,15.83,3.09.9-.22,2.26.4,3.3.82,1.25.5,2.31,1.49,3.57,1.76,1,.19,2,.45,3,.7l3,.72,6.17,1.39-.94,1.29a90,90,0,0,1,10.06.77c3.54.73,7,1.94,10.79,3l-3.41,2.34,9.22,1.25.14-1L619,134c2.82-1.36,7-.32,8.5,1.93a5.27,5.27,0,0,0,2.29,2c3.24.92,6.58,1.44,9.83,2.32,3.81.95,7.48,2.31,11.2,3.55l11.13,3.8c-.32,1.11-.53,1.79-.79,2.67,5.11-1,9.11,1.56,13.28,3.6,1.69.84,3.47,1.5,5.22,2.24l5.22,2.28c2.26-3.59,5.1-.34,7.76.4-.07,2.41.18,3.89,1.11,5a6.53,6.53,0,0,0,1.94,1.54,27.28,27.28,0,0,0,3.12,1.62c2.87,1.33,6,2.23,8.93,3.44s5.82,2.71,8,5.46a4,4,0,0,0,2.63.89c3.31,0,5.33,1.53,7,4.36.74,1.28,2.58,2.24,4,3.13,3.91,2.48,8,4.72,11.91,7.22,1.55,1,3.09,2,4.54,3.2s2.9,2.31,4.42,3.35c3,2,6.28,3.54,9.2,5.66a4.08,4.08,0,0,1,1.24,1.85c.32.82.61,1.78,1.06,2.76-2.17-.6-3.22-.89-4.33-1.12l-.16.71c4.59,1.89,9.14,3.92,14,6-.44-1.26-.85-2.49-1.28-3.75,3.55.16,4.72,1.61,3.58,4.19-.5,1.14,0,2.89.94,4.36s2.24,2.74,3.55,2.72c3.43,0,4.57,2.3,6.21,4.62a16.26,16.26,0,0,0,3.65,3.46c1.6,1.13,3.45,1.94,4.79,3.31,2.1,2.2,4.11,4.49,6.13,6.77s4.09,4.49,6.08,6.78q5.32,5.83,10.79,11.57c3.45,4,6.93,7.94,10.49,11.85,2.38,2.51,5.32,4.48,8.43,7.14.68,4,3.64,6.19,8.78,6.55l-3.23,3c3.56.82,6.33.8,8.35,2.33s4.52,3,6.6,4.75a14.29,14.29,0,0,1,2.75,3,9.74,9.74,0,0,1,1.57,4.17,17,17,0,0,1,5.28,4.65c1.93,2.5,3.72,5.14,5.5,7.79a33.76,33.76,0,0,1,2.38,4.39l-.82.56c-.72-.61-1.8-1.08-2.1-1.84-1.78-3.95-4.73-5.18-8-6.28-1.17-.39-2.17-2.55-3.2-3.94-1.3-1.71-2.42-3.59-3.85-5.18-2.54-2.71-5.19-5.26-7.88-8,.65,1.85,1,4.09,2.12,5.75,3.44,4.77,6.81,9.59,10,14.56,1.37,2.19,2.7,4.42,4,6.69s2.36,4.62,3.59,6.9,2.53,4.52,3.95,6.69c.7,1.09,1.46,2.15,2.22,3.2s1.48,2.13,2.29,3.16a10.66,10.66,0,0,1,1.34,2.29l3,6.76,1.52,3.37.76,1.69.67,1.72,5.28,13.82a14.05,14.05,0,0,1,.68,2.93c.12,1,.15,2.13.3,3.25,1.21,1.66,3.07,3.6,4.25,6,.86,1.72,1.59,3.53,2.29,5.35s1.43,3.64,2,5.49a42.63,42.63,0,0,1,1.72,4.11c.84,3.67,1.51,7.39,2.57,11,.26.9.56,1.78.87,2.65s.58,1.76.93,2.62a26,26,0,0,0,2.69,5,8.48,8.48,0,0,1,.9,3c.58,2.71,1.07,5.43,1.61,8.14s.86,5.47,1.47,8.16c1.36,6.29,3.06,12.63,4.9,18.69,1,3.08-1.21,4.12-.84,6.45.42,2.72.83,5.44,1.16,8.18l.67,8.23c0,.43.27.84.34,1.27.39,2.64.77,5.27,1.2,8.18,2.4-.54,4,.76,5.24,2.65s2.07,4.36,3.29,6.13l2.78-1.1c.12,5,.23,9.92.35,14.76.06,1.21,0,2.42,0,3.62l-.09,3.6c-.05,2.4-.09,4.79-.14,7.18,0,2.79,0,5.58,0,8.38s-.19,5.58-.35,8.37c-.25,4.48-.86,9-1,13.43-.36,4.44.31,9.08-.58,13.36-.36,1.72-.71,3.43-1,5.13-.15.85-.29,1.7-.4,2.55s-.3,1.67-.41,2.51a28.81,28.81,0,0,0,.27,10.17c.08.36-.46,1-.54,1.46-.54,3.48-1.13,7-1.57,10.43-.29,2.82.53,5.75,0,8.48s-2.64,4.82-3.29,7.41c-.37,1.64-.92,3.24-1.4,4.85l-1.48,4.83L913.9,636l-.72,2.41-.81,2.39-1.6,4.78q-1.56,4.78-3,9.61c-.27.93-.56,1.85-.86,2.77s-.72,1.8-1.08,2.69c-.74,1.8-1.49,3.59-2.18,5.41a39.42,39.42,0,0,0-2.74,11.56c-.66,6.63-3.73,13.52-5.88,20.73l-3.33.8-5.25,13.49-1.35,3.45c-.47,1.14-1,2.26-1.5,3.41q-1.54,3.44-3.13,7c-2.91,1.07-2.83,1.08-4.61,5.47l-.94,2.3c-.32.76-.69,1.49-1,2.24L871.77,741l-4.27,9c-.74,1.52-1.33,3.11-2.15,4.71s-1.62,3.36-2.57,5.32c-3.6.67-5.16,3.92-5.53,8.75a16.08,16.08,0,0,1-.92,4c-.49,1.34-1.06,2.7-1.51,4l-1.33,0-1.27-3.52c-1.59,1.62-3.24,2.85-4.24,4.43-1.44,2.29-2.77,4.65-4.12,7-.69,1.17-1.33,2.38-2.08,3.51s-1.5,2.25-2.3,3.35c-2.8,3.88-6.09,7.47-9.07,11.26-.35.44-.67.91-1,1.38l-1,1.38a27.93,27.93,0,0,1-2.05,2.68c-3.07,3.39-6.49,6.48-9.41,10-1.48,1.84-3.13,3.5-4.69,5.26l-4.71,5.24-4.66,5.31-1.15,1.34-1.2,1.29-2.39,2.58c-1.88,2.06-2.62,5-3.91,7.52l1.69.89,7.31-7.08c.61-.59,1.23-1.17,1.81-1.78l1.73-1.87,3.43-3.75c1.56-1.74,2.4-4.14,4.07-5.66,1.82-1.69,3.78-3.22,5.71-4.91l6-5.29c.26,1.5,0,4.14.89,4.43,4.43,1.31.85,4.18-.44,6.64a37.34,37.34,0,0,1-2.47,3.77c-.82,1.23-1.42,2.34-1.21,3,1.28,3.8-1.73,6.06-4.18,8.85-2.27,2.54-4.3,5.31-6.62,7.79a9,9,0,0,0,3.24-1.16,22.64,22.64,0,0,0,3.33-2.46,23.63,23.63,0,0,0,4.67-5.25c1.15-2.08,3.71-3.84,4.73-5.91s.58-4.63,1.54-6.88c2.56-5.79,5.48-11.37,11.74-14.78.58-.31.94-1.26,1.39-1.91,3.18-4.61,6.15-9.32,9.51-13.75l5-6.46,5-6.42a84.39,84.39,0,0,0,5.26-6.82c1.94-3.43,3.8-6.9,5.65-10.34l2.78-5.16c.94-1.71,1.91-3.4,2.78-5.16,1.86-3.6,4.36-6.91,6.48-10.4,1.4-2.35,2.47-4.7,3.67-7.09a24.17,24.17,0,0,1,5-7.09c2.07-2,3.49-5.09,4.72-8.42.3-.84.62-1.67.88-2.54l.77-2.63c.51-1.75,1-3.47,1.64-5.08.51-1.35,1.31-2.62,2.36-4.67,0-.41-.22-1.8-.43-3.44a6.36,6.36,0,0,0,3.57-2.85,9.67,9.67,0,0,0,1-4.57A9.82,9.82,0,0,1,910,695.9c2.63-3.81,6.09-7.11,8.19-11.24,2.92-6.29,5-13.06,7.44-19.59,1.46-4.44,3-8.86,4.5-13.29a66.12,66.12,0,0,1-2.72,13.46c-2.06,5.86-4.64,11.56-6.66,17.44-.44,1.23-.83,2.49-1.29,3.72L918,690.07l-2.8,7.36-2.81,7.38c-.46,1.24-1,2.44-1.54,3.63l-1.63,3.6c-3.23,6.92-6.3,14-10,20.65l-5.39,10.17-1.35,2.54L891,747.87l-2.92,5c-.48.83-.25,2-.35,3.07,1-.34,2.33-.37,2.89-1.09,1.51-2,3-4,4.41-6,.36-.51.73-1,1.08-1.53l1-1.57,2-3.15c3-4.84,6.14-9.67,9.09-14.59a8.52,8.52,0,0,0,.8-1.8c1.64-5.58,3-11.16,4.89-16.62a11.43,11.43,0,0,1,.77-1.77c.28-.59.59-1.18.92-1.76.66-1.17,1.38-2.32,2-3.5,1.59-3,4.25-6.29,4.54-9.16a31.82,31.82,0,0,1,1.16-5.78A46.83,46.83,0,0,1,925,682c1.38-3.6,3.09-7.08,4.63-10.65a4.81,4.81,0,0,1,2-1.9c2.64-1.52,2.63-3.24,1.58-5.74-1.48-3.49-.44-5.71,3-6.65,2.65-.74,3-2.93,3-5.45,0-1.39-.58-2.76-.29-4.08.24-1,.42-2.1.61-3.16l.56-3.17,1.14-6.34,1.18-6.31c.38-2.11.85-4.19,1.11-6.33.12-.83,1.08-1.59,1.65-2.39a12.48,12.48,0,0,1,1.08,2.38,24.72,24.72,0,0,1,.31,4.26,11.16,11.16,0,0,0,1.51-2.8c.59-4.22-.44-8.63,2.64-12.48a4.64,4.64,0,0,0-.18-3.54,5.89,5.89,0,0,1-1.5-4.77,28,28,0,0,1,1.11-5.41c1-3.67,2.17-7.42,2.49-11.14a23,23,0,0,0-.23-4.9c-.19-1.63-.59-3.28-.71-4.94-.2-2.44-.65-4.91,1.79-6.86,1.59-1.25,4.23-3.72.81-6.46-.6-.48-.32-2.84-.53-5.27,1,.83,1.36,1.34,1.74,1.35,2.28.07,4.55,2.9,6.88-.89a14.25,14.25,0,0,1,2.38-2.58,21.91,21.91,0,0,1,1.49,5.3c0,.45-1.61,1.76-2.54,2.06a24.84,24.84,0,0,1-4.66.74c.62,3.15,1.07,5.41,1.6,8.09,1.17-2.85,2.1-5.09,3.45-8.37.51,2.09.64,6.5.49,12.08,0,1.39-.08,2.86-.15,4.38,0,.77-.08,1.54-.12,2.33s-.17,1.57-.25,2.37c-.35,3.2-.76,6.55-1.21,9.89s-.94,6.68-1.45,9.86-1.31,6.15-2,8.85c-1.31,5.4-2.54,9.59-3.46,11.42l-1-2.9a6.26,6.26,0,0,0-.48,1c0,1.56.11,3.12.12,4.67l-.08,4.64c-.09,4.73-1.53,6.81-5.18,7.53l1.92-11c.15-.92.33-1.82.45-2.75l.35-2.77.68-5.53-.33,0c-.72,3-1.37,6.06-2.14,9.06s-1.68,6-2.53,8.95c-1.73,5.94-3.24,11.92-5.33,17.69l1.85,1.66-3.69,5.16,3.75,1.87-.54,2.52-5.79-.18c-.24,1.77-.44,3.5-.7,5.18s-.59,3.29-.88,4.89c-.58,3.22-1.14,6.34-1.71,9.45,2.72-4.41,3.53-10.06,8.32-13.23-2,6.81-3.93,12.83-5.82,18.86-.36,1.11-.71,2.22-1.07,3.33s-.86,2.16-1.32,3.23c-2,4.62-4.27,9.15-6.09,13.83-1.52,4.15-2.66,8.41-4.53,12.41l-4.68,9.61-1.18,2.4-1.29,2.34-2.6,4.68c-3.51,6.21-6.81,12.55-10.61,18.58a58.2,58.2,0,0,0-4.05,9.45c-.69,1.78-1,3.65-1.75,6.35l1.23,3.29-6.54,3.61a8.6,8.6,0,0,0,7,.91,11.52,11.52,0,0,0,3.61-1.73,11,11,0,0,0,3-3.15c3.1-4.8,5.41-10.1,8.09-15.14.72-1.39,1.31-3,2.16-4.33a4.12,4.12,0,0,1,4-2.15c-.46,2.18-.8,4.24-1.32,6.2l.81.22c1.22-2.39,2.27-4.88,3.41-7.32l-2.94-1.24,9.69-10.61c-.12-1-.26-2.81-.57-4.86l3.78-.59,3-7,.86.3c-1.09,3.11-.73,6.29-.93,9.55a20.61,20.61,0,0,1-.29,2.46,13.95,13.95,0,0,1-4.32,7.33c.22.33.72,1.08,1.74,2.58,1.79-4.88,3.2-8.71,4.64-12.62,2.5-6.34,2.53-13.34,7.91-18.81a25.37,25.37,0,0,0,2.59-4.45l.82.57c-.3,1-.61,2.05-.93,3.1s-.64,2.15-1.06,3.28c5.85-2.38,2,3.3,2.64,5.94,2.63-5.3,4.61-10.3,6.66-15.25,1.38-3.37.39-4.29-2.22-3.73-.5,2.91-1,5.72-1.46,8.54-.29-3.42-.4-6.38-3.84-4.51l3.65-15.11-3.52.41a45.35,45.35,0,0,0,3.16-7q1.31-3.57,2.6-7.08a68,68,0,0,1,2.93-6.84c.56-1.11,1.17-2.19,1.83-3.26a31.14,31.14,0,0,1,2.07-3.16c-.29,4.25-1,8.39-1.49,12.66s-1.17,8.61-1.77,13.06a52.19,52.19,0,0,0,4.65-5.7,76.57,76.57,0,0,0,3.64-7.61l1.18,2.62c.54-1.8.89-3.53,1.29-5.1a17.28,17.28,0,0,1,1.51-4.09c2.41-4.1,1.75-5-1.33-4.63.73-2.16,1.35-4,2.14-6.3,2.57,1.81,3.21-1,4.17-3.85.78-2.3,1.21-4.82,1.9-7.25a14.34,14.34,0,0,1,3.49-6.82c.13,6.5.11,6.53,3.45,5.1.37-2.91.06-6.47,1.18-8.17,2.82-4.28,2.07-7.8,2-12.41-2.06,5.69-4.58,6.16-7.56,1.84.85-1.73,1.79-3.63,2.59-5.57.26.88.51,1.76.81,2.78l.9,3.64c.69-2.79,1.14-5.36,1.58-7.81l1.28-7.07,1.56-8.47c.25-1.41.53-2.81.77-4.23l.58-4.26c.78-5.68,1.5-11.36,2.1-17,.35-2.8.43-5.63.55-8.45l.3-8.44c.16-5.62.4-11.22.31-16.84,0-2.45,1-5,1.8-8.37l-.38-.58a20.17,20.17,0,0,0,2-8.65c.08-2.88-.27-5.71,0-8.4.57-5.89.85-11.84,1.23-17.77l1.11-.36c2.76,4.4,0,11.47,2.19,16.47,1.65-2.19-.73-8.59,4.24-7.11l.09,10.36,0,5.2c0,1.73-.11,3.47-.16,5.2q-.43,10.44-.88,20.9l-.94.1-1.27-5-.78.38-.3,3.79c-.09,1.26-.29,2.52-.44,3.78l-.54.09-.66-3.35-.81-3.34-1.47.89c.16.65.3,1.36.42,2.09s.21,1.47.3,2.17a7,7,0,0,0,1.12,3.33c4.37,4.94,4.53,4.7,2.43,13.07l1.83,1.36-1.23,4.93c-.37,1.65-.87,3.26-1.16,4.9a21.87,21.87,0,0,0,.12,10c2.57-13.07,4-26.23,5.63-39.35q.76-9.87,1.52-19.74l.36-4.94.14-5c.09-3.29.17-6.59.26-9.89l3.42.07c.09-3.25.17-6.37.25-9.44.07-1.53,0-3.05,0-4.56s-.12-3-.17-4.52c-.13-2.89-1.5-6.31-.88-8.47,1.28-4.52-.56-6.25-1.83-7.81.68-1.33,1.63-2.32,1.53-3.21-.4-4.39-1-8.77-1.73-13.09-.11-.69-1.51-1.77-1.83-1.48-1.58,1.44-3.53,2.79-4.34,5.05s-.45,5.6-.69,10c-1.37-2.85-3.27-5.06-3.25-7,.05-4.8-.92-10-.56-14,.1-1.15.18-2.27.17-3.37s-.09-2.19-.17-3.26c-.17-2.15-.44-4.27-.73-6.39-.66-4.88-1.41-9.75-2.2-14.6-1-4.82-2.06-9.62-3.1-14.42s-2.31-9.75-3.72-14.57l-4.55-16.78-.57-2.09-.66-2.07-1.33-4.14L980,374.59c-.83-2.57-1.5-5.21-2.25-7.81,4.47,3.1,6,7.87,7,13.2.32,1.73.75,3.45,1.22,5.17s1,3.42,1.46,5.13c1.76,6.52,4,13,5.34,19.54.18.93.4,1.77.63,2.55a12.61,12.61,0,0,0,.77,2.15,7.8,7.8,0,0,0,2.81,3.22c-.09-1.7-.25-3.37-.48-5a38.14,38.14,0,0,0-1.07-4.85c-1-3.85-2.16-7.67-3.27-11.49l-1.63-5.73-.79-2.87-.89-2.85c-1-3.15-.81-6.67-1.79-9.83-.79-2.56-1.91-5.06-2.94-7.55-.52-1.24-1-2.49-1.45-3.73a26.92,26.92,0,0,1-1.16-3.71A36.91,36.91,0,0,0,975,345.62a7.4,7.4,0,0,1-1.8-4.19,5.2,5.2,0,0,1,1.12-3.28,19.65,19.65,0,0,1,2.4-2.31l-5.78-5.38-.49,1L969,326.94l1.15.53.92-6,.08.12c-1.37-1.1-2.66-.15-4,0A2.45,2.45,0,0,1,965,321a11.31,11.31,0,0,1-2.41-3.77,14.93,14.93,0,0,0-.1,3,14.52,14.52,0,0,0,.4,2.83,26.71,26.71,0,0,0,1.87,5.12c1.49,3.25,3.16,6.3,3,9.63-2-3.35-3.95-6.74-5.85-10.16l-2.82-5.14c-.91-1.72-2-3.37-3-5.06,0-.08.13-.3.08-.42-1.89-4.65-3.63-9.39-5.8-13.91a41,41,0,0,0-3.11-5.46c-1.14-1.76-2.31-3.51-3.37-5.33-.42-.71-.11-1.93-.18-4.12,2,2.85,3.25,4.39,4.24,6.1l1.69,2.92c.57,1,1.13,2,1.64,3l3.16,6.13c2.12,4.17,4.32,8.48,6.66,13.09.58-2.94,1-5,1.42-7.17q-4.17-7.5-8.4-15.15L945,282.27l1.26-1.21L956.08,295l1-.72-3.7-6.36-2.61-4.41a19.16,19.16,0,0,0-2.28-3.66c-1.88-1.82-3.87-3.29-5.86-4.92a20.05,20.05,0,0,1-5.34-6.24c-2.2-4.11-4.63-8.1-7-12.19l2.81-1.69c-2-.63-3.94-.46-5.07-1.57a70.4,70.4,0,0,1-7.19-8.54l-4.65-6.33c-.76-1.06-1.59-2.08-2.41-3.1l-2.45-3.07q-4.87-6.15-9.7-12.34c-.84-1.12-.81-3-1.5-5.63l3,2.56,1.94,1.8,1.34.2a12.24,12.24,0,0,0-1-2.74c-2.58-3.61-5.2-7.25-8.11-10.57-2.05-2.33-4.17-4.55-6.31-6.77l-1.61-1.65-1.67-1.6q-1.66-1.6-3.3-3.24c-2.2-2.22-3.93-5.07-6.21-7.08a27.57,27.57,0,0,1-4.22-4.48,18.82,18.82,0,0,1-2.8-5.11ZM65.25,462.94l.09,3.23.13,2.71a31,31,0,0,1-.06,4.08,7.73,7.73,0,0,1-2.16,5,69.8,69.8,0,0,0,.3-7.76l-.07-3.83.12-3.79c.21-5,.74-10,2.79-14.77-.46-2.15-1.27-4.25-1.18-6.44a99.51,99.51,0,0,1,1-13,50.62,50.62,0,0,1,1.32-5.77c.49-1.91,1.18-3.79,1.56-5.72.55-2.6.33-5.36.85-8.13,1.77,2,3.17,3.16,1.27,7.49a24.21,24.21,0,0,0-1.79,6.92,65.26,65.26,0,0,0-.25,7.35,40.45,40.45,0,0,1-.5,7.63,26.85,26.85,0,0,1-.87,3.62c-.37,1.2-.86,2.38-1.35,3.58a7.51,7.51,0,0,0-.07,2.44C66,452.86,65.1,458,65.25,462.94Zm118.56-229.7a6.29,6.29,0,0,1,2.8-3.61,17.62,17.62,0,0,0,4.35-2.52c.66-.5,1.26-1.06,1.88-1.61s1.24-1.11,1.83-1.7c2.37-2.35,4.52-5,7-7.21,1.65-1.51,3.22-3.11,4.76-4.74s3.21-3.15,4.84-4.7q2.78-3.6,5.55-7.16c1.86-2.38,3.71-4.78,5.75-7a7.35,7.35,0,0,1,2.95-2.09c2.63-.81,3.54-5.19,7.16-4.28.6.16,2.66-2.64,4.08-4,2-1.9,3.9-4.12,6.18-5.62,3.3-2.19,5.81-4.3,4.77-8.51a7.09,7.09,0,0,0,4.68.65c1.33-.37,2.37-1.46,3.12-3.56.12-.32.68-.63,1.07-.89l10-6.9c1.65-1.19,3.42-2.2,5.14-3.28l5.2-3.18c8.69-5.57,18.08-9.94,26.84-15.32,5.76-3.14,10.81-7.52,16.45-11.09,2.33-1.45,5.28-2,7.94-2.88a14.82,14.82,0,0,0,2.7-.71,83.09,83.09,0,0,1,10.57-4.51,32.6,32.6,0,0,0,10.32-5.28,13.88,13.88,0,0,1,4.53-2.14c1.72-.52,3.5-1.07,5.11-1.7a77.6,77.6,0,0,0,7.2-3.67c3.94-.62,6.72-.79,9.37-1.53.67-.19,1.33-.42,2-.66s1.32-.45,2-.7c1.32-.5,2.63-1,3.95-1.5l.67,1.08c-3,1.67-6,3.45-9.05,5.09-5.32,2.71-10.79,5.09-16.15,7.65a1.65,1.65,0,0,1-.83.25c-6.85-1.26-12.79,3.1-19,5.26a188.43,188.43,0,0,0-19.82,8.9c-4.13,2.43-7.59,5.89-11.3,8.87-.7.56-1.39,1.58-2,1.67a21.24,21.24,0,0,0-2.92.57,26.13,26.13,0,0,0-2.73,1,41.12,41.12,0,0,0-5.16,2.64c-3.33,2-6.51,4.27-9.84,6.27-5.11,3.43-10.26,6.78-15.42,10.12-.65.43-1.3.83-1.93,1.27l-1.88,1.34-3.74,2.69-7.47,5.42a39.21,39.21,0,0,0-3.38,2.8c-1.06,1-2.1,2.06-3.19,3-4,3.59-7.83,7.3-12,10.63-4.83,4.2-10,8-15.34,12.31l1.93.62-.26.71c-1-.06-2,0-2.25-.05-3.33,2.77-6.08,5.17-9,7.36-.55.41-1.68-.08-2.54-.16l-2.56,4.18c-.46.71-1.28,1.51-1.3,2.18-.19,3.63-.11,3.6-3.63,3.32-.44,1.51-.9,3-1.36,4.58l-2.91-.2c0,.78.09,1.56.14,2.33.13,1.9-2.76,5.62-4.27,5.2-2.23-.61-3,.92-4.32,2.48-2.25,2.59-4.54,5.13-6.86,7.66l-3.47,3.79-3.28,4c-.18,1.14.07,2.53-.51,3.34-2.35,3.21-4.74,6.4-7.14,9.58L163,269.21c-1.54,2.28-3,4.61-4.6,6.84-2,3-4.26,5.79-5.92,8.91-.8,1.5-2.72,4.77-4.76,8.08s-3.88,6.85-5,8.55c-1,1.4-1,3.43-1.72,5a6.41,6.41,0,0,1-2.84,2.72,89.56,89.56,0,0,1,7.4-16.69c3.17-5.2,6.64-10.24,9.78-15.45l9.9-16.2c.86-1.33,1.68-2.7,2.64-3.95s1.93-2.51,2.95-3.73a64.16,64.16,0,0,1,6.62-6.89C180.72,242.3,183,238.14,183.81,233.24Zm121.73-69.77c2-1.56,4.13-3.07,6.27-4.49,1.07-.7,2.16-1.38,3.27-2s2.31-1.16,3.5-1.68,1.89-1.64,2.92-2.39c1.28-.92,2.63-2.25,4-2.51a40,40,0,0,0,7.95-2.23,19.67,19.67,0,0,0,7-4.39,6,6,0,0,1,2.68-1.51,23.67,23.67,0,0,0,4.95-1.69q1.17-.54,2.28-1.17t2.25-1.2c3-1.67,5.81-3.58,8.89-5.1,6.65-3.47,13.81-5.77,20.78-8.57,2.07-.78,4.24-1.46,6.2-2.36,5.3-2.59,10.2-1.31,15.09-.58.66.09,1.69.42,2,.18a12.18,12.18,0,0,1,3.8-2.28,32,32,0,0,1,4.23-1.34A43.15,43.15,0,0,0,422,115.5c.83-.41,1.33-1.32,2.1-2.13a18.94,18.94,0,0,0,5.78,1.14,25.43,25.43,0,0,0,5.69-.51c3.78-.68,7.55-2,11.34-2.36,4.23-.29,8.42-1.44,12.64-2.22,2.44-.44,4.88-1,7.33-1.35l7.39-1c.43-.06,1.06-.47,1.23-.36,3.56,2.34,7.25,1.6,11.06.67,3.8-.75,7.73-1.63,11.43.19,2,1,6.31-1.21,9.65-1.75a42.08,42.08,0,0,1,5.49.1l.21,1-2.57,1.86c.83.34,1.34.75,1.79.71l10.59-.9,5.32-.44c1.77,0,3.55-.07,5.33-.08,4.18,0,8.4.75,12.58.69a9.32,9.32,0,0,1,2.46.36c.8.21,1.6.54,2.41.78a6.59,6.59,0,0,0,5.18-.25c1.57-.78,4.52-.14,6.71.32.67.15.9,1.88,1.51,3.33l2.51-1.74.18.69c.6-.09,1.24-.13,1.86-.2a6.64,6.64,0,0,0,1.73-.32c3.56-1.32,7.31.17,10.78.62,2.46.32,4.91.69,7.36,1.08s4.82,1.06,7.2,1.6c4.76,1.14,9.43,2.23,13.9,3.34.35.73.52,1.93,1.06,2.13,2.93,1,6,1.84,8.94,2.7l6.32,1.83,1.57.46,1.56.53,3.1,1.08c4.15,1.43,8.29,2.84,12.45,4.22,1.72.52,3.38,1.2,5.06,1.82l5.05,1.85c3.37,1.23,6.74,2.47,10.08,3.79,5.92,2.72,11.62,5.9,17.56,8.52C686.33,149,690,150,693.37,152c-5.76-.58-10.94-2.69-16.17-5.25-1.92-1-3.88-2.27-5.88-2.69a40.56,40.56,0,0,1-5.9-1.72c-.95-.37-1.9-.71-2.85-1.06s-1.89-.73-2.82-1.12c-3.73-1.58-7.37-3.42-11.09-5.12-.88-.4-1.76-.79-2.66-1.16l-2.73-1c-1.83-.63-3.67-1.22-5.52-1.8l-11.09-3.48-17.35-4.9c-5.83-1.45-11.71-2.72-17.56-4.07l-2.7-.61c-.91-.18-1.82-.32-2.73-.48l-5.46-.93L570,114.79c-3.65-.53-7.33-.89-11-1.34s-7.32-.92-11-1.25-7.52-.25-11.27-.39c-1.87-.07-3.74-.17-5.58-.35-.92-.09-1.84-.2-2.75-.33s-1.83-.19-2.73-.33a64,64,0,0,0-10.94-.54l-10.82.17c-3.75,0-7.5,0-11.26.09l-5.63.14-5.62.42-11.46.79-2.86.2c-1,.08-1.9.23-2.85.34l-5.7.73-11.18,1.55c-3.7.65-7.38,1.44-11.08,2.1l-9.3,1.7-9.2,2.16-9.21,2.12-1.15.26-1.14.32L404,124l-4.56,1.27c-1.07.3-2.43-.45-4.44-.88l-4.46,1.54.63.91a20.24,20.24,0,0,1-3.52,2.42c-5.63,2.25-11.31,4.35-17,6.37-2.47.95-5,1.71-7.55,2.51-.69.22-1.46.18-2.12.45l-8.9,3.68c-2.92,1.35-5.8,2.77-8.69,4.16-4.69,2.31-9.37,4.62-13.92,7.21l-7.94,4.25-4,2.12c-1.31.73-2.58,1.53-3.88,2.29l-7.72,4.61c-2.56,1.56-5.2,3-7.65,4.73l-8.34,5.6c-2.78,1.87-5.6,3.67-8.24,5.74l-8,6-4,3c-1.32,1-2.58,2.14-3.86,3.2-5.69,4.81-12.08,9.22-16.24,15.16-2.25,3.08-5,3.13-7.06,5.18-.66.67-1.3,1.34-1.93,2l-1.8,2.15c-1.2,1.43-2.42,2.84-3.74,4.15-7.64,7.22-14.94,14.81-22,22.61-3.28,3.94-6,8.33-9.21,12.28-.49.61-1,1.2-1.47,1.81L201,262.44l-2.79,3.73-5.62,7.44-1.4,1.85-1.31,1.93-2.61,3.86L182.1,289c-.5.76-1,1.51-1.55,2.26L179,293.55c-1,1.53-2.06,3.05-3,4.61a29.36,29.36,0,0,0-4.27,10,3.6,3.6,0,0,1-.93,1.89,25.57,25.57,0,0,0-5.6,8c-.71,1.46-1.35,3-2,4.45l-1,2.23c-.3.76-.6,1.51-.93,2.26-1.87,4.24-4.38,8.21-6.38,12.41a52,52,0,0,0-2.49,6.31c-.75,2.13-1.51,4.26-2.38,6.34L147,359.22l-2.75,7.25-2.73,7.24-1.37,3.62L139,381c-1.12,3.59-1.86,7.29-2.79,10.93-1.22,4.34-1.91,8.83-2.83,13.24L132,411.81c-.23,1.1-.48,2.2-.69,3.31l-.53,3.33c-.39,2.4-1.48,4.69-2.25,7l-1.07-.16a9,9,0,0,1-.29-2.54l1.23-6.76.32-1.69c.12-.56.28-1.11.41-1.66l.84-3.34c.73-2.86,1.66-5.69,2.29-8.57l.95-4.44c.29-1.48.74-2.92,1.1-4.38l2.24-8.79c.86-3.31,1.65-6.66,2.66-9.92q1.47-5.31,2.95-10.6c.51-1.77.94-3.57,1.53-5.31l1.83-5.2c.8-2.22,2.52-4.12,3.48-6.31l2.31-5.36,2.53-5.25,5-10.53.7-1.42.79-1.38,1.59-2.75,3.2-5.5c1.05-1.84,2.07-3.69,3-5.56l.69-1.42.73-1.38c.47-.92.92-1.86,1.34-2.81q1.65-3.66,3.49-7.15c.62-1.16,1.25-2.32,1.9-3.47s1.29-2.32,2.05-3.41c2.25-3.37,4.43-6.79,6.62-10.21,1.1-1.7,2.17-3.42,3.31-5.11s2.39-3.27,3.62-4.89c2.43-3.23,5.54-5.94,7.94-9.17,3-3.73,5.52-7.85,8.53-11.6,1-1.3,2.16-2.56,3.29-3.8s2.41-2.37,3.59-3.56a48.12,48.12,0,0,0,6.42-7.5c.76-1.15,1.56-2.26,2.4-3.32a38.71,38.71,0,0,1,2.73-3c1.89-1.91,3.88-3.72,5.89-5.5s4-3.56,6-5.34a77.73,77.73,0,0,0,5.92-5.42c3.83-3.91,8.41-7.28,12.07-11.18A94.21,94.21,0,0,1,267.3,189c3.84-2.9,7.7-5.76,11.25-9a18.28,18.28,0,0,1,4.49-2.95c1.67-.8,3.4-1.53,5-2.43a58.2,58.2,0,0,0,7-4.51,36.33,36.33,0,0,0,3.74-3.72C301.33,165.31,303.8,164.8,305.54,163.47Zm-206.33,148a7.31,7.31,0,0,1,.91-2.76,59,59,0,0,0,8.08-13.57c2.41-4.67,4.58-9.5,7.26-14l2.05-3.49,1-1.75,1.08-1.72,4.24-6.9,4.21-6.92c.71-1.15,1.4-2.32,2.13-3.45l2.3-3.34c2.61-3.78,5.31-7.52,8-11.26l2-2.81,2.1-2.73q2.12-2.74,4.16-5.5c2.61-3.49,5-7.13,7.57-10.65s5.25-7,8-10.36q2.15-2.67,4.37-5.29c1.51-1.72,3.11-3.35,4.67-5,3.13-3.34,6.25-6.69,9.24-10.15,1.51-1.81,3.15-3.48,4.7-5.24l4.68-5.27,4.68-5.29c.79-.88,1.56-1.78,2.38-2.62l2.5-2.5c2.52-2.49,5.5-4.58,8.27-6.84,1.65-1.34,3.33-2.62,4.94-4,4.31-3.48,8.72-6.85,13.08-10.28l3.28-2.55,1.64-1.28,1.69-1.21,6.79-4.81c1.09-.78,2.23-1.53,3.24-2.4,2.14-1.82,4.16-3.67,6.36-5.36a43.18,43.18,0,0,1,7.43-4.35,47.89,47.89,0,0,0,8.65-5.36l2.09-1.58c.71-.53,1.43-1,2.15-1.52,1.44-1,2.88-2,4.33-2.93l5-3.23,4.91-3.24,2.54-1.67,2.69-1.6c1.91,1,4.19,2,6.34-2.29.54-1.08,2.43-2.32,3.88-2.89,2-.8,4-1.46,6-2.13,1-.36,2-.66,3.05-1s2-.65,3-1a32.57,32.57,0,0,0,6.32-3.69c3-1.95,5.83-4,8.76-6,.28-.17.48-.51.75-.58,4.83-1.38,9.67-2.64,14.45-4.08,2.44-.72,4.95-1.35,7.34-2.15a13.73,13.73,0,0,0,6.36-4,5.33,5.33,0,0,1,2.42-1.3l7.14-1.88,3.56-.91c1.2-.28,2.41-.5,3.61-.76.17,0,.44-.07.47-.14,3-5.31,9.08-2.93,13.56-4.46l3.74-1.24c1.24-.43,2.53-.71,3.79-1.06,2.55-.66,5.1-1.29,7.67-1.91l7.69-1.84,3.85-.91,3.88-.75c1-.19,2-.31,3-.49l10.51-1.88L437,54.4c1.76-.25,3.53-.45,5.3-.67,2.68-.32,5.4-.3,8.07-.65,1.9-.25,3.79-.58,5.69-.9l2.84-.47a27.56,27.56,0,0,1,2.86-.35c5.16-.42,10.33-.75,15.49-1.1,2.59-.16,5.17-.41,7.75-.51s5.17-.17,7.75-.29L503,48.89l5.08-.3,5.09-.09,10.2-.15,5.1,0c1.71,0,3.41,0,5.11.1,4.39.23,8.77,1.39,13.13,2.16,1.32.24,2.59.75,3.9.86,1.56.13,3.12.25,4.68.41l4.65.65,9.31,1.32c3.1.43,6.21.8,9.3,1.17s6.17.9,9.26,1.22a104.15,104.15,0,0,1,11.85,2.28c1,.21,1.94.45,2.9.7s1.91.46,2.87.66a37.4,37.4,0,0,0,5.74.73c4.17.16,7.58,1.87,11,3.4s6.65,3.18,10.83,2.85l-.51,1.68-9.88-2.6-10-2.14-12.22-2.6-12.34-2c-3-.46-6-.56-9-1.14-6.91-1.16-13.8-2.6-20.76-3.4-1.37-.14-2.73-.33-4.1-.4l-4.12-.2-8.24-.3-8.22-.28-2.06-.08H525.3c-5,0-10.1-.9-15.18-1-2.28-.11-4.57,0-6.86.09l-6.87.29-13.72.53c-4.92.3-9.8,1.08-14.69,1.65-2.45.29-4.91.51-7.38.63a51.74,51.74,0,0,1-7.48.14c-4.21-.24-8.8,1.13-13.21,1.78-2.44.3-4.83.87-7.25,1.32l-7.23,1.42-7.22,1.44c-1.2.26-2.42.45-3.61.76l-3.57.9c-5.19,1.31-10.37,2.87-15.53,4.27-2.6.65-5.13,1.53-7.7,2.21s-5.13,1.31-7.71,1.79a44.43,44.43,0,0,0-8.95,2.86A71.4,71.4,0,0,1,362.7,78q-5.37,1.7-10.71,3.5c-1.8.56-3.52,1.31-5.28,2l-5.23,2.1L331,89.83c-1.75.67-3.42,1.55-5.13,2.33l-5.1,2.39c-3.54,1.67-7,3.42-10.51,5.19l-10.24,5.7-6.31,3.43-3.16,1.71c-1,.58-2.06,1.22-3.1,1.83l-12.34,7.34-4,2.37-3.86,2.54-7.72,5.07c-2.56,1.71-5.18,3.33-7.69,5.11l-7.5,5.39-6,4.27-3,2.12c-1,.73-1.94,1.5-2.91,2.25l-11.57,9-2.89,2.27c-.94.78-1.86,1.59-2.79,2.39l-5.55,4.81-5.52,4.84-2.75,2.43-2.64,2.56c-4,3.93-7.89,8-11.73,12.12-1,1-1.86,2.1-2.78,3.16l-2.74,3.21q-2.74,3.19-5.55,6.33c-4.57,4.91-9.18,9.84-13.58,14.93-5.46,6.15-10.25,12.87-15.07,19.5q-1.4,2-2.73,3.92c-.87,1.34-1.67,2.72-2.5,4.08l-4.9,8.2a5.28,5.28,0,0,1-.92,1.17,33.52,33.52,0,0,0-4.26,4.77,57.16,57.16,0,0,0-3.22,5.44c-2,3.73-3.74,7.56-6,11.12-.62,1-1.3,2-1.88,3.07l-1.76,3.14-3.51,6.28L112.25,294c-.57,1-1.17,2.09-1.7,3.16L109,300.38c-1.38,2.88-2.16,6-3.41,8.94-1.08,2.52-2.15,5-3.26,7.53s-2,5.08-3.15,7.58a84.47,84.47,0,0,1-5.83,10.81c-.59.91-2.38.85-4.41,1.56.61-1.15,1.26-2.25,1.87-3.33s1.19-2.16,1.73-3.22c1.08-2.13,2-4.22,2.84-6.3s1.53-4.14,2.14-6.22c.31-1,.56-2.09.85-3.12S99,312.56,99.21,311.52ZM338.1,101.76l-.33-.34c-1.21.6-2.45,1.14-3.62,1.81l-3.55,2c-2.37,1.3-4.75,2.57-7.17,3.77-2,1-4.45,1.14-6.62,1.94a32.68,32.68,0,0,0-3.85,1.67c-1.26.62-2.5,1.28-3.71,2-3.51,2-6.77,4.41-10.15,6.58-.85.54-1.71,1.05-2.58,1.57s-1.71,1-2.6,1.53a29.65,29.65,0,0,1-5.66,2.38,12.3,12.3,0,0,0-3.43,1.59l-5.63,3.87a30.27,30.27,0,0,0-2.7,2.08c-.88.72-1.74,1.45-2.57,2.21-2,1.78-3.24,4.13-4.8,6.21l-.55-1c-1.81.77-4,1.19-5.4,2.37a85.38,85.38,0,0,0-6.55,6.21c-2.12,2.14-4.22,4.28-6.38,6.35a57.19,57.19,0,0,1-5.55,4c-.26-1.38-.45-2.34-.63-3.3l-.89-.39c-2.47,6.2-5.94,11.14-12.25,13.43l-1.37-1c-2,2.77-3.73,5.75-5.54,8.65a4.41,4.41,0,0,1-.79,1.1c-3.63,3-7.32,5.94-10.92,9l-10.51,9.47a22,22,0,0,0-1.47,1.82c-2.78,3-5.08,6.54-7.92,9.5l-4.95,5.21c-1.64,1.75-3.38,3.41-4.93,5.24q-4.77,5.37-9.64,10.67c-.95,1-1.94,2-2.94,3.06L167,236.11c-1.94,2.06-3.88,4.12-5.72,6.29-1.69,2-2.73,4.51-4.18,6.72l-10.36,17.15c-.24-1.37-.36-2.07-.5-2.9-.68,1.49-1.24,3-1.77,4.44a11.18,11.18,0,0,1-2,3.71c-1.5,1.66-.81,7.18-5.52,4.93,1.1-2,2.18-4.07,3.26-6.09l1.62-3,.81-1.52.88-1.47c2.34-3.91,4.69-7.8,7.12-11.66,2.89-4.78,6.21-9.24,9.47-13.77l4.92-6.78,1.24-1.69,1.31-1.63,2.62-3.26,5.57-6.92c1.88-2.29,3.68-4.66,5.7-6.82,3.94-4.42,7.93-8.82,12-13.15,3.38-3.37,6.79-6.67,10.07-10.11,1.64-1.72,3.26-3.46,4.85-5.24s3.29-3.45,4.88-5.25a56.88,56.88,0,0,1,7.28-6.61l3.94-3.08c1.36-1,2.7-2,4-3,6.38-5,12.44-10.48,19.13-15.12,3-2.16,6.4-3.77,9.15-6.11,1.9-1.68,2.93-4.55,5.42-3.2,1.64-1.63,2.82-3.22,4.38-4.25l5.95-3.92c2-1.3,4-2.62,6-3.77l12.33-7.17,2.68-1.57,1.35-.79,1.37-.72,5.51-2.91,11-5.81c1.29-.71,2.62-1.33,3.93-2,4.33-2.13,8.64-4.3,13-6.39l3.34-1.63c1.12-.54,2.26-1,3.39-1.52l6.82-3c2.28-1,4.56-1.94,6.86-2.85,1.15-.45,2.31-.89,3.47-1.31s2.35-.73,3.54-1.06a162.84,162.84,0,0,0,16.92-6.07,133.06,133.06,0,0,1,17.2-5.07c1.33-.27,2.66-.58,4-.91l4-.92c2.64-.63,5.25-1.35,7.87-2.08,5.24-1.44,10.45-3.08,15.89-3.75,3.93-.57,7.85-1.19,11.76-1.83,2-.3,3.91-.71,5.88-.93l5.91-.73c7.88-1,15.74-2.15,23.67-2.53,1.59-.11,3.18,0,4.77-.06l.08.93-8.37,1.08-4.18.54c-1.39.21-2.77.49-4.16.73q-8.31,1.5-16.55,3.09c-.67.14-1.33.26-2,.42l-2,.55L434,73.9c-2.6.78-5.2,1.56-7.83,2.19-2.3.55-4.89.08-7.31.42-3.92.68-7.81,1.51-11.72,2.29s-7.82,1.57-11.7,2.49c-2,.52-3.93,1.31-5.93,1.82-4.28,1.08-9.13,1-12.05,4.84a2.82,2.82,0,0,1-1.32.71c-.57.21-1.21.41-1.73.63-3.05,1.32-6,3-9.14,3.84a48.88,48.88,0,0,1-5.66,1.14l-2.87.46a20.72,20.72,0,0,0-2.83.64,31.72,31.72,0,0,0-6.12,2.85c-4.38,2.43-8.7,4.85-12.95,7.41l-.57-.88C335.49,103.68,336.81,102.76,338.1,101.76ZM898.83,225c-.77-1.27-1.54-2.55-2.39-3.77s-1.76-2.4-2.68-3.58c-1.83-2.35-3.75-4.65-5.73-6.9s-4-4.44-6.1-6.59-4.36-4.11-6.57-6.11c-2.5-2.25-4.56-5.17-6.83-7.78l.82-.89c3.81,3.68,7.64,7.34,11.42,11.09l2.36,2.34,2.25,2.43,4.51,4.88q4.5,4.89,8.91,9.89,6.65,8.25,13.2,16.65c.54.7,1.11,1.39,1.63,2.11l1.54,2.16,3.09,4.33,6.18,8.69-1,.77c-4.09-5-8.45-9.54-12.59-14.35A91.85,91.85,0,0,1,898.83,225Zm-372-191.48a10.6,10.6,0,0,0-2,.7c-3.9,2.47-7.63,4.77-13.66,2.69-1-.32-2.85.63-4.31,1.07l-5.22,1.48-1-1,4.4-2.23-2.81-.66c.18-1.14.37-2.33.61-3.76,4.87-.22,10,.06,15.07.12l8.4.14,4.2.07c.7,0,1.4,0,2.1,0l2.09.14c5.6.36,11.19.73,16.78,1.15a10,10,0,0,1,3.4,1.41c.14.07-.21.91-.38.92a29.42,29.42,0,0,1-3.75-.17,10.93,10.93,0,0,1-1.9-.55c-4.39,3.21-4.79,3.19-7-.83l-3.16,3.08L536.88,34l-4.2.82c-1.4.31-2.82.67-4.27,1ZM84.91,360.3c-1.27,3.7-2.58,7.37-3.71,11.09a56.25,56.25,0,0,0-2.49,11.4,72.27,72.27,0,0,1-2.94,13.33c-.62,2.08-2.43,3.82-3.72,6.09,0-2.27.15-4.33.29-6.31s.27-3.89.4-5.8a2,2,0,0,1,.22-1,20.69,20.69,0,0,0,3.66-9.45c.24-1.67.52-3.32.79-5s.58-3.32,1-4.94c.55-2.06,1.46-4,2.12-6.07s1.27-4.11,1.89-6.17,1.44-4.05,2.24-6c1.76-4.23,3.81-8.33,5.73-12.47l1.73,1Q88.53,350.16,84.91,360.3ZM906,399.44c-.48-2.6-1.08-5.13-1.76-7.63-.35-1.24-.66-2.5-1.1-3.71s-.88-2.44-1.33-3.65a74.45,74.45,0,0,0-3.46-8.35,30.91,30.91,0,0,0-2.33-3.86,21.71,21.71,0,0,0-1.42-1.78,20.51,20.51,0,0,0-1.72-1.63c1.19.38,2.83.31,3.48,1.21a62.47,62.47,0,0,1,5.88,10q1.07,2.42,2.08,4.86c.67,1.63,1.37,3.26,1.9,4.95,1.13,3.34,2.21,6.71,3.29,10.08.74,2.28,1.4,4.59,2.05,6.9s1,4.68,1.61,7l-1.19.25c-.48-1.24-1-2.47-1.58-3.7s-1.12-2.45-1.73-3.65A29,29,0,0,1,906,399.44Zm37.58-4.37c.16,2.66.3,4.8.28,7.09-.6-.82-1.15-1.73-1.75-2.68s-1.19-2-1.75-3a54.87,54.87,0,0,1-3-6.95,93.82,93.82,0,0,1-4-16.16c1.54,1.37,3,2.06,3.53,3.25a26.76,26.76,0,0,1,1.59,4.34c.45,1.49.88,3,1.41,4.44,1,2.62,2.17,5.14,3.13,7.4l4.23-3.18c.41,2.24.82,4.48,1.23,6.69ZM123.68,479h-1.44l0-6.43.37-6.41.74-12.86c.41-4.28.93-8.54,1.38-12.82l.7-6.44c.26-2.14.66-4.25,1-6.38l2.07.21c-.35,2.12-.76,4.22-1.08,6.34l-.76,6.4-1.54,12.76-.9,12.82-.45,6.39Zm837.26,16.82a82.2,82.2,0,0,1,1.68,12c.09,1-.67,2.06-1,3.1a10,10,0,0,1-1.57-2.83c-1.31-6.77-2.7-13.47-3.58-20.27-.51-3.07.38-6.47.66-10.07,2.68,2.74,3.29,5.85,3.45,9,.11,1.55,0,3.11,0,4.64A16.78,16.78,0,0,0,960.94,495.84ZM836.47,159.67l-6-2.79-.23.74,3.47,4.21-.47.42-4.26-4-4.55-4-9.9-8.56c4.43,3.33,7.74,5.69,10.89,8.26,3.38,2.77,5.26,3.19,4.73-.83,1.52.32,2.89.57,4.54,1l-.78,1.75L846.06,165l-.37,1.22-5.75.35c.54,1.06,1,1.93,1.92,3.72l-5.8-5C836.2,163.34,836.32,161.7,836.47,159.67ZM915,331.9c1,.63,2.85,3.1,4.95,6.56s4.25,8,6.39,12.56c1.07,2.27,2.11,4.55,3.06,6.72s1.61,4.3,2.26,6.17c1.28,3.73,2.06,6.52,2,7.41l-1.22.48c-2.59-6.58-5-13.22-8-19.76S918.58,338.68,915,331.9ZM407.16,96.69c2.87-2.94,7-4.94,12-6.11.63-.14,1.27-.28,1.93-.39s1.33-.16,2-.22c1.38-.12,2.8-.19,4.27-.21a74.9,74.9,0,0,1,9.27.49c-4.9.61-9.63,2.15-14.46,3.47C417.42,95.25,412.56,96.65,407.16,96.69ZM927.93,490l-1.57.33L923.72,475l-.66-3.83-.33-1.91-.42-1.9-1.71-7.58c3.88,4.31,5.23,9.41,5.52,14.66S926.41,485,927.93,490Zm-45.75-217.2a7.54,7.54,0,0,0,1.43,4.76,21.38,21.38,0,0,0,2,2.7c.8.92,1.71,1.84,2.64,2.82,2.73,2.79,4.84,6.54,6.87,10.14-1.5-.59-3.37-2.26-5.33-4.48-1-1.12-2-2.38-2.95-3.71-.49-.67-1-1.36-1.46-2.07s-1-1.37-1.51-2.07c-3.92-5.6-7-11.56-6.77-14.13Zm56.85,350c-.79,4.82-1.74,9.65-2.93,14.42-.23.9-1.88,1.47-2.87,2.19-.1-1.09-.51-2.25-.25-3.23q1.23-4.61,2.54-9.19l1.29-4.59,1.09-4.64,1-.35A35.94,35.94,0,0,1,939,622.87Zm4.9-177.5c1.36,8,2.61,15.09,3.73,22.18l-1.29.31C942.72,464.46,940.44,450.39,943.93,445.37Zm2.34,141.92c-3,2.75-2.92,5.64-2.19,9.44a14.15,14.15,0,0,1,.15,4.48,18.32,18.32,0,0,1-1.2,4.14c-1.09,2.68-2.59,5.22-3.8,7.81l-1-.23,1.62-7c.53-2.35,1.14-4.69,1.52-7.1L944,584.07C944.71,585.07,945.36,586,946.27,587.29ZM699.13,151.34a12.17,12.17,0,0,1,4.11.11,5,5,0,0,1,2.57,1.54q1.82,2.17.59,6.8a46.7,46.7,0,0,1-5-1.62c-1.62-.76-3.23-1.67-5.93-3.07l4.71-1.77ZM934.68,416.08l1-.45,1.08,2.87c.41,1.1.72,3,1.21,3.17,2.95,1,2.83,4.68,4.22,7a3.76,3.76,0,0,1,.36,2.26c-.56,2.47-1.28,4.86-2.35,8.69C938.34,431.24,936.88,423.58,934.68,416.08ZM770.87,114.94c-2.09-.41-7.88-3.47-14.21-7.24l-2.39-1.44c-.8-.49-1.64-.93-2.46-1.4-1.64-.94-3.27-1.89-4.83-2.83-3.12-1.88-6-3.72-8.17-5.3l.54-1c5.34,3.08,10.69,6.11,16,9.24ZM673.69,81.72l.44-1.52C679,82,684,83.64,688.84,85.71s9.22,4.7,13.8,7.07l-.56,1L688,87.42C683.27,85.46,678.46,83.62,673.69,81.72ZM631.88,39a3.2,3.2,0,0,1-2.65,2.35,4.53,4.53,0,0,1-3.1-.25c-2.29-1.42-3.29-3.94-4.86-6l4.66-1.19c1.62.8,3.31,1.25,4.5,1.9A2.59,2.59,0,0,1,631.88,39ZM130.22,295.28l-3.73-1.67,5.11-7.3c.44-.62.87-1.26,1.34-1.88l1.43-1.85,2.88-3.71.95.46-2.1,3.91c-.69,1.31-1.42,2.59-2,3.95ZM960.28,534l1.29-.13c.12,1.68.07,3.35.09,5V554l-1.47.18a19.52,19.52,0,0,1-1.43-10c.14-1.68.41-3.38.7-5.07S960.15,535.68,960.28,534ZM550.12,87.28l-14.79-1.13c2.18-.65,4.44-2.65,6.9-3.34S547.35,82.73,550.12,87.28ZM809.49,240.86c-.79-.69-.81-2.44-1.27-3.65,1.08.21,2.41.08,3.12.76,2.86,2.65,5.58,5.5,8.24,8.4.33.36-.06,1.39-.13,2.26C815.76,245.8,812.5,243.49,809.49,240.86ZM942.81,713.81c-.61,2.32-1,3.71-1.52,5.82a14,14,0,0,0,1.66-1.35c.95-1.09,1.86-2.26,2.79-3.4a42.16,42.16,0,0,1-1.33,4.71,13.08,13.08,0,0,1-1.85,2.4c-1.53,2.14-3,4.32-4.72,6.78-1.13-1.86-1.62-3-.93-5a19.52,19.52,0,0,1,2-3.75C939.88,718.4,941.12,716.39,942.81,713.81ZM1006.38,507l-3.08,1.57c1.14-5.4-5.41-11.44,1.44-15.06C1005.26,497.81,1005.76,501.93,1006.38,507ZM385.47,119.65l-.49-1.47c1.68-.52,3.42-.92,5-1.56,1.83-.72,3.52-2.06,5.36-2.38,2.05-.36,4.18.13,6.26.25l.11.53ZM902.16,306.38c4.16,2.26,7.42,7.69,7.27,12.45C906.06,314.81,901.7,312.24,902.16,306.38ZM463.73,85.93l10.7-.1.43.65-6.29,2c-2.09.69-4.17,1.3-6.23,2.13l-.8-.73C462.37,88.4,463.2,86.88,463.73,85.93Zm108.44.59c3.41,1.14,6.35,2.32,10.33,3.77C573.9,93.1,573.91,93,572.17,86.52ZM652.1,74.8l.26-1.16,9.9,2.67c1.64.46,3.31.88,5,1.36l4.88,1.58-.43,1.64-4.83-1.69c-1.62-.54-3.27-1-4.91-1.49Zm295,486.93a27.56,27.56,0,0,1,.71,10,26.81,26.81,0,0,1-1.1,5c-.27.83-.59,1.67-1,2.51a25.24,25.24,0,0,1-1.34,2.49c.15-.87.31-1.73.46-2.59l.33-2.57c.21-1.7.43-3.38.64-5C946.27,568.25,946.68,565,947.1,561.73Zm-544-464.57c-2.08,1.63-4.66,3.1-7,4.62l-.75-.74c1.95-1.23,3.89-2.49,5.86-3.69l-.36-1.06c-2.07,0-4.14,0-6.23.06l-.12-.74,4.88-1.38c1.58-.43,3.11-.74,4.48-1.07C403.57,94.83,404,96.46,403.09,97.16Zm214-63.58c-.51.88-3.74.79-7.65.1-1-.17-2-.38-3-.62s-2.1-.43-3.13-.69a39.21,39.21,0,0,1-5.72-1.86l.17-.94c3.25.61,6.51,1.14,9.74,1.8ZM945.24,470.51c3.82,1.46,4.43,6.84.92,12.13C945.8,477.93,945.53,474.31,945.24,470.51Zm7.91-6c-.93-2.27-1.82-4.42-3.22-7.82l2.89,2.79c.25-1.79.48-3.38.88-6.2,1.15,4.39,2,7.51,2.86,10.87ZM728.38,71.86c-2.8-.88-5.78-1.23-8.56-2.11a11.76,11.76,0,0,1-7.32-5.5l8,3.64C723.16,69.16,725.76,70.54,728.38,71.86Zm200,537.24c0,1.41-.75,4.06-1.44,4.33-1.09.42-2.4-.71-3.43-1.1l3.06-8.79C927.38,605.94,928.3,607.43,928.35,609.1ZM865.54,179.18c2.53-.86,2.59-.91,6.81,3.26l7.27,7.5C873.66,187.6,870.17,182.77,865.54,179.18ZM558,87.71l4.46-3.15,7.16,4.06-.55.5Zm178.42,6.21c.4.23.37,1.18.68,2.31-3-1.94-5.94-3.51-8.78-5.13l-8.4-4.72.53-.82,8,4.11,4,2.08C733.81,92.44,735.14,93.13,736.42,93.92ZM641.65,48.65l1,1.28c-1.61.77-3.08,2.19-4.84,2.12s-4.11-1.57-6.19-2.44l.48-1.08ZM697,73.11a30.22,30.22,0,0,1-4-2.34c-1.31-.85-2.59-1.77-3.92-2.59l.58-.77c4.83,1.63,9.5,3.65,14.21,5.58v.93C701.58,73.69,699.05,74,697,73.11ZM918,432.37c.74,3,1.45,5.93,2.14,8.77.35,1.42.7,2.83,1,4.22s.72,2.79,1,4.19l-1.25.27a9.19,9.19,0,0,0-.53-4.27c-.45-1.38-1.06-2.73-1.61-4.1C917.58,438.7,916.73,435.86,918,432.37ZM614.68,48.43c-1.31-3-3.85-4-6.62-4.55-1.38-.26-2.82-.42-4.2-.63a12.5,12.5,0,0,1-3.87-1l.37-.9,4,.72,4,.91,8.52,2ZM514.36,82.93c3.86.16,7.71.42,11.56.65v1.33L513,85.24C513.88,83.72,514.14,82.92,514.36,82.93Zm-2.85.67v1.68l-3.12-.08c-1,0-2.08,0-3.11,0l-6.24.15.06-1.14C503.24,84,507.37,83.58,511.51,83.6ZM666.66,60.19l-9.94.13C657.34,57.2,661.69,56.87,666.66,60.19ZM843.8,276.56c2.71,2.91,4.89,5,7.11,7.71a3.68,3.68,0,0,1-4.24-1C845.48,282,844.55,279.82,843.8,276.56ZM137.31,311.5l1,.57-6.64,13-1.05-.53Zm800.09-35c-2.76-2.06-4.72-3.19-6.29-4.89-.35-.37.65-2.8,1.18-4.95ZM949,548.1l-1.3-.13.86-11.29,1.75.19ZM733.12,73.59c3.7,2.15,6.44,3.7,9.73,5.65C737.75,80.33,736.67,79.75,733.12,73.59ZM932.54,404.78c-.29-.77-.58-1.54-.88-2.32l-1-2.39-2.35-5.47c2,1.24,3.15,2.28,3.78,3.75S932.87,401.72,932.54,404.78Zm-16.21,20-1.09.4-3-9.12,1.57-.58ZM897,366.71l-1,.56-5.71-11,.85-.69ZM968.6,343.2a2.83,2.83,0,0,1,0-2.14c.26-.41,1.31-.52,1.53-.2.35.52.71,1.05,1,1.59s.62,1.1.94,1.65c.61,1.12,1.23,2.24,1.85,3.36l-1.12,1.26C971.41,346.89,969.94,345.13,968.6,343.2ZM311.71,123.06l-.43-1.24,4.45-1.75c1.48-.58,2.94-1.2,4.47-1.68l.51,1.42c-1.54.45-3,1-4.51,1.59Zm432.68,13,.45-1,8.15,3.82-.63,1.52Z"/><path class="cls-3" d="M35.05,480.36l.08-9.73,0-4.88,0-2.44.11-2.43c.2-4.56-.11-9.17.43-13.7.21-1.77.47-3.53.76-5.28.15-.88.29-1.76.47-2.63l.58-2.61c.79-3.48,1.56-7,2.08-10.45l1.28-9.1c.45-3,1-6,1.54-9.06L44,399c.53-3,.93-6.08,1.63-9.07.91-4.29,1.27-8.67,1.9-13l-.59.2-5.3,11.76,1.67,2.11c-1.72,5-3.3,10.21-5,15.42q-1.22,3.92-2.44,7.86c-.75,2.64-1.37,5.32-2,8s-.36,5.51-.5,8.27l.93,0c-.56,1.74-1.16,3.5-1.69,5.27-.27.89-.52,1.78-.73,2.67a22.75,22.75,0,0,0-.41,2.73,18.47,18.47,0,0,0,2.26,11.31l-3.43-.43c-.52,3-1.05,6.17-1.59,9.3l.49,0,2-4.1a23.76,23.76,0,0,1,.05,5.12,13.6,13.6,0,0,0,.3,4.35c1,3.37-.49,4.34-1.52,6.15s-2.07,3.81-3.1,5.75l.79,2,7.39-.33Zm.61-53.29-.89-.13,1-7c.35-2.33.62-4.68,1.11-7l1.39.24c-.57,2.28-.92,4.61-1.36,6.93Z"/><path class="cls-3" d="M889.75,695a21,21,0,0,1-.87-4.68c.12-3.92.5-7.86.83-11.75a5.34,5.34,0,0,1,.77-2.12,32.07,32.07,0,0,0,3.1-7c.8-2.41,1.45-4.85,2.06-7.3s1.2-4.9,1.87-7.32a63.48,63.48,0,0,1,2.06-7.28c.89-2.45,2.24-4.72,3.71-7.74a9.4,9.4,0,0,1,.25-5.57,17.12,17.12,0,0,1,3.86-6.8c0,1.29.06,2.17,0,3.05-.13,2.14-.16,4.3-.32,6.44s-.47,4.26-.87,6.38c-.73,3.81-2.3,7.53-3.15,11.35-.34,1.67-.64,3.33-.92,5s-.55,3.35-1,5c-.73,2.81-2.07,5.5-2.85,8.31l-1.06,3.94-1.17,3.89c-.78,2.59-1.57,5.2-2.42,7.79-.74,2.2-1.9,4.29-2.87,6.43Z"/><path class="cls-3" d="M871.39,175.63l-7.55-7.94-3.77-4-1.89-2-2-1.92a33.87,33.87,0,0,0-4.56-4.27c-3-2.56-6-5.05-8.89-7.68l-2.23-2.05-2.22-1.94-4-3.53c-1.39.68-2.14,1.06-2.88,1.43-.39-.95-.76-1.9-1.17-2.85-.73-1.65-1.47-3.31-2.2-5l.7-.88c3.12,2.3,6.33,4.51,9.35,7,1.24,1,2.41,2.12,3.57,3.24s2.24,2.31,3.44,3.36l13.27,11.84L860,160l1.59,1.55,3.19,3.1,6.36,6.23c2.11,2.09,4.26,4.14,6.33,6.27l6.07,6.53,6,6.56,3,3.3c1,1.09,1.93,2.27,2.9,3.4q5.1,6.14,10.16,12.32l2.52,3.1c.83,1,1.6,2.13,2.4,3.2l4.75,6.42,4.73,6.45,2.36,3.24c.78,1.08,1.49,2.21,2.24,3.31l8.84,13.35a10.06,10.06,0,0,1,1.71,5.6c-3.46-5.47-7-10.87-10.57-16.28L922,233.57c-.9-1.35-1.89-2.63-2.83-3.94q-2.86-3.91-5.79-7.78-1.85-2.43-3.76-4.8c-1.28-1.58-2.53-3.18-3.93-4.66l-8.22-9c-6.46-7.43-13.22-14.5-19.15-22.47a13.66,13.66,0,0,0-3.22-2.9c-1.28-.83-2.64-1.6-3.86-2.46Z"/><path class="cls-3" d="M254.68,107.2l-13.18,8.91c-4.29,3.12-8.51,6.33-12.77,9.49l-6.35,4.79-6.14,5.05c-4.08,3.4-8.23,6.71-12.24,10.19-7.84,7.18-15.88,14.13-23.29,21.82l-5.65,5.67L172.23,176c-.92,1-1.81,2-2.71,3l-10.81,11.89c-.89-3.64,2.29-4.79,4-6.54a32.36,32.36,0,0,0,3.1-3.53l7.74-10.67L170.54,173c-.22-.36-.45-.61-.4-.67a47,47,0,0,1,7.66-7.73l-2.88,4c3.27-3,6.93-5.57,10.07-8.68a37.69,37.69,0,0,0,4.34-5,21.55,21.55,0,0,0,3-6.33l2.82,3.24c1.29-1.44,2.27-2.7,3.44-3.79,2.54-2.34,5.12-4.65,7.81-6.82.74-.63,1.8-1.6,1.85-2.19.42-5.25,6.44-7.11,9.64-10.63,1.9-2.16,4.74-3.61,7.72-5.08-.66.92-1.31,1.84-2.53,3.57l15.5-11c1.25-.92,2.55-1.73,3.84-2.57l3.86-2.48,7.68-4.92Z"/><path class="cls-3" d="M97.12,273l-.64,2.92.84.32c4.82-9.95,10.37-19.5,16-29,2.91-4.59,6-9.07,9.08-13.57,1.56-2.24,3.08-4.5,4.69-6.7l5-6.46c1.73-2.21,3.39-4.49,5-6.77s3.26-4.62,5.08-6.77a90.66,90.66,0,0,1,11.59-12.23l1.16,1c-3.26,3.75-6.63,7.44-9.75,11.3s-5.91,7.8-8.79,11.75l-4.26,5.95-2.14,3L129,229.18l-1,1.53c-3.85,5.81-7.81,11.53-11.7,17.29l-11.9,19.44c-3.65,6.66-7.28,13.33-10.82,20-2.41,5.09-4.14,10.47-6.36,15.62-.53,1.22-1.89,2.16-2.87,3.23-.07-1.35-.61-2.84-.12-4.06,1.35-3.41,2.79-6.79,4.23-10.18L90.6,287c.71-1.7,1.56-3.33,2.31-5,1.37-2.94,2.37-6,3.55-9Z"/><path class="cls-3" d="M919.2,504.47c-.68-4.2-1.35-8.4-2.18-13.54,8.83,6.69,10,9.66,6.8,15.36a9.21,9.21,0,0,1,2.75,4.93,21.27,21.27,0,0,1,0,6.24c-.33,3.3-.45,6.62-.5,9.9s0,6.49-.29,9.55c-.92-1.54-1.85-3-2.93-4.62a35.19,35.19,0,0,1-2.85-5c-1-2.26-1-5.39-1.06-8.15-.07-1.65-.07-3.31,0-5l.07-2.49v-2.48a28.8,28.8,0,0,1,.78-4.56Z"/><path class="cls-3" d="M55.11,337.79c.59,1.92,1.17,3.84,2.08,6.83a29.2,29.2,0,0,1-3.36,7.75,21.18,21.18,0,0,1-7.24,6.75c1.8-4.61,3.51-9,5.19-13.34s3.69-8.39,5.5-12.53c.92-2.09,2.46-4.59,2.39-6.34a12.85,12.85,0,0,1,.47-4,16.41,16.41,0,0,1,1.58-3.33c1.26-2.09,2.84-4,4.11-6.08a13.27,13.27,0,0,0,1.22-2.65c1-2.95,1.59-6.15,3-8.83,2.46-4.29,5.51-8.17,8.79-12.89.15,5.88-2.15,11.23-4.94,15.59A107.61,107.61,0,0,0,67.26,317a58.1,58.1,0,0,0-2.46,6.39,38,38,0,0,0-1.39,6.82,11.31,11.31,0,0,1-2.47,5.54c-1.14,1.21-2.91,1.25-4.4,1.82Z"/><path class="cls-3" d="M917.58,567.46c-.84-1.38-.91-4.42-.27-7.65A23.85,23.85,0,0,1,918.8,555a15.77,15.77,0,0,1,2.35-4.1,18.26,18.26,0,0,1,2,4.54,27.42,27.42,0,0,1,.78,4.81,69.49,69.49,0,0,1-.22,10.16c-.12,1.72-.21,3.45-.3,5.18s-.32,3.43-.49,5.16c-.35,3.45-.76,6.93-1.41,10.44l-2.62-8.54-1.06.18a23.31,23.31,0,0,1-.71,3.72,15.49,15.49,0,0,1-1.67,2.79l-1.29-.58C915.31,582.06,916.74,575.42,917.58,567.46Z"/><path class="cls-3" d="M1014.18,462.71a214.25,214.25,0,0,1,2.6,22.33c.33,7.52.42,15,1,22.51.12,1.9.34,3.81.35,5.72l.08,5.73c0,3.83,0,7.66,0,11.5.07,7.68-.63,15.35-1.1,23-.27,3.83-.5,7.67-.88,11.5s-1,7.64-1.46,11.46-1.07,7.63-1.6,11.44c-.24,1.91-.66,3.8-1,5.7L1011,599.3c.1-2.8.36-5.59.71-8.37s.59-5.59,1-8.38c.68-5.58,1.47-11.16,1.81-16.72.11-1.46.15-2.91.2-4.36s.12-2.9.19-4.35c.15-2.89.33-5.76.54-8.64s.46-5.74.68-8.62c.15-1.43.2-2.87.25-4.31s.11-2.89.17-4.33c.21-5.72.11-11.46-.06-17.18l-.08-2.15-.16-2.15-.34-4.29c-.22-2.86-.43-5.71-.6-8.57-.46-11.22-1.76-22.42-2.85-33.59Z"/><path class="cls-3" d="M92.58,262.67a27.19,27.19,0,0,1,.5-5.18c.42-1.42,1.38-2.54,3.74-3.32,1.64-.54,3.54-5.22,4.89-8.49L98,249.61l-1.1-.86,4.41-5.91,2.2-3c.75-1,1.55-1.91,2.32-2.86l9.33-11.37-1.22-1.28-5.08,6.31a23.12,23.12,0,0,1,4.08-6.86,17.39,17.39,0,0,1,2.67-2.37,18.89,18.89,0,0,1,1.58-1.06c.58-.34,1.2-.66,1.86-1a6.65,6.65,0,0,0,1.7-2l10.2-14.66a37,37,0,0,1,2.46-3l1.14,1.41a56.86,56.86,0,0,0-4.18,5.69c-1.69,2.8-2.77,6.12-4.85,8.42-1.4,1.55-2.73,3.14-4,4.75-.63.81-1.26,1.62-1.84,2.46s-1.13,1.7-1.67,2.56c-2.19,3.44-4.21,7-6.22,10.58q-1.65,2.92-3.48,5.77c-1.2,1.91-2.34,3.88-3.57,5.79-2.43,3.85-5,7.65-7.41,11.47C96.39,260.18,94.41,261.05,92.58,262.67Z"/><path class="cls-3" d="M763,875.46l-4.17,6.26-3.29-4.84c3.39-3.34,5.61-7.53,11.49-8.58,2-.39,4.41-3.39,6.3-5.51,2.59-2.76,4.79-5.86,7.58-8.36,1.15-1,3.48-.91,4.89-1.24,1.88-2.28,3.49-4.7,5.61-7.61,2.12,3,.85,6-1.19,8.76-4,5.06-8.65,7.57-11.5,6.92-2.33,2.06-4.55,4-6.71,6a50.82,50.82,0,0,0-3.6,3.74l-4.53,4.88Z"/><path class="cls-3" d="M720.93,902.35c-1.21,1.1-2.48,2.07-3.74,3.1s-2.53,2-3.87,3c-2.29,1.63-4.82,3-7.25,4.48-1.58,1-3.13,1.94-4.73,2.86l-4.84,2.65-9.72,5.31c-.57.31-1.49.48-1.73.86a6.73,6.73,0,0,1-5.38,3.46,55,55,0,0,1-6.8-.16c3-4.61,8-6.47,12.25-8.86,2.88-1.52,6.46-1.85,9.42-3.31,2.09-1,4.14-2.14,6.12-3.35s3.86-2.63,5.73-4A47,47,0,0,1,720,901Z"/><path class="cls-3" d="M428,26.23l2.71-2.91.35,1.09c1.44-.25,2.9-.37,4.36-.51l4.38-.41c2.91-.29,5.81-.61,8.69-1.06s5.66-1,8.48-1.63,5.66-1,8.5-1.48l.84,1a18.81,18.81,0,0,1-3.25,2.06c-1.8.74-4,1-5.72,1.83-3.31,1.66-19.41,3-22.92,2.11a9.09,9.09,0,0,0-1.52-.26c-.53,0-1.08,0-1.65,0-1.12,0-2.28.13-3.38.14Z"/><path class="cls-3" d="M46.76,402.05c-.44,4.62-.76,9.21-1.34,13.8A34.72,34.72,0,0,1,44,421.14a19.13,19.13,0,0,0-.76,6.24,33.91,33.91,0,0,1-1,8c-.3,1.37-.64,2.74-1,4.11s-.54,2.75-.77,4.11l-1.86-.27c.26-3.47.83-6.9,1.3-10.34l1.48-10.34.75-5.17c.22-1.73.62-3.42.93-5.13l2-10.27Z"/><path class="cls-3" d="M530.16,18.37c1-.24,2.17-.54,3.45-.8l4.19-.81L539,20c-6.45,2.89-13,2.12-19.41.35-1.85-.5-3.07-2.08-4.59-3.17,2.39-.4,4.87-1.26,7.18-1.06C524.87,16.36,527.36,17.53,530.16,18.37Z"/><path class="cls-3" d="M740,889c2.61-1.39,5.54-2.47,7.73-4.28,2-1.65,3.14-4.1,4.69-6.25,2.7.5,3,3.45,0,5.9-2.5,2-5,4.05-7.74,6.19l-4.24,3.33c-1.47,1.16-3.09,2.23-4.75,3.45.26-3.16.44-5.32.62-7.49,1.25,0,2.46-.15,3.71-.22Z"/><path class="cls-3" d="M1009.44,434.62c3.67,7.54,3.29,16.49,4.82,25.32a11.24,11.24,0,0,0-2.34-1.35,7.69,7.69,0,0,0-2.47.21c2.13-4,1.66-6.78-1.27-10.54-1.79-2.28-2-7.47-3-11.34l1.41-.59,1.93,8.5h.72l-.91-9.91Z"/><path class="cls-3" d="M869.25,784.79c1.39-2,2.59-4.17,3.86-6.27l3.78-6.36,3.8-6.41.95-1.61.88-1.66,1.78-3.35,2.12,3c-1.91,3.49-4.06,6.79-6.16,10.11s-4.23,6.61-6.42,9.87a8.6,8.6,0,0,1-2.05,2c-.82.59-1.69,1.14-2.46,1.74Z"/><path class="cls-3" d="M653.12,935.62c-3.33,3.89-7.79,5.68-12.48,7s-9.68,2.11-14.08,4.73c1.63-2.32,7.09-5.32,12.73-7.63,1.42-.55,2.81-1.18,4.17-1.71s2.68-1,3.9-1.39A15.91,15.91,0,0,1,653.12,935.62Z"/><path class="cls-3" d="M187.73,142.93a13.78,13.78,0,0,1-5.5,7.74l-3.73,2.73a29.4,29.4,0,0,0-3.45,2.9c-4.59,4.7-8.8,9-13.89,9.18l12.51-11,3.31-2.89c1.11-1,2.24-2,3.45-2.89Z"/><path class="cls-3" d="M801.49,113.62c1,.63,2.07,1.23,3.07,1.9l3,2,6,4,6,4.06c2,1.37,4,2.66,5.94,4.14l0,1.35c-2.05.09-4.08.18-6.16.35l.48-1.17a100.87,100.87,0,0,0-7.34-7.14c-1.86-1.48-3.8-2.88-5.76-4.24s-3.92-2.7-5.95-4Z"/><path class="cls-3" d="M761.51,884.73l-1.36,1.7-1.42,1.64-2.84,3.28c-1.91,2.18-3.87,4.36-5.93,6.47-.89.91-3.11.93-4.71,1.35a18.76,18.76,0,0,1,2.43-3.74c4.08-3.94,8.36-7.64,12.43-11.55Z"/><path class="cls-3" d="M920.1,548.2c-.92-1.64-2.24-2.89-2.31-4.29a60,60,0,0,1,.53-9.63c.1-.79,1-1.49,1.49-2.32.6,1.11,1.05,2.1,1.44,3s.72,1.73,1,2.49a12.12,12.12,0,0,1,.81,3.89C923.08,543.63,922.09,545.47,920.1,548.2Z"/><path class="cls-3" d="M910.87,605.05a13.55,13.55,0,0,1,1.38,9.42,12.44,12.44,0,0,1-2.09,4.53,22.53,22.53,0,0,1-3.91,4.25c.8-2.87,1.68-5.72,2.43-8.72S910.1,608.4,910.87,605.05Z"/><path class="cls-3" d="M203.31,130.54c.93-1.38,1.62-3.19,2.87-4.07a47.75,47.75,0,0,0,5.51-5,28.32,28.32,0,0,1,2.82-2.42,15.3,15.3,0,0,1,3.38-1.78c1.26-.47,2.4-2.57,3.64-4l7.24-1.29L216,121.2l-11.87,9.3Z"/><path class="cls-3" d="M86.31,274.32l-5.21,3.55c-.89-6.4,6.79-8.45,7-13.84,3.3.72,3.68,4.09.95,7.52a30,30,0,0,1-2.91,2.84Z"/><path class="cls-3" d="M853.74,808.84c-1.25-3.81,0-6.38,1.89-8.61s4.41-4.28,5.91-6.74l1.37.6c-1.47,2.49-2.93,5-4.43,7.48Z"/><path class="cls-3" d="M299.67,67.64c2-1.71,4.33-4.08,7.13-6.1a15,15,0,0,1,5.69-2.29c1.09-.19,2,.88,3,1.39-1.57,1.3-3,3.15-4.72,3.79C306.82,65.9,302.68,66.8,299.67,67.64Z"/><path class="cls-3" d="M971.14,321.57c-.39-1.74-.79-3.47-1.16-5.11s-.85-3.15-1.22-4.5a32.54,32.54,0,0,1,3.58,5c1.17,2,2.34,4.27,3.39,6.57,2.09,4.58,3.7,9.26,3.89,12.12-3-5-5.77-9.55-8.54-14.14C971.06,321.45,971.14,321.57,971.14,321.57Z"/><path class="cls-3" d="M368.7,44.45l12-3.8c2-.61,4-1.3,6-1.84l6.11-1.62.38.87-6.61,2.86c-2.22,1-4.47,2.16-6.82,3.3l-11.53.83Z"/><path class="cls-3" d="M987.46,666.5c-1.52,4.48-3,9-4.6,13.59l-1.19,3.49-.61,1.77-.69,1.77-2.85,7.26c.2-5.56,1.85-10.26,3.54-14.84s3.93-8.83,5.43-13.31Z"/><path class="cls-3" d="M148.21,183.15l5.41-9.42c3.36,1.78,4.8-4.47,8.86-5.1l-13.29,15Z"/><path class="cls-3" d="M988.77,357.45l-5-2.58-.71-11.59.88-.09C985.5,347.78,987.05,352.38,988.77,357.45Z"/><path class="cls-3" d="M86.16,274.39c.35.58,1.16,1.39,1,1.7-1.15,2.13-2.35,4.23-3.57,6.32s-2.36,4.22-3.66,6.28a14.65,14.65,0,0,1,1.6-7.8,41.22,41.22,0,0,1,4.79-6.57Z"/><path class="cls-3" d="M804.41,861.46c-.24,2.79-2.13,4.43-4.26,5.88s-4.58,2.64-5.76,4.85c-1.8-3.06-.86-4.66,2.79-6.2a19.79,19.79,0,0,0,1.85-.91c.6-.36,1.19-.75,1.78-1.15C802,863.12,803.18,862.26,804.41,861.46Z"/><path class="cls-3" d="M227.82,109.37l5.28-1.47-.67-.44c1.88-1.72,3.9-3.23,6-4.94l6.85-5.5a31,31,0,0,1-8.68,9.78,18.13,18.13,0,0,1-4.58,2.38A7.5,7.5,0,0,1,227.82,109.37Z"/><path class="cls-3" d="M998.19,582.93c-.07,1.41-.13,2.8-.19,4.19s-.24,2.74-.36,4.09c-.25,2.72-.5,5.41-.74,8.09l-1.08,0c0-3.41,0-6.83.07-10.36,0-1.75-.07-3.55-.13-5.38s-.15-3.7-.23-5.62Z"/><path class="cls-3" d="M668.63,929.94c-1.73,1.41-3.3,3.18-5.3,4.08-1.14.55-3-.48-4.52-.79.94-.93,1.74-2.23,2.86-2.7A42.16,42.16,0,0,1,668,929Z"/><path class="cls-3" d="M864.08,735.33c-1,3.18-2,6.39-3.12,9.58-.1.28-1.52.68-1.65.45-.45-.79-1.09-2-.77-2.75,1.06-2.59,2.51-5.05,3.81-7.56Z"/><path class="cls-3" d="M406.63,35.89c-1.94.59-3.88,1.33-5.88,1.75a7.61,7.61,0,0,1-3.73-.12c-.4-.14,0-1.63.58-2.26a5.57,5.57,0,0,1,3.14-1.54C403,34,407.43,32.09,406.63,35.89Z"/><path class="cls-3" d="M427.89,26.17l-4.24,3.74,9.88-.79.15.75-12.7,3,2.49-7.39,4.54.74Z"/><path class="cls-3" d="M375.51,37.39l-14,5.49C363.79,38.13,370.49,35.61,375.51,37.39Z"/><path class="cls-3" d="M999.65,650.44c1-4,2-7.84,2.81-11.72l2.29-11.75c.72,1.6.26,6.61-.74,11.67S1001.09,648.7,999.65,650.44Z"/><path class="cls-3" d="M135,198.33l1.37-3.75-3.18.52-.08-1,8.33-4.2.71,1.09-6.11,7.88Z"/><path class="cls-3" d="M854.54,871.82c.72-2.59,2.93-5.8,5.35-8.49s5-4.93,6.76-5.25c-1.91,2.27-3.75,4.44-5.66,6.72Z"/><path class="cls-3" d="M983.75,702.52c-1.41,4.73-2.62,9.56-4.49,14.15-.44,1.16-1.77,2.06-2.7,3.08a14,14,0,0,1,.48-3.64c2-4.61,3.89-9.31,5.76-14Z"/><path class="cls-3" d="M189.45,141.1c3.69-3.37,7.33-6.82,11.22-10l1.2,1.29c-3.84,3.16-7.44,6.62-11.08,10Z"/><path class="cls-3" d="M937.49,780.33a12.84,12.84,0,0,1,2-6.31c1-2,2.36-4,3.37-6.06l1.44.33-2.63,6.24c-.92,2.06-1.9,4.08-2.86,6.12Z"/><path class="cls-3" d="M777.4,100.5c5.59,3.45,10.86,7.37,16.23,11.15l-.69.94c-5.32-3.75-10.55-7.65-16.1-11.07Z"/><path class="cls-3" d="M988.72,663c-1.5-4.43.45-12.62,3.85-15.39C991.27,652.86,990.23,657.37,988.72,663Z"/><path class="cls-3" d="M505.74,18.39c2.38-2.44,4.91-3,7.54.56a34.32,34.32,0,0,0-3.51.43c-1.16.17-2.3.34-3.42.44a7.82,7.82,0,0,1-6.58-2.51Z"/><path class="cls-3" d="M957.2,287.18l2.33,4c.77,1.35,1.57,2.68,2.26,4.07l4.3,8.26-1.25.69-4.2-8.28c-.67-1.39-1.46-2.73-2.22-4.08l-2.28-4Z"/><polygon class="cls-3" points="991.54 364.8 996.93 380.93 995.6 381.44 990.25 365.34 991.54 364.8"/><path class="cls-3" d="M997.08,659.8a18.12,18.12,0,0,1,.08,4.43,23,23,0,0,1-1,4.37c-.94,2.73-2.31,4.91-3.64,5.51q1.21-3.61,2.41-7.17c.39-1.19.82-2.36,1.17-3.56Z"/><path class="cls-3" d="M483.35,20c4.57-5.45,7.9-.65,11.28-1.37l0,1.06Z"/><path class="cls-3" d="M919,766a47.28,47.28,0,0,1-2.53,5.5,12.19,12.19,0,0,1-2.65,2.31c-.15-.9-.7-1.89-.37-2.67C914.5,768.62,915.37,765.33,919,766Z"/><path class="cls-3" d="M831.25,785.28c-1.62,3-3.25,6.06-5,9.41-1.19-1.91-2.29-3.3.86-5.48,1.41-1,2.45-2.72,3.66-4.11Z"/><path class="cls-3" d="M1011.18,601.44c-.64,3.56-1.21,6.75-1.76,9.77-.28,1.5-.51,3-.83,4.4s-.64,2.83-1,4.24a39.83,39.83,0,0,1,0-4.51,40.81,40.81,0,0,1,.47-4.51A35.79,35.79,0,0,1,1011.18,601.44Z"/><path class="cls-3" d="M1003.47,449.47c-2.28-.61-4.86-6.61-3.86-8.47.23-.43,1.89.05,2.07.61C1002.41,443.94,1002.82,446.46,1003.47,449.47Z"/><path class="cls-3" d="M277.57,80.89a45.69,45.69,0,0,1-4.26,2.49c-2.75,1.15-5.57,2-8.37,3l-.12-1,6.1-2.87,3-1.43,3.11-1.31Z"/><path class="cls-3" d="M913.87,793.32l3.38-.91-8.1,9.93-.7-.28Z"/><path class="cls-3" d="M901.24,848.56c1.81-4.71,3.78-9.49,9.17-12.2l-2.21,3.11c-.73,1-1.48,2.07-2.27,3.06Z"/><polygon class="cls-3" points="954.44 285.05 947.82 273.65 948.7 272.95 955.69 284.13 954.44 285.05"/><path class="cls-3" d="M35.05,480.36a47.54,47.54,0,0,1-1.48,7.2,10.81,10.81,0,0,1-3.41,5.69,13.86,13.86,0,0,1,1.53-7.07c1-2,2.32-3.84,3.37-5.82Z"/><path class="cls-3" d="M863.77,788.32l5.16-.75c-.15.78-.38,2.25-.44,2.26-1.72.35-3.42.56-5.11.78Z"/><path class="cls-3" d="M993,642.54c.32-2,.71-4,1-6l.73-6.07h1.41l-.8,6.13c-.26,2-.69,4.06-1,6.09Z"/><polygon class="cls-3" points="260.76 101.71 271.29 95.64 271.78 96.5 261.27 102.56 260.76 101.71"/><path class="cls-3" d="M974.07,705.5c-1.1,3.31-2.49,6.49-3.76,9.72l-.83-.16,1.31-4.94c.21-.83.44-1.65.64-2.48l.55-2.5Z"/><path class="cls-3" d="M556.74,979.22l9.58-1.91c.18,1.87-1.66,2.64-9,3Z"/><path class="cls-3" d="M892.05,389.19c1.63,2.47,3,5,4.44,7.59l-1.21.79c-1.37-2.7-2.63-5.41-4.18-8Z"/><path class="cls-3" d="M876.88,712.21c-.49,1.81-1,3.62-1.6,5.85C872.62,715.42,872.71,715,876.88,712.21Z"/><polygon class="cls-3" points="507.77 974.9 516.31 973.08 516.89 974.63 508.27 976.29 507.77 974.9"/><path class="cls-3" d="M572.44,969.78l-7,1.22-.7-.56c1.13-.84,2.16-2.21,3.38-2.38,1.49-.22,3.15.57,4.75.92Z"/><path class="cls-3" d="M801.11,856.26c1.13-1.43,2.22-2.9,3.46-4.23a12.58,12.58,0,0,1,2.07,1.05l-4,4.14Z"/><path class="cls-3" d="M992.14,608.93c1.23-1.56,2.45-3.13,4.38-5.61-.5,2.78-.51,5-1.26,6.26-.52.87-2.07.44-3.15.59Z"/><path class="cls-3" d="M393.88,30.15l9.94.16C396.29,33.36,394.34,33.36,393.88,30.15Z"/></g><g class="cls-1"><path class="cls-4" d="M336.07,332c-.59,1.83-1.19,3.83-1.88,5.8-2.22,6.42-4.3,12.91-6.78,19.23-2.06,5.24-4.66,10.25-6.91,15.41-2.89,6.6-5.32,13.42-8.55,19.84-4.8,9.52-10.06,18.82-15.26,28.14s-12.51,17.14-20.76,23.91a119.7,119.7,0,0,1-22.8,15c-5,2.45-10.19,4.39-15.38,6.35-4.24,1.61-8.61,2.86-12.89,4.38-6.57,2.34-13.48,3.82-19.47,7.87a6.64,6.64,0,0,0,2.45.21c2.42-.26,4.83-.63,7.26-.86.48-.05,1,.33,1.51.46a9.12,9.12,0,0,0,3.07.69c1.53-.16,3-.91,4.53-1.16,3.95-.64,7.92-1.17,11.88-1.68a10.76,10.76,0,0,1,4.25-.14,30.89,30.89,0,0,0,3.73,1c4,.68,7.37-.88,11-1.66,3.14-.68,6.27-1.44,9.44-1.83,3.87-.48,7.79-.66,11.69-.84.72,0,1.95.37,2.12.86.8,2.26,2.25,2.56,4.24,1.84.8-.3,1.59-.68,2.41-.9,4.63-1.23,8.61-4.38,14-3.65,2,.28,4.48-1.91,6.63-3.16,2-1.14,3.61-3,5.69-3.69a19.28,19.28,0,0,0,9.73-6.66c5.54-7.3,10.63-15,15.63-22.66,3.37-5.18,6.22-10.69,9.38-16,1.84-3.1,3.85-6.1,5.75-9.16.77-1.25,2-2.53,2.06-3.85.23-3.73,2.39-6.69,3.53-10,1-2.87,2.73-5.48,3.73-8.34,2.09-6,3.92-12,5.85-18.07q3.63-11.38,7.25-22.78c.56-1.73,1.22-3.44,2.08-5.84,1.73,4.15,3,7.66,4.64,11,3.52,7.39,5,15.74,10.49,22.22a6.84,6.84,0,0,1,.95,1.89c1.74,4.09,3.46,8.2,5.2,12.29,1.53,3.6,3.13,7.15,4.57,10.78.53,1.36.45,3,1.06,4.29,1.05,2.25,2.49,4.32,3.66,6.52,3.11,5.81,6.07,11.7,9.24,17.46,3.72,6.75,9.43,11.91,14.59,17.44,3.88,4.15,8.7,7.42,12.68,11.5,5.57,5.71,12.86,9.3,18.19,15.38,1.6,1.82,4.13,4.41,7.68,3.12a2.71,2.71,0,0,1,2.11.8,39.22,39.22,0,0,1,3.36,3.68c1.37,1.64,2.83,2.81,5.23,2.74a17.1,17.1,0,0,1,6,.88c5.6,1.94,10.74.75,15.95-1.49,2.69-1.15,5.68-1.56,8.52-2.37a10.89,10.89,0,0,0,3.19-1.28c1.75-1.2,3.19-2.52,5.65-1.26,1.73.88,2.95-.48,2.92-2.27,0-2.33,1.4-3.11,3.16-3.86a4.08,4.08,0,0,0,2.15-1.57c1.45-3.33,4.67-5,7.38-6.37a160.1,160.1,0,0,1,19.63-8.05,30.12,30.12,0,0,1,8.61-1.23c4.1-.2,8.21,0,12.31-.1.53,0,1.05-.5,1.57-.76a5.39,5.39,0,0,0-.94-1.36c-.87-.69-1.84-1.25-2.77-1.87l.2-.76,5.69.36a3.8,3.8,0,0,0-1.89-1.4c-8.16-3.21-16.52-6-24.44-9.71-17.25-8.13-34.29-16.73-51.4-25.17C492.24,407,483,402.62,474,397.76c-6.54-3.54-13-7.38-18.33-12.73-3.31-3.3-7-6.23-10.36-9.49-4.55-4.4-9.57-8.48-13.27-13.52-8.48-11.58-16.14-23.74-24.4-35.48C403,320,397.9,313.78,393,307.4a19.57,19.57,0,0,1-1.21-2c1.86-.29,3.33-.59,4.82-.74,7.86-.83,15.74-1.49,23.57-2.48a116.35,116.35,0,0,0,11.48-2.38c4.56-1.05,9.07-2.36,13.66-3.3,5.38-1.11,10.81-1.94,16.22-2.88s10.36-1,15.15,2.57c3.82,2.85,7.13,2.07,11.1-1.06.85-.66,2.16-.72,3.26-1.07.92-.3,2.2-.36,2.68-1,1.16-1.55,2.58-1.84,4.33-1.93a34.29,34.29,0,0,0,4.84-1c-3.07-2.94-2.92-4.23,0-6.68a2.28,2.28,0,0,0,.58-1.92c-.08-.39-1-.83-1.57-.82-1.29,0-4-2.7-3.78-4,.65-3.63.6-3.55-2.68-5.39a17,17,0,0,1-4-3.19c-2.44-2.64-4.67-5.46-7-8.18-.24-.28-.68-.38-1-.6-3.81-2.67-8-4.92-11.32-8.13-3.84-3.77-6.86-8.39-10.57-13.06a11.36,11.36,0,0,0-3.24.86c-1.69,1-3,.89-4.21-.79-3.31,1.64-6.45,3.58-9.85,4.81-6.89,2.5-13.94,4.52-20.86,6.91-6.65,2.29-13.2,4.85-19.82,7.19-3.47,1.23-7.13,3.05-10.17-.81-1.58-2-3-4.16-4.39-6.3-.55-.83-.67-2-1.34-2.67-3-2.93-6.61-5.19-9.12-8.66-1.18-1.63-2.62-3.06-3.95-4.57-.89-1-1.79-2-2.7-3-.6-.65-1.22-1.28-1.91-2,21-8.94,41.95-17,64.87-18.74v1.53c1-.14,1.89-.23,2.73-.39,3.7-.7,7.43-1.25,11.07-2.18,3-.78,6.28-.42,9.07-2.44,1.29-.92,3.52-1.64,4.88-1.17,3.24,1.14,6.21,3.06,9.32,4.6a10.17,10.17,0,0,0,2.28.67c.43.1,1-.08,1.32.11a55.73,55.73,0,0,1,6.58,3.6c1.76,1.21,2.85,1.21,4-.7a2,2,0,0,1,1.87-.52c3.48,1.47,4.72,1.08,7.38-1.77,2-2.16,4.36-4,7.68-3.82a2.9,2.9,0,0,0,2-.9c1.43-1.57,2.58-3.42,4.09-4.88,1.35-1.3,1.94-2.64,1.22-4.32-1.26-3-2.7-5.87-4-8.83-1-2.35-1.79-4.8-4.24-6.26-.63-.38-.78-1.63-1.06-2.5-.6-1.81-.6-4.21-1.81-5.33a35.56,35.56,0,0,1-7.79-9.62,7.7,7.7,0,0,0-4.68-4c-6-1.92-10.65-5.73-14.5-10.47-3-3.7-5.56-4.22-9.1-1.06-2.24-.64-3.92-2.39-6.38-3-2-.54-2.9-.42-4.19.75s-2.62,2.24-4.15,3.54l-2.53-3.7c-.32.55-.58.94-.77,1.36-1.44,3.14-4.59,4.64-7.31,5.23-5.9,1.27-12.05,1.38-18.08,2.15-5.53.7-11.11,1.32-16.54,2.55-8.76,2-17.54,4.11-26.1,6.81-13.28,4.19-26.4,8.87-39.55,13.45-10.61,3.7-21.08,7.82-31.78,11.25-11.46,3.68-23.08,6.88-34.7,10.06-3.57,1-7.2,2-11.12,1.2-2.67-.57-5.47-.25-6.91,1.77h-9.33c-.58,1.42-1.22,3-1.84,4.55-1,2.56.14,4.8.89,7.19,1.38,4.35,1.75,9.17,6.41,11.72.37.2.55.75.87,1.1,3.06,3.47,6,7.08,9.25,10.35,4,4,8.36,7.71,12.49,11.63a19.79,19.79,0,0,0,9.38,5.42,8.3,8.3,0,0,1,3.49,1.27c5.45,4.68,11.77,5,18,2.9,7.4-2.45,14.55-5.68,21.74-8.73,3.3-1.4,6.4-3.26,9.67-4.75,1.84-.83,3.9-1.17,5.75-2,3.89-1.73,7.71-3.65,11.69-5.55,1,2.69,1.91,4.83,2.47,7.08a20,20,0,0,1,.76,6.26c-.4,4.7-1.37,9.35-1.75,14a3.93,3.93,0,0,1-3.16,3.85c-2.31.72-4.66,1.34-7,2-6.71,1.83-13.54,3.28-20.1,5.53-10.87,3.74-21.56,8-32.34,12-8.07,3-16.17,5.85-24.25,8.79-2.55.93-5,2.09-7.65,2.77-1.56.41-2.36.81-2.3,2.57a12.85,12.85,0,0,1-.49,4.68c-1.32,3.75.28,6.43,2.79,8.88,1.19,1.16,2.48,2.22,3.69,3.37,1.54,1.47,3,3,4.55,4.46,2.29,2.15,4.49,4.41,7,6.32,2.66,2.06,5.74,3.58,8.37,5.67a69.54,69.54,0,0,0,14.6,8.95c2.68,1.22,5.44,2.11,8.55,1.53s6.53-.06,9.3-1.23a94.51,94.51,0,0,0,13.27-7.51C330.7,336.4,333.29,334.12,336.07,332Z"/><path class="cls-4" d="M336.07,332c-2.78,2.13-5.37,4.41-8.25,6.24a94.51,94.51,0,0,1-13.27,7.51c-2.77,1.17-6.21.65-9.3,1.23s-5.87-.31-8.55-1.53a69.54,69.54,0,0,1-14.6-8.95c-2.63-2.09-5.71-3.61-8.37-5.67-2.47-1.91-4.67-4.17-7-6.32-1.55-1.46-3-3-4.55-4.46-1.21-1.15-2.5-2.21-3.69-3.37-2.51-2.45-4.11-5.13-2.79-8.88a12.85,12.85,0,0,0,.49-4.68c-.06-1.76.74-2.16,2.3-2.57,2.61-.68,5.1-1.84,7.65-2.77,8.08-2.94,16.18-5.82,24.25-8.79,10.78-4,21.47-8.26,32.34-12,6.56-2.25,13.39-3.7,20.1-5.53,2.34-.63,4.69-1.25,7-2a3.93,3.93,0,0,0,3.16-3.85c.38-4.69,1.35-9.34,1.75-14a20,20,0,0,0-.76-6.26c-.56-2.25-1.51-4.39-2.47-7.08-4,1.9-7.8,3.82-11.69,5.55-1.85.83-3.91,1.17-5.75,2-3.27,1.49-6.37,3.35-9.67,4.75-7.19,3-14.34,6.28-21.74,8.73-6.25,2.07-12.57,1.78-18-2.9a8.3,8.3,0,0,0-3.49-1.27,19.79,19.79,0,0,1-9.38-5.42c-4.13-3.92-8.47-7.61-12.49-11.63-3.26-3.27-6.19-6.88-9.25-10.35-.32-.35-.5-.9-.87-1.1-4.66-2.55-5-7.37-6.41-11.72-.75-2.39-1.91-4.63-.89-7.19.62-1.57,1.26-3.13,1.84-4.55h9.33c1.44-2,4.24-2.34,6.91-1.77,3.92.84,7.55-.23,11.12-1.2,11.62-3.18,23.24-6.38,34.7-10.06,10.7-3.43,21.17-7.55,31.78-11.25,13.15-4.58,26.27-9.26,39.55-13.45,8.56-2.7,17.34-4.81,26.1-6.81,5.43-1.23,11-1.85,16.54-2.55,6-.77,12.18-.88,18.08-2.15,2.72-.59,5.87-2.09,7.31-5.23.19-.42.45-.81.77-1.36l2.53,3.7c1.53-1.3,2.87-2.39,4.15-3.54s2.19-1.29,4.19-.75c2.46.65,4.14,2.4,6.38,3,3.54-3.16,6.09-2.64,9.1,1.06,3.85,4.74,8.54,8.55,14.5,10.47a7.7,7.7,0,0,1,4.68,4,35.56,35.56,0,0,0,7.79,9.62c1.21,1.12,1.21,3.52,1.81,5.33.28.87.43,2.12,1.06,2.5,2.45,1.46,3.21,3.91,4.24,6.26,1.3,3,2.74,5.86,4,8.83.72,1.68.13,3-1.22,4.32-1.51,1.46-2.66,3.31-4.09,4.88a2.9,2.9,0,0,1-2,.9c-3.32-.18-5.66,1.66-7.68,3.82-2.66,2.85-3.9,3.24-7.38,1.77a2,2,0,0,0-1.87.52c-1.12,1.91-2.21,1.91-4,.7a55.73,55.73,0,0,0-6.58-3.6c-.36-.19-.89,0-1.32-.11a10.17,10.17,0,0,1-2.28-.67c-3.11-1.54-6.08-3.46-9.32-4.6-1.36-.47-3.59.25-4.88,1.17-2.79,2-6.06,1.66-9.07,2.44-3.64.93-7.37,1.48-11.07,2.18-.84.16-1.7.25-2.73.39v-1.53C412,212.11,391,220.18,370,229.12c.69.72,1.31,1.35,1.91,2,.91,1,1.81,2,2.7,3,1.33,1.51,2.77,2.94,3.95,4.57,2.51,3.47,6.13,5.73,9.12,8.66.67.66.79,1.84,1.34,2.67,1.4,2.14,2.81,4.29,4.39,6.3,3,3.86,6.7,2,10.17.81,6.62-2.34,13.17-4.9,19.82-7.19,6.92-2.39,14-4.41,20.86-6.91,3.4-1.23,6.54-3.17,9.85-4.81,1.24,1.68,2.52,1.75,4.21.79a11.36,11.36,0,0,1,3.24-.86c3.71,4.67,6.73,9.29,10.57,13.06,3.28,3.21,7.51,5.46,11.32,8.13.32.22.76.32,1,.6,2.35,2.72,4.58,5.54,7,8.18a17,17,0,0,0,4,3.19c3.28,1.84,3.33,1.76,2.68,5.39-.22,1.26,2.49,4,3.78,4,.55,0,1.49.43,1.57.82a2.28,2.28,0,0,1-.58,1.92c-3,2.45-3.11,3.74,0,6.68a34.29,34.29,0,0,1-4.84,1c-1.75.09-3.17.38-4.33,1.93-.48.64-1.76.7-2.68,1-1.1.35-2.41.41-3.26,1.07-4,3.13-7.28,3.91-11.1,1.06-4.79-3.58-9.81-3.49-15.15-2.57s-10.84,1.77-16.22,2.88c-4.59.94-9.1,2.25-13.66,3.3a116.35,116.35,0,0,1-11.48,2.38c-7.83,1-15.71,1.65-23.57,2.48-1.49.15-3,.45-4.82.74a19.57,19.57,0,0,0,1.21,2c4.88,6.38,10,12.57,14.62,19.14,8.26,11.74,15.92,23.9,24.4,35.48,3.7,5,8.72,9.12,13.27,13.52,3.36,3.26,7.05,6.19,10.36,9.49,5.36,5.35,11.79,9.19,18.33,12.73,9,4.86,18.24,9.22,27.41,13.75,17.11,8.44,34.15,17,51.4,25.17,7.92,3.73,16.28,6.5,24.44,9.71a3.8,3.8,0,0,1,1.89,1.4l-5.69-.36-.2.76c.93.62,1.9,1.18,2.77,1.87a5.39,5.39,0,0,1,.94,1.36c-.52.26-1,.76-1.57.76-4.1.07-8.21-.1-12.31.1a30.12,30.12,0,0,0-8.61,1.23,160.1,160.1,0,0,0-19.63,8.05c-2.71,1.39-5.93,3-7.38,6.37a4.08,4.08,0,0,1-2.15,1.57c-1.76.75-3.2,1.53-3.16,3.86,0,1.79-1.19,3.15-2.92,2.27-2.46-1.26-3.9.06-5.65,1.26a10.89,10.89,0,0,1-3.19,1.28c-2.84.81-5.83,1.22-8.52,2.37-5.21,2.24-10.35,3.43-15.95,1.49a17.1,17.1,0,0,0-6-.88c-2.4.07-3.86-1.1-5.23-2.74a39.22,39.22,0,0,0-3.36-3.68,2.71,2.71,0,0,0-2.11-.8c-3.55,1.29-6.08-1.3-7.68-3.12-5.33-6.08-12.62-9.67-18.19-15.38-4-4.08-8.8-7.35-12.68-11.5-5.16-5.53-10.87-10.69-14.59-17.44-3.17-5.76-6.13-11.65-9.24-17.46-1.17-2.2-2.61-4.27-3.66-6.52-.61-1.31-.53-2.93-1.06-4.29-1.44-3.63-3-7.18-4.57-10.78-1.74-4.09-3.46-8.2-5.2-12.29a6.84,6.84,0,0,0-.95-1.89c-5.47-6.48-7-14.83-10.49-22.22-1.61-3.37-2.91-6.88-4.64-11-.86,2.4-1.52,4.11-2.08,5.84q-3.65,11.38-7.25,22.78c-1.93,6-3.76,12.09-5.85,18.07-1,2.86-2.75,5.47-3.73,8.34-1.14,3.35-3.3,6.31-3.53,10-.08,1.32-1.29,2.6-2.06,3.85-1.9,3.06-3.91,6.06-5.75,9.16-3.16,5.31-6,10.82-9.38,16-5,7.7-10.09,15.36-15.63,22.66a19.28,19.28,0,0,1-9.73,6.66c-2.08.65-3.73,2.55-5.69,3.69-2.15,1.25-4.59,3.44-6.63,3.16-5.36-.73-9.34,2.42-14,3.65-.82.22-1.61.6-2.41.9-2,.72-3.44.42-4.24-1.84-.17-.49-1.4-.9-2.12-.86-3.9.18-7.82.36-11.69.84-3.17.39-6.3,1.15-9.44,1.83-3.62.78-7,2.34-11,1.66a30.89,30.89,0,0,1-3.73-1,10.76,10.76,0,0,0-4.25.14c-4,.51-7.93,1-11.88,1.68-1.54.25-3,1-4.53,1.16a9.12,9.12,0,0,1-3.07-.69c-.51-.13-1-.51-1.51-.46-2.43.23-4.84.6-7.26.86a6.64,6.64,0,0,1-2.45-.21c6-4.05,12.9-5.53,19.47-7.87,4.28-1.52,8.65-2.77,12.89-4.38,5.19-2,10.42-3.9,15.38-6.35a119.7,119.7,0,0,0,22.8-15c8.25-6.77,15.51-14.52,20.76-23.91s10.46-18.62,15.26-28.14c3.23-6.42,5.66-13.24,8.55-19.84,2.25-5.16,4.85-10.17,6.91-15.41,2.48-6.32,4.56-12.81,6.78-19.23C334.88,335.82,335.48,333.82,336.07,332Z"/></g><g class="cls-1"><path class="cls-4" d="M479.18,626.1a6.79,6.79,0,0,0,.74-1.92c.64-16.22,4.06-31.93,8.6-47.45,2.55-8.71,5.36-17.39,7.21-26.25.72-3.44-1-7.35-1.32-11.08-.13-1.51.52-3.09.79-4.65.21-1.23.39-2.47.62-4a36.81,36.81,0,0,0,3.81-1.08c2.07-.79,3.37-1.92,3.36-4.64,0-5.2,1.75-6.53,6.77-6.1a5.23,5.23,0,0,0,1.77-.44c5.7-1.64,18.32,5.42,18.28,11.72,7.84-2.09,15.74-4.44,23.78-6.22,3.13-.7,6.36-1.06,9.75,1.16,2.3,1.51,6.28,1.65,9.13.92,7.08-1.8,8-1.43,12,4.37,2.61,3.85,6.37,6.91,9.47,10.44a64.24,64.24,0,0,1,5.08,6.74c2,3,3.75,6.07,5.76,9.37L643,537.57c-3.94-.81-7.88-1.44-11.72-2.47a114.32,114.32,0,0,1-10.89-3.69c-4.51-1.73-9-3.64-13.4-5.52-5.06-2.13-9.35-5-10.85-10.78a2.65,2.65,0,0,0-.7-1.31c-4-3.42-1.33-4.49,1.75-6.21,5.31-3,10.22-6.64,15.45-9.75,6.18-3.68,12.5-7.13,18.83-10.55,6.71-3.62,13.52-7.09,20.33-10.65,1.77-12.14-4.69-23.13-5.36-34.14-2.35-.78-4.56-1.37-6.64-2.25a80.89,80.89,0,0,1-8-3.87c-.8-.45-1.14-1.67-1.8-2.45-4.45-5.24-3-10.95-.59-16.19a101.3,101.3,0,0,1,10-17.5c1.52-2.08,5.38-3.15,8.28-3.37,6.14-.47,12-.13,18.07,2.9a35.38,35.38,0,0,1,15.63,14.75c5.41,9.82,8.8,20.5,8,32-.3,4.32-1.46,8.58-2.26,12.87-.22,1.17-.54,2.32-.75,3.19,7-.55,13.72-1.11,20.42-1.58,3.38-.23,6.81.63,9.87-2.06,2-1.72,4.17.17,6,1.27,6.71,4,13.66,7.72,20,12.33,4.42,3.24,7.85,7.82,11.83,11.68,4.37,4.23,4.7,10.14,6.65,15.37a6.31,6.31,0,0,1-3.89,8.07,10.07,10.07,0,0,0-3.63,2.67c-1.85,2-3.81,3.19-6.65,2.34-1.87-.55-3.71-1.33-5.33,1-.37.54-3.82,0-3.94-.51-1.07-4.47-5.38-5.74-8.11-8.44-4.52-4.47-9.25-9-14.65-12.24-6.08-3.64-13.21-4.61-19.93-1.26-2.46,1.22-4.82.32-7.1,1.11-1.24.43-2.52.74-3.71,1.26-3.6,1.57-3.33,4.73-3.12,7.84.42,6.52.85,13,1.32,20.21,2.81-.38,5.1-.76,7.4-1,5.42-.52,10.85-1.38,16.27-1.33,5.88.05,11.75.94,17.61,1.55a4.25,4.25,0,0,1,2.35,1c6.72,6.57,13.69,12.92,19.93,19.93a33.77,33.77,0,0,1,7.2,12.73c1.06,3.76-.32,8.2-.62,12.33l-4.58.73-1.08,1.62c1.64,1.15,3.38,2.19,4.91,3.46a23.07,23.07,0,0,1,4.15,4.17c3,4.34,6.32,8.59,8.44,13.35.95,2.12,4,4.9,1.06,8-.25.26.45,1.44.36,1.17-.33,2.45-.47,4.11-.81,5.74s-.4,3.85-1.38,4.39c-3.66,2-1.58,5.34-2.28,8a9.35,9.35,0,0,0-.06,2.25c-.46,0-1.16.13-1.32-.1-.4-.57-1-1.52-.74-1.94,1.05-2,.36-2.75-1.63-3.07a2.16,2.16,0,0,1-1.48-1.07,6,6,0,0,0-5.83-4.11c-4.86-.11-6.31-4.52-9.48-6.7-1.07-.74-2.19-1.4-3.74-2.38l1.4-2.81c-4.78-2.8-9.31-.68-13.46,1.12-11.19,4.87-22.29,9.94-33.11,15.56-1.67.86-1.9,5-2.33,7.66-.65,4,.28,8.49-3.11,11.73-1.08,1-2.47,2.32-3.78,2.41-4.62.29-9.28.11-14.51.11-4.25,5.83-3,13.38-3.09,21,4-3.26,7.65-6.68,11.74-9.39,8-5.29,16.21-10.18,24.34-15.24a14.65,14.65,0,0,0,2.17-1.45c5.26-4.81,11.9-4.94,17.35-2.27,5.89,2.88,11.52,6.72,15.5,12.84a117.79,117.79,0,0,1,11,22.28c.91,2.38-.8,5.69-1,8.6-.46,5.7-2.36,10.64-7,14.27a24.41,24.41,0,0,1-3.73,2.4,7.55,7.55,0,0,0-2.57,11.29c1.22,1.62,2.91,2.91,4,4.6,1.66,2.64,2.87,5.38,2.36,8.82-.23,1.49,1.18,3.32,2.08,4.86,2.1,3.58.76,6.39-3.35,6.79s-4,.43-3.83,4.41l4.62.31c.1,1.59-1.85,3.94.17,4.63,1.75.6,4.06-.44,6.33-.34l-5.44,3.14,5.65,3c-3.3,5.37-1.34,10.81-.1,16.28,1.16,5.11-2.53,12.53-7.34,14.28-2,.74-2.57,1.13-2.2,3.63a21.89,21.89,0,0,1-.81,10.59c-2,5.32,1,10.12.42,15.17-.84,7.23-1.61,14.47-2.51,21.7a32.57,32.57,0,0,1-1.28,6.19c-1.47,4.54-2.39,9.52-4.92,13.41-3.85,5.92-8.42,12.44-16.28,12.58-10.28.19-19.55,4.78-29.62,5.39-.09,0-.19-.14-.56-.45L683,857.7l-.16-.56c-3.93.22-7.87.74-11.79.58-7.63-.3-15.25-1-22.88-1.46-1.35-.07-2.79.86-4.11.69q-7.82-1-15.55-2.5a61.69,61.69,0,0,1-6.42-2l-20.12-6,4.38-1.45-5.66-2.18.23-.8c1.27.16,2.55.25,3.79.52,1.55.35,2.88,1,4.29-.74,2.56-3.18,5.41-.79,9.09,0l-2.9,1.05.2.62,6.2-2.07c-2.76-.7-5.31-1.24-7.8-2-5.93-1.81-6-1.9-6-2.6l-22.14-4.51-.14-1.29a58.19,58.19,0,0,1,8.07-.8c7.74.26,15.48.8,23.22,1.2a1.9,1.9,0,0,0,1-.47c.72-.54,1.4-1.13,2.1-1.7l.77.83c-.29.52-.57,1-.88,1.61a7.37,7.37,0,0,0,.86.09c.69-2.61,2.75-2.34,4.69-2.23a90.76,90.76,0,0,0,30.28-3.21c14.76-4.22,29.24-9.41,41.38-19.33,3.95-3.22,4.65-8.1,5.46-12.78,1.11-6.39,2-12.83,3.25-19.19.66-3.32.28-4.91-3.49-6.18-15.81-5.32-31.74-10.53-45.53-20.38-3.63-2.58-6.72-5.64-7.74-10.23a4.19,4.19,0,0,0-.29-1.08c-.6-1.17-2.06-3-1.74-3.35,1.35-1.67,3-3.75,4.93-4.19a83.08,83.08,0,0,1,16.26-2.44c12.13-.34,24.29-.11,37.14-.11-1.73-4.72-2.89-8.27-4.35-11.69a10.42,10.42,0,0,0-2.6-2.9c-.44-.41-1.36-.5-1.57-1-3.51-7.75-10.64-6.5-16.52-5.55-9.54,1.54-18.84,4.57-28.24,7-.12,0-.24.2-.33.17-6.14-1.73-5.77,3.58-6.35,6.6-1.48,7.72-2.21,15.59-3.23,23.4-.5,3.84-1.14,7.67-1.44,11.53-.42,5.25-.55,10.53-.87,15.8-.18,3.14-.39,6.28-.78,9.4s-1,6.08-1.32,8.07l-8,2.47-4.68,1.78c-1.66.62-3.33,1.22-5,1.83l-.42-.91-2.32,7c-2.66-4.7-5.38-8.6-7.13-12.91-1.17-2.87-.93-6.3-1.37-9.48-1.17-8.6,4.35-15.46,6.16-23.32,5-21.94,10.88-43.7,16.63-65.47,2.06-7.79,4.69-15.38,9-22.38,2.85-4.65,4.61-10,7-14.89,1.3-2.66,2.92-5.16,4.39-7.74l-1.13-.77c-4.12,4.66-9.05,8.85-12.14,14.11-3.58,6.1-9,7.81-14.77,7.69-8.67-.19-17.31-1.8-26.17-2.83.41,19.21.55,39.46-6.83,58.83.26-1.17.56-2.34.77-3.52a7,7,0,0,0-.17-3.86c-1,3.14-1.61,6.42-3,9.38s1,6.84-2.18,9.51c-1.72,1.47-3.07,3.36-4.68,5-.73.73-1.31.55-3.38-.1-.44-.13-1.06.35-1.61.54-3.74,1.26-7.51,2.46-11.23,3.8-1.88.68-3.67,1.59-5.91,1.72l6.8-8.94c-2.33-.65-4.69-1.79-7.09-1.87-7.4-.26-10.82-5.59-14.16-10.81-6-9.43-11.89-19-17.45-28.68-1.43-2.51-1.5-5.82-2.11-8.79a33.48,33.48,0,0,1-.31-3.58c.92,0,2-.33,2.71.05,5.37,3,10.93,5.12,17.18,5.19a4.68,4.68,0,0,1,2.31,1.17c3.56,2.61,6.62,2.48,9.79-.9,4.54-4.84,9-9.74,13.18-14.9.8-1,.07-3.3-.12-5-.38-3.31-.88-6.61-1.42-10.65l-2.67,4.93c-4.54,0-8.7.12-12.85,0-8.35-.29-15.41-4.26-22.28-8.4a86.92,86.92,0,0,1-14-10.06c-2.89-2.64-5-6-10.23-6.46-1.14,9.84-3,19.79-2.24,29.84s1.16,20.17,4.62,28.46c1.46,1.18,2.5,1.61,2.85,2.36,2.83,6,5.42,12.09,8.31,18,1.24,2.55,1.3,4.53-.62,8.85-1.51.29-2.67.43-3.78.73-5.22,1.44-12.49-1.47-15.87-6.12-1.29-1.78-3.45-3-4.52-4.84s-.88-4.39-1.87-6.31c-6-11.54-8.89-24-11.16-36.66-1.31-7.27-1.7-14.7-2.55-22.05a35,35,0,0,0-.75-3.46Zm28.58.48c1.9-.88,2.77-1.36,3.68-1.7,3.66-1.35,7.26-3.75,11,.12.58.6,2.48,0,3.74-.17.76-.13,1.54-1,2.15-.88,4.34,1,8.64,2.23,12.95,3.4l23.59,6.5c-.78-2.82-1.65-5.83-2.45-8.87-2.46-9.4-5.53-18.49-6.42-28.45a110.36,110.36,0,0,1,1.15-30.07c.83-4.56.26-5.08-4.46-4.57-.85.09-1.65.58-2.49.69-3.18.43-3.65,2.18-2.93,5a17.46,17.46,0,0,1,.25,5.82c-.51,5.2-3.2,9.58-5.54,14.1a17,17,0,0,1-19.57,8.13c-3.77-1.21-5.89-.31-7.16,3.42-1.68,4.95-3.26,9.93-4.66,15C509.52,617.9,508.81,621.86,507.76,626.58Zm198,14.86c-4.1,1.24-7.67,1.84-10.8,3.36a61.06,61.06,0,0,0-21.39,17.38c-4.49,5.69-11.2,9.56-13.8,16.82-.2.55-1,.84-1.29,1.38-2.39,4.86-4.72,9.76-7.46,15.44,16.44-7,32.47-8.57,49.19-9.4C699.25,671.93,701.47,657.12,705.8,641.44ZM592.58,623.6c4.88-2.29,9.36-4.24,13.71-6.47,5.86-3,11.58-6.3,17.41-9.36C635,601.85,646.24,596,657.48,590.1c.86-.46,2-1.44,2.06-2.2.16-6.56.09-13.13.09-20a10.78,10.78,0,0,0-8,7.9A21,21,0,0,1,643,589c-5.12,3.4-11.72,3.75-17.86,2.23s-11.85-3.6-17.91-5.49c-.63,1.63-1.35,3.34-1.95,5.08-2,5.75-5.27,6.92-10.55,3.74-2.47-1.5-5-2.36-8-.63,1.08,3.88,2.11,7.6,3.14,11.33l-.64.25-1.74-2.76-.41.24C589,609.87,590.79,616.79,592.58,623.6Zm103.9-76.36.46.75c-.79.54-1.55,1.14-2.38,1.62-2.36,1.36-4.77,2.63-7.11,4-3.6,2.16-.85,5.24-1,7.89-.12,1.65,0,3.31,0,5v7.4c4-1,7.58-1.89,11.11-2.86,1.55-.43,3-1.14,4.55-1.64,1.94-.62,3.89-1.53,5.87-1.63a84.06,84.06,0,0,1,9.22.51l.12-.73-2-.64-.06-.7,10.8-1.49.1.66-1.71.7.48.91,7.62-4.17L719.7,542.43l-1.37,1.17c-1.19-1-2-2.17-2.94-2.3-8.26-1.17-20,2.39-22.87,6.79ZM653,644.85l8.39-10.21C655.49,635.32,652.25,640.24,653,644.85Zm-68.27,53-1.55-.23q-1.47,9-2.93,18l1.1.18Q583,706.86,584.72,697.89Zm-84-44.43,1.63.31V639.94l-.36-.08Zm217.05-57.54,1.66,2.74,7.78-2.46C723.8,593,721.1,596.15,717.73,595.92Z"/></g></g></svg>