<svg xmlns="http://www.w3.org/2000/svg" viewBox="0 0 991.38 964.23"><defs><style>.cls-1{fill:#656765;}.cls-2{fill:#fcfaf2;}</style></defs><title>アセット 27</title><g id="レイヤー_2" data-name="レイヤー 2"><g id="レイヤー_1-2" data-name="レイヤー 1"><circle class="cls-1" cx="480.89" cy="495.89" r="429.89"/><path class="cls-1" d="M844.52,159.52c-2-1-4.24-1.71-6-3.15-2.93-2.43-5.51-5.43-8.36-8-2.16-1.94-4.7-3.4-6.92-5.27-2.43-2-4.83-4.06-7.23-6.11s-4.74-4.15-7.29-6c-5.4-4.14-10.84-8.21-16.29-12.29v2.63L791,119.61a10.18,10.18,0,0,0-1.2-1.12c-4.76-3.56-9.57-7.06-14.34-10.58-1.21-.87-2.38-1.78-3.6-2.62l-3.68-2.51c-2.44-1.68-4.88-3.37-7.29-5.09-2.79-2-7.26-2.93-8.16-7-.07-.31-1.68-.89-2.58-1.26a65.38,65.38,0,0,1-6.43-2.59c-2.49-1.32-4.76-3.13-7.23-4.53-1.53-.85-3.07-1.72-4.7-2.43l-4.86-2.2a50.16,50.16,0,0,1-9-5.07c-1.71-1.28-3.46-2.48-5.24-3.63S709,66.9,707.2,65.9c-3.7-2-7.44-3.87-11.14-5.88l-2.86-1.59-1.43-.8-1.45-.74.68-1.27c1.54.67,3,1.48,4.52,2.23L700,60.14l9,4.6,4.47,2.3,4.36,2.49,8.68,5,1.93-2.34-7.93-4.56.29-1.18c4.66-.75,8.13,4.44,12.41,5.95,1.17.42,2.33.9,3.5,1.43s2.26,1.2,3.38,1.85c2.24,1.31,4.46,2.74,6.63,4.12s4.29,2.9,6.38,4.42l3.15,2.26,3.13,2.29c4.09,2.91,8.39,5.52,12.61,8.27l.82-1c-3.64-2.79-7.33-5.55-11-8.38l-3.73-3-3.83-2.83c-2.55-1.87-5.14-3.72-7.81-5.43-3-1.92-6.1-3.8-9.27-5.5l-9.6-4.93-8.39-4.32-2.09-1.09-2.13-1-4.25-2.05c-4-2-7.81-4.4-11.8-6.45a23.49,23.49,0,0,0-3.4-1.2,6.77,6.77,0,0,1-2.86-1.24,34.22,34.22,0,0,0-9.85-6.2c-1.78-.79-3.6-1.52-5.4-2.25l-5.36-2.21c-6.54-2.76-13.19-5.28-19.87-7.72C645.42,28,638.6,26,631.84,23.82c-1.87-.6-4.15-1.89-5.56-1.6-6.08,1.11-10.61-1-15.38-4.35-1.67-1.15-4.26-1.66-6.38-2.41l-2.43,2.09-2.58.66c-.19-1,.06-2.65-.66-3-3.22-1.39-8.57-3.93-9.83-3.27a7.79,7.79,0,0,1-5.83.42c-.94-.23-1.87-.54-2.79-.79a12.73,12.73,0,0,0-2.78-.38,25.59,25.59,0,0,1-5.45-.91l-9.36-2.78-.63,1.08c.79.43,2.15.87,2.23,1.29a8.9,8.9,0,0,1-.34,3.06l-3.2-2.19-3.48,1,1.45-5.49c-3-.58-6-.86-9.08-1.29l-9.46-1.2c-3.22-.39-6.49-.86-9.86-1.19l-10.34-.8c2.94,2,4.88,4.31,7.5,4.85,3,.57,6.16,1.16,9.35,1.66s6.44.94,9.75,1.49l1.2,3.08c-8.59-.88-17.24-2-26-2.31l-13.15-.72c-1.1-.05-2.2-.14-3.3-.15l-3.29,0-6.6,0-1.14,1,4.82,1.41-.87,1.38-10-.25-5-.12L480.89,13l-2.49.06-19.74.5c.26,1.25,1.12,2.79.53,3.13a11.39,11.39,0,0,1-2.71,1c-1.05.3-2.24.62-3.54,1,1.72-4.65,1.76-4.85-3.87-4.87-2.92,0-6,1.23-8.87,1.13-3.1-.09-6.2-.35-9.3-.56l-9.29-.4c-1.83-.07-3.75-.76-5.43-.43-2.54.51-5.07,1.08-7.57,1.7-1.25.29-2.49.67-3.73,1.06l-3.68,1.17a64,64,0,0,0-6.53,3L388.9,16l4.33-4.65-11.41,1c2.79,2.19,6.8,3.75.44,5.38,2.67,1.41,5.07,2.74,7.26,3.94-2.94,1-5.65,2.14-8.45,2.85q-5.6,1.28-11.21,2.43l-5.63,1.14c-1.88.38-3.77.7-5.62,1.18-4.88,1.17-9.82,2.07-15.23,3.21,0,.06-.29,1-.77,2.63l-3.77-2.49c-.73,1.43-1.36,2.64-2,3.93a21.62,21.62,0,0,1-4.46-.67c-3.1-1.19-5.41.27-8.78,2.56l6.28-.27c-5,1.95-8.48,3.47-12.08,4.73-2.86.94-5.61,2.2-8.4,3.32s-5.58,2.28-8.38,3.36-5.65,2.07-8.49,3.08-5.68,2-8.62,2.86c-3.68,1-7.36,2.36-11,3.8-1.84.69-3.6,1.57-5.38,2.4l-5.32,2.55c-3.72,1.79-7.1,4.34-10.62,6.55l.43.6,6.35-1.75c-1.9,1.34-3.76,2.55-5.6,3.7s-3.58,2.39-5.34,3.58c-.51.34-.61,1.19-.9,1.8a6.56,6.56,0,0,0,2.48-.3c2.26-1.3,4.35-2.89,6.66-4.1l14.71-7.92c1.23-.65,2.44-1.34,3.69-2l3.77-1.8,7.55-3.59,5.72-2.72c1.9-.92,3.81-1.84,5.77-2.62,3.89-1.63,7.79-3.24,11.73-4.78,1.69-.66,3.4-1.28,5.11-1.89l2.58-.9,2.61-.78c3.49-1,7-2.09,10.38-3.33,1.86-.67,3.7-1.4,5.54-2.14s3.66-1.56,5.53-2.21c3.71-1.38,7.44-2.75,11.23-3.93l6.14-1.9,3.07-.93,3.11-.8,12.48-3.1,6.24-1.52c1-.27,2.09-.49,3.14-.68l3.16-.61,12.62-2.44c6.11-1.29,12.29-2,18.46-2.91l9.27-1.27,2.31-.31,2.33-.21,4.65-.41a13.89,13.89,0,0,1,3.27.51,9.62,9.62,0,0,1-4.71,2.07c-1.33.26-3.76.17-3.94.57-1.77,3.82-7.4,3.56-10.9,5.44-2.62,1.43-5.6,3-8.59,3.46-4.7.6-9.36,1.53-14.05,2.27L385.59,33.3c-2.41.49-5.62,1.26-7.25.59-5.51-2.26-11.25.87-16.08,2a82,82,0,0,0-12.1,4.73c-2,.93-3.92,1.9-5.85,2.87s-3.86,1.93-5.74,3c-2.43,1.34-4.18,3.54-6.62,5.69L330,50l-7.1,2.41-3.56,1.21c-1.18.43-2.34.91-3.51,1.36L301.8,60.52l-3.52,1.39c-1.18.47-2.31,1-3.47,1.53l-6.91,3.12L281,69.69c-2.31,1-4.62,2.07-6.86,3.26l-.38-.72c2.43-1.71,5-3.19,8.4-5.3-2.11.42-3.65.37-4.26.91a25.08,25.08,0,0,1-2.08,1.65c-.7.54-1.41,1.05-2.15,1.53a45.55,45.55,0,0,1-4.56,2.61c-3.12,1.59-6.38,3-9.48,4.65-1.27.69-2.5,1.43-3.71,2.21s-2.35,1.7-3.5,2.58c-2.29,1.77-4.55,3.59-6.88,5.29l-5.14,3.71-2.57,1.85c-.86.61-1.68,1.29-2.51,1.93l-9.94,7.85c-.78.62-1.31,1.54-2.12,2.06L220,107.9c-1.09.71-2.14,1.5-3.21,2.25l-6.41,4.56-6.45,4.6c-1.08.78-2.18,1.52-3.24,2.33l-3.15,2.48-3.29-1.93c-2.24,3.19-4.34,6.28-6.74,9.14a45.59,45.59,0,0,1-3.9,4.11,34.81,34.81,0,0,1-4.55,3.87,76.89,76.89,0,0,0-8.07,6.9l-3.87,3.73c-1.26,1.28-2.5,2.58-3.78,3.81a7.49,7.49,0,0,1-4,2.06c-5.49.18-7.33,1.42-8.27,7.13a10.1,10.1,0,0,1-.63,2.26,11.86,11.86,0,0,1-1,2,23.7,23.7,0,0,1-3,3.69c-5.23,5.6-10.29,11.34-15.11,17.3-2.73,3.25-5.5,6.46-8.3,9.69-1.43,1.58-2.74,3.28-4.07,5s-2.67,3.37-4,5.08c-.72-2.28-.61-4.28,2.64-6.11.5-.28,1.23-2.52.92-3-.52-.82-1.78-.95-3.14-1.55-4.11,5.6-8.32,11.25-12.37,17a6.22,6.22,0,0,0-.71,2.64c-.37,3.43-.31,6.78-1,10.19-.34,1.6-2.14,3.37-3.31,5-.62.87-1.46,1.62-2,2.52-.92,1.52-1.66,3.15-2.48,4.72l-2.41,4.75c-1.6,3.17-3.2,6.32-4.88,9.44-.42.79-.87,1.56-1.33,2.33s-.89,1.57-1.35,2.35c-.93,1.56-1.88,3.1-2.78,4.67l-.43-.23.83-2.49-.83-.4c-1.74,3-3.68,6-5.19,9.1-.57,1.2-1.11,2.41-1.62,3.62s-1,2.44-1.4,3.7l-2.46,7.52c-.85,2.49-1.75,5-2.82,7.38a76.1,76.1,0,0,1-3.73,7.14,46.62,46.62,0,0,0-4,7.69c-1.32,3.5-1.88,7.22-3.23,10.67-.61,1.77-2.33,3.18-3.56,4.77a23.23,23.23,0,0,1,.94-5.89c.6-1.9,1.4-3.74,2.17-5.6,1.56-3.74,3.1-7.53,3.32-11.9L55,302.17l-.55-.54c1.22-2.69,2.44-5.39,3.71-8.17l-2.64-1.62c-4.08,4.1-1.93,12.17-8.32,14.44a4.85,4.85,0,0,1,.17,1.91c-1.31,3.7-2.33,7.52-3.43,11.3L40.7,330.82a2.09,2.09,0,0,1-.55.84,13.26,13.26,0,0,0-3.67,6.08c-.72,2.25-1.16,4.68-1.78,7.24-.8,3.31-1.6,6.63-2.45,9.93s-1.49,6.69-2.37,10-1.81,6.6-2.93,9.84c-.54,1.63-1.21,3.23-1.75,4.86s-1.19,3.23-1.86,4.82-1.89,3.79-1.73,5.2a27.5,27.5,0,0,1-.92,10.1c-.45,1.62-.8,3.27-1.23,4.91s-.83,3.28-1.16,4.93-1,4.39-.4,5.34c1.66,2.79.78,5.78.26,8.8-.43,2.68-1.06,5.34-1.36,8q-.74,7.08-1.37,14.17c-.27,2.36-.3,4.74-.43,7.1l-.35,7.1c-.19,4.21-.5,8.42-.66,12.63l-.11,12.63c0,2,0,4,.07,5.94l.07,3c0,1,.05,2,.13,3l-.61.18c-.34-1.14-.63-2.28-.89-3.43l-.82-3.45-1.09.23-.11,4.92.1,4.92.25,9.84.27,9.84.74,9.83-1.05.08-1.12-10-.64-10-.62-10c-.09-1.68-.24-3.35-.27-5l-.07-5-1.4,0c-.3,2.05-.63,4.11-.91,6.17s-.42,4.14-.64,6.22c-.41,4.18-.84,8.38-1.26,12.64.64.5,1.36,2.53,1.74,4.66s.6,4.34-.12,5.25c-.31-.78-.65-1.67-1-2.55l-1.07,1c.64,1.67,1.32,3.3,1.92,5a17.55,17.55,0,0,1,.89,3.19c-3.25,2.53-1.35,5,.7,7.66l-2.45,1.72c.27,1.43.48,2.86.79,4.28s.65,2.86,1,4.33c.66,2.92,1.36,6,2.13,9.37-1.39,4.44-1,5.83,3.85,9.45-4.29,2.89-1.34,7.8-.35,11.84.4,1.62,2.31,2.73,3.31,3.82,0,2,.05,4.06.21,6.06a47.2,47.2,0,0,0,.93,5.93,115.8,115.8,0,0,0,3.08,11.56q.9,2.85,1.88,5.68c.65,1.89,1.46,3.73,2.19,5.59,1.49,3.72,3,7.43,4.31,11.18-.37,2.43-1.06,4.89,2.21,6.79.66.37,1,2.7,1.48,4.11l4.81,12.88,1-.4c-.5-3.23-1-6.47-1.7-11,4.28,9.79,4.5,11.88,2,14.74a45.62,45.62,0,0,0,1.52,4.35c2.74,6.35,4.37,13.32,9.73,18.09,2.06,1.75,4,5.62,4.7,8.58,1,4.38,2.31,7.92,5,9.37a72.43,72.43,0,0,0,3.65,8.14c3.72,6.27,7.46,12.47,11.53,18.5,2.35,3.63,4.41,7.48,6.69,11.16.57.92,1.13,1.84,1.77,2.71s1.31,1.71,2,2.53a35.64,35.64,0,0,0,4.54,4.57,8.82,8.82,0,0,1,2.08,2c2.62,4.25,4.87,8.77,7.92,12.72,2.28,3.05,5.22,5.56,7.62,8.51,1.31,1.61,2.58,3.25,3.92,4.84l4.08,4.72c2.72,3.14,5.43,6.29,8.17,9.39,1.83,2.15,4.17,3.81,6,5.88,2.59,2.83,5.09,5.76,7.61,8.65,1.28,1.44,2.52,2.9,3.85,4.27s2.73,2.69,4.13,4c6,5.4,12.3,10.16,18.64,15l7,5.7,3.49,2.86c1.19.93,2.41,1.82,3.61,2.74,4.83,3.62,9.62,7.26,14.46,10.81,4.18,2.8,8.39,5.52,12.63,8.12,2.08,1.26,4.21,2.44,6.35,3.56a61.33,61.33,0,0,1,6.35,3.54c2.32,1.52,4.64,3,7,4.5a77.67,77.67,0,0,0,7.1,4.14,88.57,88.57,0,0,0,15,6.19c1.34.38,2.61,1.14,4,1.64,3.4,1.33,6.61,3.36,9.92,5s6.68,3,10.43,2.81a2,2,0,0,1,1.2.53,25.54,25.54,0,0,0,9.93,5.95c3.6,1.27,7.27,2.18,10.73,3l12.3,3.27c2.05.54,4.06,1.17,6.12,1.7s4.13,1.08,6.19,1.7l8.06,2.38c2.69.75,5.34,1.61,8.09,2.18q8.18,1.88,16.31,3.62c2.16.51,4.37.81,6.56,1.15l6.58,1,6.55.91,3.27.43c1.08.15,2.19.2,3.29.3,9.42.68,18.71,1.67,28,1.31,3.74-.06,7.44-.28,11.11-.54,1.83-.09,3.68-.39,5.52-.6l5.49-.67-.22-.66-5.12-.65c-1.79-.23-3.73-.43-5.9-.87,1-.19,2-.33,3-.55l2.89-.64,5.55-1.24c3.6-.82,7-1.64,10.36-2.6.87-.25,1.76-.45,2.67-.64s1.82-.43,2.74-.62c1.85-.37,3.71-.7,5.54-1.09,3.64-.79,7.11-1.86,9.88-4.14.29-.25,1.16,0,1.72-.09a8.32,8.32,0,0,0,3.46-1.46,6.21,6.21,0,0,0,2-2.37,5.16,5.16,0,0,0-1.14-5.65l4-3.66c-3.34-.69-6.29-1.2-10.09-2.26a24.83,24.83,0,0,1,3.06-1c2.42-.4,4.9-.77,7.27-1.33,2.86-.69,2.88-3.38,4.38-4.82,2.51-2.4,6.12-3.93,9.22-5.84-1.6-1.25-3-2.55-4.61-3.58l-7.62-4.94-3.79-2.4c-1.27-.8-2.54-1.49-3.82-2.34-5.52-3.53-11.13-6.73-16.66-9.8-3.21-2-6.87-3.29-9.94-5.31-1.52-1-3-1.94-4.57-2.82l-4.65-2.59a46.58,46.58,0,0,0-9.94-4l-3.61-1c-1.2-.38-2.37-.84-3.55-1.26l-7-2.57-3.52-1.24c-1.17-.41-2.36-.76-3.5-1.25-2.32-.9-4.65-1.74-7-2.48-2.82-.9-5.68-1.65-8.52-2.48s-5.64-1.81-8.48-2.65l-4.28-1.25c-1.43-.41-2.86-.79-4.25-1.32l-8.42-2.93c-2.07-.74-4.18-1.41-6.24-2.17l-6.14-2.45-6.17-2.41c-1-.42-2.07-.79-3.09-1.23l-3-1.39c-4-1.82-7.79-3.92-11.84-5.52-4.48-2.07-9.24-3.58-13.8-5.62a34.34,34.34,0,0,1-4.07-2.15l-4-2.34a63,63,0,0,0-8.19-4.16,55.81,55.81,0,0,1-8.16-5.07c-1.32-.91-2.67-1.8-4.09-2.6-.71-.4-1.44-.78-2.2-1.12s-1.48-.74-2.28-1.05a34.74,34.74,0,0,1-8.29-5.1c-1.33-1-2.65-2.09-4-3.16s-2.53-2.23-3.84-3.25l-5.64-4.35c-1.88-1.45-3.81-2.85-5.58-4.43l-10.91-9.22c-.71-.66-1-1.88-1.7-2.46-2.41-1.88-4.89-3.68-7.37-5.52l-3.7-2.78c-1.2-1-2.32-2-3.46-3-3.12-2.89-6.12-6-9.17-9-2.87-3.17-5.75-6.33-8.88-9.25-3.53-3.14-6.2-7-9.16-10.67-1.47-1.84-3-3.65-4.59-5.37a56.29,56.29,0,0,0-4.93-5.09c-2.75-2.44-4.3-6.38-6.62-9.45-2.07-3-4.28-6-6.46-9-1.09-1.49-2.18-3-3.25-4.5s-1.93-3.14-2.85-4.74a128,128,0,0,0-7.35-11.27c-2.07-3.19-3.94-6.55-5.75-10-.9-1.71-1.81-3.42-2.67-5.15l-2.38-5.28c-1.71-3.73-4-7.16-6.09-10.75a38.49,38.49,0,0,1-4.21-11.7c-.19-1.27-1.69-2.41-2.54-3.65a16.43,16.43,0,0,1-2.39-4.14c-1.53-4.92-2.88-9.91-4.33-14.86-.65-2.58-1.56-5.09-2.44-7.61-.72-2.09-1.5-4.17-2.27-6.25-.37-1-.78-2.08-1.12-3.14s-.61-2.13-.9-3.2c-1-3.74-1.61-7.61-2.63-11.37-.26-1-.54-1.92-.85-2.88s-.52-1.92-.78-2.89c-.52-1.92-1-3.86-1.38-5.83-.62-3.31-1.15-6.65-1.68-10-.36-3.36-.68-6.73-1.11-10.08-.15-1.17-1.45-2.2-1.56-3.35-.15-1.6-.14-3.21-.15-4.81s.12-3.22,0-4.81q-.5-7.49-1.12-15-.29-7.53-.55-15.05l-.16-3.29L103,476.5v-1.64l0-6.57-.07-6.6c0-2.2-.13-4.41,0-6.6s-.29-4.6,0-6.85c.45-3.59,1.33-7.11,1.89-10.67.48-2.3.33-4.78,1-7a22.69,22.69,0,0,0,1.14-7,45.11,45.11,0,0,0-.63-6.7,47.56,47.56,0,0,0,2.24-6.57c.6-2,1.13-4.06,1.57-6.09s.72-4.08,1.09-6.08a42.29,42.29,0,0,0,.2-12.37,6.63,6.63,0,0,1,.86-3.13c.48-1.09,1-2.16,1.62-3.22l1.7-3.17L119,370l-3.58-3.11,4.28-1.38c.31-1.54.75-3,1.16-4.45s.82-2.88,1.23-4.31a60.68,60.68,0,0,1,1.75-5.85c.41-1,.85-2,1.3-3s.88-2,1.41-3c1-2,2-3.94,2.8-6l2.81-7.09c.48-1.18.9-2.38,1.41-3.55l1.55-3.48c2.07-4.65,4-9.36,6.11-14,2.19-4.46,4-9.08,6.11-13.64a20,20,0,0,1,2.17-3.85c2-2.77,4.15-5.4,6-8.24.73-1.12.58-2.84,1.32-4a79.13,79.13,0,0,1,5.06-6.89c1.74-2.26,3.46-4.52,5-6.88l2.71-4.13q1.44-2,2.82-4,2.78-4.09,5.35-8.3a21.65,21.65,0,0,1,2.48-3.25c.95-1,1.95-1.94,2.89-2.94a15.42,15.42,0,0,0,4.25-7c.48-1.94,1.83-3.85,3-6.16.57,1.28.87,1.94,1.15,2.58,3.35-3.89,6.61-7.4,9.71-11.06s6.4-7.12,9.65-10.65l4.92-5.27,1.23-1.32c.42-.43.87-.84,1.3-1.26l2.6-2.49a34.38,34.38,0,0,1,4.44-3.09,35.23,35.23,0,0,0,4.33-3l2.19-2.09,2.24-2c1.49-1.36,3-2.73,4.49-4.06,2.09-1.84,4.23-3.63,6.35-5.45,1-.93,2.17-1.75,3.26-2.62s2.18-1.73,3.25-2.63c2.91-2.42,5.77-4.93,8.64-7.43s6-4.71,9-7c.95-.71,2.94,0,4.06-.6s2.53-1.45,3.77-2.21,2.53-1.41,3.72-2.22a21.93,21.93,0,0,0,6.23-6,5.61,5.61,0,0,1,2.76-1.45c.92-.28,2.08.13,2.82-.31l9.65-5.2,4.81-2.62,2.41-1.32c.8-.44,1.64-.8,2.46-1.21l7-3.29,8.52-4.11c5,1.71,7.18-3.18,9.26-5.78,2.37.06,3.87.51,4.94,0a20.94,20.94,0,0,0,3.13-1.88A16,16,0,0,1,348,122.8c2.46-.81,5.39-.44,7.65-1.47,2-.9,4.53-1,6.71-1.56a8.84,8.84,0,0,0,2.94-1.26,5.11,5.11,0,0,0,1.87-2.87c2,.22,3.9.93,5.43.5,3.12-.88,6.21-1.85,9.3-2.86l9.39-2.52c2.71-.7,5.46-1.27,8.18-1.91,1.53-.41,3.66.64,5.17.16,3.09-1,5.81-2.9,8.86-4.14a10.36,10.36,0,0,1,4.32-.25c.67,0,1.25,1,1.82,1,3.25-.36,6.54-.6,9.78-1.14q5.22-.83,10.43-1.75c3.5-.47,7-.85,10.51-1.3a44.85,44.85,0,0,1,5.46-.78c1,0,2,.05,3,.1s2,.12,3,.25c2,.23,4,.45,6,.51,2.66.09,5.36-.55,8.05-.83,1.79-.17,3.59-.38,6.16-.49-1.4,1.19-2,1.76-2.53,2.27l2.67-.25c.87-.09,1.72-.22,2.56-.36,1.67-.29,3.29-.66,4.93-1,2.31-.48,5.27-1.73,6.93-1,4.58,1.85,8.58.86,11.89.41,2.29.69,3.68,1.36,5.13,1.48s3.21-.55,4.74-.36c.89.12,1.78.27,2.66.44s1.76.43,2.64.64a46.37,46.37,0,0,0,5.28,1.12c2.49.34,5.09-.14,7.66-.26,4.9,1.82,9.63,4.66,15.82,3.09.91-.22,2.26.4,3.31.82,1.24.5,2.3,1.49,3.56,1.76,1,.19,2,.45,3,.7l3,.72,6.17,1.4c-.66.9-1.07,1.47-.94,1.28,3.22.24,6.7.15,10.06.77,3.55.73,7,1.94,10.8,3l-3.42,2.34,9.22,1.25.14-1-5.19-1.47c2.82-1.36,7-.32,8.5,1.93a5.22,5.22,0,0,0,2.29,2.05c3.23.92,6.57,1.44,9.83,2.33,3.81.94,7.47,2.3,11.19,3.54l11.14,3.8-.79,2.68c5.1-1,9.11,1.55,13.28,3.59,1.69.85,3.47,1.51,5.22,2.24l5.22,2.28c2.25-3.59,5.1-.34,7.75.4-.07,2.41.18,3.89,1.11,5a6.66,6.66,0,0,0,1.94,1.54,26.54,26.54,0,0,0,3.12,1.62c2.87,1.33,6,2.23,8.93,3.45s5.82,2.7,8,5.45a4,4,0,0,0,2.64.89c3.31,0,5.33,1.53,7,4.36.74,1.28,2.58,2.25,4,3.13,3.92,2.48,8,4.73,11.92,7.23,1.54,1,3.09,2,4.53,3.19s2.9,2.31,4.42,3.35c3,2,6.29,3.55,9.2,5.66a4.08,4.08,0,0,1,1.24,1.85c.32.82.62,1.78,1.06,2.76-2.17-.6-3.22-.89-4.33-1.12l-.16.71c4.6,1.89,9.14,3.92,14,6l-1.28-3.76c3.55.16,4.72,1.61,3.59,4.2-.5,1.14,0,2.88.94,4.35s2.23,2.74,3.55,2.72c3.43,0,4.57,2.3,6.2,4.62a16.26,16.26,0,0,0,3.65,3.46c1.6,1.13,3.46,1.94,4.79,3.31,2.1,2.2,4.11,4.5,6.13,6.77s4.1,4.5,6.09,6.78q5.31,5.84,10.78,11.57c3.45,4,6.93,7.94,10.49,11.85,2.39,2.51,5.32,4.48,8.43,7.14.69,4,3.65,6.2,8.78,6.55l-3.23,3c3.57.82,6.34.8,8.36,2.33s4.52,3,6.59,4.75a14.61,14.61,0,0,1,2.76,3.05,9.6,9.6,0,0,1,1.56,4.18,16.73,16.73,0,0,1,5.28,4.65c1.94,2.49,3.73,5.13,5.51,7.78a36.34,36.34,0,0,1,2.38,4.39l-.82.56c-.72-.61-1.8-1.08-2.11-1.84-1.77-3.95-4.73-5.17-8-6.28-1.16-.38-2.16-2.55-3.2-3.94-1.3-1.71-2.41-3.59-3.84-5.17-2.54-2.71-5.2-5.27-7.89-8,.66,1.86,1,4.09,2.13,5.75,3.44,4.78,6.8,9.59,10,14.56,1.37,2.2,2.7,4.43,4,6.69s2.36,4.63,3.59,6.9,2.53,4.52,3.94,6.69c.71,1.09,1.46,2.15,2.22,3.2s1.49,2.13,2.3,3.16a11.55,11.55,0,0,1,1.34,2.29l3,6.76,1.51,3.37.76,1.69.67,1.72,5.29,13.83a13.22,13.22,0,0,1,.67,2.92c.12,1,.16,2.13.3,3.25,1.21,1.66,3.07,3.6,4.25,6,.86,1.73,1.59,3.53,2.3,5.35s1.43,3.65,2,5.49a39,39,0,0,1,1.72,4.11c.84,3.67,1.51,7.39,2.57,11,.27.9.56,1.78.87,2.66s.59,1.76.94,2.62a25.59,25.59,0,0,0,2.68,5,8.7,8.7,0,0,1,.91,3c.57,2.71,1.07,5.43,1.61,8.14s.85,5.47,1.46,8.16c1.37,6.29,3.07,12.63,4.9,18.69,1,3.08-1.2,4.12-.83,6.45.42,2.72.82,5.45,1.15,8.18l.68,8.23c0,.43.27.84.33,1.27.39,2.64.78,5.28,1.2,8.18,2.41-.54,4,.76,5.24,2.65s2.07,4.37,3.3,6.13l2.77-1.1c.12,5,.24,9.92.35,14.76.06,1.21,0,2.42,0,3.62l-.09,3.6q-.06,3.6-.14,7.18c0,2.79,0,5.58,0,8.38s-.19,5.58-.34,8.37c-.26,4.48-.86,9-1,13.44-.35,4.43.32,9.07-.57,13.35-.37,1.72-.72,3.43-1,5.13-.15.85-.28,1.7-.4,2.55s-.3,1.68-.41,2.52a28.76,28.76,0,0,0,.28,10.16c.07.36-.47,1-.54,1.46-.55,3.48-1.13,7-1.57,10.44-.29,2.81.53,5.74,0,8.48-.53,2.58-2.65,4.82-3.3,7.4-.37,1.64-.92,3.24-1.4,4.85l-1.48,4.83L887,619.93l-.72,2.41-.82,2.39-1.6,4.78c-1,3.19-2,6.39-3,9.62q-.4,1.38-.87,2.76c-.34.9-.71,1.8-1.08,2.7-.74,1.79-1.49,3.58-2.17,5.4a38.87,38.87,0,0,0-2.74,11.56c-.67,6.63-3.74,13.52-5.88,20.73l-3.33.8-5.26,13.49c-.44,1.15-.89,2.29-1.34,3.45s-1,2.26-1.51,3.41q-1.53,3.44-3.13,7c-2.9,1.07-2.82,1.08-4.6,5.47l-.94,2.3c-.33.76-.7,1.49-1.05,2.24l-2.13,4.47q-2.13,4.5-4.27,9c-.73,1.52-1.33,3.12-2.15,4.71l-2.56,5.32c-3.6.67-5.17,3.92-5.53,8.75a17,17,0,0,1-.92,4c-.5,1.34-1.07,2.7-1.52,4l-1.33,0-1.27-3.52c-1.58,1.63-3.24,2.86-4.23,4.43-1.44,2.29-2.78,4.65-4.13,7-.69,1.17-1.32,2.38-2.07,3.51s-1.51,2.25-2.3,3.35c-2.8,3.89-6.1,7.47-9.08,11.26-.35.45-.67.91-1,1.38l-1,1.38a26.84,26.84,0,0,1-2.06,2.68c-3.06,3.39-6.49,6.48-9.41,10-1.47,1.84-3.12,3.51-4.68,5.26l-4.72,5.24L776.05,818l-1.16,1.34-1.2,1.29-2.38,2.59c-1.88,2-2.63,5-3.92,7.51l1.7.89,7.31-7.08c.6-.59,1.22-1.17,1.81-1.78l1.73-1.86,3.42-3.76c1.57-1.74,2.41-4.14,4.07-5.66,1.82-1.69,3.79-3.22,5.72-4.9s3.91-3.44,6-5.29c.27,1.49,0,4.13.9,4.42,4.42,1.31.84,4.18-.45,6.64a37.19,37.19,0,0,1-2.46,3.77c-.82,1.23-1.43,2.34-1.21,3,1.28,3.8-1.73,6.06-4.19,8.85-2.26,2.55-4.29,5.31-6.61,7.79a9.1,9.1,0,0,0,3.24-1.16,22.45,22.45,0,0,0,3.33-2.46,23.89,23.89,0,0,0,4.67-5.25c1.15-2.08,3.7-3.84,4.72-5.9s.58-4.64,1.55-6.89c2.55-5.78,5.47-11.37,11.73-14.78.58-.31.94-1.26,1.4-1.91,3.17-4.61,6.14-9.32,9.51-13.75l5-6.46c1.68-2.14,3.37-4.28,5-6.42a82.17,82.17,0,0,0,5.26-6.82c2-3.43,3.8-6.89,5.65-10.34l2.79-5.16c.94-1.71,1.9-3.4,2.77-5.16,1.86-3.6,4.36-6.91,6.49-10.4,1.4-2.35,2.47-4.7,3.67-7.09a24.13,24.13,0,0,1,5-7.09c2.07-2,3.5-5.09,4.73-8.42.3-.83.62-1.67.88-2.54l.76-2.63c.51-1.75,1-3.47,1.64-5.08.51-1.35,1.32-2.62,2.37-4.67,0-.41-.23-1.79-.43-3.44a6.29,6.29,0,0,0,3.56-2.85,9.79,9.79,0,0,0,1-4.57,9.8,9.8,0,0,1,1.72-4.73c2.63-3.81,6.1-7.11,8.19-11.24,2.93-6.29,5-13.06,7.45-19.59,1.45-4.44,3-8.86,4.49-13.29a66.79,66.79,0,0,1-2.71,13.46c-2.06,5.86-4.64,11.56-6.67,17.44-.44,1.24-.83,2.49-1.29,3.72L891.12,674l-2.8,7.36-2.81,7.38c-.45,1.24-1,2.44-1.53,3.63l-1.63,3.6c-3.23,6.92-6.3,14-10,20.66l-5.4,10.16-1.35,2.54-1.46,2.47-2.92,5c-.48.83-.24,2-.34,3.07,1-.34,2.33-.36,2.89-1.09,1.5-2,3-4,4.41-6,.36-.5.73-1,1.07-1.52l1-1.58,2-3.15c3-4.84,6.14-9.67,9.1-14.58a9,9,0,0,0,.8-1.8c1.64-5.59,3-11.17,4.88-16.63a12.48,12.48,0,0,1,.77-1.77c.28-.59.59-1.17.92-1.76.66-1.16,1.38-2.32,2-3.5,1.58-3,4.25-6.29,4.54-9.15a31.75,31.75,0,0,1,1.15-5.79,47.47,47.47,0,0,1,1.77-5.53c1.38-3.6,3.09-7.08,4.63-10.65a4.91,4.91,0,0,1,2-1.9c2.64-1.52,2.64-3.24,1.58-5.74-1.47-3.49-.44-5.71,3-6.65,2.64-.74,3-2.92,3-5.45,0-1.39-.58-2.76-.29-4.07.25-1,.43-2.11.61-3.17l.56-3.17,1.15-6.34,1.17-6.31c.39-2.11.85-4.19,1.11-6.32.12-.84,1.09-1.6,1.66-2.4a12.26,12.26,0,0,1,1.07,2.39,23.64,23.64,0,0,1,.31,4.26,11.75,11.75,0,0,0,1.52-2.8c.58-4.22-.45-8.64,2.64-12.49a4.69,4.69,0,0,0-.19-3.54,5.85,5.85,0,0,1-1.49-4.77,28.62,28.62,0,0,1,1.1-5.4c1-3.68,2.17-7.43,2.49-11.15a22.34,22.34,0,0,0-.22-4.9c-.19-1.63-.6-3.28-.72-4.94-.2-2.44-.65-4.91,1.8-6.86,1.58-1.25,4.23-3.72.81-6.46-.61-.48-.32-2.83-.53-5.26,1,.82,1.36,1.33,1.73,1.34,2.28.07,4.55,2.9,6.88-.89a14.64,14.64,0,0,1,2.39-2.58,22.48,22.48,0,0,1,1.48,5.3c0,.45-1.6,1.76-2.54,2.07a25.42,25.42,0,0,1-4.65.73c.62,3.15,1.07,5.41,1.59,8.09,1.18-2.85,2.1-5.09,3.45-8.37.51,2.09.64,6.5.5,12.08,0,1.4-.09,2.86-.16,4.39,0,.76-.08,1.53-.12,2.32s-.16,1.57-.25,2.37c-.34,3.2-.75,6.55-1.2,9.89s-.95,6.68-1.46,9.86-1.31,6.15-2,8.85a68.25,68.25,0,0,1-3.45,11.42c-.3-.88-.59-1.76-1-2.9a6,6,0,0,0-.47,1c0,1.55.1,3.11.12,4.66l-.08,4.64c-.09,4.74-1.53,6.81-5.18,7.54q1-5.49,1.91-11c.15-.92.34-1.82.45-2.75l.35-2.77.69-5.53-.34,0c-.71,3-1.37,6.06-2.13,9.06s-1.69,6-2.53,9c-1.73,5.94-3.25,11.92-5.33,17.69l1.84,1.67c-1.37,1.92-2.53,3.53-3.68,5.15l3.75,1.87s-.31,1.41-.55,2.52l-5.79-.18c-.24,1.77-.44,3.5-.7,5.18s-.59,3.29-.87,4.89c-.59,3.22-1.15,6.34-1.71,9.45,2.72-4.41,3.52-10.06,8.31-13.23-2,6.81-3.92,12.83-5.81,18.86l-1.08,3.33c-.42,1.08-.85,2.16-1.31,3.23-2,4.62-4.28,9.15-6.1,13.83-1.52,4.15-2.66,8.42-4.53,12.41L892.65,716l-1.19,2.39-1.29,2.35-2.6,4.67c-3.51,6.21-6.8,12.55-10.61,18.58a58.57,58.57,0,0,0-4.05,9.45c-.69,1.78-1,3.65-1.74,6.35.12.32.56,1.5,1.22,3.29l-6.53,3.61a8.59,8.59,0,0,0,7,.91,11.52,11.52,0,0,0,3.61-1.73,11,11,0,0,0,3-3.15c3.1-4.8,5.41-10.1,8.09-15.14.73-1.39,1.32-3,2.16-4.33a4.1,4.1,0,0,1,4-2.14c-.46,2.17-.8,4.23-1.32,6.19l.81.22c1.22-2.39,2.28-4.88,3.42-7.31l-2.95-1.25,9.7-10.61c-.13-1-.27-2.8-.57-4.86l3.77-.59c1.07-2.51,2-4.75,3-7l.85.3c-1.09,3.11-.72,6.29-.93,9.55a18.74,18.74,0,0,1-.29,2.46,13.79,13.79,0,0,1-.78,2.44,14.59,14.59,0,0,1-3.54,4.89l1.74,2.58c1.79-4.88,3.2-8.71,4.64-12.62,2.51-6.34,2.53-13.34,7.91-18.81a26,26,0,0,0,2.6-4.45l.82.57c-.31,1-.62,2.05-.93,3.11s-.65,2.15-1.06,3.28c5.84-2.39,2,3.3,2.64,5.93,2.62-5.3,4.61-10.3,6.66-15.25,1.37-3.37.38-4.29-2.22-3.73-.5,2.91-1,5.73-1.47,8.54-.28-3.42-.4-6.37-3.84-4.51,1.26-5.22,2.46-10.15,3.65-15.11l-3.51.41a45.3,45.3,0,0,0,3.15-7c.88-2.38,1.74-4.74,2.6-7.08a68,68,0,0,1,2.94-6.84c.55-1.11,1.17-2.19,1.83-3.25a33,33,0,0,1,2.06-3.17c-.28,4.25-1,8.39-1.48,12.66s-1.17,8.61-1.78,13.06a52.32,52.32,0,0,0,4.66-5.7,75.56,75.56,0,0,0,3.63-7.61c.52,1.14.75,1.64,1.19,2.62.53-1.8.89-3.53,1.29-5.1a16.45,16.45,0,0,1,1.51-4.09c2.4-4.1,1.75-5-1.34-4.63.74-2.16,1.36-4,2.14-6.3,2.58,1.81,3.21-1,4.17-3.85.79-2.3,1.22-4.81,1.91-7.25a14.25,14.25,0,0,1,3.48-6.81c.13,6.49.12,6.52,3.46,5.09.37-2.9,0-6.47,1.17-8.17,2.82-4.28,2.07-7.8,2-12.41-2.06,5.7-4.59,6.16-7.57,1.84.85-1.73,1.79-3.63,2.6-5.57.25.88.5,1.76.8,2.79s.55,2.18.91,3.63c.69-2.78,1.13-5.36,1.57-7.8s.86-4.76,1.29-7.08l1.55-8.46c.26-1.41.54-2.82.77-4.23l.59-4.27c.77-5.68,1.5-11.36,2.1-17,.35-2.8.42-5.63.55-8.45s.19-5.63.29-8.44c.16-5.62.41-11.21.31-16.84,0-2.45,1.05-5,1.8-8.37l-.38-.58a20,20,0,0,0,2-8.65c.08-2.88-.27-5.71,0-8.4.58-5.89.85-11.84,1.24-17.77l1.1-.36c2.76,4.4,0,11.47,2.2,16.47,1.65-2.18-.73-8.59,4.24-7.1q0,5.16.08,10.35l0,5.2c0,1.74-.11,3.47-.16,5.21q-.45,10.42-.89,20.89l-.94.11-1.26-5-.79.37-.29,3.79c-.1,1.27-.3,2.52-.44,3.78l-.55.09-.66-3.35-.81-3.34-1.47.89c.17.65.3,1.36.43,2.09s.2,1.47.3,2.17a6.89,6.89,0,0,0,1.11,3.33c4.38,5,4.53,4.7,2.44,13.07l1.82,1.36c-.41,1.65-.82,3.3-1.23,4.93s-.87,3.27-1.16,4.9a21.87,21.87,0,0,0,.12,10c2.58-13.07,4-26.23,5.64-39.35q.75-9.87,1.51-19.74l.36-4.94.15-4.94c.08-3.3.17-6.6.25-9.9l3.43.07c.08-3.24.16-6.37.25-9.44.06-1.53,0-3,0-4.56s-.11-3-.17-4.52c-.13-2.88-1.49-6.3-.88-8.47,1.28-4.52-.56-6.25-1.83-7.81.69-1.33,1.64-2.32,1.54-3.21-.4-4.39-1-8.77-1.73-13.09-.12-.69-1.52-1.76-1.84-1.48-1.58,1.44-3.53,2.79-4.34,5.05s-.44,5.6-.69,10.05c-1.37-2.84-3.27-5.06-3.25-7,.05-4.8-.91-10-.55-14,.09-1.14.17-2.27.16-3.37s-.08-2.19-.17-3.26c-.17-2.15-.43-4.27-.72-6.39-.66-4.88-1.41-9.74-2.21-14.59-1-4.83-2-9.63-3.1-14.43s-2.3-9.75-3.71-14.57l-4.56-16.78-.57-2.09-.66-2.07-1.32-4.14-2.66-8.27c-.82-2.57-1.5-5.2-2.24-7.81,4.46,3.1,6,7.87,7,13.2.33,1.73.75,3.45,1.23,5.17s1,3.42,1.46,5.14c1.76,6.51,4,12.94,5.33,19.53.19.93.41,1.77.63,2.55a11.55,11.55,0,0,0,.78,2.15,7.78,7.78,0,0,0,2.8,3.22c-.08-1.7-.25-3.37-.48-5a37.88,37.88,0,0,0-1.06-4.86c-1.05-3.85-2.17-7.67-3.27-11.49l-1.64-5.73-.79-2.87-.88-2.85c-1-3.15-.82-6.67-1.8-9.83-.79-2.56-1.91-5.06-2.94-7.55-.52-1.24-1-2.49-1.44-3.73a25.62,25.62,0,0,1-1.16-3.71,36.78,36.78,0,0,0-6.53-14.48,7.37,7.37,0,0,1-1.79-4.19,5.15,5.15,0,0,1,1.11-3.28,20.44,20.44,0,0,1,2.4-2.31l-5.77-5.38-.49,1-1.47-4.48,1.16.53.92-6,.07.12c-1.37-1.09-2.66-.15-4,0a2.46,2.46,0,0,1-2.11-.62,11.31,11.31,0,0,1-2.41-3.77,15.71,15.71,0,0,0-.1,3A15.2,15.2,0,0,0,936,307a27.4,27.4,0,0,0,1.87,5.12c1.5,3.26,3.16,6.3,3.05,9.63-2-3.35-4-6.74-5.85-10.16l-2.82-5.14c-.92-1.72-2-3.37-3-5.06,0-.08.12-.3.07-.42-1.89-4.65-3.63-9.39-5.79-13.91a42.23,42.23,0,0,0-3.12-5.46c-1.14-1.76-2.3-3.51-3.36-5.32-.43-.72-.11-1.94-.18-4.13,2,2.85,3.24,4.39,4.23,6.1l1.7,2.93c.57,1,1.13,1.95,1.63,3l3.16,6.13,6.67,13.09,1.41-7.17L927.32,281q-4.58-7.41-9.18-14.87l1.25-1.21,9.81,13.95,1-.72-3.7-6.36-2.6-4.41a20,20,0,0,0-2.29-3.66c-1.88-1.82-3.86-3.29-5.85-4.92a20.08,20.08,0,0,1-5.35-6.24c-2.19-4.11-4.63-8.1-7-12.18l2.8-1.7c-2-.62-3.94-.45-5.06-1.57A69.5,69.5,0,0,1,894,228.6l-4.66-6.32c-.76-1.07-1.58-2.09-2.4-3.11l-2.45-3.07q-4.89-6.15-9.7-12.33c-.84-1.13-.82-3.05-1.51-5.63l3,2.55,2,1.8,1.33.2a11.77,11.77,0,0,0-1-2.74,132.66,132.66,0,0,0-8.11-10.57c-2-2.32-4.17-4.55-6.31-6.77L862.54,181l-1.67-1.6q-1.67-1.61-3.3-3.24c-2.19-2.22-3.92-5.07-6.21-7.08a27.57,27.57,0,0,1-4.22-4.48,18.79,18.79,0,0,1-2.79-5.11ZM38.38,446.83c0,1.18.06,2.25.08,3.23s.09,1.89.13,2.71a29.5,29.5,0,0,1-.06,4.09,7.73,7.73,0,0,1-2.16,5,65.36,65.36,0,0,0,.3-7.76c0-1.29,0-2.57-.07-3.84l.12-3.79c.21-5,.74-10,2.79-14.77-.46-2.14-1.27-4.25-1.18-6.44a99.65,99.65,0,0,1,1-13,55.28,55.28,0,0,1,1.32-5.77c.5-1.91,1.19-3.79,1.57-5.72.54-2.6.32-5.35.84-8.13,1.77,2,3.17,3.16,1.27,7.49a23.53,23.53,0,0,0-1.13,3.32,20.24,20.24,0,0,0-.65,3.6,63.13,63.13,0,0,0-.25,7.35,41.3,41.3,0,0,1-.5,7.63,28.45,28.45,0,0,1-.87,3.62c-.37,1.2-.87,2.38-1.35,3.58a7.23,7.23,0,0,0-.08,2.44C39.1,436.75,38.23,441.89,38.38,446.83Zm118.55-229.7a6.34,6.34,0,0,1,2.81-3.61,17.49,17.49,0,0,0,4.35-2.52c.65-.5,1.26-1.06,1.88-1.61s1.23-1.11,1.82-1.7c2.37-2.35,4.53-5,7-7.21,1.64-1.5,3.21-3.11,4.76-4.74s3.21-3.15,4.83-4.7l5.56-7.16c1.86-2.38,3.7-4.78,5.74-7a7.45,7.45,0,0,1,3-2.09c2.62-.81,3.53-5.18,7.15-4.27.61.15,2.66-2.65,4.08-4.05,2-1.9,3.9-4.11,6.18-5.62,3.31-2.19,5.81-4.29,4.78-8.51a7.09,7.09,0,0,0,4.68.65c1.32-.37,2.37-1.46,3.12-3.56.11-.31.68-.62,1.06-.89l10.06-6.9c1.65-1.19,3.41-2.2,5.14-3.28l5.19-3.18c8.69-5.57,18.08-9.94,26.84-15.32,5.76-3.14,10.82-7.52,16.45-11.08,2.34-1.46,5.29-2,8-2.89a15.68,15.68,0,0,0,2.7-.7,80.76,80.76,0,0,1,10.56-4.51,32.52,32.52,0,0,0,10.32-5.29,13.84,13.84,0,0,1,4.54-2.14c1.72-.52,3.49-1.07,5.11-1.69a79.35,79.35,0,0,0,7.19-3.68c3.94-.62,6.73-.79,9.38-1.53q1-.28,2-.66c.66-.22,1.32-.45,2-.7,1.31-.49,2.62-1,3.94-1.5l.68,1.08c-3.05,1.67-6,3.46-9.06,5.1-5.32,2.7-10.79,5.08-16.14,7.64a1.68,1.68,0,0,1-.83.25c-6.86-1.25-12.8,3.1-19,5.26a188.59,188.59,0,0,0-19.83,8.9c-4.13,2.43-7.58,5.89-11.29,8.87-.7.56-1.39,1.58-2.05,1.67a21.53,21.53,0,0,0-2.92.57,26.13,26.13,0,0,0-2.73,1,40.32,40.32,0,0,0-5.15,2.64c-3.34,2-6.52,4.27-9.84,6.28-5.12,3.42-10.27,6.77-15.43,10.12-.64.42-1.3.82-1.93,1.26l-1.87,1.34-3.75,2.7-7.46,5.41a39.34,39.34,0,0,0-3.39,2.8c-1,1-2.1,2.07-3.19,3.05-4,3.6-7.83,7.3-12,10.63-4.82,4.2-10,8-15.34,12.32l1.94.61-.27.71c-1-.06-2,0-2.24,0-3.33,2.77-6.09,5.18-9,7.36-.54.41-1.67-.08-2.54-.16L181.8,195c-.46.71-1.28,1.52-1.31,2.18-.18,3.64-.1,3.61-3.62,3.32l-1.36,4.58-2.92-.2c0,.78.1,1.56.14,2.33.14,1.9-2.76,5.62-4.27,5.2-2.23-.61-3,.92-4.31,2.48-2.25,2.59-4.55,5.13-6.86,7.66l-3.48,3.8-3.28,4c-.18,1.14.08,2.54-.51,3.34-2.34,3.22-4.73,6.4-7.13,9.58l-6.75,9.86c-1.55,2.27-3,4.6-4.6,6.83-2,3-4.26,5.79-5.92,8.91-.8,1.5-2.73,4.77-4.77,8.08s-3.87,6.85-5,8.55c-1,1.4-1,3.43-1.71,5a6.49,6.49,0,0,1-2.85,2.72,89.6,89.6,0,0,1,7.41-16.69c3.17-5.2,6.63-10.23,9.77-15.45l9.91-16.2c.86-1.33,1.67-2.69,2.63-4s1.93-2.51,2.95-3.73a65.25,65.25,0,0,1,6.63-6.89C153.84,226.19,156.09,222,156.93,217.13Zm121.74-69.77c2.05-1.56,4.12-3.07,6.27-4.48q1.6-1.06,3.27-2c1.13-.61,2.3-1.16,3.5-1.68s1.89-1.64,2.92-2.39c1.27-.92,2.62-2.25,4-2.51a38.62,38.62,0,0,0,7.94-2.23,19.79,19.79,0,0,0,7-4.39,6,6,0,0,1,2.67-1.51,22.92,22.92,0,0,0,4.95-1.69q1.17-.54,2.28-1.17c.77-.38,1.51-.78,2.26-1.2,3-1.67,5.81-3.58,8.88-5.1,6.65-3.47,13.82-5.77,20.79-8.56,2.07-.79,4.24-1.47,6.19-2.37,5.31-2.59,10.2-1.31,15.09-.58.67.1,1.69.42,2,.18a12.37,12.37,0,0,1,3.8-2.28,31.68,31.68,0,0,1,4.24-1.34,43.57,43.57,0,0,0,8.49-2.63c.82-.4,1.32-1.32,2.1-2.13A19.27,19.27,0,0,0,403,98.41a26,26,0,0,0,5.69-.52c3.78-.68,7.55-2,11.35-2.36,4.23-.29,8.42-1.43,12.63-2.22,2.45-.44,4.88-1,7.34-1.34l7.38-1c.43-.06,1.06-.47,1.23-.36,3.56,2.34,7.26,1.6,11.06.67,3.81-.75,7.73-1.62,11.43.19,2,1,6.32-1.21,9.65-1.74a40.53,40.53,0,0,1,5.5.09l.21,1-2.58,1.86c.83.34,1.35.74,1.8.71l10.59-.91,5.32-.44c1.77,0,3.54-.07,5.32-.08,4.18,0,8.4.75,12.58.69A9.32,9.32,0,0,1,522,93c.81.22,1.6.54,2.41.78a6.59,6.59,0,0,0,5.18-.25c1.57-.78,4.52-.14,6.72.33.67.14.9,1.88,1.51,3.32l2.5-1.74.19.69c.6-.09,1.24-.13,1.86-.2a6.64,6.64,0,0,0,1.72-.32c3.56-1.32,7.32.17,10.78.62,2.46.32,4.92.69,7.36,1.08s4.83,1.06,7.21,1.6c4.75,1.14,9.43,2.23,13.9,3.34.34.73.51,1.93,1.06,2.13,2.93,1,5.94,1.84,8.94,2.7l6.31,1.83,1.58.46,1.55.54,3.11,1.07c4.14,1.43,8.29,2.85,12.45,4.22,1.71.52,3.37,1.21,5.06,1.82l5.05,1.85c3.37,1.23,6.74,2.47,10.07,3.79,5.93,2.72,11.62,5.9,17.57,8.52,3.37,1.67,7.06,2.7,10.4,4.71-5.76-.58-10.93-2.68-16.17-5.25-1.91-1-3.87-2.27-5.88-2.69a39.7,39.7,0,0,1-5.9-1.72c-.94-.37-1.9-.71-2.85-1.06s-1.89-.73-2.82-1.12c-3.73-1.58-7.36-3.42-11.09-5.12-.88-.39-1.76-.79-2.65-1.16l-2.74-1q-2.75-.93-5.52-1.8l-11.08-3.48-17.36-4.9c-5.83-1.45-11.71-2.71-17.56-4.07l-2.7-.61c-.9-.18-1.82-.32-2.73-.48l-5.45-.93-10.91-1.88c-3.65-.53-7.33-.89-11-1.34s-7.33-.92-11-1.25-7.52-.25-11.27-.39c-1.87-.07-3.73-.17-5.58-.35-.92-.09-1.84-.2-2.75-.33s-1.82-.19-2.72-.33a64.07,64.07,0,0,0-10.94-.54L477,94.32c-3.75,0-7.5,0-11.26.1l-5.63.13L454.5,95l-11.46.8-2.87.19c-.95.08-1.9.23-2.85.34l-5.69.73-11.18,1.56c-3.71.64-7.39,1.43-11.09,2.09l-9.29,1.71-9.21,2.15-9.21,2.12-1.15.26-1.14.32-2.27.64-4.55,1.27c-1.08.3-2.44-.45-4.45-.88l-4.46,1.54.64.92a19.88,19.88,0,0,1-3.53,2.41c-5.63,2.25-11.31,4.35-17,6.37-2.46.95-5,1.71-7.54,2.51-.69.22-1.47.18-2.13.46l-8.9,3.68c-2.91,1.34-5.79,2.76-8.68,4.16-4.7,2.3-9.38,4.62-13.93,7.2l-7.93,4.26-4,2.11c-1.31.73-2.58,1.53-3.87,2.29L279,150.79c-2.56,1.56-5.19,3-7.64,4.73l-8.35,5.6c-2.77,1.87-5.6,3.67-8.24,5.74l-8,6-4,3c-1.32,1-2.57,2.13-3.86,3.19-5.68,4.81-12.08,9.22-16.23,15.16-2.25,3.08-5,3.13-7.07,5.18-.66.67-1.3,1.34-1.93,2l-1.8,2.15a54.71,54.71,0,0,1-3.74,4.15c-7.64,7.22-14.93,14.81-22,22.61-3.28,3.94-6,8.33-9.22,12.29-.48.6-1,1.19-1.46,1.81l-1.39,1.87-2.79,3.73-5.61,7.44-1.41,1.86L163,261.28l-2.6,3.86-5.15,7.75c-.49.76-1,1.51-1.55,2.26l-1.52,2.29c-1,1.53-2.06,3.06-3,4.62a29.42,29.42,0,0,0-4.27,10,3.59,3.59,0,0,1-.93,1.9,25.41,25.41,0,0,0-5.6,8c-.7,1.46-1.34,3-2,4.45l-1,2.23c-.3.76-.61,1.52-.94,2.26-1.86,4.24-4.38,8.21-6.38,12.41a52,52,0,0,0-2.49,6.31c-.75,2.13-1.5,4.26-2.38,6.34l-3,7.12-2.74,7.24-2.74,7.24-1.36,3.62-1.16,3.69c-1.11,3.59-1.86,7.29-2.78,10.93-1.22,4.34-1.91,8.84-2.84,13.24l-1.34,6.62c-.22,1.11-.47,2.2-.68,3.31l-.53,3.33a49.64,49.64,0,0,1-2.26,7l-1.07-.16a8.93,8.93,0,0,1-.28-2.53l1.23-6.76.32-1.69c.12-.56.27-1.12.41-1.67l.84-3.33c.72-2.87,1.65-5.7,2.29-8.58l.94-4.43c.29-1.49.74-2.93,1.1-4.39l2.25-8.78c.85-3.32,1.64-6.67,2.65-9.93q1.48-5.31,2.95-10.6c.51-1.77,1-3.57,1.54-5.3l1.83-5.21c.8-2.22,2.52-4.12,3.47-6.31l2.31-5.36L127,319.1l5-10.53.7-1.42.78-1.38,1.6-2.75,3.2-5.5c1-1.84,2.06-3.69,3-5.56l.69-1.41.72-1.39c.48-.92.93-1.86,1.35-2.8,1.09-2.45,2.26-4.82,3.49-7.15.61-1.17,1.25-2.33,1.9-3.48s1.28-2.32,2.05-3.41c2.24-3.37,4.42-6.79,6.61-10.2,1.1-1.71,2.18-3.43,3.31-5.12s2.4-3.27,3.62-4.89c2.43-3.23,5.54-5.94,8-9.17,3-3.73,5.51-7.84,8.52-11.6,1.05-1.3,2.16-2.56,3.3-3.8s2.4-2.37,3.59-3.56a48.12,48.12,0,0,0,6.42-7.5c.75-1.15,1.55-2.25,2.39-3.32s1.8-2,2.73-3c1.89-1.91,3.89-3.72,5.89-5.5l6-5.34a76,76,0,0,0,5.93-5.42c3.83-3.91,8.41-7.27,12.06-11.18a95.19,95.19,0,0,1,10.57-9.8c3.83-2.9,7.7-5.76,11.24-9a18.34,18.34,0,0,1,4.5-2.95c1.67-.8,3.39-1.53,5-2.43a59,59,0,0,0,7-4.51,38.49,38.49,0,0,0,3.74-3.72C274.45,149.2,276.92,148.69,278.67,147.36ZM72.33,295.41a7.48,7.48,0,0,1,.91-2.76,59.2,59.2,0,0,0,8.09-13.57c2.4-4.67,4.57-9.5,7.26-14l2-3.5,1-1.75,1.07-1.72L97,251.2l4.21-6.93c.71-1.15,1.4-2.32,2.14-3.45l2.29-3.34c2.62-3.78,5.31-7.52,8-11.26l2-2.81,2.11-2.73q2.1-2.73,4.16-5.5c2.6-3.49,5-7.13,7.56-10.65s5.25-7,8-10.36c1.43-1.78,2.9-3.54,4.38-5.28s3.11-3.36,4.66-5c3.13-3.34,6.26-6.69,9.25-10.14,1.5-1.82,3.14-3.49,4.7-5.25l4.68-5.27,4.67-5.29c.8-.87,1.56-1.78,2.38-2.62l2.5-2.5c2.52-2.49,5.5-4.58,8.28-6.84,1.64-1.34,3.33-2.62,4.94-4,4.31-3.48,8.72-6.85,13.08-10.27l3.28-2.56,1.63-1.28,1.7-1.21,6.78-4.81c1.1-.78,2.23-1.53,3.24-2.4,2.14-1.82,4.16-3.67,6.37-5.35a42.21,42.21,0,0,1,7.43-4.36,47.61,47.61,0,0,0,8.64-5.36l2.1-1.58c.7-.53,1.43-1,2.14-1.52,1.44-1,2.88-2,4.34-2.93l5-3.23,4.92-3.24L261,90.18l2.7-1.6c1.9,1,4.18,2,6.33-2.29.55-1.08,2.44-2.31,3.88-2.89,2-.8,4-1.46,6-2.13,1-.36,2-.65,3-1s2-.65,3-1a32.57,32.57,0,0,0,6.32-3.69c3-1.95,5.83-4,8.77-6,.27-.17.47-.5.74-.58,4.83-1.38,9.67-2.64,14.46-4.08,2.44-.71,4.94-1.34,7.33-2.15a13.6,13.6,0,0,0,6.36-4,5.46,5.46,0,0,1,2.43-1.3l7.13-1.88,3.57-.91c1.19-.28,2.4-.5,3.6-.76.17,0,.44-.07.48-.14,3-5.31,9.07-2.93,13.55-4.46l3.74-1.24c1.25-.43,2.53-.71,3.8-1.06,2.54-.66,5.1-1.29,7.66-1.91l7.7-1.83,3.84-.92,3.88-.75c1-.19,2-.31,3-.48l10.52-1.89,5.25-.93c1.77-.25,3.53-.45,5.3-.67,2.68-.32,5.4-.3,8.07-.65,1.9-.25,3.8-.57,5.69-.9l2.85-.47a27,27,0,0,1,2.85-.35c5.16-.41,10.33-.75,15.5-1.1,2.58-.15,5.16-.41,7.74-.51s5.17-.17,7.75-.29l10.17-.57,5.09-.3,5.09-.09,10.19-.15,5.11,0c1.7,0,3.4,0,5.1.09,4.4.23,8.78,1.39,13.13,2.17,1.32.23,2.59.74,3.91.85,1.55.13,3.11.25,4.67.41l4.66.66,9.31,1.31c3.1.43,6.2.8,9.3,1.17s6.16.9,9.25,1.22a102.2,102.2,0,0,1,11.86,2.29c1,.2,1.94.44,2.89.69s1.92.46,2.87.66a36.47,36.47,0,0,0,5.75.73c4.17.17,7.57,1.87,10.94,3.4S601.84,51,606,50.71l-.51,1.68-9.88-2.6-10-2.14-12.23-2.59-12.34-2c-3-.46-6-.56-9-1.14-6.91-1.16-13.81-2.6-20.77-3.4-1.37-.14-2.73-.33-4.1-.4L523.11,38l-8.23-.31-8.23-.28-2-.08h-6.17c-5.05,0-10.11-.89-15.18-1-2.29-.11-4.58,0-6.87.09l-6.86.29-13.72.53c-4.92.3-9.8,1.08-14.7,1.65-2.45.3-4.9.51-7.38.63a53.17,53.17,0,0,1-7.48.15c-4.21-.25-8.8,1.12-13.2,1.77-2.44.3-4.84.87-7.26,1.32l-7.23,1.43-7.22,1.43c-1.2.26-2.41.46-3.6.76l-3.57.9c-5.2,1.31-10.37,2.87-15.54,4.27-2.6.65-5.13,1.54-7.69,2.21s-5.13,1.31-7.72,1.8a44,44,0,0,0-8.95,2.85,72,72,0,0,1-8.43,3.52q-5.37,1.69-10.72,3.5c-1.79.57-3.52,1.32-5.27,2l-5.24,2.1-10.44,4.27c-1.75.68-3.42,1.55-5.13,2.33l-5.1,2.4c-3.54,1.66-7,3.41-10.51,5.18l-10.23,5.71-6.32,3.42-3.16,1.71c-1,.58-2.06,1.22-3.09,1.83l-12.35,7.34-4,2.37-3.86,2.54-7.72,5.07c-2.55,1.72-5.17,3.33-7.69,5.11l-7.5,5.39-6,4.27-3,2.13c-1,.72-1.93,1.5-2.9,2.24l-11.58,9.05-2.89,2.27c-.94.78-1.86,1.59-2.79,2.39l-5.54,4.81-5.53,4.84-2.75,2.43L172,161.11c-4,3.93-7.9,8-11.73,12.12-1,1-1.87,2.1-2.79,3.16l-2.74,3.21c-1.83,2.13-3.67,4.25-5.54,6.33-4.58,4.91-9.18,9.84-13.58,14.93-5.46,6.16-10.25,12.87-15.07,19.51-.93,1.29-1.84,2.6-2.74,3.91s-1.67,2.72-2.49,4.08l-4.91,8.2a5.3,5.3,0,0,1-.91,1.18,33,33,0,0,0-4.27,4.76,60.62,60.62,0,0,0-3.21,5.44c-2,3.73-3.74,7.56-6,11.12-.63,1-1.3,2-1.89,3.07l-1.76,3.14-3.51,6.29-3.47,6.3c-.56,1.05-1.16,2.09-1.7,3.17l-1.56,3.24c-1.37,2.88-2.15,6-3.41,8.94-1.07,2.52-2.15,5-3.26,7.53s-2,5.09-3.14,7.58a84.09,84.09,0,0,1-5.84,10.82c-.58.9-2.38.84-4.41,1.55.61-1.15,1.26-2.25,1.88-3.33s1.18-2.16,1.72-3.22c1.08-2.13,2-4.22,2.84-6.3s1.53-4.14,2.14-6.22c.31-1,.57-2.08.86-3.11S72.07,296.45,72.33,295.41ZM311.23,85.65l-.34-.34c-1.21.6-2.44,1.14-3.62,1.82l-3.55,2c-2.37,1.3-4.75,2.58-7.17,3.77-2,1-4.44,1.14-6.61,1.94a33.65,33.65,0,0,0-3.85,1.67c-1.26.62-2.5,1.28-3.72,2-3.51,2-6.76,4.41-10.15,6.58-.85.54-1.71,1.06-2.57,1.57s-1.72,1.06-2.6,1.54a30.37,30.37,0,0,1-5.67,2.37,12.24,12.24,0,0,0-3.42,1.59L252.32,116a31.19,31.19,0,0,0-2.7,2.07c-.87.72-1.73,1.46-2.56,2.21-2,1.78-3.24,4.13-4.81,6.21l-.54-1c-1.82.77-4,1.2-5.4,2.37a82,82,0,0,0-6.56,6.22c-2.12,2.13-4.21,4.27-6.38,6.35a58.92,58.92,0,0,1-5.55,4l-.62-3.3-.89-.39c-2.48,6.19-5.95,11.14-12.26,13.42l-1.37-1c-2,2.77-3.72,5.75-5.53,8.65a4.44,4.44,0,0,1-.8,1.1c-3.63,3-7.32,5.94-10.92,9l-10.51,9.47a20,20,0,0,0-1.46,1.82c-2.79,3-5.08,6.54-7.93,9.51L160.58,198c-1.64,1.75-3.37,3.4-4.92,5.23q-4.77,5.38-9.64,10.67c-1,1-2,2.06-3,3.06l-2.9,3.09c-1.94,2.06-3.89,4.12-5.73,6.29-1.68,2-2.72,4.51-4.18,6.72-3.31,5.48-6.62,11-10.35,17.15-.24-1.37-.36-2.07-.51-2.9-.67,1.49-1.23,3-1.77,4.45a11,11,0,0,1-2,3.7c-1.49,1.66-.81,7.18-5.51,4.94q1.64-3.08,3.26-6.1l1.62-3,.81-1.51.87-1.47c2.34-3.92,4.7-7.81,7.13-11.67,2.88-4.78,6.21-9.24,9.46-13.77l4.92-6.78,1.24-1.69,1.31-1.63,2.63-3.26,5.57-6.92c1.87-2.29,3.67-4.66,5.69-6.82,3.95-4.42,7.93-8.81,12-13.14,3.38-3.38,6.8-6.68,10.08-10.12,1.64-1.72,3.26-3.46,4.85-5.24s3.28-3.45,4.87-5.25a56.81,56.81,0,0,1,7.28-6.6l3.94-3.09c1.36-1,2.71-2,4-3,6.39-5,12.44-10.48,19.13-15.12,3-2.16,6.4-3.77,9.15-6.11,1.91-1.68,2.93-4.54,5.42-3.2,1.65-1.63,2.82-3.22,4.38-4.25l5.95-3.92c2-1.3,4-2.62,6.05-3.77l12.32-7.17,2.69-1.57,1.34-.79,1.38-.72,5.5-2.9,11-5.82c1.28-.71,2.61-1.33,3.92-2,4.33-2.13,8.65-4.3,13-6.39l3.34-1.63c1.12-.54,2.27-1,3.4-1.52l6.81-3c2.28-1,4.57-1.94,6.87-2.85,1.15-.45,2.3-.89,3.46-1.31s2.36-.72,3.54-1.06a163.84,163.84,0,0,0,16.93-6.07,132.41,132.41,0,0,1,17.19-5.06c1.34-.28,2.66-.58,4-.92l4-.91c2.64-.64,5.26-1.36,7.87-2.09,5.24-1.44,10.46-3.07,15.9-3.75,3.92-.57,7.84-1.19,11.76-1.83,2-.3,3.9-.7,5.88-.93l5.9-.72c7.88-1,15.74-2.16,23.68-2.54,1.58-.11,3.18,0,4.77-.06l.07.93-8.37,1.08-4.18.55c-1.39.21-2.77.48-4.15.73-5.54,1-11.06,2-16.56,3.08-.66.14-1.33.26-2,.43l-2,.54L407.1,57.8c-2.6.77-5.19,1.55-7.83,2.18-2.3.55-4.88.08-7.3.42-3.92.69-7.82,1.51-11.73,2.29s-7.82,1.57-11.69,2.5c-2,.52-3.94,1.3-5.94,1.81-4.28,1.08-9.12,1-12.05,4.84a2.77,2.77,0,0,1-1.32.72c-.57.2-1.21.4-1.73.62-3,1.32-6,3-9.13,3.84a49.48,49.48,0,0,1-5.67,1.14l-2.87.47a20.69,20.69,0,0,0-2.83.63,31.72,31.72,0,0,0-6.12,2.85C316.52,84.54,312.2,87,308,89.52l-.58-.88C308.62,87.57,309.93,86.65,311.23,85.65ZM872,208.86c-.77-1.27-1.55-2.54-2.39-3.77s-1.77-2.4-2.69-3.57c-1.83-2.36-3.75-4.66-5.73-6.9s-4-4.45-6.09-6.6-4.37-4.11-6.58-6.11c-2.5-2.25-4.55-5.17-6.82-7.78l.81-.89c3.81,3.68,7.65,7.35,11.43,11.09l2.35,2.35,2.26,2.42L863,194q4.5,4.89,8.92,9.9,6.65,8.25,13.2,16.64c.54.7,1.1,1.39,1.62,2.11l1.55,2.16,3.09,4.33,6.17,8.69-1,.77c-4.09-5-8.45-9.54-12.58-14.35A90.82,90.82,0,0,1,872,208.86ZM500,17.39a11.78,11.78,0,0,0-2,.69c-3.9,2.47-7.62,4.77-13.66,2.69-1-.32-2.84.63-4.3,1.07l-5.23,1.48-1-1,4.39-2.23-2.81-.66c.19-1.14.38-2.33.61-3.76,4.88-.22,10,.06,15.07.12l8.4.14,4.2.07c.7,0,1.4,0,2.1.05l2.1.13c5.59.36,11.19.73,16.78,1.16a9.68,9.68,0,0,1,3.39,1.4c.14.07-.2.92-.38.92a31.36,31.36,0,0,1-3.75-.16A11.22,11.22,0,0,1,522,19c-4.39,3.21-4.79,3.19-7-.83l-3.16,3.09c-.65-1.17-1.16-2.07-1.89-3.36l-4.19.82c-1.41.31-2.83.68-4.27,1C501,19,500.57,18.25,500,17.39ZM58,344.19c-1.28,3.7-2.58,7.38-3.71,11.09a54.94,54.94,0,0,0-2.49,11.4A72.91,72.91,0,0,1,48.9,380c-.63,2.08-2.43,3.82-3.73,6.09,0-2.27.16-4.33.29-6.31s.27-3.89.4-5.8a2,2,0,0,1,.23-.94,20.87,20.87,0,0,0,3.65-9.46c.24-1.67.52-3.32.8-5s.58-3.32,1-4.94c.54-2.06,1.45-4,2.11-6.07s1.27-4.11,1.9-6.17,1.43-4.05,2.24-6c1.76-4.23,3.8-8.33,5.72-12.47l1.74,1Q61.65,334.05,58,344.19Zm821.13,39.14c-.48-2.6-1.09-5.13-1.76-7.63-.36-1.24-.66-2.5-1.1-3.71s-.89-2.43-1.33-3.65a76.43,76.43,0,0,0-3.47-8.35,28.68,28.68,0,0,0-2.33-3.86c-.44-.61-.91-1.21-1.41-1.78a20.51,20.51,0,0,0-1.72-1.63c1.18.38,2.83.31,3.48,1.21a62.47,62.47,0,0,1,5.88,10q1.07,2.42,2.08,4.86c.67,1.64,1.36,3.26,1.89,4.95,1.13,3.34,2.22,6.71,3.3,10.08.73,2.28,1.4,4.59,2,6.9s1.06,4.69,1.62,7l-1.2.25c-.48-1.24-1-2.47-1.58-3.69s-1.11-2.46-1.73-3.66A29,29,0,0,1,879.17,383.33ZM916.74,379c.16,2.65.3,4.79.29,7.08-.61-.82-1.16-1.73-1.75-2.68s-1.19-1.95-1.75-3a54.88,54.88,0,0,1-3.06-7,94.75,94.75,0,0,1-4-16.16c1.55,1.37,3,2.06,3.54,3.25a27.07,27.07,0,0,1,1.58,4.34c.45,1.49.89,3,1.42,4.44,1,2.62,2.17,5.15,3.13,7.4l4.22-3.17c.41,2.23.83,4.47,1.23,6.68ZM96.8,462.91H95.36l0-6.44.37-6.41.74-12.86c.42-4.27.93-8.54,1.39-12.82l.69-6.43c.27-2.14.67-4.26,1-6.39l2.07.21c-.36,2.12-.77,4.22-1.08,6.35l-.77,6.4-1.54,12.76-.89,12.81-.46,6.39Zm837.26,16.82a79.75,79.75,0,0,1,1.68,12c.09,1-.66,2.07-1,3.1a10.11,10.11,0,0,1-1.57-2.82c-1.31-6.78-2.69-13.48-3.58-20.28-.51-3.07.39-6.47.67-10.07,2.68,2.74,3.29,5.85,3.44,9,.11,1.56,0,3.11,0,4.64A16.78,16.78,0,0,0,934.06,479.73ZM809.59,143.56l-6-2.79-.24.74,3.47,4.21-.46.42-4.27-4-4.55-4-9.89-8.56c4.43,3.33,7.74,5.69,10.88,8.26,3.38,2.77,5.26,3.19,4.73-.83,1.53.32,2.9.57,4.54,1l-.78,1.76c4.08,3.05,8.12,6.08,12.16,9.12l-.36,1.21-5.76.35,1.92,3.72-5.79-5C809.33,147.23,809.45,145.59,809.59,143.56ZM888.1,315.79c1,.63,2.85,3.1,5,6.56s4.24,8,6.38,12.56c1.07,2.27,2.11,4.55,3.06,6.72s1.62,4.31,2.26,6.17c1.29,3.73,2.06,6.52,2,7.41l-1.21.48c-2.6-6.57-5-13.22-8-19.76S891.7,322.57,888.1,315.79ZM380.29,80.58c2.86-2.94,7-4.94,12-6.11.63-.14,1.27-.28,1.92-.39s1.34-.16,2-.22c1.37-.12,2.8-.19,4.26-.21a76.79,76.79,0,0,1,9.27.49c-4.9.61-9.63,2.15-14.45,3.48C390.54,79.14,385.68,80.54,380.29,80.58ZM901.05,473.93l-1.56.32-2.64-15.37-.66-3.83-.33-1.91-.43-1.9-1.7-7.57c3.87,4.3,5.22,9.4,5.52,14.65S899.53,468.91,901.05,473.93ZM855.31,256.72a7.48,7.48,0,0,0,1.43,4.76,20.45,20.45,0,0,0,2,2.7c.79.92,1.7,1.85,2.63,2.82,2.73,2.79,4.84,6.54,6.88,10.14-1.5-.59-3.38-2.25-5.33-4.48-1-1.12-2-2.37-3-3.71-.49-.67-1-1.36-1.45-2.06s-1-1.38-1.51-2.08c-3.93-5.6-7-11.56-6.77-14.13C852,252.76,853.53,254.61,855.31,256.72Zm56.84,350c-.79,4.82-1.73,9.65-2.92,14.42-.23.91-1.88,1.47-2.87,2.19-.1-1.08-.52-2.25-.26-3.23.82-3.07,1.68-6.13,2.54-9.19l1.3-4.58,1.08-4.65,1-.34A35.8,35.8,0,0,1,912.15,606.76Zm4.91-177.5c1.35,8,2.6,15.1,3.73,22.18l-1.29.31C915.84,448.35,913.56,434.28,917.06,429.26Zm2.33,141.92c-2.95,2.75-2.92,5.65-2.18,9.45a14.07,14.07,0,0,1,.14,4.47,17.68,17.68,0,0,1-1.2,4.14c-1.08,2.68-2.58,5.23-3.8,7.81l-1-.23c.54-2.34,1.07-4.68,1.62-7s1.14-4.7,1.52-7.11c.85-4.81,1.73-9.69,2.63-14.72ZM672.25,135.23a12.49,12.49,0,0,1,4.12.11,4.92,4.92,0,0,1,2.56,1.54c1.21,1.45,1.42,3.72.59,6.8a50.7,50.7,0,0,1-5-1.61c-1.61-.77-3.22-1.68-5.92-3.08,2.24-.84,3.4-1.27,4.7-1.77ZM907.8,400l1-.45c.36,1,.72,1.91,1.09,2.87s.71,3,1.2,3.17c2.95,1,2.84,4.68,4.22,7a3.62,3.62,0,0,1,.36,2.26c-.56,2.48-1.28,4.86-2.35,8.69C911.47,415.14,910,407.47,907.8,400ZM744,98.83c-2.09-.41-7.88-3.47-14.2-7.24l-2.39-1.44c-.81-.49-1.64-.93-2.46-1.4-1.64-.94-3.27-1.89-4.83-2.83-3.13-1.88-6-3.71-8.18-5.3l.55-1c5.33,3.07,10.69,6.1,16,9.23ZM646.81,65.61l.45-1.51c4.9,1.81,9.9,3.43,14.71,5.5s9.21,4.7,13.79,7.08l-.56,1-14.06-6.35C656.39,69.35,651.59,67.51,646.81,65.61ZM605,22.89a3.21,3.21,0,0,1-2.66,2.35,4.49,4.49,0,0,1-3.09-.25c-2.3-1.42-3.3-3.94-4.86-6l4.65-1.19c1.62.81,3.31,1.25,4.5,1.9A2.6,2.6,0,0,1,605,22.89ZM103.35,279.17l-3.74-1.67c1.64-2.33,3.35-4.78,5.12-7.29.44-.63.87-1.27,1.33-1.89s1-1.23,1.43-1.85l2.88-3.71.95.47-2.09,3.9c-.7,1.31-1.42,2.59-2,3.95ZM933.4,517.87l1.29-.13c.13,1.68.07,3.35.09,5v5l0,10.08-1.48.18a19.63,19.63,0,0,1-1.43-10c.15-1.68.41-3.37.71-5.07S933.28,519.57,933.4,517.87ZM523.25,71.17,508.46,70c2.17-.65,4.44-2.64,6.9-3.34S520.47,66.62,523.25,71.17ZM782.62,224.75c-.79-.69-.82-2.44-1.27-3.65,1.07.21,2.41.08,3.12.76,2.85,2.65,5.58,5.5,8.24,8.4.33.36-.06,1.4-.13,2.27C788.88,229.69,785.62,227.39,782.62,224.75Zm133.31,473c-.6,2.32-1,3.71-1.51,5.82a15,15,0,0,0,1.65-1.34c.95-1.1,1.86-2.27,2.79-3.41a40.13,40.13,0,0,1-1.33,4.71,13.14,13.14,0,0,1-1.85,2.41c-1.53,2.13-3,4.31-4.71,6.77-1.13-1.86-1.62-3-.93-5a19,19,0,0,1,2-3.75C913,702.29,914.24,700.28,915.93,697.7Zm63.58-206.77-3.08,1.57c1.14-5.4-5.41-11.44,1.43-15.06C978.38,481.7,978.88,485.82,979.51,490.93ZM358.59,103.54l-.49-1.47c1.69-.52,3.42-.91,5-1.56,1.83-.71,3.52-2.06,5.36-2.38,2.05-.36,4.18.13,6.26.25l.1.53ZM875.28,290.27a14.85,14.85,0,0,1,7.28,12.45C879.18,298.7,874.83,296.13,875.28,290.27ZM436.85,69.82l10.71-.1.42.65-6.28,2c-2.09.69-4.18,1.3-6.24,2.13l-.79-.73Zm108.44.59c3.42,1.14,6.36,2.32,10.33,3.77C547,77,547,76.88,545.29,70.41Zm79.94-11.72.25-1.16,9.9,2.67c1.65.46,3.31.88,5,1.37l4.88,1.57-.42,1.64L640,63.09c-1.62-.54-3.27-1-4.9-1.49Zm295,486.93a27.79,27.79,0,0,1,.72,10,26.5,26.5,0,0,1-1.11,5c-.27.83-.58,1.67-.94,2.51s-.85,1.66-1.34,2.5c.15-.88.3-1.74.45-2.6l.33-2.57c.22-1.7.43-3.38.64-5C919.39,552.14,919.81,548.88,920.22,545.62Zm-544-464.56c-2.08,1.62-4.66,3.09-7,4.61l-.74-.74c1.94-1.23,3.89-2.49,5.86-3.69L374,80.18c-2.08,0-4.15,0-6.23.06l-.13-.74,4.88-1.38c1.58-.43,3.12-.74,4.48-1.07C376.69,78.72,377.08,80.35,376.21,81.06Zm214-63.59c-.51.88-3.74.8-7.65.11-1-.18-2-.39-3-.63s-2.09-.43-3.13-.69a39.61,39.61,0,0,1-5.72-1.86l.17-.93c3.25.6,6.51,1.13,9.74,1.8ZM918.36,454.4c3.82,1.46,4.44,6.84.93,12.13C918.93,461.82,918.65,458.2,918.36,454.4Zm7.92-6c-.94-2.27-1.83-4.42-3.23-7.82l2.89,2.79c.25-1.78.48-3.38.88-6.2,1.16,4.39,2,7.51,2.87,10.87ZM701.5,55.75c-2.8-.88-5.78-1.23-8.55-2.1a11.81,11.81,0,0,1-7.33-5.51l8,3.64C696.29,53.05,698.88,54.43,701.5,55.75ZM901.48,593c0,1.41-.75,4.06-1.45,4.33-1.08.42-2.4-.71-3.43-1.1l3.06-8.79C900.51,589.83,901.42,591.32,901.48,593ZM838.66,163.07c2.54-.86,2.59-.9,6.81,3.26l7.28,7.5C846.79,171.49,843.29,166.66,838.66,163.07ZM531.12,71.6l4.46-3.15,7.16,4.06-.55.5Zm178.43,6.21c.39.23.37,1.18.68,2.31-3-1.94-5.94-3.51-8.78-5.13l-8.4-4.72.52-.81,8,4.1,4,2.08C706.93,76.33,708.27,77,709.55,77.81ZM614.77,32.55l1,1.28c-1.61.76-3.07,2.19-4.83,2.11-1.92-.08-4.11-1.56-6.19-2.44l.48-1.08ZM670.16,57a29.49,29.49,0,0,1-4-2.34c-1.31-.85-2.6-1.77-3.93-2.59l.58-.77c4.83,1.63,9.5,3.65,14.21,5.58v.93C674.71,57.58,672.17,57.9,670.16,57ZM891.08,416.26c.74,3,1.45,5.93,2.14,8.77.35,1.42.69,2.83,1,4.22s.72,2.79,1,4.2l-1.24.26a9.36,9.36,0,0,0-.54-4.27c-.44-1.38-1.06-2.73-1.61-4.1C890.71,422.59,889.86,419.75,891.08,416.26ZM587.81,32.32c-1.31-3-3.86-4-6.62-4.55-1.39-.26-2.82-.42-4.21-.63a12.58,12.58,0,0,1-3.87-1l.37-.9,4,.72,4,.92,8.53,2C589.38,29.85,588.83,30.72,587.81,32.32ZM487.48,66.82c3.86.16,7.72.42,11.57.66v1.33l-12.88.32C487,67.61,487.26,66.81,487.48,66.82Zm-2.85.67v1.68l-3.11-.08c-1,0-2.08,0-3.12,0l-6.23.16.05-1.15C476.36,67.91,480.49,67.47,484.63,67.49ZM639.79,44.08l-9.94.13C630.46,41.09,634.81,40.76,639.79,44.08ZM816.92,260.45c2.71,2.91,4.89,5,7.11,7.71a3.69,3.69,0,0,1-4.24-1C818.6,265.89,817.67,263.71,816.92,260.45ZM110.43,295.39l1,.57-6.64,13-1-.53Zm800.1-35c-2.77-2.05-4.72-3.19-6.3-4.89-.34-.37.65-2.79,1.19-4.95ZM922.07,532l-1.3-.12.86-11.3,1.75.19ZM706.25,57.48c3.7,2.15,6.43,3.7,9.72,5.65C710.88,64.23,709.79,63.64,706.25,57.48ZM905.66,388.67l-.87-2.32c-.33-.77-.67-1.57-1-2.39-.7-1.65-1.47-3.42-2.34-5.47,2,1.24,3.14,2.28,3.77,3.75S906,385.61,905.66,388.67Zm-16.2,20-1.09.4-3-9.12,1.58-.58Zm-19.35-58-1,.56-5.71-11,.85-.69Zm71.61-23.51a2.83,2.83,0,0,1,0-2.14c.26-.4,1.32-.52,1.53-.2q.54.78,1,1.59c.31.55.63,1.1.94,1.66.62,1.11,1.24,2.24,1.85,3.35L946,332.62C944.53,330.78,943.06,329,941.72,327.09ZM284.84,107l-.43-1.24,4.44-1.75c1.49-.58,2.95-1.2,4.47-1.68l.51,1.42c-1.54.45-3,1-4.51,1.59Zm432.68,13,.45-1,8.15,3.82-.63,1.52Z"/><path class="cls-1" d="M8.17,464.25l.08-9.73,0-4.88v-2.43l.11-2.43c.2-4.57-.11-9.18.43-13.71q.32-2.65.77-5.28c.15-.88.28-1.76.46-2.63l.59-2.61c.79-3.47,1.56-6.95,2.07-10.45L14,401c.45-3,1.05-6,1.54-9.06l1.53-9.08c.53-3,.93-6.08,1.63-9.07.91-4.29,1.28-8.67,1.91-13l-.6.2-5.3,11.76,1.68,2.11c-1.72,5.05-3.3,10.22-5,15.42L9,398.11c-.75,2.64-1.38,5.32-2,8s-.36,5.51-.5,8.27l.93,0c-.56,1.75-1.17,3.5-1.7,5.27-.27.89-.51,1.78-.73,2.68a27.44,27.44,0,0,0-.41,2.72A18.41,18.41,0,0,0,6.82,436.4L3.38,436c-.52,3-1,6.16-1.58,9.29l.48,0,2-4.1a23.87,23.87,0,0,1,.06,5.13,13.29,13.29,0,0,0,.29,4.34c1,3.37-.48,4.34-1.52,6.15S1,460.64,0,462.57l.8,2,7.38-.32ZM8.78,411l-.89-.13,1-7c.35-2.33.61-4.68,1.1-7l1.39.24c-.57,2.29-.92,4.62-1.35,6.93Z"/><path class="cls-1" d="M862.87,678.84a21.54,21.54,0,0,1-.86-4.68c.11-3.92.49-7.86.83-11.75a5.32,5.32,0,0,1,.76-2.12,32.07,32.07,0,0,0,3.1-7c.8-2.4,1.45-4.85,2.07-7.3s1.19-4.9,1.87-7.32a61.52,61.52,0,0,1,2.06-7.28c.88-2.44,2.24-4.71,3.7-7.74a9.42,9.42,0,0,1,.26-5.57,17,17,0,0,1,3.85-6.8c0,1.29.06,2.17,0,3.06-.13,2.13-.15,4.3-.31,6.44s-.47,4.25-.88,6.37c-.73,3.81-2.3,7.53-3.15,11.35-.34,1.68-.64,3.33-.92,5s-.55,3.35-1,5c-.72,2.81-2.07,5.5-2.85,8.31l-1,3.94-1.18,3.89c-.78,2.59-1.56,5.2-2.42,7.79-.73,2.2-1.9,4.29-2.86,6.43Z"/><path class="cls-1" d="M844.52,159.52,837,151.58l-3.78-4-1.88-2-2-1.92a35.11,35.11,0,0,0-4.56-4.27c-3-2.56-6-5.05-8.89-7.68l-2.23-2-2.23-1.94-4-3.53-2.88,1.43c-.39-1-.75-1.9-1.17-2.85-.73-1.64-1.46-3.31-2.2-5l.7-.89c3.13,2.3,6.33,4.51,9.36,7,1.24,1,2.4,2.13,3.56,3.24s2.24,2.31,3.45,3.36l13.27,11.84,1.65,1.49,1.59,1.55,3.19,3.1,6.37,6.23c2.11,2.09,4.26,4.14,6.33,6.27l6.06,6.53,6,6.57,3,3.29c1,1.09,1.92,2.27,2.89,3.4q5.11,6.13,10.16,12.33l2.52,3.09c.83,1.05,1.6,2.13,2.4,3.2l4.76,6.43,4.73,6.45,2.36,3.23c.78,1.08,1.49,2.21,2.24,3.31l8.84,13.35a10.13,10.13,0,0,1,1.71,5.6c-3.47-5.46-7-10.87-10.58-16.28l-2.67-4c-.9-1.35-1.89-2.63-2.83-3.94-1.91-2.6-3.84-5.2-5.78-7.77-1.23-1.63-2.49-3.23-3.76-4.81s-2.54-3.17-3.94-4.66l-8.21-9c-6.47-7.43-13.23-14.5-19.15-22.46a13.55,13.55,0,0,0-3.23-2.91c-1.28-.83-2.64-1.6-3.85-2.46A1.11,1.11,0,0,0,844.52,159.52Z"/><path class="cls-1" d="M227.81,91.09,214.62,100c-4.28,3.12-8.51,6.33-12.76,9.5l-6.35,4.78-6.15,5c-4.08,3.4-8.22,6.72-12.23,10.19-7.84,7.18-15.89,14.13-23.29,21.83-1.89,1.88-3.77,3.77-5.66,5.66l-2.82,2.83c-.93,1-1.81,2-2.72,3l-10.8,11.89c-.9-3.65,2.29-4.79,4-6.55a31.36,31.36,0,0,0,3.09-3.53L146.72,154c-1,1-2,1.91-3.05,2.91-.22-.36-.46-.61-.4-.67a46.23,46.23,0,0,1,7.66-7.73l-2.89,4c3.27-2.95,6.94-5.57,10.07-8.68a37.58,37.58,0,0,0,4.35-5,21.86,21.86,0,0,0,3-6.34l2.81,3.24c1.29-1.43,2.28-2.7,3.44-3.79,2.54-2.34,5.13-4.65,7.81-6.82.75-.63,1.81-1.6,1.85-2.19.43-5.25,6.44-7.11,9.65-10.62,1.89-2.17,4.73-3.62,7.71-5.09l-2.53,3.57,15.5-11c1.25-.92,2.56-1.73,3.85-2.56l3.85-2.49,7.68-4.92Z"/><path class="cls-1" d="M70.24,256.9l-.64,2.92.84.32c4.82-9.95,10.37-19.49,16-29,2.91-4.59,6-9.07,9.08-13.57,1.55-2.24,3.08-4.5,4.68-6.7l5-6.46c1.73-2.21,3.39-4.48,5-6.77s3.25-4.62,5.07-6.77a91.29,91.29,0,0,1,11.59-12.23l1.17,1c-3.27,3.75-6.64,7.44-9.76,11.3s-5.91,7.8-8.78,11.75l-4.27,6-2.14,3-1.07,1.48-1,1.53c-3.84,5.81-7.81,11.53-11.7,17.29L77.49,251.33c-3.66,6.66-7.29,13.33-10.82,20-2.42,5.09-4.15,10.47-6.37,15.62-.52,1.22-1.89,2.16-2.87,3.23-.06-1.35-.6-2.84-.12-4.06,1.35-3.41,2.79-6.79,4.24-10.18l2.17-5.08c.72-1.7,1.56-3.33,2.32-5,1.36-2.94,2.37-6,3.55-9Z"/><path class="cls-1" d="M892.33,488.36l-2.19-13.54c8.84,6.7,10,9.67,6.8,15.37a9.09,9.09,0,0,1,2.75,4.92,21.32,21.32,0,0,1,0,6.25c-.34,3.29-.45,6.62-.51,9.89s0,6.49-.28,9.55c-.92-1.54-1.86-3-2.94-4.62a33.67,33.67,0,0,1-2.84-5c-1-2.26-1-5.39-1.07-8.15-.06-1.65-.07-3.3,0-5l.07-2.49v-2.48a26.85,26.85,0,0,1,.78-4.56Z"/><path class="cls-1" d="M28.24,321.68c.58,1.92,1.17,3.84,2.07,6.83A28.88,28.88,0,0,1,27,336.26,21.26,21.26,0,0,1,19.72,343c1.79-4.62,3.51-9,5.19-13.35s3.68-8.38,5.49-12.52c.93-2.1,2.47-4.59,2.4-6.35a12.27,12.27,0,0,1,.47-4,15.86,15.86,0,0,1,1.57-3.33c1.26-2.09,2.84-4,4.11-6.08a13.31,13.31,0,0,0,1.23-2.65c1-2.95,1.58-6.15,3-8.83,2.46-4.29,5.52-8.17,8.79-12.89.16,5.89-2.14,11.23-4.94,15.59a109.21,109.21,0,0,0-6.65,12.2,58.88,58.88,0,0,0-2.46,6.39,38,38,0,0,0-1.38,6.82,11.37,11.37,0,0,1-2.48,5.54c-1.14,1.22-2.9,1.25-4.4,1.82Z"/><path class="cls-1" d="M890.7,551.35c-.83-1.38-.91-4.42-.27-7.65a23.27,23.27,0,0,1,1.5-4.83,15.49,15.49,0,0,1,2.35-4.1,18.23,18.23,0,0,1,2,4.54,25.68,25.68,0,0,1,.78,4.81,71,71,0,0,1-.21,10.17c-.13,1.72-.22,3.44-.3,5.17s-.32,3.43-.49,5.16c-.36,3.45-.77,6.93-1.41,10.44L892,566.52l-1.06.18a23.65,23.65,0,0,1-.71,3.73,15.26,15.26,0,0,1-1.67,2.79l-1.29-.59C888.43,566,889.86,559.31,890.7,551.35Z"/><path class="cls-1" d="M987.3,446.6a217.33,217.33,0,0,1,2.61,22.33c.32,7.52.41,15.05,1,22.51.13,1.91.34,3.81.35,5.72l.09,5.74c0,3.82,0,7.66,0,11.49.07,7.68-.62,15.35-1.1,23-.27,3.83-.5,7.67-.87,11.5s-1,7.64-1.47,11.46-1.06,7.63-1.6,11.44c-.24,1.92-.66,3.8-1,5.7l-1.13,5.68c.11-2.8.37-5.59.72-8.37s.58-5.59,1-8.37c.69-5.59,1.47-11.17,1.81-16.73.11-1.45.16-2.91.2-4.36s.13-2.9.19-4.34c.15-2.89.34-5.77.55-8.65s.45-5.74.68-8.61c.14-1.44.19-2.88.24-4.32s.12-2.89.17-4.33c.21-5.72.12-11.46-.06-17.18l-.07-2.15-.17-2.15-.33-4.29c-.22-2.85-.43-5.71-.61-8.57-.45-11.21-1.76-22.41-2.85-33.59Z"/><path class="cls-1" d="M65.7,246.57a28.05,28.05,0,0,1,.5-5.19c.42-1.42,1.38-2.54,3.74-3.32,1.64-.54,3.55-5.22,4.89-8.49l-3.72,3.93L70,232.64l4.4-5.91,2.21-2.95c.74-1,1.54-1.91,2.31-2.86l9.34-11.36-1.23-1.29L82,214.58a23.13,23.13,0,0,1,4.09-6.86,17.31,17.31,0,0,1,2.66-2.37,19.09,19.09,0,0,1,1.59-1.06c.57-.34,1.19-.66,1.85-1a6.65,6.65,0,0,0,1.7-2l10.21-14.66c.72-1.07,1.63-2,2.45-3l1.15,1.42a52.85,52.85,0,0,0-4.18,5.68c-1.7,2.8-2.78,6.12-4.86,8.42-1.4,1.55-2.72,3.14-4,4.75-.62.82-1.25,1.62-1.84,2.46s-1.12,1.7-1.67,2.56c-2.18,3.44-4.2,7-6.22,10.58-1.09,2-2.26,3.87-3.47,5.77s-2.35,3.88-3.58,5.79c-2.42,3.85-5,7.65-7.4,11.47C69.51,244.07,67.54,244.94,65.7,246.57Z"/><path class="cls-1" d="M736.07,859.35l-4.16,6.26-3.3-4.84c3.39-3.34,5.62-7.53,11.5-8.58,2-.38,4.4-3.39,6.29-5.51,2.6-2.76,4.79-5.86,7.58-8.36,1.16-1,3.48-.91,4.9-1.24,1.87-2.28,3.49-4.7,5.61-7.61,2.11,3,.85,6-1.19,8.77-4.06,5-8.66,7.56-11.51,6.91-2.33,2.06-4.54,4-6.71,6-1.31,1.15-2.41,2.48-3.6,3.74L737,859.75Z"/><path class="cls-1" d="M694.05,886.24c-1.21,1.1-2.48,2.07-3.73,3.1s-2.54,2-3.87,3c-2.29,1.63-4.83,3-7.25,4.48-1.58,1-3.14,2-4.74,2.86l-4.84,2.65-9.72,5.31c-.57.31-1.49.49-1.72.86A7.58,7.58,0,0,1,655.7,911a7.33,7.33,0,0,1-2.91.91,55,55,0,0,1-6.8-.16c3-4.61,8-6.47,12.26-8.85,2.88-1.53,6.45-1.86,9.42-3.32,2.08-1,4.13-2.14,6.12-3.35s3.85-2.62,5.72-4c4.3-3.14,8.63-5.85,13.6-7.41Z"/><path class="cls-1" d="M401.14,10.12l2.72-2.91.34,1.09c1.45-.24,2.91-.37,4.37-.5l4.37-.42c2.91-.29,5.82-.61,8.7-1.06s5.66-1,8.48-1.63,5.65-1,8.49-1.48l.84,1a19,19,0,0,1-3.24,2.07c-1.81.73-4,1-5.72,1.82-3.31,1.66-19.42,3-22.93,2.11A8.75,8.75,0,0,0,406,9.92c-.53,0-1.08,0-1.64,0-1.12,0-2.29.13-3.39.14Z"/><path class="cls-1" d="M19.89,385.94c-.44,4.62-.77,9.22-1.34,13.8a36,36,0,0,1-1.4,5.29,19.41,19.41,0,0,0-.75,6.24,34.08,34.08,0,0,1-1,8c-.3,1.36-.64,2.73-1,4.1s-.55,2.75-.77,4.11l-1.86-.27c.25-3.47.82-6.9,1.29-10.34l1.48-10.33.75-5.17c.22-1.73.63-3.43.93-5.14l2-10.27Z"/><path class="cls-1" d="M503.28,2.26c1-.24,2.18-.54,3.45-.8l4.19-.8,1.23,3.25c-6.44,2.89-13,2.12-19.41.35-1.84-.5-3.06-2.08-4.59-3.16C490.55.7,493-.17,495.34,0,498,.26,500.49,1.42,503.28,2.26Z"/><path class="cls-1" d="M713.12,872.93c2.6-1.39,5.54-2.46,7.72-4.28,2-1.65,3.15-4.1,4.7-6.25,2.7.51,3,3.45,0,5.9-2.49,2-5,4.05-7.74,6.19l-4.23,3.33c-1.48,1.16-3.09,2.24-4.75,3.45.25-3.15.43-5.32.61-7.49,1.26,0,2.47-.15,3.71-.22Z"/><path class="cls-1" d="M982.57,418.51c3.67,7.54,3.28,16.49,4.82,25.32a11.28,11.28,0,0,0-2.35-1.35,7.63,7.63,0,0,0-2.46.21c2.12-4,1.65-6.78-1.28-10.54-1.78-2.28-2-7.46-3-11.33l1.4-.6,1.94,8.5h.72l-.92-9.92Z"/><path class="cls-1" d="M842.38,768.69c1.39-2,2.59-4.18,3.86-6.28s2.51-4.23,3.77-6.36l3.8-6.4,1-1.61.89-1.67,1.78-3.34,2.12,3c-1.92,3.49-4.06,6.79-6.17,10.11s-4.23,6.61-6.42,9.87a8.42,8.42,0,0,1-2.05,2c-.81.59-1.68,1.14-2.46,1.74Z"/><path class="cls-1" d="M626.24,919.51c-3.33,3.89-7.78,5.68-12.48,7s-9.67,2.11-14.08,4.73c1.64-2.32,7.09-5.32,12.73-7.63,1.42-.54,2.81-1.18,4.17-1.71s2.68-1,3.91-1.39A15.86,15.86,0,0,1,626.24,919.51Z"/><path class="cls-1" d="M160.86,126.82a13.83,13.83,0,0,1-5.5,7.74l-3.73,2.73a27.85,27.85,0,0,0-3.45,2.9c-4.59,4.7-8.8,9-13.9,9.18l12.51-11,3.31-2.89c1.11-1,2.25-2,3.45-2.88Z"/><path class="cls-1" d="M774.62,97.51c1,.63,2.06,1.24,3.06,1.9l3,2,6,4,6,4.06c2,1.37,4,2.66,5.93,4.14l0,1.35c-2,.09-4.07.18-6.16.35l.48-1.17a97,97,0,0,0-7.34-7.14c-1.86-1.48-3.79-2.87-5.75-4.23s-3.92-2.71-5.95-4Z"/><path class="cls-1" d="M734.63,868.62l-1.36,1.7L731.86,872,729,875.24c-1.91,2.19-3.87,4.36-5.93,6.48-.88.9-3.11.92-4.71,1.34a18.45,18.45,0,0,1,2.44-3.73c4.07-4,8.36-7.65,12.43-11.56Z"/><path class="cls-1" d="M893.23,532.09c-.93-1.64-2.24-2.89-2.32-4.29a60,60,0,0,1,.53-9.63c.1-.78,1-1.49,1.49-2.32.6,1.11,1.05,2.11,1.44,3s.72,1.73,1,2.49a12.5,12.5,0,0,1,.82,3.89C896.2,527.52,895.21,529.36,893.23,532.09Z"/><path class="cls-1" d="M884,588.94a13.44,13.44,0,0,1,1.38,9.42,12.41,12.41,0,0,1-2.08,4.53,22.87,22.87,0,0,1-3.91,4.25c.79-2.87,1.67-5.72,2.43-8.71S883.22,592.29,884,588.94Z"/><path class="cls-1" d="M176.43,114.43c.94-1.38,1.62-3.19,2.88-4.07a49.48,49.48,0,0,0,5.51-4.94,27,27,0,0,1,2.81-2.43,15.74,15.74,0,0,1,3.38-1.78c1.27-.47,2.41-2.57,3.65-4L201.89,96l-12.82,9.14L177.2,114.4Z"/><path class="cls-1" d="M59.43,258.21l-5.21,3.55c-.89-6.4,6.8-8.45,7-13.84,3.31.72,3.68,4.09,1,7.52a31.41,31.41,0,0,1-2.92,2.85Z"/><path class="cls-1" d="M826.87,792.73c-1.26-3.81,0-6.38,1.88-8.61s4.41-4.28,5.92-6.74l1.36.6c-1.47,2.49-2.92,5-4.42,7.48Z"/><path class="cls-1" d="M272.8,51.53a91.89,91.89,0,0,1,7.12-6.1,14.85,14.85,0,0,1,5.69-2.28c1.09-.19,2,.87,3,1.38-1.57,1.3-3,3.15-4.72,3.79C280,49.79,275.8,50.69,272.8,51.53Z"/><path class="cls-1" d="M944.26,305.46c-.39-1.74-.78-3.47-1.16-5.11s-.85-3.15-1.21-4.5a32.56,32.56,0,0,1,3.57,4.95c1.17,2,2.34,4.28,3.39,6.57,2.1,4.58,3.71,9.26,3.89,12.12l-8.54-14.13Z"/><path class="cls-1" d="M341.83,28.34l12-3.8c2-.61,4-1.3,6-1.84l6.1-1.61.38.86-6.61,2.86c-2.21,1-4.46,2.16-6.82,3.3L341.43,29Z"/><path class="cls-1" d="M960.58,650.4c-1.51,4.48-3,9-4.59,13.58-.4,1.16-.8,2.32-1.2,3.5l-.61,1.77c-.22.58-.45,1.17-.68,1.76-.93,2.36-1.88,4.77-2.85,7.26.19-5.56,1.84-10.26,3.53-14.84s3.93-8.83,5.43-13.31Z"/><path class="cls-1" d="M121.33,167l5.41-9.42c3.36,1.78,4.81-4.47,8.86-5.1l-13.29,15Z"/><path class="cls-1" d="M961.89,341.34l-5-2.58c-.25-4.08-.49-7.84-.72-11.59l.89-.09C958.62,331.67,960.18,336.27,961.89,341.34Z"/><path class="cls-1" d="M59.28,258.29c.35.57,1.16,1.38,1,1.69-1.14,2.13-2.35,4.23-3.56,6.32s-2.36,4.23-3.66,6.28a14.57,14.57,0,0,1,1.6-7.8,40.54,40.54,0,0,1,4.78-6.57Z"/><path class="cls-1" d="M777.53,845.35c-.23,2.79-2.12,4.44-4.26,5.89s-4.58,2.63-5.75,4.84c-1.8-3.06-.86-4.66,2.78-6.2a20,20,0,0,0,1.86-.91c.59-.36,1.18-.75,1.77-1.15C775.12,847,776.3,846.16,777.53,845.35Z"/><path class="cls-1" d="M200.94,93.27l5.28-1.48-.67-.44c1.88-1.72,3.91-3.22,6-4.94l6.86-5.5a31,31,0,0,1-8.69,9.78,18.08,18.08,0,0,1-4.57,2.38A7.63,7.63,0,0,1,200.94,93.27Z"/><path class="cls-1" d="M971.31,566.82c-.06,1.41-.13,2.81-.19,4.19s-.24,2.74-.35,4.1q-.37,4.07-.75,8.08H969c0-3.42,0-6.84.07-10.37,0-1.75-.07-3.55-.14-5.38s-.15-3.7-.23-5.62Z"/><path class="cls-1" d="M641.76,913.84c-1.74,1.4-3.31,3.17-5.31,4.07-1.14.55-3-.48-4.52-.79,1-.93,1.74-2.23,2.87-2.7a41.73,41.73,0,0,1,6.3-1.56Z"/><path class="cls-1" d="M837.2,719.22c-1,3.18-2,6.39-3.12,9.59-.09.27-1.52.68-1.65.44-.44-.79-1.09-2-.77-2.75,1.07-2.59,2.52-5,3.82-7.56Z"/><path class="cls-1" d="M379.76,19.78c-1.94.59-3.89,1.33-5.89,1.75a7.62,7.62,0,0,1-3.73-.12c-.4-.14,0-1.63.59-2.26a5.53,5.53,0,0,1,3.13-1.53C376.12,17.86,380.55,16,379.76,19.78Z"/><path class="cls-1" d="M401,10.06l-4.24,3.74,9.88-.79.16.75-12.71,3,2.49-7.39,4.54.74Z"/><path class="cls-1" d="M348.63,21.28l-14,5.49C336.92,22,343.61,19.5,348.63,21.28Z"/><path class="cls-1" d="M972.77,634.33c1-4,2-7.84,2.81-11.72s1.52-7.78,2.3-11.75c.72,1.6.26,6.61-.74,11.68S974.21,632.6,972.77,634.33Z"/><path class="cls-1" d="M108.15,182.22l1.37-3.75-3.18.52-.08-1,8.33-4.21.71,1.09-6.11,7.89Z"/><path class="cls-1" d="M827.67,855.71c.72-2.59,2.93-5.8,5.35-8.49s5-4.93,6.75-5.25l-5.65,6.72C832.11,850.87,830,853.15,827.67,855.71Z"/><path class="cls-1" d="M956.87,686.41c-1.41,4.73-2.62,9.56-4.48,14.16-.45,1.15-1.78,2.06-2.7,3.07a13.17,13.17,0,0,1,.48-3.64c2-4.61,3.89-9.31,5.75-14Z"/><path class="cls-1" d="M162.58,125c3.69-3.37,7.32-6.81,11.22-10l1.2,1.29c-3.85,3.16-7.45,6.62-11.08,10Z"/><path class="cls-1" d="M910.62,764.22a12.86,12.86,0,0,1,2-6.31c1.06-2,2.36-4,3.37-6.06l1.44.33-2.62,6.24c-.92,2.06-1.91,4.08-2.86,6.12Z"/><path class="cls-1" d="M750.52,84.39c5.59,3.45,10.87,7.37,16.24,11.16l-.69.93c-5.33-3.75-10.55-7.65-16.1-11.07Z"/><path class="cls-1" d="M961.84,646.9c-1.49-4.43.46-12.62,3.85-15.39C964.39,636.75,963.36,641.26,961.84,646.9Z"/><path class="cls-1" d="M478.87,2.28c2.38-2.43,4.9-2.95,7.54.56a34.17,34.17,0,0,0-3.52.43c-1.15.17-2.29.35-3.42.44A7.79,7.79,0,0,1,472.9,1.2Z"/><path class="cls-1" d="M930.32,271.08l2.33,4c.77,1.35,1.58,2.68,2.27,4.07l4.29,8.26-1.24.69-4.2-8.28c-.68-1.39-1.46-2.72-2.22-4.07l-2.29-4Z"/><polygon class="cls-1" points="964.66 348.69 970.06 364.82 968.72 365.33 963.37 349.23 964.66 348.69"/><path class="cls-1" d="M970.2,643.69a17.64,17.64,0,0,1,.08,4.43,23,23,0,0,1-1,4.37c-1,2.73-2.31,4.92-3.65,5.51.82-2.41,1.62-4.8,2.42-7.17.38-1.19.81-2.36,1.16-3.56Z"/><path class="cls-1" d="M456.47,3.85c4.57-5.44,7.91-.65,11.29-1.37l0,1.06Z"/><path class="cls-1" d="M892.1,749.88a48.11,48.11,0,0,1-2.54,5.5,11.93,11.93,0,0,1-2.65,2.31c-.14-.9-.7-1.89-.36-2.67C887.63,752.51,888.5,749.22,892.1,749.88Z"/><path class="cls-1" d="M804.38,769.17l-5,9.41c-1.2-1.91-2.3-3.3.85-5.48,1.41-1,2.46-2.72,3.66-4.11Z"/><path class="cls-1" d="M984.3,585.33c-.64,3.56-1.21,6.75-1.75,9.77-.29,1.5-.52,3-.83,4.4s-.65,2.84-1,4.24a37.64,37.64,0,0,1,0-4.51,40.36,40.36,0,0,1,.46-4.5A35.86,35.86,0,0,1,984.3,585.33Z"/><path class="cls-1" d="M976.59,433.36c-2.28-.61-4.86-6.61-3.85-8.47.23-.43,1.89.05,2.06.61C975.53,427.83,975.94,430.35,976.59,433.36Z"/><path class="cls-1" d="M250.69,64.78a46.77,46.77,0,0,1-4.26,2.5c-2.75,1.14-5.57,2-8.37,3l-.11-1L244,66.43l3-1.43,3.11-1.31Z"/><path class="cls-1" d="M887,777.21l3.39-.91c-2.75,3.36-5.43,6.65-8.1,9.93l-.7-.28C883.27,783.23,885,780.5,887,777.21Z"/><path class="cls-1" d="M874.36,832.45c1.82-4.71,3.79-9.49,9.18-12.2l-2.22,3.11c-.73,1-1.47,2.07-2.27,3.07Z"/><polygon class="cls-1" points="927.57 268.94 920.94 257.54 921.82 256.84 928.82 268.02 927.57 268.94"/><path class="cls-1" d="M8.17,464.25a46.1,46.1,0,0,1-1.47,7.2,10.82,10.82,0,0,1-3.42,5.69,13.86,13.86,0,0,1,1.54-7.07c1-2,2.31-3.84,3.36-5.82Z"/><path class="cls-1" d="M836.89,772.22l5.17-.76c-.15.78-.39,2.25-.45,2.26-1.72.36-3.41.56-5.1.78Z"/><path class="cls-1" d="M966.14,626.43c.32-2,.71-4,1-6l.74-6.07h1.4l-.8,6.13c-.26,2-.68,4.06-1,6.09Z"/><polygon class="cls-1" points="233.88 85.6 244.41 79.53 244.9 80.4 234.39 86.45 233.88 85.6"/><path class="cls-1" d="M947.19,689.39c-1.09,3.31-2.48,6.49-3.76,9.72l-.82-.15,1.31-5c.21-.83.44-1.64.64-2.48l.54-2.5Z"/><path class="cls-1" d="M529.86,963.11l9.58-1.91c.19,1.87-1.66,2.64-9,3Z"/><path class="cls-1" d="M865.17,373.08c1.63,2.47,3,5,4.44,7.59l-1.2.79c-1.37-2.7-2.63-5.41-4.19-8Z"/><path class="cls-1" d="M850,696.1c-.5,1.81-1,3.62-1.61,5.85C845.75,699.32,845.84,698.86,850,696.1Z"/><polygon class="cls-1" points="480.89 958.79 489.44 956.98 490.02 958.52 481.39 960.18 480.89 958.79"/><path class="cls-1" d="M545.56,953.67l-7,1.22-.69-.56c1.12-.84,2.15-2.21,3.37-2.38,1.49-.21,3.16.57,4.75.92Z"/><path class="cls-1" d="M774.24,840.15c1.13-1.43,2.21-2.89,3.46-4.23a12.58,12.58,0,0,1,2.07,1.05l-4,4.14Z"/><path class="cls-1" d="M965.27,592.83l4.38-5.62c-.5,2.78-.51,5-1.27,6.26-.51.87-2.06.45-3.15.6Z"/><path class="cls-1" d="M367,14l9.94.17C369.41,17.25,367.46,17.25,367,14Z"/><path class="cls-2" d="M309.19,315.88c-2.78,2.13-5.37,4.42-8.25,6.24a93.42,93.42,0,0,1-13.26,7.51c-2.77,1.18-6.22.65-9.3,1.23s-5.87-.31-8.56-1.53a69.54,69.54,0,0,1-14.6-8.95c-2.63-2.09-5.7-3.61-8.36-5.66-2.47-1.92-4.68-4.18-7-6.33-1.55-1.45-3-3-4.56-4.46-1.2-1.15-2.5-2.2-3.69-3.37-2.51-2.44-4.11-5.12-2.78-8.88a12.84,12.84,0,0,0,.48-4.68c-.06-1.76.74-2.16,2.3-2.57,2.62-.68,5.1-1.84,7.66-2.77,8.08-2.93,16.18-5.81,24.24-8.79,10.79-4,21.48-8.26,32.35-12,6.56-2.26,13.39-3.71,20.1-5.53,2.34-.64,4.68-1.26,7-2a3.93,3.93,0,0,0,3.16-3.84c.37-4.7,1.34-9.35,1.74-14.05a19.66,19.66,0,0,0-.76-6.26c-.55-2.25-1.51-4.39-2.46-7.08-4,1.91-7.81,3.82-11.7,5.56-1.84.82-3.91,1.16-5.75,2-3.27,1.49-6.37,3.36-9.67,4.76-7.19,3-14.34,6.28-21.74,8.72-6.25,2.07-12.57,1.78-18-2.89a8.14,8.14,0,0,0-3.48-1.28,19.82,19.82,0,0,1-9.39-5.42c-4.12-3.91-8.47-7.6-12.48-11.62-3.27-3.28-6.19-6.89-9.26-10.36-.31-.35-.49-.89-.87-1.1-4.66-2.55-5-7.37-6.4-11.72-.76-2.39-1.92-4.63-.9-7.19.62-1.57,1.26-3.13,1.84-4.55h9.34c1.44-2,4.24-2.33,6.91-1.77,3.91.84,7.54-.23,11.11-1.2,11.62-3.17,23.24-6.38,34.71-10.06,10.69-3.43,21.16-7.55,31.78-11.25,13.15-4.57,26.27-9.25,39.54-13.45,8.57-2.7,17.34-4.81,26.11-6.8,5.42-1.24,11-1.86,16.54-2.56,6-.77,12.17-.87,18.07-2.15,2.72-.59,5.88-2.09,7.31-5.23.19-.42.46-.8.78-1.36l2.53,3.7c1.52-1.3,2.86-2.39,4.14-3.54s2.19-1.28,4.2-.75c2.45.65,4.13,2.4,6.37,3,3.55-3.16,6.1-2.64,9.1,1.06,3.86,4.74,8.54,8.55,14.5,10.47a7.69,7.69,0,0,1,4.69,4,35.33,35.33,0,0,0,7.78,9.62c1.21,1.12,1.21,3.53,1.81,5.33.29.87.44,2.12,1.07,2.5,2.44,1.46,3.2,3.91,4.23,6.26,1.3,3,2.74,5.86,4,8.83.71,1.68.12,3-1.22,4.32-1.52,1.47-2.66,3.31-4.1,4.88a2.88,2.88,0,0,1-2,.9c-3.32-.17-5.65,1.66-7.67,3.83-2.67,2.84-3.91,3.23-7.38,1.76a2,2,0,0,0-1.88.52c-1.12,1.91-2.2,1.92-4,.7a60.61,60.61,0,0,0-6.58-3.6c-.37-.18-.9,0-1.33-.11a9.82,9.82,0,0,1-2.28-.67c-3.11-1.54-6.07-3.46-9.32-4.6-1.35-.47-3.58.25-4.87,1.18-2.8,2-6.06,1.65-9.08,2.43-3.63.93-7.37,1.49-11.07,2.19-.84.16-1.7.24-2.73.38v-1.52c-22.92,1.72-43.84,9.79-64.86,18.73.69.72,1.31,1.35,1.91,2,.9,1,1.8,2,2.69,3,1.33,1.51,2.77,2.95,3.95,4.57,2.52,3.47,6.13,5.73,9.12,8.66.67.66.8,1.84,1.34,2.67,1.41,2.14,2.81,4.29,4.4,6.3,3,3.86,6.69,2,10.16.82,6.63-2.35,13.18-4.91,19.82-7.2,6.93-2.39,14-4.41,20.86-6.91,3.4-1.23,6.55-3.17,9.85-4.81,1.24,1.68,2.52,1.75,4.21.79a11,11,0,0,1,3.25-.85c3.71,4.67,6.72,9.28,10.56,13.05,3.28,3.21,7.51,5.46,11.32,8.13.32.22.76.32,1,.6,2.35,2.72,4.59,5.54,7,8.18a16.83,16.83,0,0,0,4,3.19c3.28,1.84,3.32,1.76,2.68,5.39-.23,1.26,2.48,4,3.77,4,.56,0,1.49.44,1.58.82a2.32,2.32,0,0,1-.59,1.92c-3,2.45-3.11,3.74,0,6.68a32.83,32.83,0,0,1-4.83,1c-1.76.1-3.18.38-4.34,1.93-.48.64-1.75.7-2.68,1-1.09.36-2.41.41-3.25,1.07-4,3.13-7.29,3.92-11.11,1.06-4.78-3.58-9.8-3.49-15.15-2.57s-10.84,1.77-16.22,2.88c-4.58.94-9.09,2.25-13.66,3.31A113.3,113.3,0,0,1,393.33,286c-7.84,1-15.72,1.65-23.58,2.48-1.49.16-3,.45-4.82.74a23,23,0,0,0,1.21,2.05c4.88,6.37,10,12.57,14.63,19.13,8.25,11.74,15.92,23.9,24.4,35.48,3.69,5,8.72,9.12,13.26,13.52,3.36,3.26,7.05,6.19,10.36,9.49,5.37,5.35,11.79,9.19,18.33,12.73,9,4.86,18.25,9.23,27.41,13.75,17.11,8.44,34.15,17.05,51.41,25.18,7.91,3.72,16.28,6.49,24.43,9.7a3.76,3.76,0,0,1,1.89,1.4l-5.68-.36-.2.77c.93.61,1.9,1.17,2.77,1.86a5.86,5.86,0,0,1,.94,1.36c-.53.27-1.05.76-1.58.77-4.1.06-8.21-.11-12.3.09a30.19,30.19,0,0,0-8.62,1.23A160.75,160.75,0,0,0,508,445.45c-2.71,1.39-5.93,3-7.38,6.38a4.09,4.09,0,0,1-2.14,1.56c-1.77.75-3.21,1.53-3.17,3.87,0,1.78-1.19,3.15-2.91,2.27-2.47-1.26-3.9.05-5.65,1.26a10.87,10.87,0,0,1-3.19,1.27c-2.84.81-5.84,1.22-8.52,2.37-5.22,2.24-10.35,3.43-16,1.49a17.1,17.1,0,0,0-6-.88c-2.4.07-3.85-1.1-5.23-2.74a37.9,37.9,0,0,0-3.36-3.68,2.71,2.71,0,0,0-2.11-.8c-3.55,1.29-6.08-1.3-7.68-3.12-5.33-6.07-12.61-9.67-18.19-15.38-4-4.08-8.79-7.35-12.67-11.5-5.17-5.53-10.88-10.69-14.59-17.43-3.18-5.77-6.14-11.66-9.24-17.47-1.18-2.2-2.61-4.27-3.67-6.52-.61-1.31-.52-2.93-1.06-4.29-1.43-3.62-3-7.18-4.56-10.77-1.74-4.1-3.46-8.21-5.2-12.3a7.44,7.44,0,0,0-.95-1.89c-5.47-6.48-7-14.83-10.5-22.22-1.61-3.36-2.91-6.88-4.64-11-.86,2.41-1.52,4.11-2.08,5.85q-3.64,11.37-7.25,22.77c-1.92,6-3.76,12.1-5.85,18.07-1,2.86-2.74,5.47-3.72,8.34-1.14,3.35-3.3,6.31-3.53,10-.09,1.32-1.3,2.6-2.07,3.85-1.9,3.07-3.91,6.06-5.75,9.16-3.15,5.31-6,10.82-9.37,16-5,7.7-10.09,15.36-15.63,22.66a19.35,19.35,0,0,1-9.74,6.66c-2.07.65-3.72,2.55-5.68,3.69-2.15,1.25-4.6,3.45-6.63,3.17-5.37-.74-9.35,2.41-14,3.64-.83.22-1.61.61-2.42.9-2,.72-3.43.42-4.24-1.84-.17-.49-1.4-.9-2.12-.86-3.9.18-7.81.36-11.68.84-3.18.39-6.31,1.15-9.44,1.83-3.62.78-7,2.34-11,1.66a30.89,30.89,0,0,1-3.73-1,10.75,10.75,0,0,0-4.25.14c-4,.51-7.94,1-11.89,1.68-1.53.25-3,1-4.53,1.16a9.07,9.07,0,0,1-3.06-.69c-.52-.13-1-.51-1.52-.46-2.42.23-4.83.6-7.25.86a6.6,6.6,0,0,1-2.45-.21c6-4.05,12.9-5.53,19.46-7.87,4.28-1.52,8.65-2.77,12.89-4.37,5.19-2,10.42-3.91,15.39-6.36a119.15,119.15,0,0,0,22.79-15c8.26-6.77,15.51-14.52,20.76-23.91s10.46-18.61,15.26-28.14c3.24-6.42,5.67-13.24,8.55-19.84,2.25-5.16,4.86-10.17,6.91-15.41,2.48-6.32,4.56-12.81,6.79-19.23C308,319.71,308.6,317.71,309.19,315.88Z"/><path class="cls-2" d="M452.3,610a6.5,6.5,0,0,0,.74-1.92c.65-16.22,4.07-31.93,8.6-47.45,2.55-8.71,5.36-17.38,7.22-26.25.72-3.44-1-7.35-1.32-11.07-.13-1.52.52-3.1.79-4.65.21-1.24.38-2.48.61-4a36.81,36.81,0,0,0,3.81-1.08c2.07-.79,3.37-1.92,3.36-4.64,0-5.2,1.75-6.53,6.78-6.1a5.35,5.35,0,0,0,1.77-.44c5.69-1.64,18.31,5.42,18.28,11.73,7.83-2.1,15.74-4.45,23.77-6.23,3.14-.7,6.37-1.06,9.76,1.17,2.3,1.51,6.27,1.64,9.12.92,7.09-1.81,8-1.44,12,4.36,2.61,3.85,6.37,6.91,9.47,10.45a62.77,62.77,0,0,1,5.08,6.73c2,3,3.75,6.08,5.76,9.37l38.23-19.45c-3.94-.82-7.89-1.45-11.72-2.48a112.45,112.45,0,0,1-10.89-3.69c-4.51-1.73-9-3.64-13.41-5.52-5.05-2.13-9.34-5-10.84-10.78a2.67,2.67,0,0,0-.71-1.31c-4-3.42-1.33-4.48,1.76-6.2,5.31-3,10.21-6.65,15.44-9.76,6.19-3.67,12.5-7.13,18.83-10.55,6.72-3.62,13.52-7.09,20.33-10.65,1.78-12.14-4.69-23.13-5.36-34.14-2.35-.78-4.55-1.37-6.64-2.25a79.75,79.75,0,0,1-8-3.87c-.8-.45-1.13-1.67-1.79-2.45-4.45-5.24-3-10.94-.6-16.18a101.06,101.06,0,0,1,10-17.51c1.51-2.07,5.38-3.15,8.27-3.37,6.14-.47,12-.13,18.07,2.9a35.4,35.4,0,0,1,15.64,14.75c5.4,9.83,8.79,20.5,8,32-.3,4.32-1.47,8.59-2.27,12.87-.21,1.17-.53,2.32-.74,3.2,7-.55,13.71-1.12,20.42-1.59,3.38-.23,6.8.63,9.87-2.05,2-1.73,4.17.16,6,1.26,6.71,4,13.67,7.72,20,12.33,4.42,3.24,7.84,7.82,11.83,11.68,4.36,4.23,4.7,10.14,6.65,15.37a6.32,6.32,0,0,1-3.89,8.07,10.23,10.23,0,0,0-3.64,2.67c-1.84,2-3.81,3.19-6.64,2.35-1.87-.56-3.71-1.34-5.33,1-.38.54-3.82,0-3.94-.51-1.08-4.47-5.38-5.74-8.11-8.44-4.52-4.47-9.25-9-14.66-12.24-6.07-3.64-13.21-4.61-19.93-1.26-2.45,1.22-4.82.32-7.1,1.11-1.23.43-2.51.74-3.7,1.26-3.61,1.57-3.33,4.73-3.13,7.84.43,6.52.85,13,1.32,20.21,2.81-.38,5.1-.76,7.41-1,5.42-.52,10.85-1.38,16.26-1.33,5.88.05,11.75.95,17.62,1.55a4.25,4.25,0,0,1,2.34,1c6.72,6.57,13.7,12.92,19.93,19.93a33.63,33.63,0,0,1,7.21,12.74c1,3.75-.33,8.2-.63,12.32l-4.57.73L720,553c1.65,1.15,3.38,2.19,4.91,3.47a21.85,21.85,0,0,1,4.15,4.17c3,4.33,6.32,8.58,8.45,13.34.94,2.12,4,4.9,1.06,8-.25.26.45,1.44.36,1.18-.34,2.44-.47,4.11-.81,5.73s-.4,3.85-1.38,4.4c-3.67,2-1.59,5.33-2.29,8a10,10,0,0,0-.06,2.26c-.45,0-1.15.12-1.32-.11-.4-.56-1-1.52-.74-1.94,1.05-2,.37-2.75-1.63-3.07a2.12,2.12,0,0,1-1.47-1.07,6.05,6.05,0,0,0-5.84-4.11c-4.86-.11-6.3-4.51-9.47-6.7-1.07-.74-2.2-1.4-3.75-2.38.23-.45.75-1.5,1.4-2.8-4.78-2.81-9.31-.69-13.46,1.12-11.18,4.86-22.29,9.93-33.1,15.55-1.68.87-1.9,5-2.33,7.66-.65,4,.28,8.49-3.12,11.73-1.07,1-2.46,2.33-3.77,2.41-4.63.29-9.29.11-14.52.11-4.25,5.83-3,13.38-3.08,21,4-3.26,7.64-6.68,11.73-9.39,8-5.29,16.22-10.18,24.35-15.24a14.55,14.55,0,0,0,2.16-1.45c5.27-4.81,11.91-4.94,17.36-2.27,5.89,2.88,11.52,6.72,15.5,12.84a118.35,118.35,0,0,1,11,22.28c.92,2.38-.79,5.69-1,8.6-.45,5.7-2.35,10.64-7,14.27a23.93,23.93,0,0,1-3.73,2.4,7.55,7.55,0,0,0-2.56,11.29c1.21,1.62,2.9,2.91,4,4.6,1.66,2.64,2.87,5.38,2.36,8.82-.22,1.49,1.19,3.32,2.09,4.86,2.09,3.58.75,6.39-3.36,6.79s-4,.43-3.82,4.41l4.61.31c.1,1.59-1.84,3.94.18,4.64,1.74.59,4-.45,6.32-.35l-5.44,3.14,5.65,3c-3.29,5.36-1.34,10.8-.1,16.27,1.16,5.11-2.53,12.53-7.34,14.28-2,.74-2.57,1.13-2.2,3.63a22,22,0,0,1-.8,10.59c-2,5.32,1,10.12.41,15.17-.84,7.23-1.61,14.48-2.5,21.7a33.19,33.19,0,0,1-1.28,6.19c-1.48,4.54-2.39,9.52-4.93,13.42-3.84,5.91-8.42,12.43-16.28,12.58-10.27.18-19.55,4.77-29.62,5.38-.09,0-.18-.14-.55-.45l2.85-1.69L656,841c-3.93.21-7.88.73-11.8.57-7.63-.3-15.24-1-22.87-1.46-1.36-.07-2.8.86-4.12.69q-7.8-1-15.55-2.5a65,65,0,0,1-6.42-2c-6.34-1.92-12.68-3.81-20.12-6l4.38-1.45-5.66-2.18.24-.8c1.26.17,2.54.25,3.78.53,1.56.34,2.89,1,4.3-.74,2.55-3.18,5.4-.8,9.08,0l-2.9,1.05.21.62,6.2-2.06c-2.76-.71-5.32-1.25-7.8-2-5.93-1.81-6-1.9-6-2.6l-22.15-4.51-.13-1.29a58.2,58.2,0,0,1,8.06-.8c7.75.26,15.48.8,23.23,1.2a1.8,1.8,0,0,0,1-.47c.72-.53,1.4-1.13,2.09-1.7l.77.83-.88,1.61a7.37,7.37,0,0,0,.86.09c.69-2.6,2.75-2.33,4.69-2.22a91.08,91.08,0,0,0,30.29-3.22c14.76-4.22,29.23-9.41,41.37-19.32,3.95-3.23,4.66-8.11,5.47-12.79,1.11-6.39,2-12.83,3.24-19.19.66-3.32.28-4.9-3.49-6.18-15.81-5.32-31.73-10.53-45.53-20.38-3.62-2.58-6.72-5.64-7.74-10.23a4.3,4.3,0,0,0-.29-1.08c-.6-1.17-2-3-1.74-3.35,1.35-1.67,3-3.75,4.93-4.19A83.19,83.19,0,0,1,641.21,711c12.14-.34,24.29-.1,37.15-.1-1.73-4.73-2.9-8.28-4.35-11.7a10.25,10.25,0,0,0-2.6-2.89c-.44-.42-1.36-.51-1.57-1-3.52-7.74-10.65-6.5-16.53-5.55-9.54,1.54-18.84,4.57-28.23,7-.12,0-.25.2-.34.18-6.14-1.74-5.77,3.57-6.34,6.59-1.48,7.73-2.21,15.59-3.24,23.4-.5,3.84-1.13,7.67-1.44,11.53-.42,5.26-.55,10.53-.86,15.8-.19,3.14-.4,6.28-.78,9.4s-1,6.08-1.32,8.07l-8,2.47c-1.49.56-3.08,1.18-4.69,1.78s-3.33,1.22-5,1.83l-.42-.9-2.33,7c-2.66-4.7-5.38-8.61-7.13-12.91-1.17-2.87-.93-6.31-1.36-9.48-1.18-8.61,4.35-15.47,6.16-23.33,5-21.94,10.87-43.7,16.63-65.47,2-7.79,4.68-15.38,9-22.38,2.85-4.65,4.61-10,7-14.89,1.29-2.66,2.92-5.16,4.39-7.74l-1.13-.77c-4.12,4.66-9.05,8.85-12.15,14.12-3.58,6.1-9,7.8-14.77,7.68-8.67-.18-17.31-1.8-26.17-2.83.41,19.21.55,39.46-6.82,58.84.26-1.18.55-2.35.76-3.53a7,7,0,0,0-.16-3.86c-1,3.14-1.62,6.42-3,9.38s1,6.84-2.18,9.52c-1.72,1.46-3.07,3.35-4.68,5-.73.73-1.31.54-3.38-.11-.43-.13-1.06.36-1.6.54-3.75,1.26-7.51,2.46-11.23,3.8-1.88.68-3.68,1.59-5.92,1.72l6.8-8.94c-2.33-.65-4.69-1.79-7.09-1.87-7.39-.26-10.81-5.59-14.15-10.81-6-9.43-11.9-19-17.45-28.68-1.44-2.51-1.5-5.82-2.12-8.78a31.31,31.31,0,0,1-.3-3.59c.92,0,2-.33,2.71.06,5.36,3,10.93,5.11,17.17,5.19a4.64,4.64,0,0,1,2.32,1.16c3.55,2.61,6.61,2.48,9.78-.9,4.54-4.84,9-9.74,13.19-14.9.79-1,.06-3.3-.13-5-.38-3.31-.87-6.61-1.42-10.65l-2.67,4.93c-4.54,0-8.7.12-12.84,0-8.35-.3-15.42-4.27-22.29-8.41a87.48,87.48,0,0,1-14-10c-2.89-2.64-5-6.06-10.22-6.47-1.15,9.84-3,19.79-2.24,29.85s1.15,20.16,4.61,28.45c1.47,1.18,2.5,1.61,2.86,2.36,2.82,6,5.41,12.1,8.31,18.05,1.23,2.55,1.29,4.53-.63,8.86-1.51.28-2.66.42-3.77.72-5.23,1.44-12.5-1.46-15.87-6.12-1.29-1.78-3.46-3-4.52-4.84s-.89-4.39-1.88-6.31c-6-11.54-8.88-24-11.16-36.66-1.3-7.26-1.7-14.7-2.54-22.05a34.88,34.88,0,0,0-.76-3.45Zm28.58.48c1.9-.88,2.77-1.36,3.69-1.7,3.65-1.35,7.25-3.74,11,.12.59.6,2.49,0,3.75-.17.75-.12,1.54-1,2.14-.88,4.34,1,8.65,2.23,12.95,3.4,7.81,2.14,15.6,4.3,23.6,6.5-.78-2.82-1.66-5.83-2.45-8.87-2.47-9.4-5.54-18.49-6.43-28.44a110.42,110.42,0,0,1,1.16-30.08c.83-4.56.26-5.08-4.46-4.57-.85.09-1.65.58-2.5.69-3.18.43-3.64,2.18-2.93,5a17.2,17.2,0,0,1,.25,5.82c-.51,5.2-3.19,9.58-5.53,14.11a17,17,0,0,1-19.58,8.12c-3.77-1.21-5.88-.31-7.15,3.42-1.69,4.95-3.27,9.93-4.66,15C482.65,601.8,481.93,605.76,480.88,610.47Zm198,14.86c-4.11,1.24-7.68,1.84-10.8,3.36a61.1,61.1,0,0,0-21.4,17.38c-4.49,5.69-11.2,9.56-13.8,16.82-.19.55-1,.84-1.28,1.38-2.4,4.87-4.73,9.76-7.46,15.44,16.43-7,32.46-8.57,49.18-9.4C672.38,655.83,674.6,641,678.93,625.33ZM565.71,607.5c4.87-2.29,9.36-4.25,13.7-6.48,5.86-3,11.58-6.3,17.42-9.36,11.24-5.92,22.54-11.74,33.78-17.67.86-.45,2-1.44,2-2.2.16-6.56.1-13.12.1-20a10.74,10.74,0,0,0-8,7.91,21,21,0,0,1-8.56,13.13c-5.13,3.4-11.73,3.75-17.87,2.23s-11.84-3.6-17.9-5.49c-.63,1.63-1.36,3.34-1.95,5.09-2,5.74-5.28,6.91-10.55,3.73-2.47-1.5-5-2.36-8-.63,1.08,3.88,2.11,7.61,3.15,11.33l-.65.25-1.73-2.76-.41.24C562.08,593.76,563.91,600.68,565.71,607.5ZM669.6,531.13l.46.75c-.79.55-1.55,1.14-2.38,1.62-2.35,1.36-4.77,2.63-7.1,4-3.6,2.16-.86,5.24-1,7.9-.12,1.64,0,3.3,0,5v7.41c4-1,7.59-1.9,11.11-2.87,1.55-.43,3-1.14,4.55-1.63,1.94-.63,3.9-1.54,5.88-1.64a83.88,83.88,0,0,1,9.21.51l.12-.73-2-.64-.07-.69,10.81-1.5.1.66-1.71.7.47.91,7.63-4.17-12.84-20.39-1.36,1.17c-1.2-1-2-2.16-2.94-2.3-8.27-1.16-20.06,2.39-22.88,6.79Zm-43.49,97.61,8.39-10.2C628.61,619.21,625.37,624.13,626.11,628.74Zm-68.26,53-1.55-.23-2.94,18,1.1.18ZM473.8,637.35l1.63.31V623.83l-.35-.08Zm217.05-57.54,1.67,2.74,7.77-2.46C696.93,576.92,694.23,580,690.85,579.81Z"/></g></g></svg>