<svg xmlns="http://www.w3.org/2000/svg" viewBox="0 0 1280 720"><defs><style>.cls-2{fill:#fcfaf2}</style></defs><g id="レイヤー_2" data-name="レイヤー 2"><g id="レイヤー_1-2" data-name="レイヤー 1"><path fill="#c9171e" d="M0 0h1280v720H0z"/><path class="cls-2" d="M564 78h4v1l3-1-1-1a12 12 0 0 0-1 0h-13a7 7 0 0 0-2 1l-5 3-3-1-2-1c-1 0-3 0-2 3h-2v-2h-3a12 12 0 0 1-5 2 32 32 0 0 0-5 2 30 30 0 0 1-3 3c-1 0-2 2-3 1a34 34 0 0 0-6 1 17 17 0 0 0-3 2 14 14 0 0 0-2 2l-4-1a4 4 0 0 1-2 1l-1 1-3 1v-3l-4 2c1 4 1 5-2 5v1a12 12 0 0 0-2 3c-1 3-2 4-4 3a4 4 0 0 1-3 2 12 12 0 0 0-3 1l7-8-1-1-3 2 1-3v-1a18 18 0 0 1-3 3l-6 4a20 20 0 0 1-2 3l-3 3-3 2c-2-1-1 0-1 2a6 6 0 0 0-3-1 4 4 0 0 0-1 1 10 10 0 0 0-3 3h-1l-3 2-3 2h1l2 1-1 3 1 2h-5l2-5c-1 1-3 1-3 3l-2 1a4 4 0 0 1-1-1l2-2-3-1 4-4-4 3-3 3-3 2-4 4a8 8 0 0 0-2 3l-4 5c-2-2-2 0-3 1l-2 2 1 1-3 1a12 12 0 0 1-4 4c-1 1-3 2-1 5a11 11 0 0 0-2 0h-1l-1 5h-2a13 13 0 0 1 0 2 2 2 0 0 1-1 1l-3 2 1 3-3-2-1 3c1 2 2 4-1 3l-1 1-3 1a3 3 0 0 0-1 2 37 37 0 0 0-1 4l-1 4a1 1 0 0 1 0 1 9 9 0 0 0-4 3 10 10 0 0 0-1 5 2 2 0 0 1-1 1 23 23 0 0 0-2 2c-1 1 0 2 2 2l-3 5h-1v-1c-1 1-3 2-1 4a2 2 0 0 1 0 2 17 17 0 0 1-2 3l1 3c-4-1-2-3-4-4-1 2 2 4 2 5l4-1a10 10 0 0 1 0 4 34 34 0 0 1-2 3l-2 7h2l1 1a21 21 0 0 1-1 3l-2-1-2 1-1-1v-4l1-4 1-3 1-2-1-1-2 5c-1-1 1-3-2-5l2 7-2 3-1-2a5 5 0 0 0 1 5 2 2 0 0 1 0 2 23 23 0 0 1-2 3v1l4-2a32 32 0 0 1 1 5 5 5 0 0 1-1 4c-1 0-3 2-2 4 0 0 1 2-1 2v2h1c3 2 0 2-2 2l3 1c-2 2 0 3 2 4l-1 1-5-1a63 63 0 0 1 0 7 7 7 0 0 0 0 3 3 3 0 0 1-1 2v3l-1 3a45 45 0 0 0 0 5l-1 7 1 7a43 43 0 0 0 0 8c1 2-2 4 1 6v6a8 8 0 0 0 0 2l1 4v8c-2-2-2-5-4-6v-2-6h-1l-1 2c-2-2-2-3-5-2 0 3 0 3 2 3a4 4 0 0 0-1 4 20 20 0 0 1 0 4l1 2 1 4c-2 2 0 2 1 4l1 1a4 4 0 0 0 0 4l1 4a3 3 0 0 1 0 5l2-1-2 2 2 2a1 1 0 0 1 0 1c0 2 2 3 3 4l2-2 1 3h1v-3h1l-1-2h-1v2l-4-7 2 2 2-2h2a92 92 0 0 0 3 10l1 1 2 7 3 5 2 4 1 3 1 1v2l1 3 2 3a9 9 0 0 0 2 2c1 0 2 1 1 2l1 1c1 1 1 3-1 4h3l1 1 1-2v-2h1l3 3v2a5 5 0 0 0-1 0l-2 1a5 5 0 0 0 0 2l3 3 2 3 2 3-3 2h3l1-1 5 2c3 0 3 3 7 1l1 1 1-1a16 16 0 0 0-3-1 3 3 0 0 1-2-1l-4-4a7 7 0 0 1-4-3l-2-2-1-5v-1l4 3h1l-6-7a28 28 0 0 0-3-3 23 23 0 0 0-2-2 19 19 0 0 0-2-1l-3 2-1-3 2-1h1l-2 2c2-1 2-2 1-3l-2-3-2-3v-1h-3l1-6-3-6h1a23 23 0 0 1 4 3 16 16 0 0 1 3 4l4 7a28 28 0 0 0 3 5h-3a24 24 0 0 0 5 5 17 17 0 0 1 4 4s-1 2 2 2v1a4 4 0 0 0 1 1l2 3 3 4 3 3 1 3c-1 3 1 2 2 3l-1-2 4 4 3 3a11 11 0 0 1-3 0 14 14 0 0 1-7-2l-6-1 4 6-3 1c0 2 1 3 4 2a17 17 0 0 1 3 0v1h-3v3l-3-1a6 6 0 0 0-4-5l2 3h-2a13 13 0 0 1-1-3l-2 1 4 3 3 3h2l3-2c1-1 1-2 2-1l-2 2v2h3l-1 2 2 1 1-3 3 1v-1l1 2h-1l-2 3c4-2 4-2 5-1h-2v2h-1v1l3-1a5 5 0 0 0 0 1 2 2 0 0 0 1-1l-1-1h4c-1 2 2 2 2 4h-3l3 1v1h-2l7 6h-2 8l4 2v-2a4 4 0 0 0-3-3 12 12 0 0 0-5 0c2-2 4-2 5-1h1a24 24 0 0 1 3 1l5 2 3 1a47 47 0 0 1 5 3l4 1a2 2 0 0 1 2 1l1 1a3 3 0 0 1 0 1h1a5 5 0 0 1 2 0 3 3 0 0 1 1 1l4 2h3l-2 1 1 1a24 24 0 0 1 5 2 10 10 0 0 0 5 1l4 3c1 2 2 1 3 0l-1-2 4 2v1l1-2 2 2 2 1 4-1-1 2a15 15 0 0 1 9 1l-6-3a18 18 0 0 1-3-1 6 6 0 0 1-2-1 5 5 0 0 1-1-1h-3l2-2-3-1 1-1a1 1 0 0 0-1 0c-1 2-2 2-2 1a6 6 0 0 0-6-2l-4-2-1-1a5 5 0 0 0-1-1 6 6 0 0 0-1-1l-1-1h-6v-1c-1-2-3-2-4-2a15 15 0 0 1-6-4 16 16 0 0 0-5-3l-4-2a6 6 0 0 0-4-4 6 6 0 0 1-1-1l-5-4-3-2v-1l1 1 2-3h-4-2l-1-3 1 1c-1-3-4-1-6-2v-2l3-1-5-4h1v-3c-2-2-2-4-5-4v-1l-1-2 1-1v-3a8 8 0 0 1-4 0 24 24 0 0 1-3-3l-4-5a22 22 0 0 1-3-4c-1-2-3-3-3-5a4 4 0 0 0-1-3 11 11 0 0 1-3-4v-2a28 28 0 0 0-3-2 12 12 0 0 1-2-2l-3-4-2-5a24 24 0 0 1-1-4l-1-3 1-2a1 1 0 0 0 1-1l-2-4a274 274 0 0 0-4-8c-1-2 1-4-3-5 3 0 3 0 2-1a18 18 0 0 1-2-4 76 76 0 0 1-2-9l-1-4h3a8 8 0 0 0 1-2c0-2 0-3 2-3l-2-2 1-5v-5l1-3a6 6 0 0 0-1-4 7 7 0 0 1-1-2c-1-2-2-2-5-3v4h-1a8 8 0 0 1 0-2v-3-2l1-3v-3a30 30 0 0 0-1-3v-7c-1-1 0-1 2-1v3h1l1-1c2 0 3-1 3-2a10 10 0 0 1 1-4c1-2 1-2-3-3v-2l3 2v-2a8 8 0 0 1 1-1 12 12 0 0 0 2-5s1-1-1-2l-1-1 3 1-5-4 4-2a13 13 0 0 1 2-4v-4h2a2 2 0 0 1 0-2l1-2v-1a19 19 0 0 0 2-4v-4a18 18 0 0 1 1-3l1-2a8 8 0 0 0 0-1c0-2 1-3-2-5v-1l1-1 2-6 1-3 1-1 1-1v-3l4 4 1 1v2l5-6a1 1 0 0 0 0-2c-1-1 0-1 1-1a8 8 0 0 0 2-2l5-6a13 13 0 0 0 1-3l1-3 5-5 6-6v-1l2-2c3 0 4-2 5-4a4 4 0 0 1 2-3 19 19 0 0 0 3-2l3-2c0-3 2-4 4-4a13 13 0 0 0 4-2l1-1 2-2c0-2 1-2 2-2a5 5 0 0 0 5-3c0-2 1-3 3-3h1c1-1 1-4 4-2 1 0 3-2 2-3 3 1 4 0 6-1l3-3a36 36 0 0 1 4-2l4-1 3-1 3-1v-1h-2l6-2 3-1 3-1h4l6-1-2-3h5a11 11 0 0 1 3-1l5 2c2 1 4 0 5-1l-3-2 6-2c1 0 2 3 3 1h3l4 2-2 2-5 2-3-1h-1a48 48 0 0 0-6 0l-6 3h-2a3 3 0 0 1-2 1c-3-1-4 0-6 1l-1 1-5 1a3 3 0 0 1-3 0c1 2 0 2-1 1a3 3 0 0 0-2 0l-4 2h-2l-2 1-1 1-1 2h-5l1 1-4 1-2 2a19 19 0 0 0-5 2l-2 2a6 6 0 0 1-2 1h-2l-3 2a9 9 0 0 0-2 2 10 10 0 0 1-2 3c-2 1-2 3-5 1v1l-3 3-2 2a39 39 0 0 0-4 4l-1 2a19 19 0 0 1-2 2l-4 4c-1-2-1-3-2-2a17 17 0 0 0-2 1 14 14 0 0 0-1 1l-4 5-4 6-1 1-2 2-2 3-1 2c-3-1-3 1-3 2l-2 3-1 1-2 4a15 15 0 0 1-2 2l-1 1a10 10 0 0 0-2 2v4l-2 1-3 7-2 6 3 2-4 1a52 52 0 0 0-4 7l-2 5a10 10 0 0 1-1 2l-1-1c0 2 1 4-1 6l1 1v1l-2 2v1l1 1-1 6c-3-2-3-1-3 0v8c0 2 1 5-1 7l-1 2c0 2-1 4 1 6v2 1c3 2 0 3 0 5a27 27 0 0 1 0 3c4-1 3-3 3-5a3 3 0 0 1 1-1 6 6 0 0 1 1 1l1 1a13 13 0 0 0 1 2v-3a18 18 0 0 1 2 0 15 15 0 0 1 3 1l-2 1-1 1h-2v4l-3-2h-4 1l-2 5v3a30 30 0 0 0 0 3l1 7 1 2v6a9 9 0 0 0 1 3 6 6 0 0 0 0 2 10 10 0 0 1 1 2v5l1 1c2 1 1 3 2 5l-1 1 2 7a4 4 0 0 1 1-1v1l1 1a2 2 0 0 0 1 0 1 1 0 0 0 0-1l-1-3-2-4a29 29 0 0 0 0-5 11 11 0 0 0-1-4 14 14 0 0 1-1-4l1-1 1 1 1 1h-1a23 23 0 0 1 3 0 12 12 0 0 1 3 2l1 3a13 13 0 0 0 3 2 2 2 0 0 1 0 3h1l1 3 1 4-2 1h-2c-1-1-2 0-2 1-1 2 1 4 4 4-2 2-1 3 0 4a3 3 0 0 1 2 2 10 10 0 0 1 0 2 2 2 0 0 0 1 2c1 1 1 3 5 2 2 0 1 1-1 3a2 2 0 0 0-1 1c0 2-1 4 3 4l3-1a13 13 0 0 1-2 1c-2 1-3 2-2 3a6 6 0 0 1 0 1c1 2 2 2 6 0l3-1a7 7 0 0 1 1 0l-2 1a12 12 0 0 1 1 2 8 8 0 0 1 0 2h4l1-2a16 16 0 0 0-1-3 4 4 0 0 1 4 2 15 15 0 0 0 3 2 2 2 0 0 0 1 0 1 1 0 0 0 0-1v-1l-2-2-2-2h-1a27 27 0 0 1-5 0v-2h2c1 1 2 1 4-1h-3l-2-1v-1h2c1-1 3 0 3-2a5 5 0 0 1 2 0l2 3c-1 1 0 2 3 2-1 1 1 2 4 1a25 25 0 0 1-3-1v-1c-1-2-3-3-3-5a3 3 0 0 0-1-1 6 6 0 0 0 0-1 13 13 0 0 1-2-2h-1l-1 4h-1v-1a23 23 0 0 1-2-2l-1-1-1-2-1-2c-1-1 0-3-2-4s-2-3-3-5l-1-3h1l1 1 4 6 1 2 3 2 1 1a9 9 0 0 0 1-1v-1l-2-3-1-3c0-1 0-2 2-2l2 3 2 2a3 3 0 0 0 1 4 4 4 0 0 1 1 1 2 2 0 0 1 1 1c-1 2 1 3 2 3l1 1a1 1 0 0 0 0 1l2 2 1 3c0 2 0 4 3 4a9 9 0 0 0 1 0v-1l-1-3a17 17 0 0 0-1-2 3 3 0 0 0-1-2c1-2 0-4-2-5 1-1 1-2-1-2v-2l-2-4c-1-1-3-1-2-3v-1l-2-2 1-3a3 3 0 0 0-2-2c2-2 0-2 0-3l-3-3v-2h3v-3a29 29 0 0 0-2-2c-1 0-2-1 0-1v-2a12 12 0 0 1 3 3v1l2 2 2 2a14 14 0 0 1 1 3 14 14 0 0 0 0 2l1 1a10 10 0 0 0 2 3 20 20 0 0 0 3 2l2 1-1-3v-1-1a15 15 0 0 0-2-2c-1-2 0-4-3-6l5-3v1h1v-2l-1-2v-2l-1-3a21 21 0 0 1 0-2v-3l-1-3a3 3 0 0 1 0-3v-1l-2-3v-1c2-1 0-2 0-2-2 0-3 0-2 1l1 1-2 5-2-1c2-1 2-2 1-3v-5a42 42 0 0 1 0-4h-1v-3-2h1l-1 3h1v-5l-1 1h-1l1-3v-2c0-1 0-2 2-3v-1l2-8v-4a21 21 0 0 1 1-3c1-1 0-3 2-4l-1-1a5 5 0 0 1 0-2l2-1v-2a10 10 0 0 0 2-3l1-3 1-2-2 8a41 41 0 0 0-1 4 33 33 0 0 0-1 4h2v-2c-1-1-1-2 1-2 2-1 0-4 2-5l1-4h1l1-4a5 5 0 0 0 1 0 18 18 0 0 0 1-3l1-4a4 4 0 0 1 1-1 10 10 0 0 1 0-1 9 9 0 0 0 2-1l2-4 2-2 1-1v-1a25 25 0 0 0 2-2 24 24 0 0 1 1-3 1 1 0 0 1 1 0 4 4 0 0 0 1-1l3-3a36 36 0 0 0 2-4 2 2 0 0 0 0-2 44 44 0 0 0-3-3l-2 1v-4h-3l-1 1h-1l7-6v2c2 1 2-2 4-2a14 14 0 0 1-2 4 12 12 0 0 0-1 4c2 1 3 0 3-1 2 3 2 4 4 2l4-4 1-1c-2-2-2-3 1-1a12 12 0 0 0 2-2v-2l-1 2c-2-2-3-3-2-4a17 17 0 0 1 3-2 9 9 0 0 1 4-1 10 10 0 0 1 1 1v-3l4-1-1-1h3v-1l2-1c0 2-2 1-2 2l1 1-1 1 1 1a12 12 0 0 0 1-1s0-2 1 0l3-2 3-2 2-1 3-2 4-1 7-3 3-1 4-1 4-1 2-1h2l3-1h2l1-1a12 12 0 0 0 2 0 12 12 0 0 1 4 0 9 9 0 0 0 3-1 6 6 0 0 1 3 0 15 15 0 0 0 2 0h5l5-1 2 1h7l3 1 6 1 3 1h3l2 1h3l4 1 4 1 6 2h1a27 27 0 0 1 3 2l2 1c2 1 4 1 5 3h1a5 5 0 0 1 1 0l4 3a12 12 0 0 0 2 1 12 12 0 0 1 3 1 58 58 0 0 1 5 4l5 3 3 3 3 3 2 1 1 2 3 2 2 2 2 2 2 2a7 7 0 0 1 1 2 20 20 0 0 0 3 3l3 4a44 44 0 0 1 3 4l2 3 2 3 2 4 3 4 1 3a34 34 0 0 1 2 3l1 4 1 1v2l2 3 2 5a27 27 0 0 1 1 3v3l1 5 1 4a2 2 0 0 0 0 1 10 10 0 0 1 2 3v3l1 1v4a2 2 0 0 0-1 2v2a4 4 0 0 1 1 1v8a4 4 0 0 1 0 2l-2 2 1 3-1 8v2l-1 2v1a29 29 0 0 0-1 4l-1 5-2 10-2 4-1 3a12 12 0 0 1-1 2l-2 5-2 4-1 4-5 7-2 4-2 4-4 5-4 6-4 4-4 4a5 5 0 0 1-2 1 3 3 0 0 1 0 1l-3 2-2 3-2 2-2 1-2 2-3 3-3 2-5 2-3 3-5 4a24 24 0 0 0-2 1l-4 2-4 2-5 4-3 2-5 1-4 1-4 2a28 28 0 0 0-4 2l-7 4a7 7 0 0 1-2 0l-2 1a22 22 0 0 0-5 4 17 17 0 0 0-3 6c-1 3-1 6-4 7a7 7 0 0 0-1 1 6 6 0 0 0-1 1l4 1h-2l-1 7v8l-3 4c-1 2-2 1-3 0-1 2 0 3 1 3l-2 1v1l7 1a17 17 0 0 1-2 4 10 10 0 0 1-2 2c2 2 5 0 8 2l-3 1c0 2-2 2-3 3v2a8 8 0 0 1-2 2 10 10 0 0 1-3 1l2 2 5 2c4 2 7 2 10 1a17 17 0 0 1 5 0 7 7 0 0 1 5 4 9 9 0 0 0 5 4h2c1 1 2 0 2-1a3 3 0 0 1 2-1l8-1 5-1h5a9 9 0 0 0 2 0l8-1a41 41 0 0 0 4 0l7-2 7-2 6-2 8-4 8-4 3-3 6-3a55 55 0 0 1 6-3 18 18 0 0 0 6-4 19 19 0 0 1 4-2l6-4 6-5 6-5a24 24 0 0 0 6-6c2-4 5-6 8-9l5-5 5-5 2-3 2-2 4-4 3-5 4-4a22 22 0 0 0 2-3l3-6c1-2 3-3 3-5l6-10 5-10a23 23 0 0 1 1-2l2-5 3-4 1-5 3-6 2-5 1-5v-3l2-5 2-10 2-10 1-8 1-4a33 33 0 0 0 0-3 30 30 0 0 0 0-6 13 13 0 0 1 0-3l1-3a9 9 0 0 0-1-6v-1l-1-7v-8-5-4l-1-4v-5l-1-4-3-12-1-6-1-3-1-3-2-5-1-3-1-3-2-6-3-8-2-4-2-3c-1-2-2-3-1-5l-2-3-2-4-2-4-2-3-5-7-2-3-3-5-1-2-5-6a49 49 0 0 1-3-3l-4-7-6-6a29 29 0 0 0-3-4 10 10 0 0 0-5-3c0-3-2-5-6-5 1-3-1-2-2-2l-1-2-5-5-6-4c-1-1-2-2-3 0h-1l1-2-1-2c-1-1-2-2-3 1l-1-1c0-3-4-3-6-6-2-1-4-1-5-3l-1-1a9 9 0 0 1-4-2 9 9 0 0 0-5-1l-4-3a8 8 0 0 1-2 0l-1-1a5 5 0 0 0-3-1l-2-1a2 2 0 0 0-2-2 53 53 0 0 0-5-1l-2-1c-3 1-4-1-5-2l-2 1c0-3-1-3-2-2l-2-1a18 18 0 0 0-3-1l-4-1h-2a5 5 0 0 0-7-1c-2 1-3 1-4-1l2-1a19 19 0 0 0-5-1 36 36 0 0 1-5-1l-5-2h-3c-2-2-4-1-5-1a12 12 0 0 0-4-1h-8a10 10 0 0 0-5-1h-9-1c-1-2-2-1-4-1a11 11 0 0 0-8 2h-7c-1 2-2 2-4-1zm-45 98c0-2 1-3 3-1l1-4a4 4 0 0 1-1 4zm-40 37a12 12 0 0 0-2 1 20 20 0 0 1-1-3h2v-3l2 3h-2l1 2zM583 83l-1-1 1-1a21 21 0 0 1 3 2l-2 1-1 2h-8l3-2h6a6 6 0 0 1-1-1zM459 300h3l-2 2c2 0 1 1 1 2a22 22 0 0 0 0 3l2 1a6 6 0 0 1-1 3l-2-2a8 8 0 0 1 0-1 2 2 0 0 0 0-1v-5l-1-2zm-20-48a23 23 0 0 1 0-2 12 12 0 0 1 3 1l-1 1a12 12 0 0 1-1 1h2l1 3v1a3 3 0 0 0-1 3v1a6 6 0 0 1 1 2 7 7 0 0 0 0 2 6 6 0 0 1-1 3 17 17 0 0 0 0 4 19 19 0 0 1 0 2 3 3 0 0 1-2 2v-3-4h-1a4 4 0 0 0 1-4l-3-4s3 0 0-1l-1-1a10 10 0 0 1 3-2l-2-1h1l1-1c-1-1 0-2 1-2l-1-1zm15 26a22 22 0 0 1-1 4 4 4 0 0 1 0 1h-3a17 17 0 0 0 2 1h1l1 2h-1l-2-1v1h-1a20 20 0 0 1-2-4 37 37 0 0 1-1-5l1-1 1-1h1l3 1-3-3h-2l1-4a18 18 0 0 0 0-4l2 1 1-7h1l-1-2h1v-6h1a32 32 0 0 0 1 3 11 11 0 0 0 1 2c1-1 0-2 2-3l-1 6 1 1-1 2a8 8 0 0 0-1 2c-1 0-2 3 0 5h-2a13 13 0 0 1 0 2 8 8 0 0 1 0 2l-1 3 1 2zm17-59h-1l-1 1a20 20 0 0 0-1 3 15 15 0 0 0-1 3l1 1-1 3-1-2a3 3 0 0 0-3 3 2 2 0 0 1 0 1v3l1 2-2-1a17 17 0 0 1 1 4 5 5 0 0 1-1 1v2l-1 3a13 13 0 0 0-1 1 8 8 0 0 0 0 2l-1 2h-2v-3l-1-3a16 16 0 0 1 3-9l1-3 1-1 2-7h1c1 1 0 2 3 3l-2-5c2 0 1-3 2-4v-2l3 1 2 1a2 2 0 0 0 0-2v-2-2l1-3 1 1h1a10 10 0 0 0 1 2v3l-3 4-2 4-1 1a9 9 0 0 1-2 1l3-7zm-20 92a3 3 0 0 1 0 1 11 11 0 0 1-1 1l-1-1c-1-1 1-2 2-3a7 7 0 0 1 2-1 7 7 0 0 0-1-1 2 2 0 0 0-1-1 5 5 0 0 0-2 1 98 98 0 0 1-2-2c2-1 1-2 1-3l-1-6v-1l-1-5a3 3 0 0 1 1-3h2c2 1 1 2 2 3h2a5 5 0 0 1 1 1 16 16 0 0 1 0 3c-3 0 0 1-1 2h-2l1 1 2 1a7 7 0 0 0 0 1c0 2 0 2 4 2l-1 1a7 7 0 0 0-2-1 6 6 0 0 1 0 1v3l-1 4h-1l2 1a4 4 0 0 1 0 2zm81-140v-3a34 34 0 0 0 3-2l4-1 8-2 4-2 2-1h3l6-2a36 36 0 0 1 4 0v2a25 25 0 0 1-3 0 5 5 0 0 0-1 0 3 3 0 0 0-1 1l-5 1-6 2-5 2s-1 1-2-1c0-1-2 0-1 2l-5 2-5 2zm75-56l-3-2 9 1a39 39 0 0 1 9 3c0-2 1-1 2 0a5 5 0 0 1 1 1 10 10 0 0 1 2 3l-5-1-5-1-5-1-5-1zm31 7c1 1 2 0 3-1v2l2-3v4a10 10 0 0 1 4 1 5 5 0 0 0 3 1l3 2 1-2 1 2v-2a28 28 0 0 0 6 2 7 7 0 0 1 4 4c-1 2-1 2-3 0a17 17 0 0 0-2-3v3a8 8 0 0 1-2-1l-3-1-2-1a28 28 0 0 0-6-2 24 24 0 0 1-5-2l-4-1-3-1a5 5 0 0 1-2-2v-1a42 42 0 0 0 5 2zm-120 35l-5 3-1-2-2 3c0 1-2 2-3 1-2 0-2 2-4 1l1-2 3-2a26 26 0 0 1 4-2l4-1a14 14 0 0 0 2-1 4 4 0 0 1 1-1v3zm-92 69h-1a6 6 0 0 1 2 4 14 14 0 0 1-1 4l-2-2-3 2a15 15 0 0 1 0-3 9 9 0 0 1 3-7l1 2zm166-112a9 9 0 0 0 2 0 5 5 0 0 0 2 0v-2l3 4-5-1h-14c1-1 3 0 4-4 1 0 3 0 4 3l3-1a13 13 0 0 0 1 1zm-90 74v-2l-1 1v-2l3-2 2-2a6 6 0 0 1 1 1l-2 4h-1a3 3 0 0 1 0 2 2 2 0 0 1-2 1 13 13 0 0 0 0-1zm3-87l-3 3h-4l-1 1-2-3s0-2 1 0h1c2-2 2 0 3 2l1-3a11 11 0 0 1-1-2 3 3 0 0 1 2-3 6 6 0 0 1 4-1c-4 4-4 4-1 6zm6 76l2-1 4-3 2-1h1l-2 2a29 29 0 0 0-3 2v2c-1 1-1 3-3 1h-1v-2zM372 337c3 0 3 2 4 3l3-1 1 6a5 5 0 0 1-4 2l-2-2 4 1-1-4-3 1-2-6zm45-63v1a9 9 0 0 1-1 0l-1-1a14 14 0 0 1 0-5h4l-2 4h1v-1h1v2zm189-131a20 20 0 0 1-3 1h-2-2l-2 1c0-3 0-3 2-3h8v1a5 5 0 0 1-1 0zm-128 77l1-1a7 7 0 0 1 1 1 2 2 0 0 1-1 1h-1l-1 1a15 15 0 0 0-1 2v2h-2v-1l2-3 2-2zm-82 79a5 5 0 0 1-2-3 4 4 0 0 1 2-4v4zm67 18c-2 0-2-2-1-2v-2c-2 0-2-1 0-2 2 2 2 4 1 6zm-23-115l-2-2 2-2c-3-1-3-1-2-2l2 1 2 2a12 12 0 0 1-1 1h-1v2zm15-47l2-2 3-3v1a4 4 0 0 1-2 3 6 6 0 0 1-3 1zm74 13h-1 2l1 2-1 1h-1v-3zm45-54a3 3 0 0 1 0-2 41 41 0 0 1 5 1 4 4 0 0 1-3 2 2 2 0 0 1-2-1zm107 27v1l5 3-1 1-5-4 1-3 3 2h-1zM412 278v-1l3-1 1 4c-1-1-1-3-4-2zm2-111c1 2-1 5-3 6zm78 39h-1a9 9 0 0 1-1-1l1-2 2 1-1 1a3 3 0 0 1-1 0 13 13 0 0 1 1 1zm4-81l7-3c0 2-4 3-7 3zm127 39c-1 1-4 0-5-1v-1zm-195 49l2-4 2 2h-2l-1 2 2 1zm165-54c-3 1-3 0-4-2 1 1 3-2 4 2zm-151 41a5 5 0 0 1 1-1l1 1a46 46 0 0 1-3 4h-1l2-4zm227-68v1l-2 2a3 3 0 0 1-2-1l1-3c1 1 0 4 3 1zm-63-16h-6v-1h3zm-115 13l-1-1 5-2c0 3-3 1-4 3zm-43 309l1 2-2 2-1-3zm224-248v2h-1l-1-1a10 10 0 0 1 2-1zm-81-84l-4-1h5zM392 226l-1 1-1-1a15 15 0 0 1 1-3 16 16 0 0 1 1 3zm196-105v1l-4-1 1-1zm-136 64l-1-1 1-2h1l-1 3zm20 44h2v1l-1 2c-2-2 2-1-1-3zm76-83c-1 2-1 2-3 1zm-74-26h-1l2-4v1zm25 23l1 1-1 2-1-2zM373 350v-1h1l2 3-3-2zm68-41l-1-2h1c2 0 1 1 0 2zm8 124l1-1h1l2 2-4-1zm17-199h-1l1-2c-1 0 2 2 0 2zm-50 26c-2 0-2 0-3-2zm17 45c3-1 3-1 4 1zm-37-40h2v1l-1 1zm80-58l1 1-1 2-1-1zm94-94h-3c1-2 2-3 3 0zm140 48l-1 3-2-2 1-1zm-86-16l1 1-2 1v-1zm-174-9l1-3c1 2 1 2-1 3zm35 18v3l-2-2zm-83 234c2-1 2 1 3 2l-3-2zm31-31l1-1 2 1-1 1a9 9 0 0 1-2-1zm-45-149h1l-1 3-1-1zm49 218a11 11 0 0 1-1 1 8 8 0 0 1-2-1h1zm104-318v1l-2 1v-1z"/><path class="cls-2" d="M490 386h-3l-4-4a5 5 0 0 1-1-1l-1-1-1-1a14 14 0 0 1-1-1v-1c-2 1-2 0-3-1s-2-1-2-3h-1a3 3 0 0 1-3-2l-2-1a17 17 0 0 1 1-3 11 11 0 0 1 1-1h1a25 25 0 0 1 2 2 2 2 0 0 0 1 1c1 0 2 1 1 2h1l4 1a7 7 0 0 1 2 2 27 27 0 0 1 4 4l1 4 2 2 1 2zM448 376c2 0 3 2 6 1h1c0 3 3 1 3 3l5-4c0 2-1 3-4 4a2 2 0 0 0 0 2l2 1 3 2a5 5 0 0 1 1 1 12 12 0 0 1 1 2v1a5 5 0 0 1-1 0 12 12 0 0 1-4-1l-4-4a8 8 0 0 0-2-1 7 7 0 0 1-2-1h-4a5 5 0 0 1-1 0l1-2c-2 0-5 0-5-2l-1-1c-2 0-2-2-1-3 1 1 4 0 4 2a10 10 0 0 0 2 0zM478 384a4 4 0 0 1-1 0l-3-2-2-1-1-1a7 7 0 0 0-2-1c-2-1-2-2-2-4l-2 1v-3l-2 1 1-2-1-1a2 2 0 0 0-2-1h-1l2-3 2 1a4 4 0 0 0 1 2 8 8 0 0 0 2 1 1 1 0 0 1 1 1c-1 1 0 1 1 1a2 2 0 0 0 1 2 6 6 0 0 0 1 1 4 4 0 0 1 1 0l3 3 2 2a10 10 0 0 1 1 2zM539 426l2 1 3 1 4 2 4 2 2 1 3 1 4 2 5 1 2 1 3 1 4 2a37 37 0 0 1-4 0 33 33 0 0 1-3-1l-4-1a25 25 0 0 1-3-1 136 136 0 0 1-22-11zM466 339l2-1c-3 1-3 0-3-1 3 0 5 1 4 2 3-1 2 0 2 1a14 14 0 0 0 2 3 33 33 0 0 0 1 4l1 1v1a5 5 0 0 1-2 0c-1 1-3 1-2-1 1-1 0-2-1-2-2 0-2-1-2-2v-1l-1-1-1-1a11 11 0 0 1 0-2zM490 386l3 1 3 1a2 2 0 0 1 1 1v1h2v1l-1 1 3 1c0 3 2 3 4 3v1c-2 1-4 0-5-1l-4-3-2-2v-1a3 3 0 0 1-3-1l-1-2v-1zM369 306a2 2 0 0 0 1 1c2 2 2 2 0 5-2-2-5-3-6-6a16 16 0 0 1 2-8l1 2 4-1 1 5-3 2v-2a1 1 0 0 0-2 0l2 2zM507 375l6 3a26 26 0 0 1 3 2 15 15 0 0 1 2 2l1 1c-2 2-2 1-2 0v-1a24 24 0 0 0-3 1c0-2 1-3-1-2l-1-1-2-2a2 2 0 0 1-2 0l-2-2 1-1zM499 380l3-3 3 2 1 1a18 18 0 0 0 1 1l1 1-2 1a5 5 0 0 1-2-1l-2-1-3-1zM524 387a4 4 0 0 1 1 0l1 2h2a5 5 0 0 0 2 2 5 5 0 0 1 2 1l2 2a4 4 0 0 0 1 1l-1 1-1-1a17 17 0 0 1-4-2l-2-3-1 1a5 5 0 0 1-2-2 10 10 0 0 1-1-2zM463 268v3a24 24 0 0 0 0 2v6l-1-1-1-2c0-2-2-4-1-6a12 12 0 0 1 2-2zM479 356a9 9 0 0 1-2-1 4 4 0 0 1-2-2l1-1a11 11 0 0 1 3-1 7 7 0 0 1 2 0 19 19 0 0 1 2-1 2 2 0 0 1 1-1v1a12 12 0 0 1-1 1 11 11 0 0 0-3 1 2 2 0 0 0 0 1 4 4 0 0 0 1 2zM421 345l-2 1c2 1 3 2 2 4l2 2h-1c-2-1-4-3-4-5a9 9 0 0 0-4-5l1-1 6 3v1zM457 448l1 1a16 16 0 0 0 2 1l2 1h1l3 3a20 20 0 0 0 3 1l-1 1h-4v-1h1a14 14 0 0 0-10-4l1 1h-1l-3-5c2 0 3 2 5 1zM495 368h1l1-2 1 1-1 1-1 2v1a2 2 0 0 0 1-1c3-2 4-2 4-1a7 7 0 0 1 0 1h-3l-2 2h1a11 11 0 0 1-2 0l-1-1c-1-1-1-1 1-3zM489 364c1 1 3 0 1 3l1 1c3-1 3-1 2 2l-1-1h-3-2v-2a29 29 0 0 0 2-3zM373 258l-3-3c1-3-3-5 0-7 0 2 0 4 2 4l2-1-3-3a12 12 0 0 0 3 1l2 2c-2 2-2 4-2 6l-1 1zM463 291l-4-1v-3a6 6 0 0 1 2-3l1 1v3l1 3zM464 256a6 6 0 0 1 2 4 4 4 0 0 1-1 1 4 4 0 0 1-1 2c-2-2-1-3-1-4h1c-2-2-1-2 0-3z"/><path class="cls-2" d="M453 374l4-1c-1 2 1 2 3 2 1 1 1 2-1 3h-1a10 10 0 0 1-2-2h-2c-2 1-1 0-1-2zM561 458h-2l-3-1-5-1-1-1c2-1 4-2 5 1h1l5 1zM387 386l2 1h1l-5-6a8 8 0 0 1 5 4l4 5h-3a35 35 0 0 1-4-4zM467 321l2 3a9 9 0 0 1 1 2l-1 1h-1l-2-3v-3zM467 401a19 19 0 0 0-2-1h-2l-1-1c-2 0-3-1-4-3a6 6 0 0 1 5 2l4 2zM495 376l2-2v-1c2-1 2 0 0 2a25 25 0 0 1 2 2l-1 1-3-2zM501 403l5 1 1 2-1 1-3-2c-1 1-2 0-2-2zM535 471c-1 2-2 2-3 1h-5a33 33 0 0 1 3-2h2zM491 359a3 3 0 0 1 1 1 16 16 0 0 1 2 1 1 1 0 0 1 0 1 4 4 0 0 1-1 1 1 1 0 0 1-1-1l-2-2zM509 401h-2a15 15 0 0 1-3-2l1-1 2-1c-1 2 0 2 1 2a6 6 0 0 1 1 0zM476 415c0-2 1-2 2-2l1-2 5 2-1 1-3-2v2l-4 1zM400 282l-2-1a6 6 0 0 1 0-3h2a34 34 0 0 1 0 4zM432 369h1v1l-4-1c2-2 1-3 0-3l-3-1 5 1 1 1v2zM408 413l5 5v1a7 7 0 0 1-1 0 40 40 0 0 1-4-3 12 12 0 0 1-1-2zM421 332v-1a2 2 0 0 1 1 0c1 0 3 2 2 3a1 1 0 0 1-1 0l-2-2zM569 415l-3-2-3-1h3a6 6 0 0 1 3 3zM511 386l-2-2-2-1a13 13 0 0 1 3 0 3 3 0 0 1 2 2zM422 360h2l1-2c2 1 1 2-1 4a2 2 0 0 1-1 0 26 26 0 0 1-2-2zM396 390l-5-5 1-1 4 2h-2l2 3zM501 402l-2 1-2-1 1-1-2 1c1-1 2-2 3-1a8 8 0 0 0 2 1zM522 386c-2 2-2 0-3 0l1-3 2 3zM476 415l2 2v1l-2-1-3-2h3zM513 410c-2 0-4 0-5-2l6 1zM453 395l3 2c-2 2-4 1-3-2zM494 99l-4 2-2-3 2-1 1 2 3-1v2zM461 280c2 2 1 3-1 3v-3zM487 362c-4 2-4 2-6 0h6zM533 449l-3-1-3-1 4-1 2 3zM448 374a20 20 0 0 1-1-3v-1a2 2 0 0 1 2 0v3zM541 487h7c-2 2-5 2-7 0zM521 482l-4-1-1-3 3 2 2 1zM513 190l-3 2c0-2 0-3 3-2zM465 349c3-1 4-1 3 1zM397 399c2 1 3 3 2 5l-3-5zM461 381l2-1 1 1h-2-1zM474 334h-2v-2a30 30 0 0 0 2 2zM539 472c0 2 0 2-3 0l2-1a4 4 0 0 1 1 1zM404 313l1 4h-2a6 6 0 0 1 0-2 8 8 0 0 1 0-2zM486 405a3 3 0 0 1 5 1zM471 331l-2-2c3-1 2 1 3 2zM470 365h-3l1-1a5 5 0 0 1 2 0v1zM408 406l1 2 2 2h-2a11 11 0 0 1-2-3zM471 413h2l-1 2a2 2 0 0 1-1 0v-2zM491 469l-4-2c3-1 4 0 4 2zM370 261l-2-3h3a6 6 0 0 0-1 1 5 5 0 0 0 1 2zM373 232l1 2h1l-2 1h-1l1-3zM491 469l4 1-1 2-3-3zM505 374c-1 0-2 0-1-1l1 1zM559 441h2c0 1 0 2-2 0zM374 242c-2-1 0-3 0-4zM385 209l-1-1 1-4 1 1zM487 448h4v1h-5l1-1zM454 400l3-3 1 3-1 1-1-1c2-2 0-1-2 0zM370 294v-4h1v4h-1zM459 393c-2 1-3 2-3 0h3zM409 395l-3 1 1-2zM576 471h-3c1-2 1-3 3 0zM485 426l3-1c-1 2-1 2-3 1zM473 460a8 8 0 0 1 1-2l1 1 1 2-3-1zM513 402l1 2-1 1-1-2 1-1zM442 446l-2-1h-2v-1l4 1zM465 345l1 2c-2 0-2 0-1-2zM464 335l2 1-1 1-2-2zM483 465l-4-2v-1l5 3h-1zM523 472l-3-1h4zM458 242c2 1 2 3 0 3v-3zM452 293c-1 0-3 0-2-1l1-1zM800 564v-1l-1 1 1 2h2v2l1-1-1 1h1l1 1h2s2-1 0 0l3 1-1 1h1v1l-1 1 3-1h1a8 8 0 0 0 1-1c2-1 2-1 1 1 1-1 0 0 1 1h-4v1l-1 1h-1 3a7 7 0 0 1 2 0h1c-1 2 0 1 1 0-2 2-1 2 0 2h-1a7 7 0 0 0 1 1h1l1-1 1-1 1-1-1 2-2 1h1l-1 1h-1v1h-2l1 1 1 1c1 0 0 0 0 0h2c1-1 0 0 1 1l-1 1h1l1-1-1 2h1l2-1-1 1v1h2l-1 1 1-1c1 0 0 0 0 0l-1 1 2-1-2 2h1c1-1 2-2 1 0v1a14 14 0 0 0 1 0h2v2c1 0 1 0 0 0a4 4 0 0 0 0 1l2-1v1h1v1l2-1-4 2 4-1 1-2 2 1h1a4 4 0 0 1 1-1 2 2 0 0 1 1 0l-2 1v1a5 5 0 0 1-1 1 20 20 0 0 1-2 0l-1-1h-1l1 1-3 1a24 24 0 0 1 3-1l1 1h-2 3v1l2-2a9 9 0 0 1 1-1l1 1v1s1-1 0 0h1l-1 1 2-1 2-1v1l-3 2h1s2 0 1 1h1l-1 1 1 1 2 2a3 3 0 0 0 2 0c0 1-1 2 1 1v1a2 2 0 0 1 1 1 4 4 0 0 1 0 1v1h-3v-1h-1v1a10 10 0 0 0-3 2l1-1v2h1v1h1s1 0 0 0v1h1v2l1-2a12 12 0 0 0-1 2h1l2-1 1-1h1l1-1h-1v1l-2-1h1l1-1 1-1a7 7 0 0 0 2 1 7 7 0 0 0 1 2h1a11 11 0 0 1 1 1v1a3 3 0 0 0 1 1s1-1 1 0l-1 2 1-1h1l1-1v-1h2v1h-1l-1 1s-1 0 0 0v1a10 10 0 0 1 1 1l-2 1h2l1-1a13 13 0 0 0 2-1c1 0 1 1 3-1h1a8 8 0 0 0-1 0h-1l-1-1h-1l-1 1v-2l1-1h2c-2-1-2-2-5-1l-2 2h-1l2-1v-1l-1 1 1-1a7 7 0 0 1-1-1l-2 1 1-2-1-1a8 8 0 0 1 1 0 9 9 0 0 1 2-1 1 1 0 0 1 1 1h2l1 1-2 1a5 5 0 0 0 2 0 3 3 0 0 1 1 0h1v1c0 1 0 0 0 0h1a8 8 0 0 1 1 2s1 0 0 0c-1 2 0 1 1 1h-1l1-1 1 2a16 16 0 0 1-2 1 10 10 0 0 1-3 0 14 14 0 0 0-2 1l-1 1 1 1-2 1h2l1-1-2 1-1 2h-1v-1l-1 1v-1l-1 1 2 1a13 13 0 0 1 1-1l2-1 1-1-1 1-1 1 2-1-1 1 2-1 1-1v1l-2 1 2-1-1 1h-1v1l2-1a3 3 0 0 0 0-1 11 11 0 0 1 2-1v2h-2 1v1h-1l2 1-2 1 2-1a6 6 0 0 0 1-1h1a8 8 0 0 0 1 0h1c1-2 0-2-3-1l3-1a10 10 0 0 1 2 0h2a3 3 0 0 1 1 0l1 1h1a3 3 0 0 1-1 1h2c1 1 0 0 0 0-1 1-1 1 0 0a4 4 0 0 1 2 0l-2 1v1h3v1c-1 1 0 1 0 0h1v1l1-1v1c-1 0 0 0 0 0h2l-2 1h3c1-2-2-1-1-3h-1l2-1h-1l1-1a1 1 0 0 0-1 0l-1 1v-1l-1-1a3 3 0 0 0 0-1h-2c1-1 0-1-1-1a1 1 0 0 1 0-1l-1-1-1-1v-1h-1a8 8 0 0 0-1-1h-1l1-1 2-1-2 1a2 2 0 0 0-1 0v-1h-2l1-1 2-1h-2 1l1-2h-2v-1l1-1 1-1-3 1-1-1-1-1-1-1v-1h-1v-1a16 16 0 0 1-2 0 5 5 0 0 1-2-1l-1-1 1-1v-1a2 2 0 0 0-1 0l-1-1a4 4 0 0 0-1 0h-1l1-1h-1a11 11 0 0 1-2-2 3 3 0 0 1-1 0l2-2s1 0 0 0l1-2-1 1a19 19 0 0 0 0-3l-1-1a4 4 0 0 1-1 0l-3 2v1h-1a3 3 0 0 1-1-1v-1a3 3 0 0 0-1 0h-2l1-1h1v-1h1l1-2a1 1 0 0 1-1-1l-2 1 2-1a1 1 0 0 1 0-1l-1-1-1 1 1-1-3 2 1-2a2 2 0 0 1 0-1l-1-1h0v-1-1a14 14 0 0 0-2 0h-1c-1 0-1-1-3 1a2 2 0 0 1-1 0s1 0 0 0l-2-2 3-2h1v-1-1h-1c-1 1 0 0 0 0v-1a6 6 0 0 0-1-1l-1-1h-1l-1-1a10 10 0 0 0-1-1v-1l-1-1h-1v-2h-2v-1l-1-1c-1 1-1 0 0 0l-1-1h-1c0-1-2 0-1-1h-1v-1a6 6 0 0 1-1-1 5 5 0 0 1-1 0 5 5 0 0 1 0-1l-1-1h-1v1l-1-2-1-1h1a10 10 0 0 0-1-1l-2 1c2-1 0-1 0-1v-3l-1 2a10 10 0 0 1-1-1v-1-1-1a9 9 0 0 1 2-1l1 1v1a3 3 0 0 0 1 1l1 1h1c-1 1 0 1 1 1v2h1c0 1 0 0 0 0a14 14 0 0 0 1 2h1v1l1-1v1h1a2 2 0 0 0 0 1h1v1l1 1h1s2 0 1 1v1a7 7 0 0 1 1 0 8 8 0 0 0 2 0h1a1 1 0 0 1 0 1l1 1-2 1a1 1 0 0 0 1 1h1l1 1 2 1s1 0 0 0v1l1 1a4 4 0 0 1 1 0v1l1 1h1v1a15 15 0 0 0 1 0l2 1 2-1a15 15 0 0 0-2 2 4 4 0 0 0 1 1l1 1v1h-1 2v1h1c1 0 0 0 0 0a9 9 0 0 1 1 1l-1 1 2 1h1v1h2v1h1l1 1c2-2 1-2 1-3a7 7 0 0 1 1 0l1-1 1-1 2-1-1 1-2 1h1v1l-2 1-2 2 1-1-1 2a11 11 0 0 0 2 2h1l1 1 1 1 1 1h2l-1 1a7 7 0 0 0 1 1 10 10 0 0 1 1-1v1a5 5 0 0 0 1-1h-1l-1-1-1-2a2 2 0 0 1 0-1h1l1-1-1 1 2-1a11 11 0 0 1 2-1h3a15 15 0 0 1 1 1l-1 1-1 1a4 4 0 0 0-2 1h3v1l1 1c1 0 1 1 3-1l-1 1a4 4 0 0 0 0 1c-1 1-1 2 1 0l2-1-2 1-1 2 3-2 2-1 1-1-1 1v1a2 2 0 0 1 0 1l1-1 1-1a3 3 0 0 0 1-1l1-1a4 4 0 0 0 2 0 2 2 0 0 0 1-1 3 3 0 0 0-1 0 7 7 0 0 0-1 0 6 6 0 0 0-1 0l-2 1c-1 0-1 0 0 0l1-1 3-1h-2a6 6 0 0 1-1 1v-1h1a7 7 0 0 0 2-2 9 9 0 0 1 1-1l1 1h1l3-1h-2l-1-1-1-1a4 4 0 0 0-1 1l-1 1v1a3 3 0 0 1-1 0 4 4 0 0 1-1-1 7 7 0 0 1-1 0l-1-1-2-1v-1h1l2 1h3l1-1-2-1 1-2h2l1 1v1h3v1h1v1l1 1 1-1v-1l-1-1c1-1 0-2-1-1v-1-1l-1-1h-1a8 8 0 0 1-1-1l-1 1c2-2 1-2 0-2v-1h-2l1-1 1-2a18 18 0 0 0-2 1v-1a6 6 0 0 1 2-1v1l2-1h1l1 2h1a5 5 0 0 0 2 0h1v-1-1c0-1 0 0 0 0a4 4 0 0 0-1 0c-1 0 0-2-2-1a12 12 0 0 1 2-3h1l-1-1v-1h-1a7 7 0 0 1-1-2l-1-1h-1l-1-1h-1s0 1 0 0c1-1 0 0 0 0l-1 1 1 2h-2v-1l-1-1a6 6 0 0 1-1-1l-1 1-1-1h2l-1-1h-1v1l-1-1v-2h-1l-1-2-2-1-1-1h-1v-1l-2-2v-1c2 1 3 3 5 3v-1c-1 1-1 1-1-1 1 0 0 0 0 0 1-1-1 0-1-1h-1v-1h-1a8 8 0 0 0 0-1 2 2 0 0 0-1-1h-1l-1-1-1-1a13 13 0 0 0-1-1 11 11 0 0 0-1-1v-1h-1l-1-1-1-1a3 3 0 0 0-1 1l-3 2v1l-2 1-1 1h1l-1 1a2 2 0 0 1-1-2l1-1v-1h3l1-2 2-2-2-1h-1v-1l-1 1-2 1-1-1 1-1a8 8 0 0 1 0-1l-2 1v-2 1l-1 1 1-2a8 8 0 0 1-1 1 4 4 0 0 1 0-1h1l1-1v-1h-1l-1-1a4 4 0 0 1-1-1l-1-1a16 16 0 0 0-2-1l-2-2-1-2h-1l-1-1-2-1-1-1-2-2-1-1-1-1-1-1a15 15 0 0 0-1-1l-2-2-2-2-2-1a6 6 0 0 1-1-1l-1-1-1-1v-1l-2-1-2-2-2-2-1-1a12 12 0 0 0-1-1l-2-1v-1l-2-1a8 8 0 0 1-1-1v-1l-1-1a4 4 0 0 0-2-1 10 10 0 0 1-1-2l-1-1a8 8 0 0 0-1-1l-1-1a9 9 0 0 1-1-1l-2-2h-1a10 10 0 0 1-1-2h-1v-1l-2-2v-2l-2-1v-1a12 12 0 0 0-1-2l-1-1-2-2a6 6 0 0 1 0-1 2 2 0 0 1-1-1l-1-1-1-1-1-1-1-2-2-1a35 35 0 0 1-2-3l-2-3v-1s0 1 0 0h-1l-1-2-2-1a5 5 0 0 1 0-1 11 11 0 0 0-1-1l-1-1a15 15 0 0 1-1-1l-1-1-2-1-1-1h-1l-1-2a13 13 0 0 0-2-1h-1l-3-1-1-1a10 10 0 0 0-3 1 22 22 0 0 0-3 2l-5 3a2 2 0 0 0-1 0 8 8 0 0 0-1 0v1l-4 3-4 3h-1l-2 2c-1 0-2 0-1-1a3 3 0 0 0-2 2h-1v2l-3 2a8 8 0 0 1-1 0c-1 1 1 1-1 2a4 4 0 0 1-2 1 12 12 0 0 0-1 1 13 13 0 0 1-2 1h-1l-1 1-1 2v2c0 1 1 1-1 3a13 13 0 0 0-2 3l-1 1h1a1 1 0 0 1 1-1v2l1 1a8 8 0 0 1-1 1v3a6 6 0 0 0 1 1l1 2a7 7 0 0 0 1 1 12 12 0 0 0 1 1v1l1 1 1 1 1 1 1 2c1 0 0 2 2 2a2 2 0 0 1 2 1 8 8 0 0 1 1 2l1 2v2a1 1 0 0 0 1 0 7 7 0 0 1 1 1v1l1 1 2 2v2h1v1a8 8 0 0 0 1 2h1v1a12 12 0 0 1 1 1l1 1 1 1 1 2c1 0 0 2 2 1l1 1a2 2 0 0 1 0 1l1 1a8 8 0 0 0 1 1 3 3 0 0 0 0 1h1l2 1 1 2 1 1 1 1a19 19 0 0 0 2 2v1a3 3 0 0 1 1 0v1l2 2h1a10 10 0 0 1 1 1 12 12 0 0 0 1 1l1 2 1 1h2c-1 2-1 2 1 2-2 1 0 0 0 0v1l1 1h2-1v1l1-1v1 1c1 1 2 0 1 1l2 1v1a8 8 0 0 1 1-1v1h1c1 0 0 0 0 0v1a6 6 0 0 0 1 0s0 1 0 0c2 0 1 0 1 1l1-1v1l-1 1h1a8 8 0 0 0 1 0v1h2c1-1 1-1 0 0l-1 1h1l1 1v1h1c-1 1 0 0 0 0v1l2 1v1c0 1 0 1 0 0l1 1v1h3s1 0 0 0v1c1 0 2 0 0 1zm60-28c-2 1-2 1-1-1l-2 1a4 4 0 0 1 2-1zm12 10v1l-2 1 1-1h-1a5 5 0 0 1 1-1v1l1-1zm-71 13a5 5 0 0 1 0 1h-1a5 5 0 0 1 0-1h2l1-1 1 1h-2c0-1 1 0 0 0a6 6 0 0 1-1 0zm95 4l1-1v2l1-1a3 3 0 0 0 0 1h1a2 2 0 0 1 0 1h-2v-1zm-24 2l1-1a5 5 0 0 1 0 1l1-1h2 1l1 1 1 1c1 0 2 0 1 1h-3-3s1-1 0 0h-1a8 8 0 0 1 1-1l-1 1v-1s0-1 0 0v-1a6 6 0 0 1-1 0zm16-4a3 3 0 0 1 1 1l-2 2 2-1v-1l1 1h-2v1a13 13 0 0 1-2 0 8 8 0 0 1-2 0v-1h1l2-2-3 1-1 1v-1h-2l1-1-1-1 1-1h-2 1l-2-1h2a11 11 0 0 0 1-1v-1l2 1 1 1h1l-1 2a1 1 0 0 1 1 0l1 1h1zm-15-11h-1v1a4 4 0 0 0 1 0 5 5 0 0 0 2 0 6 6 0 0 0 0-1l1 1-1 1v1h2a6 6 0 0 1 2-1l-2 1a12 12 0 0 1 2 0 1 1 0 0 1 1 0l1 1 1 1-1 1h-1-2a3 3 0 0 1-2-1l-1-1c-1 1 0 0 0 0a21 21 0 0 0-2-1l2-2-3 1c1-1-1 0-1-1l-1 1 2-2a7 7 0 0 0 1-1h-1l-1 1h-2l1-1v-1a16 16 0 0 0 1 0l2-1 2 2a3 3 0 0 1 0 1zm20 20l-1 1v-2l1-1a2 2 0 0 0-1 1 9 9 0 0 0-1 0l-1 1-1-1a12 12 0 0 1-1-1l-2-1v-1a9 9 0 0 1 1-1h2l1-1a3 3 0 0 1 1 0 3 3 0 0 1 1 0c-2 1 0 0 0 1l-1 1a6 6 0 0 0 0-1h2l2-1v1a8 8 0 0 0-1 0 2 2 0 0 1 0 1v1a5 5 0 0 1 0 1 3 3 0 0 1 1 0zm-36-37l-2 1a16 16 0 0 0-1-1l-2-2a9 9 0 0 0-1 0l-1-1-2-1a3 3 0 0 1-1-1 5 5 0 0 1 1-1h1l1 1 1 1a19 19 0 0 1 3 1v1h1zm-42 9v1c-1-1-2-1-2-3h-1v-1a8 8 0 0 1 1-1l3 3zm-4-5a7 7 0 0 0-2 1l1-1-2 1 1-1 1-1h-2v-1l-1 1 1-1h-1v1c-1-1-3 0-2-2l2-1a3 3 0 0 0 0 1l1-1a2 2 0 0 0 2 2l1 1a13 13 0 0 1 1 1 3 3 0 0 1-1 1v-1zm37 6a7 7 0 0 1 1 1l-1 1h1v1c1 0 2-1 1 1h-1a5 5 0 0 1-2-2v-1c0-1 0 0 0 0h-1 1a6 6 0 0 1 1-1zm8 29h1-1 3l-1 1-1 1c-2 0-3 0-2-1l1-1zm-39-28a1 1 0 0 0 0-1l-1 1 1-2 3 3-2 1v-2l-1 1a6 6 0 0 0 0-1zm47-4l-1 1h1a3 3 0 0 1-1 0l-1-1a5 5 0 0 0-1 0l1-1a22 22 0 0 1 2 0v1h1a6 6 0 0 0-1 0zm-50 28h1l-1 1h1l-2 2v-1l2-1h-2l-1 1h-2l4-2zm45-29l-1-1a5 5 0 0 1-1 0v-1a13 13 0 0 0 2 1 4 4 0 0 0 1-1c1 0 2 0 1 1a2 2 0 0 0-1 1h-1zm-13 71l2-1 2-1 1 1a13 13 0 0 1-3 2h-1l2-1v-1l-2 2zm21-32l-1 1a6 6 0 0 1-1 0h-1a12 12 0 0 1 2-2v1h1-1l1-1h1zm-36-50a4 4 0 0 1 1 0h2l-2 2-2-1 1-1zm44 18h1v-1 1a3 3 0 0 0 1 1h0l-1 1-1-2zm-17 46c-1 1-2 0-1-1zm42-25v-1c-1 0-2 0-1-1 2 0 2 0 1 2zm-47-1l-2 2v-1l-2 1 1-1 2-1a2 2 0 0 1 0 1 3 3 0 0 1-1 0zm-19 3l-1-1 1-1c2 0 1 0 0 2zm22-34l-1 1v-1l2-2v1zm-36 12a10 10 0 0 1-1 0 13 13 0 0 1 0-1c2-1 2-1 1 1zm-17-16l1-1h-1v-1l1 1-2 2v-1zm61 50l2-2h1l-3 2zm-38 3h2v1zm47-43h-1l-1 1c-1 0-1 0 0 0a12 12 0 0 1 1-1h1zm-47 21l-1-1c2-1 2 0 1 1zm11-45h1v1zm15 55l-1-1 2-1-1 1h1l1-1zm-9-50v1s-2 1 0-1zm10 44v-1a4 4 0 0 1 1 1 7 7 0 0 1-1 1 4 4 0 0 1 0-1zm-49-32l1-1 1-1 1 1a14 14 0 0 1-2 1c0-1 2-2-1 0zm12 7l1 1zm12 21l-1 1v-1h1zm43 60l-2 1v-1zm-45-116v-1h1v1a16 16 0 0 1-1 0zm-13 41v2-1zm27 42h-2a7 7 0 0 1 2 0zm-18-48h1v1zm27 23h-2l1-1zm29-16l1-1v1h-1zm-36-10h1zm-22 33v1h-2zm17-16l1-1h1l-1 1zm9 58a6 6 0 0 1 1-1 4 4 0 0 1 1 0v1h-2zm41-40l-2 1 1-1h1zm-14 46l1-1v1zm5-68l-1 1v-1h1zm-16 26l-2 2zm19-1l2-1zm-29 12l2-2v1h-1zm16-39l1-1h1l-1 1zm-48-1c0 1-1 1 0 0zm-23-21l1-1zm29-1l1-1h1v1zm-3 50h-1 1zm19-20h1l-2 1 1-1zm17 58l1-1c1 0 0 0 0 0zm23-22a8 8 0 0 1 1-1v1h-1zm-51-1h2-1zm38 28h-1zm-50-63l1-1v1zM909 590h-1l-2-1v-1a2 2 0 0 1-1 0s0-1 0 0l-1-1h-1c1 0 0 0 0 0l-1-1h-1l1-1 1-1h1a3 3 0 0 1 0 1h3a1 1 0 0 1 1 0l1 1v3a4 4 0 0 1 0 1z"/><path class="cls-2" d="M888 595l3-2h1c-1 1 1 0 1 1l4-3-3 2v1h1l1 1-1 1a7 7 0 0 1-2 0h-2a4 4 0 0 0-1 0h-1l-1 1a10 10 0 0 1-1 0l1-1h-3v1-2h3zM903 591l-3-1v-1l-2 1v-1l-1 1 1-2a2 2 0 0 0-1 0h-1l2-1h2s1 0 0 0l1 1h1a15 15 0 0 1 2 2zM914 609a28 28 0 0 1 1 13 4 4 0 0 1-1-1 7 7 0 0 1 0-1v-1a6 6 0 0 1 0-1v-9zM903 574l1-1h-1 3l1 1a13 13 0 0 0 1 1 8 8 0 0 1-1 1h-1-1l-1-1a7 7 0 0 1-1 0v-1zM909 590h3v1h1-1l-1 1h2v2c-1 1-2 0-2-1l-1-1v-1c-1 1-1 0-1-1zM843 605a1 1 0 0 0 1 0v1l-4 2v-2h1l2-2h2a16 16 0 0 1-2 1s1 0 0 0a4 4 0 0 0-1 1l1-1zM922 582c2 1 3 2 3 4-1 1-1 1 0 0v-1a15 15 0 0 0-2 1v-1-1h-1l-1-1 1-1zM916 585l2-2 2 1v1a12 12 0 0 1-1 1 1 1 0 0 1-1 0h-1zM926 588h1v1h1v3a3 3 0 0 0 0 1h-1a3 3 0 0 0 0-1l-1-1a8 8 0 0 1 1-1h-1a1 1 0 0 1 0-1 5 5 0 0 1 0-1zM890 555l3 1-1 1h-1l-2-1a5 5 0 0 1 0-1zM910 577a10 10 0 0 1-2 1 1 1 0 0 1-1-1l1-1a16 16 0 0 1 2-1 8 8 0 0 1 1-1l2-1a3 3 0 0 1 1 0h-1v1l-2 1a1 1 0 0 0 0 1zM875 592l-1 1c1 0 2 0 1 1h1l-1 1-2-1h-2a8 8 0 0 1 1 0l3-2zM871 624v1a6 6 0 0 0 1 0h1v1c0 1 0 0 0 0v1h-2l1-1h-3v-1l2-1zM917 580h1v-1h1l-1 1v-1l-1 2a2 2 0 0 0 1 0l2-2a4 4 0 0 1 0 1l-1 1h-1l-1 1a3 3 0 0 1-1 0v-1l1-1zM914 579c1 0 2 0 0 1h1v1h-2-1 1l1-2zM838 598a11 11 0 0 1-2 1s-3 2-2 0l2-1a2 2 0 0 0 1 0l-2 1 2-2 1-1v2zM896 559l-2 2-1-1a2 2 0 0 1 1-2h1l1 1zM886 553c2-1 3-1 3 1h-2v-1h-1z"/><path class="cls-2" d="M891 592l3-1h1l-1 1a4 4 0 0 1-1 1v-1l-1 1c-1 1-1 0-1-1zM902 628l-1-3 1-1v2a10 10 0 0 1 1 1zM851 618h1l1-1-3 1 4-1a4 4 0 0 1-1 1 5 5 0 0 1-2 0zM904 566l1 1v1h-1-1v-1zM892 601a9 9 0 0 0-1 0l-1 1 1-1h-2c3-2 3 0 4 0zM915 584l2-1v-1 1a6 6 0 0 1 0 1 6 6 0 0 1-1 1zM909 597a6 6 0 0 1 2 1h-1v1l-1-1v-1zM889 631l-2 1h-1l2-2 1 1zM916 576a2 2 0 0 1 1 0 3 3 0 0 1 1 1 6 6 0 0 1-1 1h-1a10 10 0 0 1 0-1zM914 595l-1 1a3 3 0 0 1-1-1l1-1h2l-1 1a2 2 0 0 1 1 0zM893 606a3 3 0 0 1 1-1l1-1h2-1-1v1l-2 1zM858 588a10 10 0 0 1-1 0h-1a2 2 0 0 1 1-1 4 4 0 0 1 1 0zM880 597l-2 1c2-3-1-1-1-1l2-1h1v1zM857 621a16 16 0 0 1 2 0l-1 1a6 6 0 0 1-1 0h-1zM875 589a1 1 0 0 1 1-1h2a3 3 0 0 1-1 0 2 2 0 0 1-1 1h-1zM928 608l1-3c1 0 1 2-1 3zM921 587l-1-1c1 0 2 0 1 1zM875 597l1-1 1-1-1 2a4 4 0 0 1-1 0zM855 616h-1l2-1-1 1h1zM910 597h-3l2-1 1 1zM926 587h-1a12 12 0 0 1 1-1v1zM893 606a3 3 0 0 1 0 1h-1l-1-1h2zM912 600c-1 0-2 0-1-1l1 1zM886 601l2 1c-2 1-3 1-2-1zM811 572v1l-2 1 1-1 1-1zM893 558v1l-1-1zM913 578l-3 2zM900 620v-1s2-1 0 1zM888 594a2 2 0 0 1 0-1 4 4 0 0 1 1 0 3 3 0 0 1 0-1v1zM882 639l1 1c-1 1-2 0-1-1zM879 636h-1l2-2v1zM867 535h1-1zM902 578h2zM854 619v0zM895 593l1-1a4 4 0 0 1 0 1h-1zM908 569h-1zM889 632h-1a5 5 0 0 1 1 0c1 0 0 0 0 0zM864 591l1 1h-1zM901 600l2-1zM906 569h-1l2-1zM903 584a8 8 0 0 1-2 1l1-1a5 5 0 0 1 1-1v1zM859 619h1-2z"/><path class="cls-2" d="M891 606h1a14 14 0 0 1-1 0l-1 1 1-1zM876 630c1-1 1-1 0 0zM837 600l-2 1 2-2v1a4 4 0 0 0 0-1zM832 597h1v1h-2zM876 630l1 1-1 1v-2zM921 582v-1 1zM912 619c-1 1-1 1 0 0zM835 597h-2 1zM830 593h-1l1-1zM884 621l2-1-1 1h-1zM886 603l2-1v1h-1c1-2 0-1-1 0zM842 603l1-1v1zM890 599l-1 1zM862 614a6 6 0 0 1-2 1l1-1zM897 636v-1 1zM893 610l1-1-1 1zM873 628l1-1v1zM915 596v1l-1 1v-1zM865 626h-2 2zM902 577h1-1zM902 573h1-1zM875 629h-1l1-1v1zM885 631h1zM878 555h0zM891 565l-2 1a8 8 0 0 1 1-1z"/></g></g></svg>