<svg xmlns="http://www.w3.org/2000/svg" viewBox="0 0 1280 720"><defs><style>.cls-1{fill:#c9171e;opacity:0.7;}.cls-2{fill:#fcfaf2;}</style></defs><title>アセット 28</title><g id="レイヤー_2" data-name="レイヤー 2"><g id="レイヤー_1-2" data-name="レイヤー 1"><rect class="cls-1" width="1280" height="720"/><path class="cls-2" d="M563.61,78.33c1.64-.3,2.83-.42,4-.54,0,0,.11.71.17,1.08l2.74-1.34-.12-.65a12.39,12.39,0,0,0-1.79-.24c-4.24,0-8.47.48-12.7.82a6.77,6.77,0,0,0-2.35.22c-1.7.86-3.25,2.18-5,2.94-.69.31-1.71-.28-2.56-.59-.69-.26-1.42-1.1-2-1-1.07.2-2.53.33-2.08,2.6l-1.75.14c-.1-.66-.2-1.22-.3-1.84-.9.16-1.82,0-2.46.48a12.22,12.22,0,0,1-5.39,1.94,32.29,32.29,0,0,0-5.44,1.2,30.21,30.21,0,0,1-2.58,3c-.89.79-1.63,2.83-2.82,1a34,34,0,0,0-6.36,1.87,16.51,16.51,0,0,0-2.84,1.53,13.88,13.88,0,0,0-2.46,2.28c-1-1.46-2.89-1.7-3.58-.82a4.22,4.22,0,0,1-1.85,1.06c-.34.14-.8,0-1.15.06-1.1.31-2.15.76-3.22,1.18l-.18-.46.91-1.82L496.4,94c1.1,3.7.5,4.87-2.77,5.49l0-.08c.11.21.35.56.31.61a11.54,11.54,0,0,0-2.05,3.21c-.73,2.65-1.7,3.38-3.91,2.45a4.25,4.25,0,0,1-3,1.89,12.08,12.08,0,0,0-3.34,1c2.17-2.7,4.5-5.23,6.87-7.8l-.19-.31-3,1.34,1-3-.43-.45a17.93,17.93,0,0,1-3.23,2.62c-2.09,1-4.1,2-5.54,4.16a20,20,0,0,1-2.61,3.1c-.93,1-1.88,1.92-2.82,2.88-.66.69-1.69,1.74-2.38,1.44-2.27-1-1.77.58-1.5,2a5.5,5.5,0,0,0-2.37-.37,3.92,3.92,0,0,0-1.72.68,10.1,10.1,0,0,0-2.3,2.75c-.81,0-1.46-.13-1.83.13-.89.63-1.77,1.29-2.64,2l-2.51,2.13.43.55,2.35.16-1.48,3.1c.12.37.45,1.34.82,2.44l-4.6-.29c2.12-4,2.14-4,1.76-5.09-1.08,1-3.12,1-2.58,3.52,0,.24-1,.63-1.67.59a4.48,4.48,0,0,1-1.57-.75c.35-.55,1-1.4,1.8-2.54l-2.32-.16,3.67-4.12-.41-.46-3.8,3.51c-.9.83-1.66,1.82-2.61,2.56s-2.09,1.07-3,1.8c-1.51,1.24-2.85,2.68-4.29,4a7.77,7.77,0,0,0-2.19,3.53c-.57,1.74-2.19,2.85-3.28,4.3-2.67-1.62-2.93.75-3.94,1.84-.44.47-.86,1-1.32,1.49.22.34.51.8,1.05,1.62-1.9-.84-2.85-.57-3.57.67a12.36,12.36,0,0,1-3.28,4.07c-1.55,1.15-2.92,2.12-.93,5a11.31,11.31,0,0,0-2.4-.4c-.53,0-1.25.21-1.37.6-.49,1.52-.77,3.13-1.13,4.81l-1.95-.58a13,13,0,0,1,.14,2.13,1.6,1.6,0,0,1-.6,1.17c-1.15.74-2.4,1.38-3.55,2,.36,1.17.65,2.09,1.09,3.53L407,164c-.34,1.32-1,2.32-.74,3.3.52,1.77,1.46,3.35-1.46,3-.31,0-.5.5-.82.69-.86.48-1.8.88-2.63,1.41a2.58,2.58,0,0,0-1.17,1.21,37.35,37.35,0,0,0-1,4.51c-.27,1.45-.49,2.89-.78,4.3a1,1,0,0,1-.57.62,9.49,9.49,0,0,0-3.6,3.14,9.63,9.63,0,0,0-1.39,4.55,2,2,0,0,1-.72,1.14,22.62,22.62,0,0,0-2.32,2.15c-.87,1.14-.2,1.85,1.76,1.82l-2.77,5.39-.87-.11.18-1.22c-1.36,1.21-2.78,2.13-1.32,4.09a2.29,2.29,0,0,1-.06,2.14,16.86,16.86,0,0,1-2.15,2.6l.09,0,1.06,2.86c-3.44-.19-1.87-2.88-3.81-3.93-.59,2.3,1.76,4,2.55,5.84l3.35-1.78.6.43a10.19,10.19,0,0,1-.68,3.6,33.86,33.86,0,0,1-1.43,3.36c-1,2.21-2.18,4.45-2.21,7l1.76-.13c.24.51.68,1,.67,1.41a21.17,21.17,0,0,1-.34,2.77L383.8,229c-.11-.06-.29,0-.23,0l-1.6,1.21c-.24-.36-.71-.76-.7-1.08.05-1.43.11-2.87.19-4.31s.31-2.84.52-4.25c.13-.87.86-1.57,1.2-2.38s.6-1.77.9-2.65l-.95-.37-2,5c-1.46-1.45.66-3.2-2.34-4.73.81,2.37,1.9,4.3,2,6.09.09,1.24-1.24,2.31-2,3.86-.4-1-.62-1.46-.93-2.25a4.5,4.5,0,0,0,.88,4.87,2.4,2.4,0,0,1,.6,2.15,22.92,22.92,0,0,1-2.18,2.76c-.19.27.07.78.17,1.34,1.38-.92,2.49-1.62,3.52-2.28a32.12,32.12,0,0,1,.85,4.71,5.49,5.49,0,0,1-1.06,3.81c-.9.95-2.25,2.84-1.9,4.1.25.88,1.54,2-.33,2.63-.32.11-.11,1-.14,1.59l1.17-.23c2.12,2.39-.9,2.13-2.68,2.78l3.2.55c-1.61,1.73.06,2.78,2,3.7-.55.55-.95,1-1.36,1.43l-4.11-1.23a62.54,62.54,0,0,1-.77,6.84,7.21,7.21,0,0,0,.39,2.9,2.56,2.56,0,0,1-1,2.85c-.72.57.11,2.2.2,3-.57.81-1.31,1.43-1.42,2.12a45.29,45.29,0,0,0-.24,5.71c-.06,2.3-.19,4.6-.2,6.89s0,4.59.11,6.87a43.41,43.41,0,0,0,.7,8.13c.39,1.85-2,4.09,1.05,5.59.06,0,0,.22,0,.33-.24,2-.5,4.07-.67,6.13a7.51,7.51,0,0,0,.29,1.66c.2,1.38.6,2.73.76,4.11.24,2.07.37,4.17.46,6.26,0,.45-.33.93-.51,1.4-1.48-2.07-1.23-4.54-3.95-6-.42-.23-.29-1.34.06-1.89,1.23-2,0-3.66,0-5.49l-.87-.25c-.25.49-.49,1-.77,1.56-1.75-1.05-2.52-3-5.21-1.92.55,3,.55,3,1.94,3.3a3.62,3.62,0,0,0-1.23,4.55,19.93,19.93,0,0,1,.67,3.44c.19.88.48,1.73.7,2.59.24,1.11,1.25,2.48.69,3.23-1.37,1.88.28,2.67,1.12,3.8.36.47,1.11,1.12.91,1.43a3.6,3.6,0,0,0-.18,4c.61,1.18.77,2.57,1.61,3.6a3.32,3.32,0,0,1-.44,5l2.3-.44c-.81.92-1.83,1.64-1.81,2.25s1,1.18,1.54,1.78a1,1,0,0,1,.26.67c0,2,1.63,3,3.4,3.94.46-.42.9-.81,1.49-1.36.56,1,1,1.87,1.48,2.7l.52-.15c0-.87,0-1.74,0-2.53l1.61-.22-1.71-2.05-.44.21c-.07.41-.13.82-.28,1.75-1.29-2.4-2.33-4.31-3.58-6.64l1.41,1.14c.75-.6,1.35-1.15,2-1.6,1-.66,1.75-1.11,2.16.31a92.06,92.06,0,0,0,3.34,9.26c.26.62.9,1.11,1.08,1.74.67,2.23,1.05,4.57,1.86,6.75.74,1.8,2,3.39,2.78,5.16.54,1.18,1,2.39,1.49,3.6s1,2.38,1.59,3.56c.17.36.62.59,1,.95-.1.28-.57.94-.41,1.33.44,1,.89,2.06,1.39,3.07s1.09,2,1.68,2.92a9.25,9.25,0,0,0,2,2c.72.61,1.94.87,1.16,2.34-.19.38.26,1,.69,1.28,1.44.92,1.51,2.41-.26,4.19l2.43-.91,1.3,1.38c.33-1,.56-1.58.72-2.15s.28-1.18.42-1.76l.72-.42,3.3,3.34,0-.12c0,.65-.07,1.29-.11,2a4.74,4.74,0,0,0-.95.13c-.83.31-1.66.67-2.48,1a5.45,5.45,0,0,0,.64,1.87c.82,1.13,1.89,2.08,2.68,3.21s1.35,2,2,3.06,1.42,2.06,2.18,3.14l-2.79,1.29,2.95.85c.21-.4.43-.81.76-1.47,1.82.73,3.33,1.72,5.19,1.92,2.35.23,2.9,3.31,6.38,1.58.32-.16.85.49,1.28.76l.58-.71a16.2,16.2,0,0,0-2.37-1,3.06,3.06,0,0,1-2.16-1.62c-.86-1.55-2.09-3.22-3.92-3.74a6.92,6.92,0,0,1-4.07-3.29c-.63-1.06-1.14-1.75-2.37-1.36-.33-2.08-.63-4-.93-5.91l.63-.23,3.44,3.09.86-.74c-1.9-2.18-3.69-4.47-5.56-6.69a27.52,27.52,0,0,0-3.17-3.12,22.5,22.5,0,0,0-1.86-1.39,18.51,18.51,0,0,0-2-1.29l-3.13,1.46-1.51-2.16,2-1.32,1.41.34-2.27,1.42c2.62-.95,2.63-1.87,1.66-3-.79-.94-1.55-1.91-2.26-2.92l-2-3.08c-.14-.22.12-.67.24-1.21l-3.7.53c1.87-2.15,1.64-4.31.94-6.38s-1.83-4-2.8-6.13c.22,0,1-.29,1.29-.11a23,23,0,0,1,4.15,3.38,16,16,0,0,1,2.4,4.38c1,2.54,3.48,4.19,4.51,6.69a28.06,28.06,0,0,0,3.24,4.62l-3.73.58a23.69,23.69,0,0,0,5,4.8,16.56,16.56,0,0,1,4,3.48c.64.81-.46,2.86,2.05,2.4.12,0,.15.47.25.72a3.9,3.9,0,0,0,.62,1.37c.92.93,2.19,1.6,2.9,2.64.87,1.3,1.76,2.59,2.64,3.89l2.6,3.92c.55.86,1.84,1.92,1.44,2.59-1.49,2.53.81,2.14,1.79,2.73l-1.3-1.44.51-.42,3.57,3.81c1.17,1.27,2.46,2.44,3.69,3.66a11.12,11.12,0,0,1-3.81,0,14.35,14.35,0,0,1-6.63-2.13c-1.42-1-3.84-1-5.85-1.42l-.39.45c1.43,1.81,2.85,3.63,4.61,5.87l-3.29.6c.44,2.71,1.3,3.19,4.36,2.5a17.08,17.08,0,0,1,2.35-.16l-.18.59-2.69.4-.33,3.09c-1.16-.62-2.61-.84-2.88-1.67a6.18,6.18,0,0,0-3.51-4.22l2.07,2.21L418,424c-.56,0-1.44.25-1.62,0a12.66,12.66,0,0,1-1.11-2.7l-2.4.71,3.91,3.38c1.22,1.06,2.48,2,3.67,2.95.61-.33,1.39-.94,1.59-.83,1.22.71,1.78-.33,2.56-1.25s1.68-2.12,2.57-.84l-2.25,2c.21.71.43,1.43.56,1.86l2.6-.37c-.2.68-.41,1.36-.67,2.31l2,.7c.43-1,.75-1.8,1-2.49l2.29,1c.15-.42.31-.84.63-1.73.17,1,.28,1.63.38,2.28l-.58-.07L431,433.82c3.81-1.75,3.79-1.77,5.19-.62l-1.79.06c0,.68-.05,1.19-.07,1.71l-1.3.3,0,.63,2.48-1a4.82,4.82,0,0,0,.77.91,2.22,2.22,0,0,0,.68-.5c-.11-.43-.29-.82-.57-1.63,1.42.25,3.68.27,3.61.5-.58,2.09,1.56,2.1,1.71,3.54l-2,.12-.27.55,2.38.57-.25.84-1.23-.23-.3.49c2.19,1.87,4.52,3.59,7.08,5.5l-2.5.43c1.72,1.28,1.86,1.24,3.06,0,1.38,0,2.71.52,3.41-.08,1.15-1,1.45-.6,2.09-.22,1.22.75,2.51,1.39,3.76,2.07h-.07c.18-.5.35-1,.48-1.37a4.06,4.06,0,0,0-2.88-3.3,12.29,12.29,0,0,0-5.36-.09c2.25-1.88,3.62-2.35,4.67-1,.25.3.8.31,1.24.4a24.06,24.06,0,0,1,3,.68c1.65.61,3.17,1.45,4.82,2,1.11.41,2.56.21,3.62.67a46.72,46.72,0,0,1,4.88,2.76c1.07.65,2.06,1.81,3.33,1.67a1.9,1.9,0,0,1,2.17,1.14c.19.28.63.3.8.6a3.46,3.46,0,0,1,.25,1c.5,0,1-.06,1.45,0a4.82,4.82,0,0,1,1.54.13,2.7,2.7,0,0,1,1.49,1.09c.71,1.36,1.42,2.34,3.39,1.48,1.2-.54,2.39-.06,3.59-.09l-.09.45c-.83.36-1.64.67-2.65,1.07.5.58.74,1.28,1.22,1.34a23.94,23.94,0,0,1,5,1.56,10.09,10.09,0,0,0,5.19.82c.15,0,.3.15.37.31.74,1.6,2.29,1.79,3.5,2.57.18.12.51.11.54.3.26,1.91,1.27.77,2.27.23-.19-.52-.3-.92-.61-1.88,1.43.68,2.57,1,3.61,1.53.29.14.39.69.58,1.05l1.21-1.66c.36.41,1,.73,1.16,1.42.25,1.44.89,1.66,2,1.32,1.38-.42,2.77-.72,4.13-1,.13,0,.26.1.46.19l-1.14,2.32a14.72,14.72,0,0,1,8.76.1c-1.77-1.92-3.92-2.43-6-2.87a18.29,18.29,0,0,1-3.06-.8,6.25,6.25,0,0,1-1.35-.72,5.22,5.22,0,0,1-1.12-1.17l-3.26.38v-.81l1.58-1.43-2.72-.75.81-1.53a1.08,1.08,0,0,0-1.09.5c-.57,1.73-1.26,1.41-1.77.88a6.47,6.47,0,0,0-5.53-2.31c-1.68.1-3.07-1.17-4.48-2-.36-.21-.53-.79-.77-1.22a4.78,4.78,0,0,0-.65-1.21,5.9,5.9,0,0,0-1.29-.62c-.53-.27-1-.77-1.57-.83l-5.29-.5c-.16,0-.41,0-.44-.1-.53-2.36-2.58-2.13-4.2-2.69a14.81,14.81,0,0,1-5.38-3.31,16.36,16.36,0,0,0-5.1-3c-1.55-.64-3.27-1-3.88-2.85a5.76,5.76,0,0,0-3.86-3.62,5.68,5.68,0,0,1-1.31-.76c-1.84-1.42-3.48-3.08-5.35-4.46-.87-.67-2.13-.87-3.07-1.48-.22-.14,0-.9.11-1.38,0-.09.3-.24.44-.35.31.39.56.74.94,1.21.61-.73,1.07-1.3,1.92-2.33-1.57,0-2.81-.07-4-.15-.59,0-1-.63-1.85.13-.44-.85-.88-1.71-1.55-3l1.77.39c-1.09-2.36-4.4-1.2-6.51-2.12.09-.57.18-1.18.28-1.78l2.46-1c-1.65-1.4-3.11-2.55-4.47-3.79l.55-.2c.15-1.18.92-3,.36-3.4-1.71-1.14-1.87-3.8-4.81-3.75-.3,0-.38-.52-.54-.82-.36-.66-.73-1.33-1.21-2.23l1.64-1c0-.77.1-1.51.14-2.24a7.53,7.53,0,0,1-4.49-.79,23.63,23.63,0,0,1-3.21-2.35c-1.66-1.32-2-3.7-3.64-5.17a21.53,21.53,0,0,1-3.32-4.22c-1.09-1.54-2.4-3.07-2.7-5a3.83,3.83,0,0,0-1.29-2.65,11.46,11.46,0,0,1-2.43-3.83c-.31-.64,0-1.67-.46-2.15a28,28,0,0,0-2.48-2,11.52,11.52,0,0,1-2.21-2.2c-1.05-1.46-2-3-2.93-4.53s-1.62-3.19-2.36-4.82a24.22,24.22,0,0,1-1.19-3.45c-.28-1.19-.53-2.39-.87-3.56-.23-.75-.24-1.23,1.07-1.8a1.49,1.49,0,0,0,.7-1.34c-.44-1.27-1.1-2.47-1.63-3.72-.88-1.94-1.77-3.88-2.71-5.83-.43-.85-.88-1.7-1.37-2.54-.74-1.31.64-3.26-2.54-4.08,2.39-.18,2.61-.86,2.15-1.62a18.36,18.36,0,0,1-2.14-3.47,76.2,76.2,0,0,1-2.55-9.51c-.26-1.21-.33-2.45-.5-3.76l3.16,0a8.36,8.36,0,0,0,.49-2.48c-.11-1.12-.35-2.15,1.78-2.5-.57-.59-1.5-1.08-1.47-1.61.12-1.67.33-3.33.56-5s.55-3.31.66-5c.09-1.28.39-2.57.45-3.85a5.62,5.62,0,0,0-.89-3.83,6.78,6.78,0,0,1-1.25-2.1c-.31-1.56-2.21-1.94-4.38-2.93,0,1.66-.07,2.88-.11,4.11l-1,.08a8.24,8.24,0,0,1-.69-2.22c0-.88,0-1.75.1-2.62s.23-1.73.38-2.59.86-1.71.82-2.57c0-1.07-.12-2.15-.25-3.23a30.07,30.07,0,0,0-.46-3.24c-.42-2,1.29-3.88-.45-6.07-.88-1.1.57-1.8,2-1.38.07,1.1.23,2.16.37,3.22l.77.06.9-1.55c2.07.24,2.88-.34,3-1.54a9.54,9.54,0,0,1,1-4.07c1.11-2,.84-2.49-2.86-3.36.15-.58.34-1.13.57-1.89l2.4,1.78c.26-.73.42-1.2.59-1.66a7.82,7.82,0,0,1,.45-1.13,11.57,11.57,0,0,0,1.86-4.61c0-.61.78-1.38-1.1-1.84-.23-.06-.33-.68-.55-1.18l2.48.67c-1.63-1.57-2.89-2.81-4.14-4.07,2,.39,2.65-.45,3.12-1.58A13.48,13.48,0,0,1,407.7,240c1-1.05,1.77-1.91.36-3.52l1.64-.45a1.66,1.66,0,0,1,.07-1.7c.43-.69,1.05-1.29,1.43-2,.23-.43.05-1,.24-1.49a19.4,19.4,0,0,0,1.6-3.77c.28-1.32-.19-2.9,0-4.29a17.92,17.92,0,0,1,1.1-2.93c.16-.54.32-1.08.45-1.64a7.77,7.77,0,0,0,.29-1.68c.08-1.3,1-2.69-1.78-4.14-.35-.18-.4-1.22-.35-1.78,0-.29.77-.33.89-.63.71-1.94,1.58-3.79,2.39-5.7l1.22-2.85.62-1.43.67-1.4c.31-.64.54-1.34.84-2.12,1.45,1.26,2.73,2.32,3.94,3.43.24.23.19.67.23,1s.06.93.09,1.39l.64.31c1.59-1.93,3.21-3.82,4.72-5.77a1.33,1.33,0,0,0,.13-1.46c-1.32-1.42-.05-1.36.54-1.7a7.56,7.56,0,0,0,2.2-1.38c1.65-2.22,3.37-4.38,5-6.63a13.23,13.23,0,0,0,1.37-3.08c.4-1,.48-2.21,1.14-3,1.39-1.57,3.1-2.84,4.58-4.31,2.06-2,4-4,5.95-6.05.17-.17.08-.59.24-.77.62-.77,1-2,2-2.15,2.61-.47,3.8-2.14,4.57-4.48a4.24,4.24,0,0,1,2.59-2.61,18.58,18.58,0,0,0,3-1.87c1-.68,1.89-1.41,2.86-2.08.16-.1.21-.39.2-.64-.15-3.08,2.09-3.36,4.08-3.94a13.39,13.39,0,0,0,3.18-2.05c.4-.26.84-.44,1.22-.72.73-.52,2-.83,2-1.65,0-1.94,1.52-1.91,2.32-2a5.08,5.08,0,0,0,4.38-3.13c.9-1.65,1.83-3.11,3.94-2.81.15,0,.18-.43.34-.49,1.46-.54,1.53-3.46,4.15-2.2,1.51.72,2.65-1.16,2.3-2.66,2.38,1,3.89-.1,5.5-1.16,1.2-.84,2.39-1.73,3.65-2.48a36.19,36.19,0,0,1,3.95-2c1.14-.53,2.25-1.13,3.42-1.61l3-1.21,3.08-1-.21-.65-1.55-.21.12.24,5.54-1.87c.93-.33,1.88-.62,2.85-.89l3-.84c.19-1,1.52-1.66,2.83-.72.35.25.78.64,1.07.57L536,117.8,534.48,115c.44-.13,1.14-.72,1.45-.4,1.17,1.22,2.07,1.15,3,.78a11.48,11.48,0,0,1,2.68-1.19c.7.81,3,1.31,5.22,1.41s4.52,0,5.22-.86l-2.67-2c2.11-.52,3.79-1,5.49-1.31,1-.2,2.12,2.31,3.1.14,0,0,.19.13.29.16.93.23,1.86.4,2.78.7,1.29.42,2.57.94,4.27,1.58-1.07,1-1.65,2-2.37,2.27-1.51.58-3.14.58-4.61,1.25-1.22.53-2.18.93-3.31-.68-.28-.39-.89-.38-1.33-.33a48.41,48.41,0,0,0-5.89.91c-2.06.57-4,1.46-6,2.11-.68.22-1.38.56-2.08.8a3.21,3.21,0,0,1-2.06.21c-2.21-.66-3.81.12-5.26,1.79-.27.32-.81.19-1.24.26-1.59.32-3.37.23-4.73,1.11a2.58,2.58,0,0,1-3,.28c.32,1.91-.42,1.72-1.41,1.39a3.19,3.19,0,0,0-1.93,0c-1.36.4-2.7.82-4.05,1.26l-2,.66-2,.77c-.3.12-.47.57-.72.84-.6.65-1.27,2.06-1.78,1.77-2-1.12-3.23-.07-4.93.8l1.31.73c-1.28.28-3.07,0-3.76,1s-1.72,1-2.66,1.37a19,19,0,0,0-4.22,2.56c-.8.58-1.39,1.52-2.19,2.09a6.12,6.12,0,0,1-1.9.59c-.48.17-1.32-.3-1.71,0-1.16.81-2.06,1.93-3.33,2.65a8.85,8.85,0,0,0-2.08,1.91,9.91,9.91,0,0,1-2.12,2.12c-1.46,1-2.05,3.23-4.79,1.89-.2-.1-.45.21-.62.39-.85.95-1.62,2-2.51,2.84-.74.72-1.71,1.17-2.41,1.92a38.81,38.81,0,0,0-3.51,4.43c-.48.67-.73,1.57-1.24,2.18a18.74,18.74,0,0,1-2.14,1.94c-1.31,1.15-2.63,2.29-4,3.46-.66-1.84-1.09-2.19-2.07-1.5a17,17,0,0,0-1.42,1.12,14,14,0,0,0-1.24,1.32c-1.34,1.63-2.49,3.42-3.83,5-1.43,1.78-3,3.44-4.39,5.21l-1.26,1.65L445.28,180l-2.3,3.44c-.32.47-.53,1.39-1,1.29-2.66-.52-2.79,1.15-3.18,2.76-.25,1-1.21,1.69-1.81,2.55-.26.36-.41.79-.64,1.17-.72,1.27-1.34,2.61-2.14,3.82a14.9,14.9,0,0,1-1.85,2c-.32.33-.68.63-1,1a10.47,10.47,0,0,0-1.89,2.47c-.46,1.07-.43,2.4-.85,3.48-.24.61-1.17.87-1.48,1.47-1.07,2.3-2,4.67-2.93,7-.75,1.81-1.31,3.71-1.89,5.36l2.56,2.4c-1.64.1-3.83-.23-4.3.41a52.2,52.2,0,0,0-3.9,7.81c-.6,1.49-1,3.05-1.6,4.54a9.8,9.8,0,0,1-1.08,1.69l-.93-.88c-.22.05-.32.05-.34.09a.79.79,0,0,0-.19.39c0,1.95,1.43,4.17-.15,5.76-.18.18.34.72.45,1.09s.22.64.07.85c-.54.75-1.24,1.45-1.76,2.22-.14.2.2.6.33.9s.48.84.41,1.16c-.38,1.76-.85,3.48-1.36,5.5-2.11-1.26-2.76-1.11-2.6.11.05.39-.29.74-.28,1.14,0,2.4,0,4.77.07,7.14s1,4.75-.6,6.82c-.61.8-1.75,1.63-1.58,2.46.46,2-.72,4,1.59,6,.42.34,1.12,1-.26,1.43-.37.1-.5,1.12-.15,1.33,2.8,1.58.39,2.95.51,4.41a27.47,27.47,0,0,1-.09,3.27c4-.94,3.28-3.07,3.34-5.05a2.88,2.88,0,0,1,.43-.95,5.63,5.63,0,0,1,1.18.92c.28.43.16.94.44,1.37a13.22,13.22,0,0,0,1.45,1.58c-.15-1-.3-1.92-.47-3a17.76,17.76,0,0,1,2.76.28,14.62,14.62,0,0,1,2.35,1.05l-2.09.93-.2,1.21-2.38-.46c0,.56-.42,1.19-.07,1.65,1.06,1.4,1.18,1.61.41,2.58-1.1-.88-2.13-1.79-2.88-2.43l-4.3.34,1.17.57c-1,1.42-2.56,2.73-2.57,4.09,0,1.14,0,2.28.1,3.42a30.06,30.06,0,0,0,.32,3.4l1,6.76c.09.68,1,1.29,1,1.95.06,2-.22,4.05-.2,6.08a9.22,9.22,0,0,0,.75,2.66,6.21,6.21,0,0,0,.37,2.32,9.62,9.62,0,0,1,.59,1.53c.1.87.18,1.75.26,2.63l.35,2.61c.09.55-.06,1.36.47,1.57,2.6,1,1.58,3,2.29,4.43-.84.55-1.56,1.15-1.45,1.57.54,2.1,1.29,4.14,1.94,6.12a4.06,4.06,0,0,1,1.51-.34c.37.07.32.69.47,1.05s.11.65.41.78a2,2,0,0,0,1.24-.19.86.86,0,0,0,.23-.93c-.52-.93-1.18-1.82-1.61-2.79-.63-1.4-1.76-2.8-1.58-4.3a28.57,28.57,0,0,0,.27-4.57,10.54,10.54,0,0,0-1.12-4.32,14.07,14.07,0,0,1-1.07-4.12c0-.22.5-.52.78-.78.27.16.57.29.81.46l1.54,1.1-1.69.54a22.88,22.88,0,0,1,3.23.27,11.69,11.69,0,0,1,3.28,2c.67.71.42,1.77.95,2.55a12.54,12.54,0,0,0,2.44,2,1.72,1.72,0,0,1,.47,2.6c-.16.24.34.53.46.82l1.27,3.06c.42,1,.81,2.05,1.26,3.05s-.59,1.23-1.94,1.16c-.58,0-1.13-.1-1.68-.17-1.53-.2-2.31.49-2.56,1.27-.66,2.07,1.57,4.17,4.59,4.41-2,1.63-1.89,3.05-.12,4.1a3,3,0,0,1,1.17,1.94,10.31,10.31,0,0,1,.19,2,1.88,1.88,0,0,0,.82,1.6c1.67.9,1.71,3,5.17,2.66,1.95-.19,1.54,1-.46,2.16a2,2,0,0,0-.88,1c-.38,2-1.05,4.26,2.71,4.11,1.11-.05,2.27-.2,3.41-.31a13.44,13.44,0,0,1-2.73,1c-1.55.47-2.42,1.12-2,2.13a5.81,5.81,0,0,1,.33,1.19c.46,2.28,2.41,2.44,5.8.47.89-.52,1.82-1,2.76-1.43a7.26,7.26,0,0,1,1.6-.21l-1.89,1.25a12,12,0,0,1,1,2.05,7.56,7.56,0,0,1,.1,1.8c.06,1,1.55,1.37,3.09.69,1.9-.82,1.22-1.57,1.24-2.21a16.24,16.24,0,0,0-.46-2.88,4.17,4.17,0,0,1,3.39,1.51,14.6,14.6,0,0,0,2.94,2.14,1.56,1.56,0,0,0,1.06-.21,1.27,1.27,0,0,0,.51-.86c-.09-.35-.41-.58-.63-.86-.4-.52-.75-1.07-1.2-1.56-.83-.94-1.75-1.83-2.62-2.76-.13-.13-.76.06-1.14.06a26.74,26.74,0,0,1-4.42-.11c-.46-.08-.57-1.08-.18-1.43,1.05-.93,1.37-.32,1.8,0,1.05.83,2.32.65,4.41-.74l-3.29-.62c-.61-.12-1.42-.08-1.79-.36s0-.8,0-1.22c.55-.17,1.11-.36,1.67-.5,1.23-.31,2.8.19,3.45-1.59a5.35,5.35,0,0,1,1.54-.37c.75.92,1.94,1.71,1.81,2.93-.16,1.72.87,2.39,2.89,2.47-.82,1.28,1.27,2.16,4.16,1.18a24.75,24.75,0,0,1-2.37-1.08,1.16,1.16,0,0,1-.47-.76c-.08-.32.09-.78-.09-1-.93-1.4-2.53-2.54-2.82-4.23a3.15,3.15,0,0,0-.5-1.22,5.94,5.94,0,0,0-.78-1,12.64,12.64,0,0,1-1.67-2c-.1-.18-.63-.15-1.44-.33-.22,1.51-.4,2.68-.57,3.85l-.62.25c-.27-.26-.57-.52-.82-.8a23.47,23.47,0,0,1-1.91-2.23l-.79-1.16-.7-1.19c-.46-.81-.9-1.62-1.31-2.45-.6-1.22-.31-3-1.57-3.68-2.34-1.3-2.26-3.54-3.51-5.26-.57-.85-.37-2-.53-3l.67-.26c.4.22,1,.36,1.17.66,1.12,2.26,2.39,4.46,3.67,6.62.32.54,1.08.9,1.48,1.4.83.93,3.22,1,2.57,2.72-.08.21.63.29,1,.43a8.88,8.88,0,0,0,1.1-1.13c.15-.24,0-.48-.1-.69-.46-1-1-1.88-1.4-2.84l-1.26-2.9c-.49-1.12.22-2.05,1.62-2.46l2.1,2.85c.68.89,2.24,1.3,1.7,2.81a2.6,2.6,0,0,0,1.38,3.32,3.67,3.67,0,0,1,1.25,1.19,2.41,2.41,0,0,1,.44,1.53c-.1,1.58,1.38,2.14,2.85,2.64.76.25,1,.48.65,1.22a1.16,1.16,0,0,0,0,1.24c.64.69,1.71,1.13,2.16,1.89s.3,1.82.56,2.69c.47,1.58.42,3.56,2.93,3.87a9.06,9.06,0,0,0,1.44-.07c.07-.35.3-.8.18-1-.51-1-1.44-1.86-1.62-3a17.06,17.06,0,0,0-.38-2,3.16,3.16,0,0,0-1-1.68c-.05-.05,0-.17,0-.25.43-2.14-.47-3.52-2.41-4.48,1.19-1.39.86-1.94-1.31-2.49.32-.82,1-1.71.78-2.15-.65-1.23-1.77-2.27-2.53-3.48-.55-.9-2.8-1.15-1.4-2.87.28-.34-.6-.64-.81-1-.46-.79-.82-1.61-1.29-2.55l-.87.08c1.05-1.06,1.43-1.9,1.34-2.63a2.94,2.94,0,0,0-1.51-1.86.44.44,0,0,1,0-.65c1.15-1.47-.64-2.15-.85-3.26s-1.62-1.83-2.28-2.82c-.27-.4.05-1,.11-1.53l2.23-.08c1.79-1.17,1.9-2.09.93-2.9a28.56,28.56,0,0,0-2.77-2.08c-.85-.56-1.61-1.08.63-1.62-.27-.63-.4-1.18-.59-1.71a12.3,12.3,0,0,1,3,2.85c.22.28-.34.78-.08,1,.81.79,1.95,1.45,2.75,2.21s1.66,1.39,1.91,2.21a14.31,14.31,0,0,1,.52,2.44,13.59,13.59,0,0,0,.47,2.45c.16.55.84.94,1.09,1.47a9.6,9.6,0,0,0,1.73,2.42,20.45,20.45,0,0,0,2.52,2.05l1.88,1.4c.86-1.52.47-2.57-.64-3.1-.32-.14-.25-.51-.27-.8s.25-.74.1-1A15.44,15.44,0,0,0,464,326.5c-1.44-1.6.13-4-2.55-5.3,0,0,0-.06,0-.09,0-.62,2.45-2.17,4.16-2.66l.81,1,.59-.15-.26-1.08-.19-1.09-.36-2.19c-.09-.58.2-1.22,0-1.76-.4-1-1.24-1.84-1.41-2.84a20.55,20.55,0,0,1-.18-2.61c0-.87.11-1.76.1-2.63,0-1.19.54-2.46-.24-3.52a3.21,3.21,0,0,1-.57-2.79c.06-.22-.12-.45-.26-.67-.66-1-2-2-1.15-3.16.16-.22-.37-.53-.59-.81-.09-.11-.33-.3-.28-.31,2.29-.6.32-1.43.72-2.16-2.69.19-3.26.64-2.32,1.62.2.21.55.45.49.66-.51,1.6-.93,3.22-1.35,4.81l-1.72-1.27c1.58-.84,1.69-1.26.85-2.23-.1-.12-.47-.25-.4-.34,1.2-1.67.07-3.35-.06-5.05a42,42,0,0,1,.3-4.32l-1.34.1c-.05-.75-.09-1.48-.13-2.2s0-1.42,0-2.13l.92.12-.29,2.23.64.06.56-4.38-.48-.07-1,1.06c-.3-.42-.54-.6-.53-.76,0-.8,0-1.59.08-2.38s.16-1.58.22-2.37c.07-1-.08-2.13,2.06-2.56.44-.09.26-.64.29-1,0-.19-.34-.45-.3-.62.57-2.53,1.16-5.06,1.84-7.56.3-1.18.41-2.42.69-3.62a21.47,21.47,0,0,1,1.05-3.51c.51-1.33-.74-3.33,1.26-4.12.2-.08-.26-.56-.27-.82a4.62,4.62,0,0,1,.05-2.07c.25-.6,1.17-.89,1.57-1.41.23-.31-.21-1,0-1.25a9.62,9.62,0,0,0,1.56-3.22c.4-1.12.68-2.31,1-3.48.18-.63.92-1,1.41-1.45-.59,2.8-1.67,5.32-2.35,8a40.66,40.66,0,0,0-1,4,33.42,33.42,0,0,0-.44,4.13c.69-.22-.47-1.51,1.85-.68.08-.38.55-.76.17-1.13-1.5-1.53-1.48-2,.46-2.26.22,0,.17-.28.34-.38,1.95-1.11-.07-3.91,1.72-5.2,1.14-.74.58-2.54.79-4l1.3.55c.19-1.62.55-3.1.83-4.59a5.43,5.43,0,0,0,1,.35,18.47,18.47,0,0,0,1.45-2.92c.45-1.3.41-2.91,1-4.14a4.24,4.24,0,0,1,.56-.82,10,10,0,0,1,.75-.7,8.87,8.87,0,0,0,1.45-1.42c.87-1.18,1.34-2.65,2.24-3.82.53-.73,1.11-1.41,1.69-2.1.28-.34.57-.69.84-1s.57-.69.84-1.05a25.35,25.35,0,0,0,1.47-2.36,24.47,24.47,0,0,1,1.42-2.43,1.2,1.2,0,0,1,.4-.3,4.47,4.47,0,0,0,1.13-.79c.9-1.14,1.65-2.42,2.63-3.49a35.88,35.88,0,0,0,2.86-3.17,2.47,2.47,0,0,0-.35-2.07,44.46,44.46,0,0,0-2.9-3.73c-.48.3-1.07.58-1.73,1-.29-1.32-.45-2.32-.6-3.15-.79-.19-1.58-.4-2.34-.56-.49.47-1,1-1.6,1.54l-.48-.5c1.43-2.58,3.68-4.37,6.25-6.1,0,1,0,1.62,0,2.53,2.63.66,2-2.53,4.55-2.07a14.25,14.25,0,0,1-1.79,3.78,12,12,0,0,0-1.6,3.73c2.31,1.13,2.73.08,3.25-.92,1.82,3.47,2.29,3.77,3.55,2.45,1.55-1.43,3-3,4.56-4.46.22-.21.55-.57.38-.95-1.1-2.4-1.15-3.44,1.25-1.39a.29.29,0,0,0,.35,0,12.16,12.16,0,0,0,1.92-1.81c.45-.56.35-.7-.51-1.65-.37.55-.68,1.13-1,1.67-2-2.1-2.3-3-1.19-3.92a17.49,17.49,0,0,1,3-2.23,9.26,9.26,0,0,1,3.52-.19,9.89,9.89,0,0,1,1.45.3c-1.3-1.92-.88-2.34-.21-2.5,1.33-.29,2.62-.62,4-.83L515,183.36l-.18-.51,3.11.48c-.12-.4-.41-1.1-.33-1.15.73-.47,1.52-.84,2.54-1.37-.09,2.32-1.64,1.63-2.27,2.48l1.46,1.1-1.2.62.45.81a11.6,11.6,0,0,0,1.13-.89c.31-.32.2-1.68,1.28-.11a.29.29,0,0,0,.35,0c1-.76,2-1.38,3.07-2.09l2.4-1.56c.81-.52,1.65-.95,2.48-1.45,1-.58,2-1.27,3-1.75,1.29-.52,2.7-.69,4-1.22,2.15-.94,4.36-1.69,6.53-2.63,1.12-.5,2.25-.93,3.39-1.37s2.28-.89,3.45-1.25c1.43-.4,2.9-.66,4.36-1l2.19-.44,2.21-.35c1-.17,2-.68,3-.91.41-.09.82-.17,1.24-.22l1.25-.11a11.66,11.66,0,0,0,2.47-.45,11.67,11.67,0,0,1,3.36-.44,9.47,9.47,0,0,0,3.39-.48,6.31,6.31,0,0,1,2.55-.27,15.11,15.11,0,0,0,2.59.18c1.62-.09,3.26-.35,4.9-.44l4.92-.27c.57,0,1.1.47,1.66.51,1.28,0,2.57.06,3.87.06l1.95,0,1.92.17c.74.08,1.36.81,2.09.93,2.2.32,4.38.74,6.58,1.1.89.16,1.81.26,2.69.48l2.68.6,2.68.56c.9.2,1.78.46,2.67.67,1.39.36,2.81.64,4.22,1l4.2,1.11c1.9.45,3.7,1.13,5.58,1.68.46.14,1,0,1.48.21a27,27,0,0,1,2.54,1.37c.83.49,1.65,1,2.44,1.55,1.4.94,3.64.35,4.55,2.2.08.16.43,0,.62,0a5,5,0,0,1,1.66.47c1.41,1,2.54,2.37,4,3.2a11.76,11.76,0,0,0,2.32.9,12,12,0,0,1,2.29,1,57.52,57.52,0,0,1,5,3.45c1.62,1.24,3.29,2.42,4.83,3.76l3.44,2.78,3.3,2.94,1.39,1.26c.46.43.89.89,1.33,1.33.88.89,1.77,1.77,2.68,2.64.65.59,1.26,1.21,1.88,1.82l1.9,1.8c.61.59,1.33,1.09,2,1.66a7.48,7.48,0,0,1,1.59,2,20.23,20.23,0,0,0,2.9,3.61c1,1.27,2.2,2.48,3.27,3.76a43.62,43.62,0,0,1,2.77,3.85c.75,1.16,1.31,2.44,2,3.61.67,1,1.88,1.74,2.36,2.86.61,1.31,1.16,2.64,1.84,3.9s1.47,2.47,2.25,3.69c.64,1,1.25,2.07,1.84,3.13a34,34,0,0,1,1.65,3.24c.5,1.11.65,2.36,1.09,3.49l.64,1.59c.21.54.38,1.08.58,1.62.39,1.08.81,2.14,1.26,3.2.79,1.7,1.74,3.36,2.37,5.13a27.1,27.1,0,0,1,.8,2.8c.19,1,.34,1.92.56,2.86.33,1.56.77,3.1,1.07,4.67l.89,4.7a1.72,1.72,0,0,0,.18.57,9.93,9.93,0,0,1,1.42,2.71c.22,1.07.37,2.15.51,3.24l.21,1.62.13,1.64c0,.61.64,1.32.14,1.8a2.37,2.37,0,0,0-.8,2.49c.09.4.23.81.34,1.21a3.56,3.56,0,0,1,.11,1.21c-.39,2.84.67,5.7.74,8.59a4.24,4.24,0,0,1-.52,2c-.33.68-1.19,1.29-1.27,2-.11.93.32,1.9.28,2.85-.17,2.48-.4,5-.8,7.41-.13.94-.11,1.9-.29,2.83-.09.51-.2,1-.32,1.55l-.43,1.53a29.19,29.19,0,0,0-.74,3.07c-.3,2-.39,4-.79,5.92-.57,3.15-1.78,6.12-2.46,9.25-.43,1.58-1.1,3.12-1.66,4.62-.26.7-.47,1.45-.76,2.18a11.62,11.62,0,0,1-1.12,2.08c-1.2,1.68-1.21,3.91-2.08,5.77-.54,1.24-1.89,2.16-1.89,3.56,0,1.61-1,2.72-1.47,4.1-.84,2.84-3.32,4.86-4.81,7.36-.66,1.18-1.37,2.35-2,3.59s-1.2,2.48-1.95,3.63c-1.3,1.91-2.54,3.86-3.92,5.72s-2.78,3.7-4.3,5.45c-1.27,1.45-2.56,2.89-3.87,4.3l-4.13,4a4.53,4.53,0,0,1-1.46.68,2.79,2.79,0,0,1-.55,1.13c-.87.8-2,1.37-2.77,2.22s-1.55,1.59-2.31,2.4-1.54,1.61-2.34,2.39c-.54.54-1.11,1-1.69,1.52l-1.75,1.46c-1.18,1-2.3,2-3.53,2.88-.93.71-1.77,1.53-2.74,2.17-1.4.95-3,1.53-4.44,2.45-1.25.79-2.23,2-3.47,2.85-1.68,1.15-3.38,2.29-5.12,3.36a23.56,23.56,0,0,0-2.17,1l-3.54,2.51-3.66,2.38c-1.73,1.18-3.57,2.13-5.37,3.21-1.12.64-2.09,1.71-3.34,2.06-1.63.48-3.5.23-5,.88-1.34.6-2.7,1.13-4,1.8s-2.66,1.38-4,1.92a27.61,27.61,0,0,0-3.47,1.24c-2.48,1.46-5,2.82-7.62,4.21a6.86,6.86,0,0,1-1.76.67c-.77.13-1.66-.22-2.32.25a22.28,22.28,0,0,0-4.77,4.12,16.74,16.74,0,0,0-3.07,5.79c-.9,2.91-1.11,6.67-3.46,7.71a6.84,6.84,0,0,0-1.64.95,5.94,5.94,0,0,0-.84,1.19c3.63-.39,3.61-.51,4.38.35l-.1.68-1.67-.87c-.33,2.3-.67,4.68-1,7.05s-.53,4.6-.85,7.2l.37.69c-.94,1.46-1.78,2.77-2.66,4.05s-1.86,1.84-3,.81c-1.11,1.75-.15,2.23.93,2.84l-2.36.73,0,.92,6.88,1.42a16.63,16.63,0,0,1-1.42,3.81,10,10,0,0,1-2.65,2.09c2.87,1.52,5.75-.27,8.27,2.21-.92.35-2.48.24-2.69,1-.56,1.92-1.7,2.05-2.75,2.74-.37.24-.47,1.16-.79,1.67a8.1,8.1,0,0,1-1.63,2.25,10.07,10.07,0,0,1-2.78,1c.74.79,1,1.29,1.45,1.5,1.89,1,3.81,1.93,5.79,2.78,3.19,1.43,6.47,1.44,9.82,1.06a16.82,16.82,0,0,1,5.2-.1,6.55,6.55,0,0,1,4.57,3.6,9.41,9.41,0,0,0,4.48,3.83c.65.33,1.4.31,2,.69,1.41.83,2.1,0,2.74-1.32a2.59,2.59,0,0,1,1.46-1.33c2.61-.81,5.51.47,8.14-1,1.59-.86,3.64-.71,5.52-.76,1.62-.05,3.3.32,5,.42a9.2,9.2,0,0,0,1.74,0c2.53-.32,5.06-.74,7.62-1.05a40.83,40.83,0,0,0,4.31-.39c2.44-.57,4.82-1.37,7.24-2.06,2.19-.68,4.38-1.4,6.57-2.11s4.39-1.43,6.51-2.33c2.58-1.05,5-2.39,7.58-3.57,2.77-1.39,5.56-2.74,8.26-4.25,1.18-.65,2.06-1.82,3.21-2.49,1.86-1.05,4-1.6,5.8-2.81a54.75,54.75,0,0,1,6.11-3.23,18.44,18.44,0,0,0,5.71-3.89,18.84,18.84,0,0,1,3.76-2.75c2-1.36,4-2.56,6-3.88s3.93-2.71,5.78-4.25c2.17-1.77,4.41-3.44,6.58-5.21a24.17,24.17,0,0,0,5.74-6.21c2.17-3.52,5.26-6.36,8-9.42,1.56-1.7,3.2-3.31,4.83-4.95l4.81-5,2.14-2.19c.71-.73,1.38-1.49,2.08-2.24,1.39-1.5,2.77-3,4.12-4.55s2.41-2.88,3.56-4.36l3.43-4.48a21.8,21.8,0,0,0,1.91-2.85c1.21-2.13,2.25-4.35,3.52-6.42.93-1.46,2.21-2.73,3.08-4.24,2-3.49,3.94-7,5.68-10.69,1.51-3.06,3.13-6.07,4.47-9.22a22.83,22.83,0,0,1,1.08-2.71l2.79-4.51c.88-1.53,1.76-3.07,2.56-4.65s.89-3.15,1.5-4.65c.75-2,1.74-3.84,2.43-5.82.59-1.69,1.14-3.39,1.67-5.1s.92-3.47,1.35-5.2c.25-1,.09-2.17.32-3.2.35-1.52.93-3,1.26-4.53.78-3.32,1.45-6.66,2.25-10s1.76-6.62,2.4-10c.46-2.7.35-5.48.72-8.19.15-1.18.41-2.35.68-3.53a32.55,32.55,0,0,0,.55-3.54,30.17,30.17,0,0,0-.11-5.7,12.52,12.52,0,0,1,.12-2.93c.11-1,.29-1.94.41-2.92a9,9,0,0,0-.8-5.82c-.24-.42,0-1,0-1.54,0-2.23-.22-4.46-.29-6.69-.06-1.35-.08-2.71-.06-4.06l0-2.29,0-2.29c0-1.53,0-3.06-.12-4.59-.06-1.32-.18-2.64-.3-4s-.36-2.63-.52-3.94c-.22-1.63-.36-3.28-.67-4.89s-.82-3-1.17-4.5c-.84-3.76-1.49-7.56-2.43-11.29l-1.65-6.14-.84-3.06-.93-3c-.55-1.79-1-3.59-1.57-5.39-.26-.9-.5-1.8-.78-2.69l-.93-2.65c-.77-2.13-1.84-4.14-2.62-6.26-1-2.62-2.06-5.19-3.09-7.79-.53-1.29-1.06-2.59-1.62-3.87s-1.22-2.51-1.86-3.75c-.84-1.63-2.18-2.87-.81-4.45-1-1.22-1.93-2.1-2.6-3.14-.78-1.25-1.23-2.69-1.94-4l-2-3.64c-.67-1.21-1.42-2.37-2.13-3.56-1.46-2.35-2.89-4.72-4.39-7-.73-1.07-1.32-2.24-2.1-3.28-1.12-1.51-2.42-2.88-3.49-4.42-.43-.64-.29-1.7-.77-2.3-1.54-1.89-3.29-3.6-4.89-5.42a48.76,48.76,0,0,1-3.13-3.79c-1.47-2.13-2.68-4.45-4.21-6.56-1.74-2.25-3.75-4.29-5.57-6.48a29.19,29.19,0,0,0-3.71-4.05,10.12,10.12,0,0,0-5-2.45c.55-2.88-1.9-5.32-5.32-5.43.75-2.44-.94-1.6-1.89-1.31-.44-1.11-.59-2.3-1.25-2.92-1.63-1.46-3.51-2.58-5-4.27s-3.94-2.76-5.65-4.4c-1.18-1.17-2-1.55-3.59-.11-.1.09-.35,0-.72,0,.38-.61.68-1.09.93-1.51-.42-.68-.86-1.31-1.24-2-.69-1.2-1.42-1.8-2.36.45-.44-.35-1-.49-1.09-.85-.83-3.29-4.57-3.29-6-5.91,0-.05-.13,0-.19-.06-1.76-1.08-4.4-.69-5.28-3.22-.11-.31-.62-.49-1-.51a8.74,8.74,0,0,1-4.19-1.64,9.37,9.37,0,0,0-4.3-1.63c-1.82-.11-3.18-2.35-4.35-3.29a7.6,7.6,0,0,1-2.25.57c-.42-.07-.67-.72-1-1.11a5.32,5.32,0,0,0-3.15-1.24c-1,0-1.55-.07-1.86-1.17a2.26,2.26,0,0,0-1.31-1.26,53.3,53.3,0,0,0-5.25-1.81c-.86-.28-1.83-1.07-2.56-.73-2.49,1.13-3.49-.51-4.78-2L659.37,93c0-2.54-1-2.87-2.47-1.89-.61-.63-1-1.31-1.57-1.56a18,18,0,0,0-3.09-.9c-1.5-.37-3-.62-4.56-.9-.57-.1-1.33.13-1.71-.22a5.49,5.49,0,0,0-7.13-.72c-1.45.83-2.71.78-3.74-.92l2-1.16a18.56,18.56,0,0,0-5-1,36.29,36.29,0,0,1-4.82-.63c-1.7-.47-3.27-1.49-5-2-1.18-.33-2.85.39-3.65-.32-1.69-1.56-3.29-.43-4.87-.32a11.74,11.74,0,0,0-4.17-1.6c-2.41-.25-5,.5-7.21-.3a10.1,10.1,0,0,0-5.63-.12c-.18,0-.43-.21-.58-.41-.92-1.27-.92-1.28-1.5-.4l-6.21-.06c-.35,0-.89.3-1,.1-1.23-1.69-2.86-.85-4.33-1.09a10.64,10.64,0,0,0-8.27,2.3c-1,.77-2.66,1.58-3.46.32l-3.49-.43C566.75,80.79,566.32,80.73,563.61,78.33Zm-44.24,97.8c0-2.34,1.11-2.95,2.83-1.27-.68-1.91-.26-3.85.81-3.9a3.87,3.87,0,0,1-.81,3.9Zm-40.75,36.54a12.47,12.47,0,0,0-1.26,1.41,20.35,20.35,0,0,1-1-3.18c0-.32,0-1.34,1.3,0,0-.79,0-1.58,0-2.42,1.33.72,1.83,1.29,1.94,2.19.15,1.18-.65,1-2,.38C478.69,211.72,479.17,212.24,478.62,212.67ZM582.74,83.32c-.19-.33-.41-1-.29-1.2.22-.36.72-.75,1-.67a21.32,21.32,0,0,1,2.86,1.07l-2.71,1.81c0,.47-.06.92-.11,1.52-2.71-.06-5.41-.17-8.75-.17,1.4-.69,2.4-1.48,3.36-1.4s1.91,1,3-.31c.41-.49,1.65.22,2.51.39A6.22,6.22,0,0,1,582.74,83.32ZM458.67,300.15l3.05-.25c-.8.92-1.52,1.7-2.12,2.47,2.24.12,1.64.81,1.54,1.47a21.94,21.94,0,0,0-.13,2.81.39.39,0,0,0,.23.33c.48.24,1.46.42,1.46.68a6,6,0,0,1-1.11,2.93c-1.55-.43-1.85-1.11-1.84-1.82a8.15,8.15,0,0,1,.13-1.08,1.83,1.83,0,0,0,0-1c-.53-1.36-.18-2.85-.23-4.28C459.25,301.66,459,300.92,458.67,300.15Zm-19.5-47.92a22.59,22.59,0,0,1,.27-2.31,12.35,12.35,0,0,1,2.08,1c.21.15-.3.63-.56.93a12.25,12.25,0,0,1-1,.91l1.57.41c.35,1.14.81,2.22,1.18,3.26.06.17.14.39,0,.49a2.59,2.59,0,0,0-.87,2.85c.11.52.27,1.06.41,1.58a6,6,0,0,1,.3,1.56,6.79,6.79,0,0,0,0,1.91,5.62,5.62,0,0,1-.15,3.43,17.22,17.22,0,0,0-.68,3.31,19.44,19.44,0,0,1,0,2.29,2.86,2.86,0,0,1-1.48,2.06c-.14-1.1-.14-2.19-.2-3.29s-.1-2.22-.15-3.35l-1.16-.32a4.34,4.34,0,0,0,1.41-3.77c-.25-1.34-1.26-2.8-3.08-4.49,0-.06,2.44.18,0-.74-.47-.18-.9-1.06-.66-1.34a10.37,10.37,0,0,1,2.33-1.48l-1.49-.64,1.18-.93c.28-.22.88-.44.74-.66-.7-1.06.09-1.59.82-2.15C439.74,252.55,439.17,252.33,439.17,252.23Zm14.55,26a21.51,21.51,0,0,1-.47,4,4,4,0,0,1-.22.76c-1.21.46-2.88-.89-3.38.12a16.83,16.83,0,0,0,2.74.92l.88-.14.34,2.45-.67.07L451.23,285c-.2.41-.33.7-.47,1l-.43,0a19.66,19.66,0,0,1-2.2-3.6,36.89,36.89,0,0,1-1.11-5.67c0-.25.7-.42,1-.65.48-.4.87-.82,1.32-1.26l.28.57,3,.76c-.89-.92-1.77-1.86-2.68-2.84l-1.9.18c1.39-1.4.21-3,.52-4.37a17.63,17.63,0,0,0,0-4.41l2,.8c.16-2.29.63-4.48.95-6.73l1.5.31c-.44-.82-.89-1.58-1.28-2.41l1.6.14c.18-2-1.34-4.56.11-6.24l.83.21a32.34,32.34,0,0,0,.8,3.55,11.4,11.4,0,0,0,1.1,1.85c1.3-.87-.42-2.57,2-2.73-.28,1.86-.59,3.56-.8,5.27-.05.47.44,1.1.3,1.53s-.85.83-1.06,1.31a8,8,0,0,0-.28,2c-1.78.54-2.15,3.08-.27,4.94-2.48-.63-2.11.16-2,.88a13.07,13.07,0,0,1-.11,2,7.76,7.76,0,0,1-.16,1.45c-.31,1.15-.68,2.3-1,3.45C453,276.89,453.71,277.61,453.72,278.24Zm17-58.87-.78-.61c-.4.28-1,.44-1.16.86a20.43,20.43,0,0,0-1,3.14,14.68,14.68,0,0,0-.39,3.15c0,.32.67.94.81,1.13l-1.67,2.57-1-1.72a3.49,3.49,0,0,0-2.51,3.28,2.1,2.1,0,0,1-.38,1.24c-.48.8-.91,1.55.79,3.06.59.51.6,1.17,1,2l-2.68-1.41a17.34,17.34,0,0,1,.89,3.6,4.7,4.7,0,0,1-.28,1.51c-.16.48-.32,1-.48,1.44-.32,1-.75,1.94-1.12,2.91a12.67,12.67,0,0,0-.49,1.47,8.22,8.22,0,0,0-.17,1.58c0,1.15-1.26,1.6-1.5,2.58-.05.21-1.16.06-1.55.07-.19-1.06-.41-2-.49-2.89-.09-1.2-.12-2.41-.09-3.6a16.47,16.47,0,0,1,2.23-8.59c.49-.82,1.57-1.28,1.1-2.69-.26-.75,1.15-1,1.37-1.63.77-2.06,1.22-4.33,2-6.41.08-.2.37-.29.63-.47,1,1,.38,2.14,2.7,2.88-.59-1.42-1.16-2.82-1.85-4.62,2.47-.07,1.38-3.06,2.84-4.34.26-.22-.24-1-.48-2,.73.3,1.81.77,2.84,1.14.83.29,2.06.81,2.31.58a1.56,1.56,0,0,0-.08-1.9c-.66-1-.65-1.36-.28-1.82s.24-1.27.37-1.91c.16-.81.32-1.64.56-2.54l1.22.93,1.17-.71a10.26,10.26,0,0,0,.81,2.22c.91,1.55.85,2.52.3,3.25-1,1.29-1.94,2.54-2.88,3.83l-2.69,4c-.26.39-.27.95-.58,1.3a8.69,8.69,0,0,1-1.76,1.08C469.15,223.71,470,221.59,470.77,219.37Zm-19.28,91.55a3.38,3.38,0,0,1-.31.95,10.51,10.51,0,0,1-.89.85c-.38-.16-.93-.28-1.11-.5-.94-1.2.5-2.42,1.65-3.55a7.37,7.37,0,0,1,1.81-.37,6.66,6.66,0,0,0-.65-1.59,1.76,1.76,0,0,0-1.2-.6,5.39,5.39,0,0,0-1.5.57c-.51-.45-1.13-1-1.67-1.5-.17-.18-.33-.48-.13-.61,1.53-.95.42-1.74.21-2.64-.5-2.09-.78-4.21-1.14-6.35,0-.18.15-.38.06-.55-.95-1.73.14-3.48-.39-5.23a3.39,3.39,0,0,1,.39-2.45c.14-.29,1.17-.45,2-.73,2.27,1.17,1.45,2.58,2.23,3.89l1.79-.25a5.4,5.4,0,0,1,1,1.24A16.31,16.31,0,0,1,454,294c-2.59.29.11,1.45-.74,2.27l-2-.46c.56.39.79.73,1.12.75,1.6.12,1.52.56,1.41,1.09a7.38,7.38,0,0,0,.05,1.15c-.09,1.76-.1,1.77,3.73,1.9-.05.52-.14,1.06-.15,1.6l-.83,0c0-.22.16-.46,0-.63a6.6,6.6,0,0,0-1.14-.71,5.75,5.75,0,0,1-.5.63c-1.35,1.3-.37,2.56-.33,3.83.06,1.1-.17,2.23-.16,3.43l-1,.13c.4.39,1,.77,1.2,1.22a4,4,0,0,1,.05,1.59Zm80.53-140c-.59-2-.51-2.69.31-3a33.93,33.93,0,0,0,3.2-1.46c1.07-.48,2.14-1,3.24-1.38,2.54-1,5.23-1.55,7.84-2.37,1.37-.46,2.71-1.07,4.1-1.51.9-.28,1.8-.54,2.7-.8l1.37-.39,1.37-.33c1.9-.46,3.8-1.08,5.73-1.49a35.67,35.67,0,0,1,4-.42c.13,0,.3.59.45.91-.24.29-.46.78-.72.84a25.24,25.24,0,0,1-2.62.22,5.46,5.46,0,0,0-1.27.23,3.48,3.48,0,0,0-1.14.69c-1.5,1.38-3.1,1-4.63,1.5-1.84.58-3.65,1.3-5.47,1.86s-3.61,1.25-5.4,1.86c-.46.16-1,.77-1.83-.92-.6-1.26-1.75.21-1.63,1.92l-4.85,1.9C535.17,169.45,533.61,170.22,532,170.92Zm75.06-56L604,113.45l.19-.72c3,.31,5.92.59,8.86,1.1a39.23,39.23,0,0,1,8.57,2.8c.77-1.52,1.68-.42,2.56,0a4.71,4.71,0,0,1,1.22,1.15,9.83,9.83,0,0,1,2.08,3l-5.08-1.17c-1.68-.42-3.41-.65-5.12-1l-5.15-.9-5.23-.67Zm31.1,7.52c.62.14,1.57-.76,2.5-1.22,0,.18,0,.67-.09,1.39l2.08-2.12c.11.92.15,1.61.28,2.24s.24,1.26.52,1.29a10.39,10.39,0,0,1,3.31,1.36,4.66,4.66,0,0,0,3.7.48c1-.32,1.94,1.21,3,2,.28-.76.49-1.34.79-2.14.28,1.05.5,1.86.72,2.67l.54-.41-.41-1.34.29-.54a28,28,0,0,0,5.29,1.9,6.9,6.9,0,0,1,4.47,3.53c-1.56,2.49-1.5,2.4-2.67.56a17.35,17.35,0,0,0-2.6-2.63c.05.92.08,1.55.12,2.48a8,8,0,0,1-1.95-.62c-.83-.56-1.67-1.09-2.54-1.58s-1.78-.85-2.71-1.22a27.85,27.85,0,0,0-5.75-1.62,24,24,0,0,1-5.06-1.67l-3.65-1.35c-1.24-.4-2.47-.81-3.69-1.24a4.77,4.77,0,0,1-1.73-1.15c-.22-.21-.17-.87-.2-1.06A42.42,42.42,0,0,0,638.18,122.45ZM518,157c-1.68,1-3.4,2-5.29,3-.11-.89-.18-1.37-.23-1.77-.91.86-1.82,1.6-2.94,2.77,0,1.17-1.83,2-3,.75-1.19.48-1.43,2.55-3.58,1.42.35-.71.58-1.66,1.14-2,1.1-.68,2.2-1.34,3.33-2a25.92,25.92,0,0,1,3.47-1.7c1.32-.55,2.9-.47,4.23-1a14,14,0,0,0,2.35-1.74,3.75,3.75,0,0,1,.44-.24l.53.55C518.28,155.71,518.32,156.74,518,157Zm-91.75,69.1.09.26-1.43.08a6.45,6.45,0,0,1,1.71,3.94,13.94,13.94,0,0,1-.59,3.52l-2.37-1.45-2.34,1.1a14.91,14.91,0,0,1-.38-2.93,9.4,9.4,0,0,1,3-6.83l.76,1.86ZM592.29,113.69a8.86,8.86,0,0,0,2.09.7,5.4,5.4,0,0,0,1.5,0c-.06-.63-.12-1.26-.15-1.9a7.88,7.88,0,0,1,.06-.93c1.09,1.29,2.11,2.51,3.43,4.13l-5.06-.34-4.95-.08c-1.64,0-3.26-.08-4.87,0l-4.82.16c1.24-1.89,3.37-.82,4.23-4,1.54-.56,2.93-.14,4,2.12.62,1.36,2.22.57,2.92-1A12.88,12.88,0,0,0,592.29,113.69Zm-90,74.18c.1-.42.13-.91.21-1.34l-.91-.65-.34,1c-.09-.07-.35-.22-.38-.32-.17-.46-.48-1.19-.36-1.29,1.19-1,2.54-1.8,3.78-2.76.72-.54,1.34-1.26,2.12-1.93a6.31,6.31,0,0,1,.55,1.17c-.54,1.44-1,2.94-1.63,4.21-.17.34-.83.11-1.37.16a2.81,2.81,0,0,1-.26,2.25,1.69,1.69,0,0,1-1.87.8A13.2,13.2,0,0,0,502.24,187.87Zm3-86.61c-1.19.81-2.14,1.6-3.14,2.27-.44.3-1.1.28-1.4.7-.82,1.13-1.67.91-2.68-.36l-1.26,1.23-2-3.27c.26-.19.33-1.86,1.68-.19.13.16.63.12.81,0,1.7-1.42,2,.29,2.28,2.39l1.84-2.57a10.66,10.66,0,0,1-1.14-2.63,3.09,3.09,0,0,1,1.56-2.59,5.94,5.94,0,0,1,3.79-.89C502.35,98.55,502.36,99.38,505.28,101.26Zm6.19,75.38c.46.09.78-.28,1.12-.52,1.31-.93,2.6-1.92,3.91-2.89.87-.59,1.75-1.16,2.65-1.68.21-.11.55.07.82.11l.25.69L517.69,174a28.77,28.77,0,0,0-2.41,1.87c-.41.35-.51,1.24-.72,1.91-.38,1.2-.49,2.76-2.29,1.51-.45-.31-.87-.21-1.36-.31C510.35,177.42,510.3,176.45,511.47,176.64ZM371.8,336.51c3,.61,3.46,2.16,4.12,3.59l3.08-1.45c.3,2.14.57,4,.92,6.46a4.6,4.6,0,0,1-4.32,1.56c-.43-.07-.6-.68-1.11-1.32l3.58,1c-.42-1.8-.73-3.13-1.11-4.78l-2.91,1.7C373.31,341,372.55,339,371.8,336.51Zm45.69-62.63c-.1.23-.12.47-.31.63a9,9,0,0,1-1.11.66c-.43-.32-1.24-.67-1.24-.95a14.23,14.23,0,0,1,.52-4.78c.15-.42,1.77-.51,2.71-.74l.78.31c-.56,1.29-1.14,2.58-1.6,3.9l.82.15,0-1.31h.5l.93,2.41ZM605.58,143.36a19.7,19.7,0,0,1-3.05.53c-.46,0-.89-.41-1.35-.34-.64.11-1.28.26-1.91.42s-1.27.39-1.9.57c-.12-3-.13-3,1.46-3,2.61.08,5.21.26,7.84.39v.71A4.56,4.56,0,0,1,605.58,143.36ZM477.77,219.5c.21-.25.72-.29,1.18-.3a6.61,6.61,0,0,1,1,1,2.38,2.38,0,0,1-1,.47c-.19.06-.58-.07-.68.05-.45.54-.93,1.06-1.36,1.63a15,15,0,0,0-1.13,1.79c-.29.54.11,1.52-.08,2.11-.08.25-.9,0-1.39.06l-.56-1.45,1.93-2.73C476.32,221.19,477.08,220.37,477.77,219.5ZM396,299.32a5,5,0,0,1-2-3.78,3.84,3.84,0,0,1,2-3.53l-.09,3.65ZM462.88,317c-1.38-.35-1.68-1.52-.54-2.39.88-.67.67-1-.4-1.33-1.47-.45-1.59-1.54-.39-2.12C463.68,312.87,464.45,314.64,462.88,317ZM440.47,202l-2-1.62c.36-.71.77-1.54,1.19-2.38-2.2-1.27-2.21-1.26-1.49-2.37.75.49,1.52,1,2.23,1.48s1.21,1,1.81,1.52a12.16,12.16,0,0,1-1.27,1c-.14.09-.51-.06-.8-.1C440.24,200.37,440.33,201.06,440.47,202ZM454.72,155l2.35-2.36c.8-.78,1.63-1.51,2.44-2.26l.59.68a4,4,0,0,1-1.61,3.27A5.83,5.83,0,0,1,454.72,155Zm73.92,13.39-1-.83c1.09,0,2,0,2.76,0,.21.61.6,1.69,1,2.83l-1.31.44-1.46.57C528.63,170.13,528.64,169.24,528.64,168.35Zm45.1-54.78a3.35,3.35,0,0,1,.31-1.58,40.65,40.65,0,0,1,4.89,1.47,3.59,3.59,0,0,1-2.9,1.59A2.47,2.47,0,0,1,573.74,113.57Zm107.53,27.48-.46.83,4.77,2.8-.63.84L680,142c.26-.75.59-1.66,1-2.81.79.54,1.69,1.19,2.6,1.83l-.24.38ZM411.75,277.74l-.15-.41c1.2-.55,2.39-1.1,3.64-1.66,1.09.4,1.08.39.79,3.87C414.58,278.9,414.75,277,411.75,277.74Zm2.14-111.12c1.1,2.35-.63,5.84-2.47,6.37l-.64-.43Zm78.18,39.81c0,.13-.65.07-.68,0a9.28,9.28,0,0,1-1.14-1.72c-.61-1.47.1-1.79,1.14-1.6.31.05.95.72,1.44,1.11-.17.21-.25.53-.49.64a3.4,3.4,0,0,1-1,.14A12.67,12.67,0,0,1,492.07,206.43Zm4-81.49c2.43-1.09,4.59-2.11,6.9-3.07C502.76,123.86,499.46,125.37,496.11,124.94Zm126.82,39c-.71,1-3.83.38-5-1l.19-.58Zm-195,49.1,2.58-4.49c.3.91-.81,1.84,1.62,2.76l-2.51-.34-.42,1.93,2.33.88,0,.47Zm164.85-54.44c-2.26,1-2.59.8-3.67-1.29C590.39,157.75,592.12,155.27,592.82,158.63ZM442,200.38a4.76,4.76,0,0,1,1.35-.93l.58.45a46.14,46.14,0,0,1-2.5,4c-.13.19-1.14-.22-1.42-.28C440.73,202.44,441.29,201.36,442,200.38Zm226.88-68.83-.22,1.18c-.5.7-1.19,2-1.47,2a2.8,2.8,0,0,1-2.11-1.08c-.22-.3.39-1.57.62-2.4l.6-.11C666.58,132.32,666.15,134.73,668.87,131.55ZM606.3,115.62l-.1.83-3-.2-3,0,.1-1,3,.14ZM490.52,129.17l-.43-.77c1.59-.79,3.14-1.65,4.88-2.44C494.65,129.4,491.64,127.46,490.52,129.17Zm-42.2,309,1.1,1.76-2,1.71c-.34-.83-.66-1.63-1-2.52Zm224-248.15c.24,0-.16,1.17-.28,1.79l-.68.43-.91-.88-.83-.71A10.28,10.28,0,0,1,672.31,190.05Zm-81.19-83.54-4.07-1.16,0-.47,4.63.35ZM391.92,226.1c0,.39-.54.69-.83,1-.34-.4-1-.9-1-1.2a14.9,14.9,0,0,1,1-2.61l.34.17A15.71,15.71,0,0,1,391.92,226.1ZM588.05,120.69l-.1,1-3.47-.5.09-.81ZM451.7,184.56l-.91-.68c.43-.81.9-1.59,1.38-2.36l1,.82C452.68,183.07,452.16,183.79,451.7,184.56ZM472.05,229l1.93.18.46.39c-.56.66-1.12,1.32-1.86,2.21C471.3,230,475.28,231.29,472.05,229Zm75.64-83.38c-.3,2.63-1,2.85-2.51,1.56Zm-73.28-25.21-1-.73,1.39-3.22.64.5ZM499.18,143l.5.54c-.35.91-.7,1.83-1.12,2.91-.3-1-.52-1.78-.8-2.72ZM372.6,349.61c-.19-.19.14-.72.24-1.09.46.06,1.21,0,1.34.22.62,1,1.09,2.13,1.61,3.19l-.18.2C374.59,351.31,373.53,350.51,372.6,349.61Zm68.88-40.72L440,306.84l.74-.19C442.71,307,441.61,308.05,441.48,308.89Zm7.8,123.86.29-.71c.43,0,1-.17,1.25,0,.72.55,1.37,1.17,2.05,1.77l-.31.37C451.45,433.74,450.34,433.27,449.28,432.75ZM466,234.46l-.85-.44c.36-.86.72-1.72.93-2.2C465,231.86,467.79,234.35,466,234.46Zm-49.58,25.25c-2,.39-2.91-.11-3.29-2Zm17.07,44.83c2.42-.39,2.81-.17,3.24,1.74ZM395.9,264.81l2.56,0-.54,1.63-.88.13Zm80-57.69.79.61-.93,2.2-.77-.62Zm94.23-94.56-3.19.08C567.86,111.39,568.93,110.24,570.1,112.56ZM709.56,161c0,1,0,1.86-.08,2.69-.64-.7-1.34-1.38-2.06-2l.35-.6Zm-85.21-16.49.18,1.65L623,147l-.11-1.07ZM450,135.68l.59-2.71.71.42C451.85,134.73,451.85,134.72,450,135.68ZM485,154.35l.42.65c-.19.56-.38,1.13-.61,1.79-.59-.64-1-1.13-2-2.22ZM401.79,388.29l.62-.62c1.88-.42,1.52,1.32,2.18,2.11C403.63,389.31,402.71,388.81,401.79,388.29Zm31.61-31c-.07,0,.5-.56.78-.85l1.61.64-.78.71A9.48,9.48,0,0,1,433.4,357.26ZM388,207.57l1,.33-.63,2.84-1-.31Zm49.05,218.7a10.6,10.6,0,0,1-1.11,1.15,8,8,0,0,1-1.49-1l.77-.9Zm104.06-318.1.28.81L539,110.26l-.32-1Z"/><path class="cls-2" d="M490.23,385.75c-1.7.84-3,.85-3.45-.12-.8-1.81-2.62-2.49-4.09-3.61a4.91,4.91,0,0,1-1-1.14c-.29-.44-.56-.89-.88-1.29-.17-.22-.57-.24-.78-.44a13.54,13.54,0,0,1-1-1.22c-.15-.19-.21-.66-.44-.56-2,.85-1.63-.68-2.26-1.21-.95-.74-2.24-1.2-2.32-2.67,0-.33-.95-.14-1.42-.24a3.14,3.14,0,0,1-2.63-2.48c-.15-.68-1.28-.81-1.81-1.1a17.41,17.41,0,0,1,.83-2.22A11.33,11.33,0,0,1,470,366c.48,0,1.2-.17,1.39,0a25,25,0,0,1,1.8,2.43,1.69,1.69,0,0,0,.65.59c.83.37,1.92.5,1.58,1.78,0,.2.23.28.43.34,1.36.43,2.81.74,4,1.25a7,7,0,0,1,1.85,1.41,26.62,26.62,0,0,1,4.39,4.07c.82,1.07.71,3,1.23,4.42.25.71,1,1,1.44,1.55s.9,1.27,1.35,1.91Z"/><path class="cls-2" d="M447.56,376.19c2.52.25,3.42,2.22,6.85,1.28.18-.05.49-.05.48,0-.34,2.07,3.11,1,3.19,2.55l5.22-3.76c-.27,1.74-.95,2.43-4,3.73a1.77,1.77,0,0,0,.19,2.24c.48.47,1.21.76,1.63,1.25.77.88,2.35,1.1,3.32,1.82a4.8,4.8,0,0,1,1,1.08,11.73,11.73,0,0,1,.84,1.24c.15.23-.33.95-.52,1.45a4.84,4.84,0,0,1-1,0,12,12,0,0,1-3.82-1.29c-1.47-1-2.54-2.43-3.92-3.57a7.89,7.89,0,0,0-2.06-.87,7.08,7.08,0,0,1-2.32-1.2c-.69-.76-1.32-1.27-3.26,0a4.72,4.72,0,0,1-1.38.33c.42-.77.8-1.43,1.12-2-1.66-.86-5-.15-5.06-2.6,0-.27-.62-.34-1-.41-1.79-.3-2.24-2.11-.67-3.53,1,.89,3.8.25,3.27,2.46A10.2,10.2,0,0,0,447.56,376.19Z"/><path class="cls-2" d="M477.75,383.94a4.17,4.17,0,0,1-1.25-.3l-2.82-1.89-1.41-1-1.36-1a6.66,6.66,0,0,0-2-1.18c-1.7-.54-2.13-1.93-1.59-4l-2.29,1c-.14-.79-.29-1.63-.43-2.49l-2,.52c.3-.52.59-1.05,1-1.81-.13-.27-.16-.87-.55-1.18a1.89,1.89,0,0,0-1.68-.26c-1.27.43-1.6.2-1.2-.64s1-1.79,1.52-2.67c.66.34,1.65.47,1.89,1a4.11,4.11,0,0,0,1.42,1.77,8,8,0,0,0,2.3,1,.59.59,0,0,1,.38.8c-.49,1.1-.05,1.47,1,1.39.11,0,.31,0,.31,0a1.83,1.83,0,0,0,.54,1.68,6.49,6.49,0,0,0,1.58.89,3.66,3.66,0,0,1,1,.79l2.41,2.33c.83.74,1.66,1.48,2.45,2.26a9.68,9.68,0,0,1,1.28,2.25Z"/><path class="cls-2" d="M539.4,426.05l2.09,1c.7.33,1.42.61,2.12.92q2.13.92,4.27,1.92c1.44.59,2.89,1.18,4.35,1.82l2.19,1,2.23.89c1.49.6,3,1.24,4.51,1.91s3.07,1.18,4.63,1.83l2.35,1,2.38.92c1.6.62,3.23,1.27,4.87,2a36.81,36.81,0,0,1-4.08-.14,32.61,32.61,0,0,1-3.71-1c-1.25-.36-2.52-.58-3.75-1a24.58,24.58,0,0,1-3.23-1.32,136,136,0,0,1-21.43-11.15Z"/><path class="cls-2" d="M465.51,339.14l2.12-1.05c-2.5.56-3.08.15-2.21-1,2.29,0,4.15.88,3.41,1.71,2.69-.65,2.36.34,2.46,1.26a14.17,14.17,0,0,0,1.3,3.44,33.17,33.17,0,0,0,1.87,3.78c.09.16.5.16.57.33s.3.68,0,.92a5.19,5.19,0,0,1-1.95.86c-1.38.17-2.7.21-1.85-1.16.75-1.2.22-1.92-1.07-2-2.18-.16-1.88-1.5-2-2.68,0-.34-.42-.54-.64-.81l-.78-1c-.23-.35-.46-.7-.67-1.06A10.91,10.91,0,0,1,465.51,339.14Z"/><path class="cls-2" d="M490.18,385.78l2.91,1.05c1,.3,2,.61,2.93.95a2.3,2.3,0,0,1,1.22,1.1c.11.19-.25.89-.35,1.21.72.12,1.54.19,2.35.27l-.3.57-1.26.9,3.19,1.29c.12.05.28.09.3.25.23,2.19,1.71,2.81,3.58,2.82.28,0,.36.4.69.81-2.91,1.24-4.13,0-5.11-1.21-1.1-1.37-3.06-1.51-4.22-2.76-.63-.67-1.6-1-2.27-1.62-.23-.23,0-1,.1-1.67a3.07,3.07,0,0,1-2.49-.66c-.67-.49-1.17-1.21-1.85-1.71-.16-.13.41-1.07.64-1.62Z"/><path class="cls-2" d="M369.32,306.14a2.48,2.48,0,0,0,.51.76c2.31,1.78,2.44,2.53.61,4.8-2.55-1.62-5.59-2.71-6-6a16,16,0,0,1,1.17-7.3l1.14,2,4-1.32c.61,1.81,1.51,3.46,1.57,5.14,0,.6-2,1.3-3.06,2,.3-.94,1.09-2-.66-2.54a1.43,1.43,0,0,0-1.1.36C366.8,305.32,368.23,305.67,369.32,306.14Z"/><path class="cls-2" d="M507.19,374.78c2.11,1.2,4.31,2.21,6.24,3.56a26.19,26.19,0,0,1,2.85,2.07,14.92,14.92,0,0,1,1.29,1.23c.43.43.86.85,1.26,1.32-1.57,1.56-2.05,1.52-1.87,0,0-.39-.08-.77-.34-.77a24,24,0,0,0-2.6.33c.4-1.09.93-2.09-.52-1.29-.8.44-1.45-.23-1.56-1-.21-1.42-.95-1.8-2.35-1.79a2.31,2.31,0,0,1-1.79-.82c-.45-.5-.83-1.1-1.3-1.56-.1-.09.11-.53.18-.81Z"/><path class="cls-2" d="M498.82,379.65l2.85-3c1.24.79,2.55,1.53,3.79,2.35.17.1.14.44.27.59a17.88,17.88,0,0,0,1.43,1.32c.21.19.4.42.6.63-.58.48-1.42,1.35-1.72,1.35a5,5,0,0,1-2-.66c-.66-.32-1.3-.68-2-1C501,380.72,499.91,380.24,498.82,379.65Z"/><path class="cls-2" d="M523.62,386.77a4.42,4.42,0,0,1,1,.57c.54.5,1,1.21,1.61,1.51s1.59-.09,2,.47a5,5,0,0,0,1.7,1.28,5.11,5.11,0,0,1,1.75,1.11c.59.67,1.52.72,1.91,1.85a4.23,4.23,0,0,0,1,1.41l-.34.69c-.59-.33-1.1-.81-1.7-1.1a17.06,17.06,0,0,1-3.07-1.33c-.91-.67-1.47-2-2.24-2.85-.11-.14-.62.4-.8.32a5.39,5.39,0,0,1-2-1.21,9.79,9.79,0,0,1-1.06-2.15Z"/><path class="cls-2" d="M463.3,268.44l-.11,2.53a23.68,23.68,0,0,0-.07,2.53c0,1.68,0,3.38,0,5.09-.44-.14-1.28-.35-1.26-.39.33-.64-1.09-1.35-1.07-1.89.09-2-1.58-4.4-.45-6.31a12.29,12.29,0,0,1,1.67-1.91Z"/><path class="cls-2" d="M479.39,355.53a9.24,9.24,0,0,1-2.88-.53,4.37,4.37,0,0,1-1.61-1.91c-.12-.25.33-1.08.73-1.3a10.66,10.66,0,0,1,2.93-1.21,7.26,7.26,0,0,1,2.35.17,19.21,19.21,0,0,1,1.92-1.2,2.36,2.36,0,0,1,1.27-.19c.18,0,.1.45-.06.57a12.15,12.15,0,0,1-1.35.68,11.16,11.16,0,0,0-2.33,1.25,1.93,1.93,0,0,0-.39,1.56,3.8,3.8,0,0,0,.53,1.3Z"/><path class="cls-2" d="M420.9,344.51l-1.49,1.11c0,.14,0,.21,0,.24,1.32,1,2.33,2,2,3.8-.16.9.91,1.63,1.61,2.6-.61,0-1.29.18-1.41,0-1.38-1.63-3.15-3.19-3.83-5.13a8.54,8.54,0,0,0-3.43-4.76c-.27-.17-.19-.57-.27-.86.41,0,1-.19,1.2-.08l5.25,2.72C420.61,344.23,420.67,344.32,420.9,344.51Z"/><path class="cls-2" d="M456.89,447.76c.45.54.77,1.29,1.38,1.59a16,16,0,0,0,2,.77c.68.2,1.39.38,2.08.57.24.06.71-.21.85-.07.94.95,1.77,2,2.75,2.95a20.21,20.21,0,0,0,2.61,1.86l-.29.71c-1.49-.05-2.94-.19-4.42-.3l.21-.75,1.08-.21a14.14,14.14,0,0,0-10-4l.91,1-.57.54c-1-1.72-1.93-3.44-3-5.25,1.63,0,2.23,2.29,4.43.53Z"/><path class="cls-2" d="M494.79,368.43c.39,0,.88-.08,1.66-.2.17-.88.29-1.32.48-2.15.6.2.94.33,1.39.44l-1.54,1.55.37-.14c-.34.73-.71,1.48-1,2.2-.11.27-.17.61,0,.66a1.56,1.56,0,0,0,.88-.43c2.54-2.28,3.54-2.65,4.08-1.42a6.83,6.83,0,0,1,.27.94l-.44.56-2.07,0-1.23,0-1.38,1.89.47.08a10.52,10.52,0,0,1-1.57-.64c-.47-.29-.69-.83-1.21-1.06C493.27,370.44,493.3,369.87,494.79,368.43Z"/><path class="cls-2" d="M489.18,363.79c.65.8,2.35.7,1.06,3-.53.93-.27,1.36.91,1,2.54-.79,2.58-.68,1.5,2.1l-.6-1.16c-1.68,1-2.79,1.14-3,0-.06-.4-1-.3-1.63-.22-1.1.1-1.72,0-.29-1.63A28.54,28.54,0,0,0,489.18,363.79Z"/><path class="cls-2" d="M372.77,257.85c-.95-1.16-2.41-2.21-2.31-3,.28-2.36-3.21-4.85-.63-7.08-.23,2.35.65,4.1,2.27,4.14.64,0,1.2-.9,1.47-1.12l-2.44-2.33a12,12,0,0,0,2.75.79c1.62-.07,2.62.77,2,1.54-1.5,1.83-1.4,4-2,6C373.76,257.12,373.33,257.33,372.77,257.85Z"/><path class="cls-2" d="M462.5,291c-2.83.09-3.46-.16-3.36-1.17s.06-1.93.31-2.87a5.86,5.86,0,0,1,1.84-2.67c.33.36.91.73.94,1.06.08.93.12,1.86.14,2.8S462.39,290,462.5,291Z"/><path class="cls-2" d="M464.35,255.86a6.14,6.14,0,0,1,1.44,3.92,3.59,3.59,0,0,1-.48,1.67,3.65,3.65,0,0,1-1.16,1.36c-2-1.44-1.47-2.43-.81-3.35.15-.22.55-.5.32-.69C461.73,257.16,463.3,256.66,464.35,255.86Z"/><path class="cls-2" d="M453.24,374.46l3.82-1.37c-1,2.17,1.41,2,2.84,2.39,1,.29.79,1.63-.53,2.54-.3.2-.88.45-1,.38a9.81,9.81,0,0,1-2.15-2.06c-.32-.56-.25-1.22-1.73-.69S452.79,375.55,453.24,374.46Z"/><path class="cls-2" d="M561.09,458.31c-.81-.18-1.63-.32-2.43-.52l-2.41-.63-4.79-1.29c-.28-.07-.49-.52-1-1.13,1.87-.5,3.37-1.29,4.56.78.16.27.6,0,.9.09,1.62.31,3.23.66,4.86.94.21,0,.35.55.52.85Z"/><path class="cls-2" d="M387.38,385.67c.59.53,1.24,1,1.86,1.55l.73-.56c-1.89-1.76-3.62-3.63-5.45-5.49a7.78,7.78,0,0,1,5.73,3.68c1.25,1.7,2.19,3.64,3.95,4.94-1.41,1.49-2.65.89-3.24.36a34.58,34.58,0,0,1-3.79-4.32Z"/><path class="cls-2" d="M467.31,320.91c.47,1.16.8,2.35,1.38,3.46a8.55,8.55,0,0,1,.87,1.59c.06.27-.46.7-.73,1.06-.43-.14-1.14-.19-1.26-.44-.47-1-.61-2-1.73-2.84-.7-.55.21-1.73.4-2.61Z"/><path class="cls-2" d="M466.86,400.74a19,19,0,0,0-2.27-.45c-.63-.06-1.53.26-2.06.08-.31-.12-.1-.88-.14-1.63-1.95.36-3.52-.33-4.12-2.31a6.32,6.32,0,0,1,5.21,1.18c1.27.87,2.28,2,3.69,2.65Z"/><path class="cls-2" d="M494.84,375.83l2.28-1.38c0-.63-.05-1.18-.07-1.85,2-.47,2,.3.3,2.32a25.07,25.07,0,0,1,1.37,2.14c0,.09-.36.61-.56.93C497.09,377.28,496,376.66,494.84,375.83Z"/><path class="cls-2" d="M501.38,403.07c1.4.5,2.89.73,4.15,1.29.54.24.66,1.17,1,1.79l-.51.65-3-1.94C501.73,405.54,500.91,404.92,501.38,403.07Z"/><path class="cls-2" d="M535.39,470.54c-.92,2.93-2.12,2.36-3.17,1.89s-2.29-1-3.7-.1c-.32.22-.72.05-1.45.06a33.29,33.29,0,0,1,3.14-2.4c.43-.24.95.11,1.44.16Z"/><path class="cls-2" d="M491,359.3a2.91,2.91,0,0,1,1,.2,15.53,15.53,0,0,1,1.9,1.59.86.86,0,0,1,.09.85,3.8,3.8,0,0,1-.94.82,1,1,0,0,1-.84-.27c-.69-.8-1.32-1.65-2-2.47Z"/><path class="cls-2" d="M509,400.53c-.62.2-1.42.7-1.83.53a14.67,14.67,0,0,1-3.05-2l.43-.74,2.86-1.41c-1.21,2.13-.62,2.31.37,2.12a5.64,5.64,0,0,1,1.6.06Z"/><path class="cls-2" d="M476,414.56c-.08-1.7.9-1.74,1.8-1.82.17-.43.35-.85.74-1.78,1.81,1,3.57,1.71,5.23,2.5l-.33.5-3.18-1.51c-.21.65-.37,1.12-.52,1.59-1.34.23-2.58.4-3.81.54Z"/><path class="cls-2" d="M399.67,282.28c-.65-.32-1.78-.61-1.86-1a5.83,5.83,0,0,1-.12-3.66c.37-.75,1.85-.38,2.08.53a33.5,33.5,0,0,1,.51,3.83Z"/><path class="cls-2" d="M431.73,368.64l1.4.81-.46.4-3.28-1.17c1.44-1.73.93-2.28-.07-2.58s-2.43-.36-2.87-1c1.61.1,3.71-.52,4.14.94.12.4.7.69,1.26.81C433.11,367.09,433,367.67,431.73,368.64Z"/><path class="cls-2" d="M407.6,413.15c1.77,1.61,3.55,3.18,5.26,4.79.28.26,0,1,0,1.5a7.28,7.28,0,0,1-1.26-.59,40.34,40.34,0,0,1-3.55-3,12.38,12.38,0,0,1-1.44-2Z"/><path class="cls-2" d="M420.72,331.63c.13-.23.17-.54.44-.73a2.12,2.12,0,0,1,1.06-.18c1.18.14,2.66,2,2.22,2.79a1.83,1.83,0,0,1-.84.78,1.44,1.44,0,0,1-1-.24C421.91,333.3,421.36,332.49,420.72,331.63Z"/><path class="cls-2" d="M568.61,415.23l-3-1.82c-1-.62-2-1.18-2.93-1.88.56-.68,1.88-.35,3.14.44A6.26,6.26,0,0,1,568.61,415.23Z"/><path class="cls-2" d="M511.37,385.78l-2-1.41-1.91-1.51a12.61,12.61,0,0,1,2.64.5A2.82,2.82,0,0,1,512,385Z"/><path class="cls-2" d="M422,359.5c.63.17,1.24.35,2.06.56.43-.7.91-1.41,1.38-2.13,1.18,1.23,1,2.46-.95,4.15a2,2,0,0,1-1,.33,26.31,26.31,0,0,1-2-2.54Z"/><path class="cls-2" d="M395.6,389.59l-4.46-4.94.55-.51c1.48.54,3,1.05,4.44,1.55l-.34.5-1.5-.08c.76,1.09,1.4,2,2,3Z"/><path class="cls-2" d="M501.43,402l-2,1.37-2.25-1.6.33-.54-1.43.95c0-.13,0-.29.08-.34,1.26-1.25,2.2-1.75,2.89-1A8.08,8.08,0,0,0,501.43,402Z"/><path class="cls-2" d="M522.28,385.81c-2.28,2.32-2.17.2-2.89-.27-.16-.1.28-1.17.6-2.34C520.86,384.2,521.5,385.05,522.28,385.81Z"/><path class="cls-2" d="M475.89,414.58c.71.84,1.52,1.58,2.19,2.46.19.24-.07.94-.09,1.2-.82-.5-1.63-1-2.45-1.49l-2.5-1.69,2.92-.5Z"/><path class="cls-2" d="M513.12,410.09c-2,.13-4.21.31-4.95-2.12l5.35,1.3Z"/><path class="cls-2" d="M452.53,394.92c1.21.88,2.5,1.69,3.9,2.56C453.64,398.74,451.77,397.73,452.53,394.92Z"/><path class="cls-2" d="M493.66,99.43c-1.16.36-2.27.84-3.28,1.21L487.88,98l2-.9L490.6,99c1-.37,2.09-.72,3.41-1.1-.16.66-.27,1.14-.38,1.62Z"/><path class="cls-2" d="M461.14,280.05c1.56,1.47,1.28,3-1.09,3.14.14-1.14.28-2.18.41-3.22Z"/><path class="cls-2" d="M486.73,361.69c-3.67,2.29-3.87,2.32-5.37.75C483.07,362.23,484.77,362,486.73,361.69Z"/><path class="cls-2" d="M532.89,448.74l-2.76-1.09c-.92-.36-1.84-.72-2.73-1.15,1,.08,2.15-.18,3.13-.05S532.37,447.12,532.89,448.74Z"/><path class="cls-2" d="M447.86,373.67a20.45,20.45,0,0,1-1.35-2.42c-.05-.11.52-.7.8-.8a2.1,2.1,0,0,1,1.24-.1c1.36.43.13,1.87,0,2.9Z"/><path class="cls-2" d="M541.48,486.76c2.34,0,4.51.07,6.65-.06C545.83,488.84,542.72,488.85,541.48,486.76Z"/><path class="cls-2" d="M520.89,481.53c-1.44-.08-2.9-.12-4-.25-.29-.92-.54-1.66-.93-2.88.92.45,1.78.89,2.63,1.28l2.51,1.11Z"/><path class="cls-2" d="M512.54,190.12c-.95.71-1.82,1.56-2.73,2.32C509.58,190,510.45,189,512.54,190.12Z"/><path class="cls-2" d="M465.15,349.13c2.68-1.18,3.89-.87,3,1Z"/><path class="cls-2" d="M396.64,398.59c2.38,1.5,3.32,3.81,1.89,5.21-.88-1.67-1.66-3.3-2.47-4.91Z"/><path class="cls-2" d="M461.37,380.67c1.2-1.48,1.71-1.26,2.12-.75s.66.9,1,1.35c-.83,0-1.69,0-2.49-.15C461.71,381.08,461.58,380.85,461.37,380.67Z"/><path class="cls-2" d="M473.89,334.23c-1.17.17-1.92,0-2.27-.37s-.2-1.1.3-2A29.86,29.86,0,0,0,473.89,334.23Z"/><path class="cls-2" d="M539.26,472c0,1.59,0,1.59-3.24.41.51-.33,1-.89,1.52-.94A4.42,4.42,0,0,1,539.26,472Z"/><path class="cls-2" d="M403.73,313.12c.27,1.18.58,2.36.86,3.54l-1.14.27a5.67,5.67,0,0,1-.73-1.59,7.89,7.89,0,0,1,.29-2Z"/><path class="cls-2" d="M486.38,405.22a3.34,3.34,0,0,1,4.79.43Z"/><path class="cls-2" d="M470.78,330.88c-.59-.66-1.22-1.31-1.95-2.17,3.36-.29,1.68,1.36,2.79,1.8Z"/><path class="cls-2" d="M469.54,365.08c-1.08,0-1.87.1-2.2-.13-.17-.12.51-.88.8-1.34a4.84,4.84,0,0,1,1.57.07C469.94,363.8,469.66,364.33,469.54,365.08Z"/><path class="cls-2" d="M407.51,406.41l1.55,1.6,1.64,1.55c-.7.54-1.05.82-1.53.5a11.42,11.42,0,0,1-2.22-3.14Z"/><path class="cls-2" d="M470.6,412.72l2.81.47c-.42.51-.9,1.33-1.26,1.48a1.5,1.5,0,0,1-1.54-.13C470.35,414.23,470.58,413.42,470.6,412.72Z"/><path class="cls-2" d="M491.12,469l-3.84-2c2.44-1.35,4.09-.1,3.79,2Z"/><path class="cls-2" d="M370.38,261.09l-2.84-3.31,3.31-.2a5.76,5.76,0,0,0-.54,1.78,5.22,5.22,0,0,0,.6,1.58Z"/><path class="cls-2" d="M373.21,231.75c.22.78.48,1.57.74,2.36l1.22-.3-2,1.44-.71-.2c.15-1.17.26-2.35.48-3.5Z"/><path class="cls-2" d="M491.07,469.05c1.42.37,2.91.6,4.36.9-.43.93-.73,1.58-.94,2-1.11-1-2.27-1.9-3.36-3Z"/><path class="cls-2" d="M504.74,374.28c-1.12-.16-1.36-.6-.86-1.76.51.47.91.91,1.37,1.29Z"/><path class="cls-2" d="M558.93,440.58c.81,0,1.61,0,2.46,0C561,442.45,561,442.5,558.93,440.58Z"/><path class="cls-2" d="M373.62,242.39c-1.54-1.83,0-3.22,0-4.83l.62.11Z"/><path class="cls-2" d="M384.55,208.76l.09,0c-.34-.3-1-.74-1-.88.48-1.3,1.09-2.56,1.68-3.81l1.12.52Z"/><polygon class="cls-2" points="486.61 447.94 490.77 447.76 490.53 448.62 486.31 448.85 486.61 447.94"/><path class="cls-2" d="M454.16,400.18l2.9-2.7.81,2.61-.7.58c-.29-.07-.87-.16-.83-.23C457.84,397.81,456,399.1,454.16,400.18Z"/><polygon class="cls-2" points="370.12 294.12 370.21 290.43 371.01 290.45 370.92 294.17 370.12 294.12"/><path class="cls-2" d="M458.84,393c-1.58,1.45-2.73,1.69-3.26.12C456.62,393.09,457.64,393.07,458.84,393Z"/><path class="cls-2" d="M409.44,394.93l0-.12c-1.09,1.43-2.12,1.19-3.31.79l.87-1.7Z"/><path class="cls-2" d="M575.64,470.8l-2.48.33C573.56,468.56,573.92,468.45,575.64,470.8Z"/><path class="cls-2" d="M485.39,426c1-1.17,1-1.17,2.85-.56C487.25,426.63,487.25,426.63,485.39,426Z"/><path class="cls-2" d="M472.6,459.88a8.08,8.08,0,0,1,1.51-1.56c.2-.1.53.57.74.94s.46,1,.88,1.81C474.62,460.67,473.82,460.35,472.6,459.88Z"/><polygon class="cls-2" points="512.71 402.45 513.71 404.33 513.1 405.16 511.97 403.42 512.71 402.45"/><path class="cls-2" d="M442,445.72l-2.1-.58-2.06-.64.4-.73c1.35.45,2.72.88,4.12,1.25Z"/><path class="cls-2" d="M464.6,345.46l1.47,1.23C464,347.4,463.68,347.18,464.6,345.46Z"/><path class="cls-2" d="M463.86,335c.67.37,1.32.73,2,1.08l-1.15.58c-.46-.48-.86-1-1.3-1.47Z"/><polygon class="cls-2" points="483.42 465.47 478.9 462.88 479.17 462.43 483.67 465.01 483.42 465.47"/><path class="cls-2" d="M523.39,472.19c-1-.29-2-.54-2.93-.86l.09-.47c1,.15,2,.23,3.06.34Z"/><path class="cls-2" d="M458.17,241.94c2.11,1.53,2.26,3.43,0,3.54C458.49,244.35,456.68,242.65,458.17,241.94Z"/><path class="cls-2" d="M452.32,293.44c-1.42-.26-3.52-.25-2.7-1.36.21-.29,1.13-.45,1.7-.65Z"/><path class="cls-2" d="M800.27,564.35a4.2,4.2,0,0,1-.66-.37l.63-.53-1,.22-.37.31c0,.13,0,.29,0,.37.45.58.93,1.13,1.39,1.69.09.11,0,.34.27.31.59-.08,1.42-.36,1.93-.37.21,0-.12.46-.28.76s-.61.76-.53.82.26.36,1.6-.72c0,.11.06.21.09.31l-1.1.86c.1.13,0,.38.3.32,1.44-.31,1.06.82,1.74,1.09.57-.22,1.23-.51,1.7-.63s1.66-.8.49.27c.33.75.8,1.33,2.65.76-1,.86-1.26,1.48-.79,1.33a.38.38,0,0,1,.46.09c.06,0-.1.25-.07.3a3.53,3.53,0,0,0,.36.48l-.29.23-1,.43.48.6c2.3-1.74,2.92-2,2.9-1.25l0,0c.14-.12.37-.32.4-.33a8.36,8.36,0,0,0,1.6-.54c1.44-.75,1.73-.69.87.35,1.23-.41.32.82.66,1.07l-3.46.57-.21.18.35.45-1.58.76-.32.3c.36,0,.89-.1,1,.07s.46.65,1.46.37a7.1,7.1,0,0,1,2.41-.19c.26,0,.65,0,.34.35-1,1.13,0,.44.83-.13-1.49,1.73-.47,1.49.31,1.35-.16.29-.4.58-.34.64a7.49,7.49,0,0,0,1,.67l.41-.33c.17-.23.33-.47.67-.95l1.32-.35,1.54-1c-.44.61-.82,1.15-1.32,1.86-1.65.36-1.65.36-2.33.82.28.12-.27.91,1.27,0,.14-.09.08.21-.1.47s-.62.62-.83.83l-.91,0c-.3.4-.46.63-.68.93l-1.3-.18-.35.29.93.41c.22.1.52.13.65.29s0,.53.12.67.64.37.87.62.55.15,1.15,0,.83.14,1.2.25c-1.68,1.51-.58,1.05-.37,1.21l.32.2,1.16-.83c-1.06,1-1.23,1.32-.85,1.34s.82.14.83.51,0,.79,2.08-.68c-.48.51-.85.87-1.07,1.14s-.36.5-.22.48c.53-.09,1.18-.29,1.83-.46l-1,1c.4-.19.78-.39,1.05-.48s.35-.07.32,0c-.12.38-.32.83-.48,1.23l2-1.11-2.2,1.67c.46-.08.64.05,1.2-.25,1-.55,2.09-1.23.73.16-.14.15,0,.16,0,.27-.14.32-.36.69-.48,1s-.12.35,0,.34a14.3,14.3,0,0,0,1.48-.19l1.43-.22c.09,0,.06.09,0,.19-.68,1.22-.41,1.69.83,1.42.16,0,.14.1.11.21a4.35,4.35,0,0,0-.22.86c0,.29.6-.08,1.52-1l.67.85-.45.43-.37,0c-.2.54-.54,1.13.88.27.39-.24.68-.24.72-.12s-.09.57-.16.87l0,0,1.5-.69c-1.76,1.66-1.91,1.08-3.22,2.08.49.13,2.23-1.1,3.26-1.59.36-.53.7-1,1-1.5l.44-.32c1.79-.31.83,1.61,2.41,1.51.42-.4.68-.66.87-.85a4.35,4.35,0,0,1,.78-.35,2,2,0,0,1,.65.13l-1.6,1.16-.12.12-.48.76a4.71,4.71,0,0,1-.69.36,19.81,19.81,0,0,1-2.26-.13c-.21,0-.07-.36-.15-.49a1.41,1.41,0,0,0-.4-.33l-.6.47.6.76c-1.2.76-.69-.19-2.69,1.32a23.52,23.52,0,0,1,3-1.21c.43-.08.12.5.15.87l-1.15.5c.25.22.68.2,1.89-.51.45-.27.93-.44.95-.33s-.26.71-.33,1c0,.09.27-.05.48-.09.46-.67.83-1.19,1.18-1.68a9.3,9.3,0,0,1,1.81-.43c.37,0,.69.11.46.56s-.44,1.13.09,1c.37-.11,1.35-.69.48.24-.15.16.17.09.31.13l.58-.58c1.75-.94,0,.52-.79,1.4l1.89-1.52c-.46.84.72.08,2-.82l-.43.75-2.56,1.92c.39.27.86.42,1,.78s1.77-.53.82.72c-.3.39.48.14.68.16-.17.35-.48.76-.41.87.19.3.55.46.81.7.65.58,1.26,1.18,1.92,1.75a3.48,3.48,0,0,0,1.31.9c.42.12-.77,1.56,1.16.43,0,0,0,0,0,.07,0,.47,0,1,0,1.41,0,.12.19.11.28.17a2.36,2.36,0,0,1,.67.47,4.11,4.11,0,0,1,.53,1.07c0,.08-.17.34-.26.51-1,.23-.91-.38-2.6.52-.25.14-.22-.14,0-.4.67-1-.17-.72-.3-1l-.54.35c-.11.2-.23.39-.36.62a10.39,10.39,0,0,0-3.23,2c.52.27.52.27,1.37-.29-.85.85-1,1.39-.54,1.41.31,0,.34.27.53.38s.35.13.5.21.8,0,.47.38c-.81,1,.19.46.7.34.21-.05.67-.23.55-.07-.58.73-.51,1-.12,1s.4.29.88.19c.72-.17.7.29-.4,1.38l1.4-1.06a11.72,11.72,0,0,0-1.18,1.31c0,.16.54-.11.83-.17.08,0,.13,0,.12.07-.13.54.8.12,1.81-.35l1-1,.73.12.32-.25c.06-.24.12-.47.17-.69l1-.71-.91.15-.28.23-.25.58-1.8-.29.78-.28c.48-.47.86-.86,1.3-1.26.63-.59,1.1-1,1.27-.8a6.93,6.93,0,0,0,1.5,1.15c.11.07.45,0,.51.07a6.89,6.89,0,0,0,.56,1.23c.24.27.8.29,1.08.53a11.28,11.28,0,0,1,.93,1.14c.05.05.28,0,.47-.07-.09.13-.47.52-.42.58a3,3,0,0,0,.87.92c.14.11.51,0,.83,0s1-.37.28.4c-.18.2,0,.26.17.22.64-.15.39.37-1,1.59l1.56-1.13.48.07c.38-.47.62-.75.82-1l.58-.77.48-.39,1.25.14,0,0c-.15.25-.3.49-.46.77s-.39.22-.57.35L859.59,616c0,.17-.13.42,0,.49s.6.19.8.37a10.05,10.05,0,0,1,.89,1.11l-1.84,1.32,1.41-.53.77-.8a13.35,13.35,0,0,0,2.38-.75c1.22-.57.68.55,3-1.1.21-.15.32,0,.48,0l.51-.45a8.3,8.3,0,0,0-1,.23c-.48.17-.7.17-.73-.08s-.35-.68-1.22-.37-1.29.19-1.45-.1-.26-.32-1,.21c.26-.69.51-1.32.76-2l.4-.28,1.26.12.65-.55c-1.2-.49-1.93-1.39-4.76-.53l-2.06,1.57-.52-.22,1.41-1.16.76-.37-1.55,1.27c1.68-1.23,1.83-1.55,1.45-1.62a7.06,7.06,0,0,1-1.59-.52c-.06,0,.16-.27.3-.49-.77.52-1.51,1-2.24,1.51,1.37-1.36,1.57-2,1.35-2.4s-.65-.56-1-.85a8,8,0,0,1,.77-.52A9.07,9.07,0,0,1,860,608a.93.93,0,0,1,.93.51c.24.49,1.5.14,1.76.62s.75.35,1.14.51l-2.26,1.47a5.44,5.44,0,0,0,2.07,0,3.09,3.09,0,0,1,1.61,0c.22.09-.79,1.18.7.24.08-.05,0,.14,0,.2s-.07.31.06.33c.32.07.89-.06,1.07.13a8.45,8.45,0,0,1,1.07,1.56c.11.17.53.25.13.64-1.47,1.44-.13.66.24.64l-.32-.24.39-.31,1.82,1.22a15.77,15.77,0,0,1-2,1,9.59,9.59,0,0,1-2.95.87,14,14,0,0,0-2.76,1l-.33.29.88,1.12-1.93,1.13c-.51,1-.18.93,1.61-.14.47-.28.85-.44,1.27-.66l-.26.29-1.53.85-1.09,1.37c-.42,0-1.11.32-1,0,.25-.64.1-.93-.68-.75l.49.33-.26.25c-.3.16-.84.49-.86.43s.09-.5.15-.77l-1.47.94,2.21.53a12.58,12.58,0,0,1,1.07-.75c.42,0,1-.59,1.7-1.17s1.51-1.31,1.6-1l-1.76,1.39c-.1.24-.2.48-.27.63l1.47-.81-1.06,1.14.79-.17,1.33-1.32.83-.09.87-.89c-.22.38-.38.63-.53.89l-.27.1-2.06,1.77c2.5-1.63,2.5-1.63,2.84-1.46l-.93.43-.59.75-.76.43-.19.26,1.57-1c0,.08,0,.18.09.22a5.35,5.35,0,0,0,.5-.37,3.25,3.25,0,0,0,.25-.57,11.31,11.31,0,0,1,1.63-.57c-1,1,.05.6-.37,1.2l-1,.47-.32.3,1-.25-.41.42-.53.16-.32.28,1.43,1-1.35.67c.35.24.42.2,1.47-.6a6,6,0,0,0,1.65-.68c.92-.66.91-.53,1.06-.46a7.63,7.63,0,0,0,.92.31l0,0,.76-.71c1.05-1.58-.33-1.16-2.57-.09,1.76-1.27,2.59-1.73,2.6-1.33,0,.1.28,0,.44,0a9.65,9.65,0,0,1,1.14-.19c.53,0,.9.15,1.45.15.37,0,1.07-.29,1.35-.22a3,3,0,0,1,1,.62c.22.15.11.61.72.38s.55,0,.44.3c0,.11.13.07.07.19a3.18,3.18,0,0,1-.34.47c.22-.06.44-.14.63-.18s.49-.15.58-.1.25.14.12.39c-.32.59-.48,1,.71.4a3.68,3.68,0,0,1,1.48-.35l-.25.22L880,625c-.06.23-.27.54-.12.54,1.11,0,1.09.93,2.72.5.06,0,0,.06,0,.14-.51.75,0,.77,0,1.1,0,.05.13,0,0,.12-.83.92.09.32.7,0l.71-.89a3.47,3.47,0,0,1,.48.65c0,.07-.22.34-.34.51l1.24-.84c-.09.2,0,.34-.32.68-.64.7-.54.8,0,.61s1.24-.35,1.84-.51c.06,0,0,.05,0,.09l-1.55,1.14c1.5-.44,2.26-.34,2.6.17,1.08-2-1.71-1-.71-2.85l-1.29.23.4-.4,1.25-.73-.54-.32,1-.77a1.06,1.06,0,0,0-.61.26c-1.06.87-1.13.72-1,.47.27-.76,0-1.08-.88-.93-.65.12-.54-.45-.7-.77,0-.08.17-.36.28-.55a3,3,0,0,0,.31-.55c0-.14-.15-.14-.21-.22s0-.32-.22-.31c-.58,0-1.27.12-1.91.19-.06,0-.18,0-.13,0,.82-1.09-.09-.82-.54-.91a1,1,0,0,1-.89-1c0-.48-.51-.65-1-.76s-1-.05-.6-.82.14-1-.41-1.09a.44.44,0,0,1-.32-.15,7.73,7.73,0,0,0-1-1.11c-.19-.15-.71,0-1-.12-.06,0,.32-.4.53-.64,0,0,.23-.16.34-.24,0,.11,0,.22,0,.36l1.76-1.42c-.77.28-1.39.52-2,.72a1.52,1.52,0,0,0-1,.43c.06-.3.13-.59.23-1l.75-.17c.26-.87-1.83.36-2.63.43l.7-.84,1.6-1-1.16-.67.35-.21c.42-.55,1.36-1.52,1.17-1.55-.59-.08.1-1.21-1.5-.46-.17.08-.08-.11-.09-.19s0-.37-.08-.63l1.15-.82.65-1c-2.12,1.12-2.73.86-3.49.78s-.23-1-.89-1-.73-.39-1-.65-.81-.41-.64-1c.11-.37.1-.59-.26-.59s-.63-.33-.82-.59.27-.61.06-.62a16.09,16.09,0,0,1-2.19.14,5.46,5.46,0,0,1-2.1-1.21c-.38-.34-.41-1-.67-1.42-.08-.14-.06-.28.76-1,.26-.22.56-.62.51-.68a2.06,2.06,0,0,0-.78-.48c-.46-.21-.93-.42-1.43-.6a3.52,3.52,0,0,0-.79-.13c-.43,0,.41-1.13-1.51,0,1.44-1,1.58-1.31,1.3-1.32s-1,.15-1.33,0a10.84,10.84,0,0,1-1.87-1.14,2.77,2.77,0,0,1-.5-.62l1.89-1.39c.07-.28.26-.65.15-.77s-.39-.28.85-1.3c-.39.13-1,.45-1,.33a19,19,0,0,0-.3-2.47c-.21-.54.09-1.5-1.3-1.1a3.7,3.7,0,0,1-1,.26c-.41-.1-1.57.73-3,1.6.21.28.37.48.53.68l-.6.5c-.24,0-.61.09-.72,0a2.68,2.68,0,0,1-.55-.94c-.06-.19.21-.63,0-.72a3.3,3.3,0,0,0-1.6-.42c-.65,0,0-1-1.48-.4-.71.31-.08-.42.8-1.07l.9.13.44-.37c.07-.2.14-.4.2-.59,1.22-1,1.55-1.43,1.31-1.57a.7.7,0,0,1-.41-.81c.15-.7-.11-.62-2.37,1.13,0-.12-.1-.24-.17-.39l1.78-1.07c0-.16-.08-.27-.11-.38a.84.84,0,0,1,0-.29c.06-.49.19-1-.19-1.18-.13-.06,0-.44-1.1.46a2.67,2.67,0,0,1-.63.22l1.51-1.19L851,583.5c1.15-1,1.28-1.32,1.2-1.58a1.67,1.67,0,0,1-.1-1.22c.17-.48.32-.9-.91-.21l.7-.82c-.39.15-.5.1-.51,0s.09-.5,0-.68-.32,0-.38-.09c-.18-.24-.14-.65-.48-.74a13.6,13.6,0,0,0-1.56.18c-.32,0-.31-.32-.53-.42a1.49,1.49,0,0,0-.88-.2c-.47,0-.55-.33-2.42,1.14a1.9,1.9,0,0,1-.85.3c-.09,0,.24-.36.18-.39-.77-.46-1.58-.9-2.38-1.33a3,3,0,0,0-.54-.15c1.15-.84,2.15-1.57,3.14-2.27a1.62,1.62,0,0,1,.53-.22c.22-.08.42-.13.63-.19l.41-.35c-.15-.55-.27-1.11-.47-1.63,0-.09-.33-.06-.6.13-1.17.81-.63.21-.54,0s.36-.71.27-.86a5.81,5.81,0,0,0-1.1-1.37c-.17-.16-.57-.13-.92-.15s-.89.16-1,0c-.26-.36-.24-.93-.45-1.32a10.15,10.15,0,0,0-1-1.46s-.28.09-.33.07-.68,0-.47-.41c.56-1,.1-1.23-.94-1-.59.14-.69-.09-.64-.48.09-.68-.31-1-.52-1.47,0,0-.16,0-.3.09-1.73.88-1.24,0-1.11-.63.08-.38-.26-.47-.39-.7-.05-.08-.05-.21-.11-.29s0-.58-.46-.33c-1.1.59-.76,0-.62-.31.38-.81,0-.94-.87-.74s-1.45.31-.9-.57c0-.07-.21.07-.22,0,0-.37-1.69.54-.56-.8.66-.78-.26-.56-1.19.08,1-1.19.56-1.38.12-1.53a5.6,5.6,0,0,1-1-.36,4.52,4.52,0,0,1-.7-.6,5.2,5.2,0,0,1-.62-.5c-.3-.34-.56-.7-.84-1l-.4.31c-.08.18-.16.36-.23.55l.15-.13-1.51-1.92c-.62.36-.94.24-.33-.5.17-.2.42-.48.39-.54a9.93,9.93,0,0,0-.82-1.08l-1.68,1.54c-.08-.06-.42,0-.23-.21,1.48-1.62-.09-.87-.28-1.22.94-1,1-3,0-2.65l-1.09,1.47a9.71,9.71,0,0,1-1.06-.61c-.17-.13,1.28-1.49-.11-.71,0,0,.07-.09.07-.13.07-.28.1-.54.2-.85s.35-.93.59-1.55a8.5,8.5,0,0,1,1.56-.56c.47,0,.61.36,1.13.36s.69.06-.2,1c-.22.24-.18.37-.12.44a3.33,3.33,0,0,0,.84.92c.39.24,1,.34,1.41.56s.9.09.65.62c-.41.86,0,1,1,.65.19-.06.11.14.15.22.14.33,0,.87.5.9s.49.15.06.75c1.16-.85,1-.57.77-.14s-.22.5-.16.61a13.6,13.6,0,0,0,1,1.46c0,.05.3-.06.43-.08.33,0,1.11-.36.89-.08-.88,1.08-.32,1,0,1.33l.59-.71c0,.34-.41,1.07.13.93s.37.24.48.43a1.66,1.66,0,0,0,.88.62c.22.09.68,0,.89.08s0,.32.05.49-.4.59-.31.65c.26.17.73.15.92.4s1.22,0,1.49.36,1.41-.16.08,1.3c-.1.11,0,.11.09.13a6.9,6.9,0,0,1,1,.21c.23.1.25.36.51.44a8.49,8.49,0,0,0,1.54.27c.24,0,.67-.1.87,0a1.09,1.09,0,0,1,.49.4c.25.29.47.59.71.9-1.17.72-1.48,1-1.39,1.24a1,1,0,0,0,.49.6c.42.23,1,.34,1.4.59s.74.66,1.16.94,1.12.62,1.68.94c.11.06.49,0,.27.23-1.22,1.32-.51,1.13.1,1.06.39,0,.34.31.5.46a2.85,2.85,0,0,0,.31.12,3.9,3.9,0,0,1,.87.51c.14.14.1.41.14.63s0,.24,0,.34.05.53.28.63.85-.05,1.14,0-.13.47,0,.55a14.77,14.77,0,0,0,1.58.84c.42.21.85.4,1.24.58l2.12-1.39a15.26,15.26,0,0,0-1.84,2.08,3.68,3.68,0,0,0,1,1.64c.21.27.54.46.75.73.09.11,0,.34,0,.52l-.77.46-.14.17s0,.09,0,.09c.7-.06,2.09-.7,1.79.1,0,.09.4-.15.58-.21s.31-.09.3,0c0,.28-.18.64-.21.9,0,.07.29-.09.45-.13s.5-.21.55-.17a9.27,9.27,0,0,1,.88.89c-1.48,1-1.79,1.31-1.35,1.28.14,0,.06.17.17.19.62.15,1.23.31,1.92.42s1.71-.1,1.32.86c-.16.36-.6,1-.31,1,.69,0,.43.8,2.15-.1.32-.16.86-.42.15.29-.18.19,0,.37.2.22,1.91-1.13.76.22,1.1.37s.37.32.54.49c2.16-2,1.33-2,1-2.3-.05-.05,0-.22.07-.34a6.79,6.79,0,0,1,.85-.43c.24-.07.26.06.51,0s.75-.31,1.13-.47l-.84-.21c.57-.46,1.13-.93,1.64-1.29s1-.65,1.55-1l-1,1.13.12.28-1.47,1.06c.09.11,0,.38.27.28.87-.29,1-.33.71.2l-2.11,1-2.43,2.08.79-.47c-.33.68-1.07,1.64-.86,1.86a11.46,11.46,0,0,0,2.66,1.75c.14.08.72-.19.79-.06.23.4.25.95.45,1.37.09.18.42.18.64.26,0,.22.18.31.37.38s.38,0,.45.1c.24.32.41.68.63,1,.07.1,0,.37.33.2,1.6-.84,1.08.1,1.52.18-.51.5-.94,1-.87,1a6.91,6.91,0,0,0,1.19.88,9.83,9.83,0,0,1,.92-.7c.22-.13.17.07.25.12s.06.15.23.07a5.26,5.26,0,0,0,.76-.55c.16-.19.24-.36.16-.38-.28-.08-.69-.05-1-.14s-1.08-.06-1-.55c.22-1,.19-1.86-.78-2a1.51,1.51,0,0,1-.88-.54s.27-.34.42-.52l.52-.25,1-.41-1,.87c1-.66,1.64-1.18,2-1.34a10.52,10.52,0,0,1,2.08-.88c.44-.1.33.29.68.27.69,0,2.86-1.33,1.93,0-.1.14.21,0,.28.05a14.84,14.84,0,0,1,1.6.78c.21.13-.38.62-1.2,1.13l-1,.61a4,4,0,0,0-1.57,1.41c-.45.89.85.64,2.69-.46-1.27,1.3-1.28,1.71-.26,1.37.42-.14.52,0,.62.19s-.26,1,.38.84c.93-.3.78.4,2.9-1,1.2-.76.87-.22-.45.91a4,4,0,0,0-.64.69c-.43.85-1.09,1.9,1.18.55.68-.4,1.39-.85,2.09-1.27-.61.49-1.18.89-1.76,1.3-1,.7-1.57,1.23-1.46,1.47a.62.62,0,0,1,0,.34c0,.71,1.09.13,3.37-1.72.6-.49,1.22-1,1.83-1.44.24-.18.49-.3,1-.6l-1.29,1.09c.14.17.31.26.33.46a2.41,2.41,0,0,1-.23.69c-.12.38.69.07,1.71-.67,1.24-.9,1-1,1.08-1.27a3.23,3.23,0,0,0,.16-1c1.15-.59,1.46-.52,1.77-.43a4.41,4.41,0,0,0,1.41,0,3.3,3.3,0,0,0,.67-.4,1.61,1.61,0,0,0,.43-.51c0-.12-.15-.11-.24-.17a3.18,3.18,0,0,0-.48-.28,7.09,7.09,0,0,0-1.15-.33,5.79,5.79,0,0,0-.7.39c-.89.47-1.87,1-2.63,1.37-.26.11-.2-.24.08-.51.74-.7.85-.56,1.07-.57.52,0,1.31-.49,2.73-1.7l-1.89.8a6.24,6.24,0,0,1-1,.44c-.14,0,.09-.31.16-.48.35-.25.71-.51,1.06-.74a6.64,6.64,0,0,0,2.25-1.75,8.9,8.9,0,0,1,1-.64c.34.13,1,.08.74.61-.31.75.27.66,1.44.11-.68.79.43.53,2.3-.72-.53.1-.93.2-1.26.23-.14,0-.16-.08-.16-.18s.16-.36.09-.41c-.41-.28-1.25-.24-1.23-.84s-1-.41-1.38-.71a3.86,3.86,0,0,0-.85.35l-.69,1.67-.4.31a2.72,2.72,0,0,1-.42,0,4.16,4.16,0,0,1-1-.21,7,7,0,0,1-1.37-.79c-.29-.23,0-1-.75-.76-1.4.42-1.25-.39-2-.5-.35,0-.22-.5-.31-.77l.4-.34c.25-.08.62-.28.72-.24.72.27,1.37.61,2.1.88.18.07.63-.09.87-.06.45,0,1.89-.76,1.4.1-.07.1.37-.12.57-.19.25-.27.57-.59.74-.8s0-.18,0-.23c-.46-.38-.94-.74-1.4-1.12-.27-.22.19-.82,1.06-1.49l1.22.26c.4.07,1.37-.36,1,.42s-.11.94.68.78c.61-.13,1,0,.85.48-.2.67.66.39,1.52.12.44-.15.6-.15.3.28-.19.26-.25.47-.13.51.31.09.91-.06,1.11.11s0,.65,0,.95c.06.55-.25,1.4,1.22.82.24-.1.59-.29.89-.44.08-.17.28-.43.24-.5-.16-.3-.61-.39-.56-.85s.16-1.1-.41-1.15c0,0,0-.07,0-.11.47-1,.12-1.38-1-1.11.83-.94.66-1.06-.62-.58.26-.43.77-1,.64-1.13-.33-.27-1-.28-1.41-.49s-1.63.51-.75-.61c.18-.22-.37,0-.49-.07a7.83,7.83,0,0,1-.76-.47l-.53.34c1.35-1.57.9-1.77-.14-1.51-.13,0-.12-.09,0-.23.68-1-.4-.53-.6-.8s-1.09,0-1.54,0c-.18,0,0-.35,0-.56l1.36-.93c1.05-1.12,1-1.45.37-1.3a17.62,17.62,0,0,0-1.87.5c-.56.17-1,.33.27-.78l-.54-.25a6.08,6.08,0,0,1,2.12-.41c.15,0-.15.39,0,.37.57-.09,1.32-.35,1.89-.44s1.1-.19,1.31,0c.4.34.53.9.85,1.31.11.14.54,0,.71.12a5.08,5.08,0,0,0,2.71.11c.36-.05.71-.08,1.18-.13.53-.89.28-1.17-.41-1-.2,0-.16-.11-.17-.22s.14-.38,0-.42a3.5,3.5,0,0,0-1.22-.36c-.9-.08-.14-1.5-1.86-.91,0,0,0,0,0,0a12.18,12.18,0,0,1,2.4-2.61l.56,0,.36-.29c-.31-.39-.64-.77-.93-1.19-.11-.16,0-.5-.19-.59-.34-.17-1-.07-1.23-.33a6.84,6.84,0,0,1-.8-1.6c-.19-.36-.08-1-.72-.94s-.86-.11-.88-.5c0-.09-.15-.07-.28-.06-.6,0-1.55.36-1.3-.32.05-.13-.33,0-.52.08s-.26.08-.23,0c1.2-1.21-.13-.5,0-.87-1.53,1.32-1.77,1.7-1,1.49.17,0,.42-.15.43-.07.08.6.1,1.25.14,1.86l-1.25.45c.78-.94.8-1.13.1-1-.09,0-.34.15-.32.1.35-.95-.67-.82-1.09-1.17a5.92,5.92,0,0,1-.87-1.06l-.74.67-1.16-.8.55-.43c.15.18.29.37.44.56l.38-.31-.87-1.09-.29.22c-.07.19-.15.38-.28.69-.28.07-.45.15-.49.12-.4-.31-.76-.66-1.17-1s-.66-.3.38-1.45c.21-.24-.05-.24-.15-.3s-.32.11-.36.07c-.53-.63-1-1.31-1.55-1.9s-1.34-.9-1.71-1.59c-.21-.4-1.63.15-1-.93.07-.12-.34.09-.45.09-.3,0-.69,0-.79-.15s.19-.64.15-.87-.49.08-.51-.06c-.11-.85-1-1.09-1.72-1.46-.2-.1,0-.49,0-.75,1.88.69,2.9,2.07,5.06,2.53.24-.38-.83.15.61-1-.12-.07,0-.34-.38-.17-1.32.69-1.5.66-.68-.39.1-.12,0-.1,0-.19.4-1.06-1.69-.12-1.43-1.1.16-.61-.89-.34-1.42-.46l.81-.69-1.75-.41a7.51,7.51,0,0,0,.57-.53,2.11,2.11,0,0,0-.77-.71c-.47-.18-1.26-.09-1.61-.36s-.18-.92-.43-1.26-.8-.55-1.13-.88a13.33,13.33,0,0,0-1.05-1.33,10.76,10.76,0,0,0-1.65-.89s0-.1,0-.16,0-.36-.1-.45c-.36-.29-.81-.51-1.17-.8s-.56-.68-1-.89a2.76,2.76,0,0,0-1.27.56c-.84.56-1.78,1.31-2.84,2.11,0,.18.08.38.13.63l-1.92.9-.92,1.21.39.5-.4.32a2.39,2.39,0,0,1-1.75-1.75l1.41-.53c1-1.41-1-.4-.11-1.68,1.6-.33,2,.33,3.46,0,1.22-1.33.72-1.33.29-1.38,2.4-1.57,2.69-1.85,2.25-2.22s-1.07-.82-1.63-1.21c-.08-.06-.24-.12-.5.05-1.63,1.07-2.24,1.35-.59-.25.08-.08.12-.16.09-.17a1.59,1.59,0,0,0-.7-.46c-.27-.06-.37,0-1.08.65l.81,0c-1.61,1.46-2.22,1.81-2.51,1.51s-.75-.35-.83-.74.25-1,.43-1.51a7.88,7.88,0,0,1,.38-.71c-1.33,1.1-1.54,1-1.54.8,0-.48,0-1,0-1.49l-.8.81-.33.23c.21-.48.42-1,.62-1.44a8.16,8.16,0,0,1-.73.49,3.66,3.66,0,0,1-.56-.64c1.39-.68.81.19,1.26.19l.83-1,.25.32.54-.44a2.15,2.15,0,0,0-.43-.21c-.16,0-1,.43.06-.51.08-.06.09-.14.06-.16-.34-.2-.7-.39-1-.6-.53-.31-1-.63-1.56-1a4.43,4.43,0,0,1-.95-.57c-.29-.3-.4-.75-.7-1a16,16,0,0,0-1.67-1.36c-.61-.44-1.35-.77-1.9-1.26s-1.17-1.32-1.8-1.94c-.21-.22-.62-.27-.86-.46-.4-.32-.59-.8-1.12-1-.72-.27-.71-1.11-1.58-1.27-.64-.11-.57-.82-1-1.13-.77-.59-1.67-1.08-2.48-1.65-.13-.1,0-.44-.1-.54-.6-.48-1.29-.88-1.86-1.37-.16-.14.06-.59-.07-.76a14.76,14.76,0,0,0-1.37-1.37c-.78-.73-1.54-1.47-2.37-2.16-.65-.53-1.39-1-2.09-1.49-.47-.33-.93-.67-1.42-1-.12-.08-.42,0-.5-.13a5.82,5.82,0,0,1-.78-1.46c-.15-.49-1.43-.07-1.05-1,0-.08-.2,0-.27,0s-.46,0-.53-.18c-.22-.44-.22-1.05-.56-1.39s-1.11-.29-1.45-.61c-.84-.78-1.55-1.68-2.32-2.52-.55-.61-1.13-1.19-1.69-1.8s-.92-1.05-1.41-1.55a11.76,11.76,0,0,0-1.15-.94c-.39-.29-1-.38-1.14-.89s-.51-.68-.84-1-.77-.55-1.13-.85a7.51,7.51,0,0,1-.94-.93c-.24-.29-.32-.71-.6-1s-.87-.17-1-.5a3.5,3.5,0,0,0-1.54-1.79,9.53,9.53,0,0,1-1.59-1.27c-.24-.24-.25-.65-.46-.91a8.35,8.35,0,0,0-1.28-1.38c-.4-.33-1-.49-1.41-.83a9.17,9.17,0,0,1-.91-1.3c-.54-.68-1.1-1.34-1.66-2a.2.2,0,0,0-.14-.09c-.36-.05-.88,0-1.09-.14a9.8,9.8,0,0,1-1.15-1.34c-.1-.12-.55,0-.3-.38.9-1.25-.29-.89-.42-1.34-.23-.79-1.21-1-1.82-1.51-.14-.11-.11-.36-.05-.64s.46-.81.38-1-.58-.19-.75-.39c-.44-.51-.79-1.09-1.19-1.63-.15-.21-.39-.35-.52-.58a12,12,0,0,0-.78-1.56c-.33-.43-.91-.66-1.27-1.06-.58-.65-1-1.44-1.61-2.05a6,6,0,0,1-.78-1.09,2.43,2.43,0,0,1-.61-1.13c0-.65-.82-.76-1.19-1.18s0-1-.52-1-.66-.49-1-.68c-.77-.4-.63-1.52-1.09-2.18s-1.2-.94-1.71-1.48a34.77,34.77,0,0,1-2.44-2.86c-.64-.82-1.19-1.72-1.76-2.6-.06-.1,0-.33.07-.58-.1,0-.39.06-.46,0-.18-.27-.19-.67-.41-.9-.42-.44-1-.76-1.42-1.18-.6-.57-1.14-1.2-1.71-1.79a4.8,4.8,0,0,1-.69-.66,10.57,10.57,0,0,0-.6-1.27c-.26-.31-.75-.43-1.08-.68a14.74,14.74,0,0,1-1.24-1.12c-.15-.16-.13-.44-.33-.56-.7-.43-1.46-.81-2.19-1.21-.52-.29-1-.6-1.55-.88-.33-.17-.88-.18-1.06-.46s0-1.12-.37-1.42a12.83,12.83,0,0,0-2.24-1.19c-.31-.17-.45-.47-.85-.56-.91-.19-1.94-.29-2.9-.45a.89.89,0,0,1-.5-.21c-.15-.14,0-.52-.36-.48a10.22,10.22,0,0,0-2.87.58,22.23,22.23,0,0,0-3.81,1.88c-1.84,1.1-4.1,2.74-5,2.71a2.47,2.47,0,0,0-.78.12,7.74,7.74,0,0,0-.81.38c.7.5.7.5.28,1l-.41.28c.12-.25.23-.49.36-.75l-4.32,3c-1.4,1-2.8,2-4.38,3.13l-.37.38-2.7,1.4c-.84.43-1.3.53-.82-.15a3,3,0,0,0-1.58,1.47l-.69-.06-.54.42c0,.56-.06,1.13-.1,1.81-.84.53-1.76,1.17-2.41,1.51a7.89,7.89,0,0,1-1.51.53c-.61,1.17.78.79-.49,2.37-.27,0-.38-.31-.84,0a4.16,4.16,0,0,1-1.9.81,12.41,12.41,0,0,0-1.06.65,13,13,0,0,1-1.5.78c-.38.14-.5,0-.87,0-.39.48-.65.76-.74.91-.39.74-.77,1.47-1.09,2.16-.51,1.12-.34,1.71.11,2.12s1,.81-1.64,3.36a12.89,12.89,0,0,0-2.16,2.56c-.19.27-.15.4-.37.69-.48.65,0,.45.8,0a1.39,1.39,0,0,1,.8-.27c.47.21-.26,1.35.52,1.35.47,0,.33.54.29,1a7.67,7.67,0,0,1-.43,1.35,1.23,1.23,0,0,0-.11.44c0,.51.13,1,.15,1.5,0,.29-.18.73-.12,1a6.47,6.47,0,0,0,.54,1.16c.33.71.6,1.46,1,2.13a7,7,0,0,0,.93,1,12.26,12.26,0,0,0,1,1.18c.16.15.66,0,.8.21s.08.84.39,1c.68.44.08,1.87,1.25,1.92.38,0,.38.36.52.57.45.65.56,1.56,1.12,2.12s.58,1.89,2,1.93a2.39,2.39,0,0,1,1.91,1.1,7.8,7.8,0,0,1,1.13,2c.29.63.48,1.35.75,2s.57,1.13.88,1.68a1.33,1.33,0,0,0,.35.43,6.7,6.7,0,0,1,1.05.72c.19.21.08.66.26.88.4.53.91,1,1.35,1.47s.71.88,1.08,1.3c.1.13.34.14.37.32.11.65.1,1.39.26,2,.07.28.51.27.67.49s.19.72.4,1a8.13,8.13,0,0,0,1.19,1.3c.13.12.51,0,.65.15s.28.44.44.64a12,12,0,0,1,1,1.31c.29.49.37,1.13.68,1.6s.78.53,1,.89.2.84.43,1.16a1.48,1.48,0,0,0,.89.48c.8.19-.11,1.74,1.61,1.19.19-.06.11.12.17.18.27.26.55.51.81.78a2.4,2.4,0,0,1,.38.56c.22.46.38,1,.64,1.41a8.18,8.18,0,0,0,.84,1,3.11,3.11,0,0,0,.53.62c.21.15.58.19.77.36.49.42.91.9,1.37,1.34s1.07.94,1.56,1.45.75,1,1.18,1.42c.27.27.71.39,1,.66a19.28,19.28,0,0,0,1.91,2c.25.19.84.09-.2,1.08a3.17,3.17,0,0,1,1,.06c.23.13.23.44.41.61.65.66,1.33,1.29,2,2,.15.15.22.37.4.5a9.51,9.51,0,0,1,.9.48c.09.09-.27.55-.16.62a11.67,11.67,0,0,0,1.24.56,1.25,1.25,0,0,1,.64.55c.18.41.15,1,.35,1.37s.62.72.87,1.13.45,1.21,2.24.51c-1.21,1.31-.9,1.79.71,1.07-1.23,1.21-.12.47.44.14-.18.37-.54.85-.44,1,.22.29.67.39.72.83s.8.4.89.83.29.31,1.56-.61a1,1,0,0,1,.3-.11l-1,.84c-.08.22-.14.43-.24.66-.17.41-.1.54,1.23-.63.06.08.24,0,.13.2-1,1.36.58.76.07,1.72,0,0,0,0,.06,0,.3.2,1.51-.32.77.72-.09.12,0,.13.18.09,1.25-.38.7.73,1.89.43.65-.16.15.73.16,1a8.31,8.31,0,0,1,1.11-.51c.12,0-.09.28-.16.43s.11.42.55.29.53-.11.12.38c-.22.26-.22.42-.14.48a6.31,6.31,0,0,0,.94.46c.15.07.09.38.5.17,1.39-.71.95,0,.6.64l1-.61c-1.3,1.23-1.13,1.34-.18.8-.13.28-.35.58-.31.68s.32.21.51.29a8.14,8.14,0,0,0,.87.31c.12,0,.46-.09.38.07-.42.89.1,1,1.63.25.83-.41,1.14-.38.5.44l-1.15.56c.08.33.47.38.8.48s.7.15.83.39,0,.8.09,1.09.89-.11.64.28c-.51.83.46.37.84.4-.14.43-.23.82,0,1s1.21.12,1.15.67.41.5.91.51c0,0-.06.15-.15.25-.6.7-.6.7,0,.34.33.25.6.46.89.65.05,0,.31-.05.21.06-.8.92-.13.74-.09,1,.1.58.92.51,2.33,0,.55-.2,1.19-.33.52.37l.07.71C801.46,562.74,801.5,562.81,800.27,564.35ZM859.65,536c-1.44.79-1.71.55-.55-.69-1.21.9-2.35,1.38-2.29,1a3.85,3.85,0,0,1,2.29-1Zm12.41,10.43c0,.17.17.25.33.45-.89.4-1.54.74-2,.89-.18.06-.71.2.45-.65l-1.25.31a5.28,5.28,0,0,1,1.77-1.27c.67-.22.33.2-.44.94C871.58,546.53,872,546.22,872.06,546.44Zm-70.81,12.88a4.84,4.84,0,0,1-.66.6c-.24.15-.53.26-.53.19a4.73,4.73,0,0,1,.27-.86l1.4-.51.91-.7,1,1.23c-.54.11-1.16.37-1.22.2s.37-.73-.56-.25c-.34.18-.07-.31-.08-.5A6.1,6.1,0,0,1,801.25,559.32Zm94.41,4.18,1.77-1.45-.82,1.63c1.35-1,1.1-.5,1.14-.26a3.09,3.09,0,0,0,.37.87s.08,0,.19,0c.33-.14,1-.52,1-.43a2.38,2.38,0,0,1-.31,1.41c-2,1-1-.31-1.58-.46s-.55-.73-.79-1.13Zm-23.43,1.9a3.11,3.11,0,0,1-.66-.24c.38-.28.94-.72,1.38-1,.16-.1.07.18,0,.32a4.88,4.88,0,0,1-.18.54l.94-.77,1.67-.36c.09,0,.2,0,.17,0-.56,1.16,1.21.4,1.82.59.19.06.26.24.56.21,1.15-.12.91.87,1.48,1.21.38.23,1.17.13.33,1.33l-2-.72-.72.54c.6-1.45-.35-1.53-3.28,0,0,0,1.36-1.21-.2-.09-.3.22-.81.37-.77.23a8.21,8.21,0,0,1,.75-1.27l-1,.7.32-.66c.08-.15.32-.48.18-.42-.7.28-.45-.17-.28-.56A5.8,5.8,0,0,1,872.23,565.4ZM887.9,561a2.83,2.83,0,0,1,.78.94.56.56,0,0,1,.08.24c-.58.68-1.84,1.23-1.9,1.67,0,.06,1.15-.74,1.77-1.14l.48-.46.75.34-.37.34-1.31.52c0,.18,0,.3,0,.43l-.24.2a12.76,12.76,0,0,1-2.08.37,8.07,8.07,0,0,1-2.06-.42c-.08,0,.29-.41.38-.59s.25-.54.37-.83l.32,0,1.87-1.37-2.28.9-1,1c.36-.88-.7-.55-.94-.87s-.89-.34-1.37-.5l1.29-.9-1.71-1.16.89-.75-1.48.45.86-.81c-.66-.23-2.3.38-2.2-.46l.49-.42c.55,0,1.08-.08,1.68-.18a10.5,10.5,0,0,0,1.22-.43c.33-.73-1.14,0,0-1.22.53.29,1,.57,1.53.81.15.07.6-.11.68,0s-.15.53-.1.69.3.2.54.34c-.69.93-.14,1.46,1.46.75-1.52,1.17-1.08,1.08-.8,1.13a1.2,1.2,0,0,1,.55.32.87.87,0,0,1,.32.31c.17.33.29.68.44,1C887.15,561.15,887.73,560.92,887.9,561Zm-15.19-11.34-.59.45c0,.18-.16.46,0,.52a4.27,4.27,0,0,0,1.17.22,5.23,5.23,0,0,0,1.32,0,5.57,5.57,0,0,0,.85-.48l.56.71-1.22.61c-.44.66-.17,1.25.44,1.16a.35.35,0,0,1,.4.16c.15.22.33.4,1.71-.49a5.72,5.72,0,0,1,1.3-.53l-1.79,1.4a11.75,11.75,0,0,1,1.95-.48,1.29,1.29,0,0,1,.9.43c.53.38.76,1,1.6,1.1.45.06,0,.74.28.91.06,0-.53.6-.71.8-.51,0-1,.12-1.36.12s-1-.06-1.44-.09a2.86,2.86,0,0,1-2.54-1.21c-.13-.24.15-.8-.65-.54-.42.14.06-.55-.14-.65a20.67,20.67,0,0,0-2.05-.76c-.06,0,0-.17,0-.29.87-.58,1.16-.32,2.44-1.55l-2.9,1.22c1-1.29-.92-.48-1-1.1,0-.11-.59.21-1.13.42.42-.4,1.06-1,1.62-1.55a7.41,7.41,0,0,0,1.15-1.24c0-.16-.47-.07-1,.24-.73.44-.92.48-1,.34s-.55,0-.83,0H869l.89-.72c0-.16,0-.32,0-.48a15.5,15.5,0,0,0,1.43-.7c1.13-.66,1.58-.71,1.75-.51.63.7,1.24,1.43,1.87,2.13.09.1.37.06.4.2a2.88,2.88,0,0,1-.19.85Zm20.17,20c0,.2,0,.27-.09.42s-.29.41-.44.63a6.45,6.45,0,0,1-.73.33c-.7.06,0-.91.62-1.75.09-.13.65-.56,1-.9a1.72,1.72,0,0,0-.62-.14,2.2,2.2,0,0,0-.81.37,9,9,0,0,0-.83.82c-.37.1-.81.24-1.21.34-.13,0-.26,0-.16-.1.79-.93,0-.67-.24-.79a11.55,11.55,0,0,1-1.72-1c-.05,0,0-.15-.08-.14-.9.07-.6-.81-1.24-.94-.3-.07-.34-.35-.3-.68a8.61,8.61,0,0,1,1-1.08c1.56-.85,1.45-.21,2.14-.26.36-.33.67-.62,1-.9a3.08,3.08,0,0,1,.81-.18,2.87,2.87,0,0,1,.77.37c-1.47,1.28.39.25,0,.87l-1.24.8a5.73,5.73,0,0,0,.79-.33c1-.72,1-.56,1-.38s.17.16.23.27c.25.48.24.49,2.56-1.21.06.15.12.32.19.48l-.5.39c0-.07,0-.21-.1-.18a7.61,7.61,0,0,0-.81.34,2.3,2.3,0,0,1-.19.39c-.59,1,.16.87.37,1.2a5,5,0,0,1,.39,1l-.57.46a3.17,3.17,0,0,1,.86-.15c.18,0,.15.29.21.45ZM857.21,533c-1.27,1-1.67,1.17-1.83,1a15.53,15.53,0,0,0-1.68-1.15c-.59-.49-1-1.1-1.63-1.6a8.81,8.81,0,0,0-1.14-.62c-.46-.29-.86-.62-1.31-.92s-1-.57-1.44-.9a3.16,3.16,0,0,1-.75-.8,4.51,4.51,0,0,1,.49-.52c.2-.07.53-.24.59-.2.42.27.37,1,1.29.78s.91.42,1.35.63a18.69,18.69,0,0,1,2.92,1.76c.11.08.51,0-.5,1-.75.69.19.46,1.22-.23Zm-42.06,8.79c0,.34-.08.65-.12,1l-.44.33c-1-.75-2.06-1.44-2.05-3-1,.71-.7.16-.73-.06s.16-.38.27-.6a8.25,8.25,0,0,1,1-1.54l3.29,2.9Zm-4.42-4.83a6.51,6.51,0,0,0-1.43.62l.73-.68L808.27,538c.43-.44.76-.78,1-1.08s.56-.62.48-.63c-.68-.07,0-1.27-1.49-.67-.51.2-.1-.5-.12-.83-.46.39-.82.68-1.31,1.08l1-1.27-.39.23c-.17.21-.34.42-.5.64l-.36.27c-.22-.78-2.26-.12-1.13-2,1.75-1.33,1.7-1.29,1.29-.48a3,3,0,0,0-.24,1.1l1.11-1.2c.19.06.42,0,.45.17a2,2,0,0,0,1.88,1.6c.49.07.61.45.86.71a13.29,13.29,0,0,1,1,1.22c.09.11.05.32-.06.57a3.4,3.4,0,0,1-.49.52C811.15,537.57,811.06,537.15,810.73,536.93ZM847.91,543a7.16,7.16,0,0,1,1.31.91l-1.09.68,1.34.18c.69-.4,1,0,0,.91.11.32,1.36-.28.35.94-.35.07-.9.29-1,.19a5.25,5.25,0,0,1-1.33-1.37c-.19-.3,0-.91-.14-1.23s-.55-.16-.84-.24c0,0-.07,0-.11-.07l.37-.38A6.27,6.27,0,0,1,847.91,543Zm8.58,28.63.15,0-.66.71c2.26-1.3,2.74-1,3.28-.72l-1.67,1.19-.78,1.16c-1.89.49-2.59.14-2.29-1.05l1.05-.43Zm-39-27.84a1.16,1.16,0,0,0,0-.6c0-.1-.2-.1-.31-.14l-1.06.92c-.16.14-.35.28-.55.44.52-.72,1-1.41,1.67-2.33l3.22,2.67c-1.29.7-1-.12-2.94,1.23-.52,0-.54-.32.6-1.52.68-.73,0-.56-1.08.11A6.13,6.13,0,0,0,817.45,543.83Zm46.86-3.94c-.22.05-.49.16-.74.24l-.55.57.52-.1a3.19,3.19,0,0,1-.26.26,4.79,4.79,0,0,1-.82.48c-.36-.27-.62-.62-1-.91a4.72,4.72,0,0,0-.78-.39c.37-.27.73-.55.78-.57a22.21,22.21,0,0,1,2.21-.42c.18,0-.07.33-.14.55,1.06-.64,1.95-.71,1.41.17A5.77,5.77,0,0,0,864.31,539.89Zm-50.8,28c.38,0,.72,0,1,.07.13,0,.05.23.26.16.58-.19.35.16-.51.94l.58-.08-2.16,1.84c-.09,0-1.06.6.08-.43.11-.1.15-.24.07-.24-.64,0,.39-.7,1.67-1.59l-1.31.42c-.78.63-1.28,1.08-1.68,1.35-1.15.78-1.92.69-1.52-.21C811.64,569.75,812.12,569.45,813.51,567.87Zm45.58-28.82c.1-.2-.08-.22-.19-.28-.41-.24-.85-.46-1.28-.69a5.15,5.15,0,0,1-.79-.47c-.05,0,.09-.23.14-.36l.44-.32a13,13,0,0,0,1.67.82,3.81,3.81,0,0,0,1.06-.31c.69-.21,1.64-.65.66.48a2.33,2.33,0,0,0-.38.67C859.4,539.29,858.83,539.59,859.09,539.05Zm-13.22,71.27c1.81-1.15,2-1,2.42-.89l1.87-1.65.42,1.21a13,13,0,0,1-2.64,2.18c-.26.16-.34.08-.63.14l2.13-1.25-.56-.71L847.1,611Zm20.63-32.23c0,.08,0,.12,0,.24s-.32.4-.48.61a6.38,6.38,0,0,1-.91.49c-.35-.2-.7-.4-.78-.8a12.16,12.16,0,0,1,1.32-1.4l.51-.34,0,1.21.49-.38-.26-.19.28-.24,1.05-.14ZM831.3,528a4.31,4.31,0,0,1,1.06.07c.14,0,0,.3.16.31.44,0,1,0,1.47,0-1.67,1.47-1.67,1.48-2,1.27l-1.73-1,.39-.35A4.2,4.2,0,0,1,831.3,528Zm44,18.09c0-.09.1-.34.26-.58,0,0,.84-.61.84-.6a.76.76,0,0,1-.09.45c0,.09-.23.31-.21.34a3.46,3.46,0,0,0,.82,1c.17.11.8-.17,1-.11s-.31.46-.49.7l-.93.4C876.11,547.18,875.67,546.66,875.29,546.11Zm-17,45.93c-1.67.83-2.37.32-.94-1.2Zm42.16-25.24c-.88.44-1.17.18-.55-.59.47-.59.31-.62-.37-.28-1,.48-1.18.2-.52-.49C900.59,565,901.22,565.38,900.47,566.8Zm-47.7-.31-1.55,1.16-.6-.27c-1.46,1.22-1.46,1.22-1.67,1,.52-.43,1-.85,1.56-1.26s.94-.71,1.41-1.07a2.25,2.25,0,0,1-.06.49,2.83,2.83,0,0,1-.37.4Zm-18.37,2.27-1.12-.83.52-.42C835.51,566.74,835.45,567.36,834.4,568.76Zm21.13-33.64-.56.67c0-.4.09-.72.13-1l1.77-1.39.51.66Zm-35.35,11.42a9.68,9.68,0,0,1-1,.68,12.73,12.73,0,0,1,.22-1.46C821,545,821.23,545.49,820.18,546.54ZM803,530.92l.54-.45c-.32-.22-.64-.44-1-.65.21-.16.42-.32.62-.49l.77,1-1.61,1.46-.39-.5.26-.21Zm61.06,50.41-.17,0,1.7-2c.71-.47.71-.47,1.29.1C866,580.11,865.64,579.81,864.08,581.33Zm-37.93,2.88c1.5-.91,2.4-.73,1.91,0l-.45.36Zm46.54-43.53c.08,0-.14.31-.17.33-.43.31-.91.66-1.26.86-1,.56-1,.26-.58-.28a11.64,11.64,0,0,1,1-.91c.08,0,.23,0,.23.13a2.65,2.65,0,0,1-.21.49C872,541.09,872.41,540.83,872.69,540.68ZM826.4,562l-.93-1.18C826.64,560.11,827.09,560.7,826.4,562Zm10.44-45.49c.74-.47,1.51,0,1.2.79l-.36.28Zm15.36,55-.71-.91c.51-.22.4.26,1.85-1l-1.25,1.26.62,0,1.39-1.21.21-.05ZM843,522.16c1.09-.12,1.12,0,.13,1.2C843.1,522.93,841.24,523.91,843,522.16Zm9.64,43.8c-.07-.09.07-.36.12-.54l.43-.34a3.78,3.78,0,0,1,.86.72,7.28,7.28,0,0,1-.7.72A3.91,3.91,0,0,1,852.62,566Zm-48.57-31.9.62-.59c.51-.38,1.38-1.07,1.48-1.09.31,0,.47.06.36.33a13.94,13.94,0,0,1-1.33,1.2l-.29.11C805.31,533.48,806.57,532.28,804.05,534.06Zm11.67,7.43.48-.39,1.16.67-.58.47ZM828,562.42l-.52.42-.67-.86C828.84,560.87,827.21,562.62,828,562.42Zm42.67,59.13-.12.59-1.6,1.15c.15-.31.29-.61.44-.94Zm-45-115.25c-.12,0,.46-.59.72-.91l.49-.31.39.49A15.79,15.79,0,0,1,825.7,506.3Zm-12.19,41.08v1l-.28.22-.57-.72Zm26.08,41.13c.13,0-.05.24-.08.37a5.86,5.86,0,0,1-.88.5c-.21,0-.26-.24-.36-.38l.23-.17A7,7,0,0,1,839.59,588.51ZM822.23,541l.63-.48c.1.23.21.47.32.7l-.49.37Zm26.45,22.7-.65.54-.71-.21.75-.62Zm29.17-15.38.85-1,.36-.26.33.87C878.05,548.69,880.23,546.56,877.85,548.36ZM841.57,538c1.62-1,1.79-.94,1.08,0Zm-21.44,33.09-.62.61-1.55.57.4-.4Zm17.32-16.46.39-.36,1.54-.56-1.71,1.2ZM846,613.16c-.11,0,.12-.25.2-.38a6.17,6.17,0,0,1,.79-.5,4.18,4.18,0,0,1,.79.18l-.12.13C847.12,612.79,846.52,613,846,613.16Zm40.59-39.67-1.18.16.42-.38C887.11,572.48,886.58,573.22,886.61,573.49ZM873.1,618.91l.39-.37c.22-.09.55-.28.62-.24s.25.27.36.41l-.28.23Zm4.83-67.61-.56.45-.61-.42C876.33,551.89,878.63,550.37,877.93,551.3Zm-15.52,25.94c-1,1-1.61,1.42-2.32,1.48ZM881.27,576c1.41-1.19,1.66-1.31,2.15-1Zm-28.94,11.67,1.44-1.24c0,.19.05.29.07.39l-.46.44Zm15.94-39.09.57-.48.83.17-.57.46ZM820,547.63l.4.52C819.54,548.56,818.75,548.9,820,547.63ZM797.2,526.74l.91-1.19.36.45-.38.35Zm29.27-.53.78-.83.9-.34-.51.53Zm-3.64,49.53-1.28.51.42-.4C822.82,575.27,822.82,575.27,822.83,575.74Zm18.73-19.27.45-.36.91-.28-1.69,1.46C841.38,556.93,841.47,556.7,841.56,556.47Zm17.52,57.39.46-.42c1.15-.79.67-.08.88,0ZM882,592a7.72,7.72,0,0,1,.55-.59l.9-.32-.54.53C882.54,591.77,882.2,591.93,882,592Zm-50.53-.75.59-.49.67.13-.6.51Zm37.69,27.43-.93.76a.8.8,0,0,1-.44-.1l.69-.57Zm-50-63.13.49-.41.81,0-.6.5Z"/><path class="cls-2" d="M909.49,589.61c-1.18.67-1.88.88-1.83.46.1-.77-.76-.76-1.25-1.06-.28-.17-.28-.55-.44-.81-.05-.07-.27,0-.34-.06a1.56,1.56,0,0,1-.28-.38c0-.06,0-.27-.11-.18-1.35.81-.74,0-1-.1s-1-.06-.74-.73c.06-.16-.52.15-.76.21-.78.18-1.13,0-1-.5,0-.27-.59-.05-.84-.05.34-.45.57-.81.92-1.22s.6-.62.91-.94c.29-.12.76-.39.83-.34a3,3,0,0,1,.59.68.27.27,0,0,0,.26.12c.42,0,1.06-.24.59.44-.07.1.07.08.17.07.69-.1,1.46-.27,2.07-.29a1.12,1.12,0,0,1,.76.28c.54.36,1.25.58,1.49,1.16.17.4-.41,1.37-.51,2,0,.3.27.34.36.54a4.25,4.25,0,0,1,.16.76Z"/><path class="cls-2" d="M887.67,594.8c1.41-.61,1.56,0,3.74-1.4.12-.07.29-.15.27-.11-.63,1,1.57-.4,1.29.27l3.79-3c-.52.83-1.06,1.3-3.09,2.66-1.07,1.23,0,.85.25,1.08s1.07-.06,1.44,0,.41.35.47.63c0,.07-.43.51-.66.78a4.28,4.28,0,0,1-.55.2,6.91,6.91,0,0,1-1.8.3c-.59-.1-.85-.47-1.34-.64a3.93,3.93,0,0,0-1,.17c-.38.05-.89.21-1.07.1s-.47-.2-1.85.87a9.73,9.73,0,0,1-.85.52l1-1.15c-.8.12-2.87,1.37-2.43.38,0-.11-.29,0-.51.13-1,.38-.94-.17.22-1.22.46,0,2.22-1.06,1.48,0C886.48,595.49,887.27,595,887.67,594.8Z"/><path class="cls-2" d="M903.16,590.86a2.45,2.45,0,0,1-.63.11c-.74-.2-1.44-.43-2.18-.63a1.58,1.58,0,0,0-.85-.09c-.84.14-.76-.4,0-1.43l-1.53,1c.08-.32.17-.66.25-1l-1.25.74,1-1.07c0-.09.08-.34-.1-.37a1.63,1.63,0,0,0-.95.35c-.83.53-1,.52-.6,0s.9-1,1.36-1.57c.33,0,.89-.24.93-.06.11.48.78.46,1.68.27.16,0,.22.07.06.26-.5.62-.32.68.33.38.07,0,.19-.1.17-.07-.42.74.16.68.69.66a.67.67,0,0,1,.41.14,15,15,0,0,1,1.66,1.11c.19.16.11.53.16.8Z"/><path class="cls-2" d="M914.26,609.18a28.37,28.37,0,0,1,.25,12.68,3.6,3.6,0,0,1-.64-.84,7.06,7.06,0,0,1-.1-1.16c0-.37-.18-.69-.21-1.09a6.16,6.16,0,0,1,.08-1.18l.24-8.12Z"/><path class="cls-2" d="M902.75,574.08c.38-.32.73-.61,1.35-1.15-1.57,1.08-1.91,1.11-1.33.34,1.4-.77,2.54-1,2.06-.46,1.69-1.17,1.48-.66,1.5-.3s.38.73.62,1.06a13.13,13.13,0,0,0,.87,1.1s.3-.08.32,0,.13.21-.07.4a8.35,8.35,0,0,1-1.29,1c-.87.48-1.68.9-1,0s.32-.92-.48-.55c-1.35.62-1.08,0-1-.5,0-.14-.23-.09-.34-.14a6.62,6.62,0,0,1-.8-.37C902.92,574.38,902.86,574.22,902.75,574.08Z"/><path class="cls-2" d="M909.45,589.64c.84.07,1.71.11,2.51.22.22,0,.3.2.29.41s-.42.48-.57.65l1.13-.11-.36.33-1,.59,1.18.34c.05,0,.12,0,.07.1-.61,1.07-.17,1.31.76,1.17.15,0,0,.18,0,.37-1.91.86-2,.28-2.07-.23s-1-.45-1.19-1c-.08-.29-.52-.3-.66-.54s.35-.51.6-.86c-1.24.45-1.15-.29-1.57-.6a7,7,0,0,1,.83-.9Z"/><path class="cls-2" d="M843.21,605.38a1.24,1.24,0,0,0,.36-.1c1.5-.73,1.63-.65.7.58-1.64.87-3.49,2-4,1.69s-.29-.87,0-1.66l.87-.22,2.23-2c.54,0,1.24-.15,1.44.09a15.54,15.54,0,0,1-1.63,1.71c.09-.29.46-.81-.64-.1a3.94,3.94,0,0,0-.62.57C841.64,606.41,842.52,605.81,843.21,605.38Z"/><path class="cls-2" d="M922.05,581.9c1.69.83,3.23,1.78,3.44,3.78-1.37.88-1.59.87-.94.05.17-.22.23-.41.09-.4a14.73,14.73,0,0,0-1.48.29c.6-.61,1.22-1.17.19-.68-.57.28-.65-.07-.45-.48.34-.74.06-.9-.69-.8s-.69-.62-.94-1c0,0,.23-.3.35-.45Z"/><path class="cls-2" d="M916,585.34l2.45-1.88c.45.27.91.55,1.35.85.06,0-.06.22,0,.28s.23.38.33.58a1.54,1.54,0,0,1,.11.3,12.3,12.3,0,0,1-1.36.84,1.38,1.38,0,0,1-.84-.18c-.27-.09-.5-.21-.76-.31Z"/><path class="cls-2" d="M926.41,587.75c.08.1.2.18.23.32s0,.65.15.86.78,0,.74.33c-.08.7.59.82.53,1.47,0,.4.36.48,0,1.11a2.57,2.57,0,0,0-.23.82l-.46.34a2.8,2.8,0,0,0-.24-.69c-.23-.32-.66-.48-.75-.9a8.24,8.24,0,0,1,.19-1.62c0-.08-.46.2-.51.15a1.13,1.13,0,0,1-.42-.72,5.1,5.1,0,0,1,.35-1.16Z"/><path class="cls-2" d="M890.14,554.69l3.11,1.72c-.29.2-.81.57-.81.55,0-.27-1,.32-1.16.22-.59-.38-2.13,0-2.19-.78a4.62,4.62,0,0,1,.27-1.12Z"/><path class="cls-2" d="M909.93,577.07a9.52,9.52,0,0,1-1.67.5.77.77,0,0,1-.76-.42c0-.08.33-.58.6-.79A15.9,15.9,0,0,1,910,575a7.67,7.67,0,0,1,1.43-.55c.42-.34.88-.75,1.32-1.07a3.11,3.11,0,0,1,.8-.42c.11,0,0,.19-.09.28-.27.23-.61.44-.92.67-.54.41-1.35,1-1.58,1.2a1.33,1.33,0,0,0-.41.81c0,.22.08.33.14.49Z"/><path class="cls-2" d="M875.28,592.33l-.95.93s0,.09,0,.08c.74-.18,1.29-.23,1,.46-.15.35.48.16.82.23-.37.23-.79.54-.85.54-.73,0-1.72.17-2-.18s-.72-.52-1.89-.1c-.16.05-.1-.1-.14-.15a8.21,8.21,0,0,1,.73-.5c1.06-.45,2.08-.85,3.12-1.26C875.12,592.35,875.15,592.36,875.28,592.33Z"/><path class="cls-2" d="M871.15,624.36c0,.18-.15.47,0,.5a5.5,5.5,0,0,0,1.28,0c.08,0,.4-.2.4-.15,0,.31-.06.7,0,1s.24.34.37.51l-.42.37L871,627l.41-.38.56-.25c-.2-.7-.82-1.07-2.84-.31,0,.13,0,.22,0,.31l-.47.34c.22-.62.45-1.25.69-1.9.77-.3.14.67,1.83-.5Z"/><path class="cls-2" d="M916.72,580.15l1-.37.77-1.19h.72l-1.26,1,.24-.13c-.38.44-.78.88-1.12,1.3-.13.16-.25.34-.18.34a2,2,0,0,0,.61-.35c2-1.56,2.71-1.89,2.72-1.33a4.14,4.14,0,0,1-.07.45l-.4.35-1.2.29-.72.19-1.27,1.18.25,0a3.26,3.26,0,0,1-.74-.09c-.18-.08-.18-.32-.41-.36S915.52,581.13,916.72,580.15Z"/><path class="cls-2" d="M914.42,578.83c.22.27,1.29-.13,0,1.26-.52.57-.47.74.29.35,1.66-.85,1.66-.79.4.79,0-.21-.06-.33-.09-.48-1.21.8-1.88,1.08-1.7.51.06-.19-.49,0-.89.19-.67.27-1,.35.17-.73C913.27,580.12,913.71,579.58,914.42,578.83Z"/><path class="cls-2" d="M837.85,598.35a10.56,10.56,0,0,1-1.93.95c-.35-.27-2.91,1.36-2,0,.44.18,1.34-.18,2.24-1a2.27,2.27,0,0,0,.54-.75l-1.9,1.1c.89-.68,1.37-1,1.7-1.3.88-.79,1.63-1.25,1.47-.91-.38.79.21.82.28,1.24C838.26,597.83,838.06,598.05,837.85,598.35Z"/><path class="cls-2" d="M896.07,559.39c-1.62,1.36-2.05,1.6-2.19,1.31s-.45-.44-.53-.77a2.47,2.47,0,0,1,.41-1.48c.27-.08.69-.28.79-.22C895.09,558.58,895.56,559,896.07,559.39Z"/><path class="cls-2" d="M886.15,552.75c2-.83,3-.47,2.48.79-1.54.87-1.58.47-1.63.06,0-.1.09-.33-.1-.22C885.33,554.23,885.93,553.38,886.15,552.75Z"/><path class="cls-2" d="M891.29,592.47l2.48-1.64c-1,1.18.48.43,1.2.26.48-.11.11.52-.84,1.26a4,4,0,0,1-.63.41c-.32-.07-.68-.11-.8-.34s.08-.44-.88.19S890.82,593.06,891.29,592.47Z"/><path class="cls-2" d="M902,627.53c-.22-.8-.44-1.58-.63-2.4,0-.07.19-.31.4-.66.73,0,1.47-.21.57.93-.12.15.11.09.14.15a9.72,9.72,0,0,1,.48,1.09c0,.05-.26.32-.4.49Z"/><path class="cls-2" d="M851.19,618l.82-.14.52-.45-2.37.19c3.42-1.93,2.69-.26,4.28-.6a4.13,4.13,0,0,1-1.93,1.25,4.78,4.78,0,0,1-1.47-.12Z"/><path class="cls-2" d="M903.54,566.4c.36.25.7.51,1.08.75.18.11.5.11.61.29s-.26.44-.41.67-.73.36-.81.31c-.33-.19-.44-.56-1.19-.43-.47.08,0-.69.07-1.09Z"/><path class="cls-2" d="M892.49,600.89a9,9,0,0,0-1.07.25c-.32.1-.9.43-1.12.45s.21-.38.41-.72c-1.16.59-1.83.64-1.62-.11,2.93-1.47,2.57-.17,3.71-.16Z"/><path class="cls-2" d="M914.87,583.91l1.66-1,.44-.94c1.31-.55,1.07-.13-.44,1.15a5.59,5.59,0,0,1,.15.94,6.39,6.39,0,0,1-.57.55Z"/><path class="cls-2" d="M909.28,597.12a5.84,5.84,0,0,1,1.47.38c.15.09-.16.56-.26.86l-.5.36-.63-.81C908.52,598.33,908.35,598.1,909.28,597.12Z"/><path class="cls-2" d="M889.29,631c-1.84,1.38-1.84,1-1.86.76s0-.63-.93-.21c-.21.1-.23,0-.44,0,.92-.47,1.62-.85,2.17-1.08.25-.1.2.1.3.15Z"/><path class="cls-2" d="M916.4,576.21a1.72,1.72,0,0,1,.53-.09,3.12,3.12,0,0,1,.83.45c.07,0,0,.21-.1.41a5.63,5.63,0,0,1-.73.58c-.22.08-.39.1-.45,0a9.72,9.72,0,0,1-.7-.86Z"/><path class="cls-2" d="M913.92,595.33c-.37.14-.95.44-1.08.37a2.81,2.81,0,0,1-.71-.82l.49-.41,2-.93c-1.4,1.18-1.19,1.24-.65,1.09a2.36,2.36,0,0,1,.73,0Z"/><path class="cls-2" d="M892.64,605.79a2.75,2.75,0,0,1,1.53-1.15c.24-.22.48-.45,1-1l1.67.49-.34.28c-.32-.1-.64-.19-1-.31l-.84.85-2.06.82Z"/><path class="cls-2" d="M858,587.7a10.13,10.13,0,0,1-1.24.76c-.38,0-.81,0-.71-.41a2.49,2.49,0,0,1,1.29-.93,3.82,3.82,0,0,1,1,.26Z"/><path class="cls-2" d="M879.6,596.76l.71-.16-.33.3-1.77.64c2.2-2.25-.9-.15-1.28-.31,1-.51,2.3-1.47,2.36-1.08,0,.11.32,0,.63-.11C880.63,595.71,880.47,596,879.6,596.76Z"/><path class="cls-2" d="M857.11,621.17a16,16,0,0,1,1.67.32c.08,0-.25.38-.39.59a2.36,2.36,0,0,1-.51.11,6.07,6.07,0,0,1-1.18-.11c-.18,0-.2-.22-.29-.34Z"/><path class="cls-2" d="M875.35,588.57a1.38,1.38,0,0,1,.26-.39,4.88,4.88,0,0,1,.64-.49c.72-.44,1.64-.52,1.39-.11a2.72,2.72,0,0,1-.51.57,2.25,2.25,0,0,1-.63.35C876.09,588.55,875.75,588.55,875.35,588.57Z"/><path class="cls-2" d="M928.36,608.25c.22-1,.45-2,.67-3C930.14,604.76,929.58,607,928.36,608.25Z"/><path class="cls-2" d="M920.65,587.47l-1-1.3c.89,0,1.87-.09,1.62.83Z"/><path class="cls-2" d="M874.89,596.84l1.19-.55,1-1.22c.63,0,.32.52-1,1.79a4.49,4.49,0,0,1-.61.45,7.76,7.76,0,0,1-.91-.17Z"/><path class="cls-2" d="M855.28,616.43l-1.75-.13.4-.36,2.3-1-.27.29-.85.49.68.31Z"/><path class="cls-2" d="M909.7,596.59l-1.48.86c-.15-.2-.32-.41-.49-.62l.37-.31-1.05.62a1.64,1.64,0,0,1,.16-.18c1.09-.76,1.72-1.09,1.79-.79S909.45,596.46,909.7,596.59Z"/><path class="cls-2" d="M926.14,587.21c-2,1.23-1.14.1-1.34-.13a12.38,12.38,0,0,1,1.19-1.27C926.05,586.34,926.09,586.76,926.14,587.21Z"/><path class="cls-2" d="M892.6,605.81a2.85,2.85,0,0,1,.18.86c0,.09-.38.46-.49.59l-1.29-.77,1.64-.7Z"/><path class="cls-2" d="M911.85,600.11c-1,.14-2,.32-1.33-.91l1.85.48Z"/><path class="cls-2" d="M886.35,601.44l1.46.21C886,602.85,885.25,602.82,886.35,601.44Z"/><path class="cls-2" d="M811.14,572.05l.26.57-1.92,1.78c-.06-.09-.14-.18-.23-.3l1.22-.94-.2-.63.91-.5Z"/><path class="cls-2" d="M892.53,557.7c1.26-.48,1.54,0,.24,1.14l-.65-.82Z"/><path class="cls-2" d="M913.39,578.28c-2.62,1.92-2.75,2-3.37,1.58Z"/><path class="cls-2" d="M900.31,620.09l-.51-1.38C900.41,618.83,901.7,618.43,900.31,620.09Z"/><path class="cls-2" d="M888.31,593.66a2.48,2.48,0,0,1-.4-.56,3.54,3.54,0,0,1,.61-.57,3.39,3.39,0,0,1,.74-.41c.73-.23-.2.7-.46,1.17Z"/><path class="cls-2" d="M881.77,639.23l1.45.48C881.59,640.5,880.86,640.33,881.77,639.23Z"/><path class="cls-2" d="M879.45,635.82l-1-.17,1.22-1.4c.08.43.16.82.23,1.21Z"/><path class="cls-2" d="M867.34,534.69l1,.62C866.8,536.06,866.42,535.89,867.34,534.69Z"/><path class="cls-2" d="M902,578.28c1.75-1.33,2.46-1.55,1.71-.47Z"/><path class="cls-2" d="M854.21,619.23c1-.25,1.15.25,0,1.24-.15-.33-.28-.64-.41-1Z"/><path class="cls-2" d="M894.73,593c1-.94,1.27-1,1.38-.85a3.52,3.52,0,0,1,.24.38c-.46.17-.94.37-1.36.52C894.84,593.09,894.82,593,894.73,593Z"/><path class="cls-2" d="M908.09,569.22c-1.46.93-1.85.77-1.23-.29Z"/><path class="cls-2" d="M889.49,631.89c-.88.77-.88.77-1.06,0a5.12,5.12,0,0,1,.91-.38C889.52,631.54,889.45,631.75,889.49,631.89Z"/><path class="cls-2" d="M864.31,591.19l.73.43-.67.56c-.18,0-.46.06-.53,0s0-.38,0-.58Z"/><path class="cls-2" d="M901.13,599.78c1.27-.83,2-.92,2.21-.37Z"/><path class="cls-2" d="M906.13,568.93l-1.24-.18c2.1-1.34,1.05,0,1.76-.27Z"/><path class="cls-2" d="M902.53,584a7.74,7.74,0,0,1-1.29.53c-.08,0,.45-.53.7-.82a5.16,5.16,0,0,1,.92-.38C903,583.3,902.73,583.62,902.53,584Z"/><path class="cls-2" d="M858.66,618.63l1,.23c-1,.84-1,.84-1.45.13Z"/><path class="cls-2" d="M890.61,605.78l1.23-.23a14.35,14.35,0,0,1-1.14.9c-.36.2-.71.3-.72.19S890.35,606.12,890.61,605.78Z"/><path class="cls-2" d="M876.11,630.46l-.52-.66c1.56-.84,1.6-.35.49.68Z"/><path class="cls-2" d="M837.21,599.69l-2.3,1.18c.54-.47,1.11-1,1.81-1.61,0,.17-.05.35.08.37a3.55,3.55,0,0,0,.67-.2Z"/><path class="cls-2" d="M831.57,597.49l1.06-.36.56-.6-.67,1-.44.35-.71-.23Z"/><path class="cls-2" d="M876.08,630.48l1.13.19-1.32,1c.08-.41.16-.83.23-1.24Z"/><path class="cls-2" d="M920.85,581.85c-.57,0-.6-.15,0-.82l.41.52Z"/><path class="cls-2" d="M911.66,618.7l.58.34C911.07,619.91,911.07,619.91,911.66,618.7Z"/><path class="cls-2" d="M834.66,597.36c-1.32.72-.85,0-1.3,0l.37-.3Z"/><path class="cls-2" d="M830.13,592.86l0,0c-.27.18-.76.53-.78.52a2.38,2.38,0,0,1-.49-.56l.73-.58Z"/><path class="cls-2" d="M884.05,620.61l1.78-.44-.49.44-1.82.47Z"/><path class="cls-2" d="M885.84,603.37l2.31-1.87c-.1.37-.19.68-.28,1l-.54.42a2.35,2.35,0,0,1-.39.09C888.48,601.48,887.15,602.46,885.84,603.37Z"/><path class="cls-2" d="M842.46,603.18l-.42-.53.47-.37.43.54Z"/><path class="cls-2" d="M890.33,599.08c-1.25,1-1.91,1.37-1.83.83Z"/><path class="cls-2" d="M862.21,613.73l0,0a5.5,5.5,0,0,1-2.05,1.36l.83-.9Z"/><path class="cls-2" d="M897.09,635.64l-.56-.24C898.1,634.27,898.22,634.28,897.09,635.64Z"/><path class="cls-2" d="M892.79,610.07c.91-.68.91-.68,1.54-.59C893.4,610.16,893.4,610.16,892.79,610.07Z"/><path class="cls-2" d="M873,627.8c.56-.41,1-.76,1.3-.92.14-.07,0,.2-.09.36s-.22.4-.43.75Z"/><path class="cls-2" d="M914.87,596.18l-.33,1-.63.45c.08-.29.15-.58.22-.87Z"/><path class="cls-2" d="M865,626.14l-1.57.31.46-.4,1.54-.29Z"/><path class="cls-2" d="M901.87,577l.83,0C901.39,577.93,901.19,578,901.87,577Z"/><path class="cls-2" d="M901.82,573l1.25-.29-.72.62-.81-.1Z"/><path class="cls-2" d="M874.88,629.34l-.63-.8.31-.24.63.79Z"/><path class="cls-2" d="M885.12,631.29l-.38-.48.27-.23.7.24Z"/><path class="cls-2" d="M877.67,555.34c1.6-1.07,2.46-1.1,1.45.06C878.8,555.21,877.27,556.12,877.67,555.34Z"/><path class="cls-2" d="M890.65,564.77c-.89.61-2.11,1.59-1.86,1a8,8,0,0,1,.87-1Z"/></g></g></svg>